<svg width="96" height="56" viewBox="0 0 96 56" fill="none" xmlns="http://www.w3.org/2000/svg">
<g clip-path="url(#clip0_7454_26822)">
<path d="M68.7043 27.5025L67.9581 27.2869C67.4381 27.1368 67.0132 26.7626 66.7955 26.2659C66.4065 25.3738 65.9161 23.8983 66.2755 22.7378C66.8293 20.9452 67.8271 20.4358 69.5689 20.8268C71.3108 21.2179 72.2684 22.427 71.8202 24.3021C71.6574 24.9848 71.315 25.5175 71.315 25.5175L72.9786 26.7478L69.8923 29.3162L68.7043 27.5046V27.5025Z" fill="#FFB294"/>
<path d="M66.1681 23.3128L67.1658 24.3824L67.5654 25.3252L67.8994 25.6972L68.1023 26.2764C68.263 26.7373 68.7301 27.0121 69.2121 26.9317C69.7955 26.8366 70.5016 26.1707 71.4 25.693C71.4 25.693 71.9221 25.3717 71.9728 23.6552C72.0236 21.9387 70.9391 21.0932 70.4572 20.8987C69.9752 20.7042 67.428 19.8502 66.2907 21.1207C65.0287 22.5285 66.1702 23.3085 66.1702 23.3085L66.1681 23.3128Z" fill="black"/>
<path d="M67.692 24.5959C67.7808 24.5895 67.8696 24.6339 67.9309 24.6973C67.9943 24.7607 68.0366 24.8411 68.0725 24.9235C68.2099 25.2385 68.267 25.5894 68.2395 25.9318C68.2332 26.0206 68.2184 26.1115 68.1761 26.1897C68.1338 26.2679 68.0598 26.3356 67.971 26.344C67.8844 26.3546 67.7998 26.3102 67.7406 26.2468C67.6814 26.1834 67.6434 26.1052 67.6096 26.0249C67.4933 25.7543 67.0684 24.6403 67.692 24.5938V24.5959Z" fill="#FFB294"/>
<path d="M15.7958 52.3064C15.9036 52.7461 16.0136 53.2534 16.4342 53.9129C16.7217 54.3653 18.1972 55.0185 18.2205 55.8471V56.4242C18.2205 56.532 17.1889 57.4558 15.7958 56.8555C14.4028 56.2551 14.0075 55.306 14.0075 55.306L13.8384 55.0417L13.6333 55.0777L13.014 54.2786C12.9315 54.1729 12.8871 54.0419 12.8892 53.9066C12.8956 53.581 12.9273 52.9363 13.0816 52.3888C13.2972 51.6193 15.7958 52.3043 15.7958 52.3043V52.3064Z" fill="#054182"/>
<path d="M21.131 48.8899C21.2346 49.0865 22.1013 50.2829 22.3592 50.433C22.6171 50.5831 24.3821 51.268 24.416 52.0459C24.416 52.0459 24.4498 52.4645 24.416 52.568C24.3821 52.6716 23.9742 53.1346 23.4182 53.1768C22.8601 53.2191 21.4206 53.0458 20.482 52.1854L19.8542 51.7436L19.5646 51.8239C19.5646 51.8239 18.5309 51.5111 18.4041 51.3821C18.2772 51.2553 18.2836 49.56 18.6049 48.8856C18.9262 48.2113 21.131 48.8856 21.131 48.8856V48.8899Z" fill="#054182"/>
<path d="M17.6164 27.518V32.9739L18.4218 38.6962C17.8933 40.51 17.8172 42.4759 18.018 43.5096C18.1892 44.3805 18.3393 47.5069 18.3837 48.4687C18.3922 48.6484 18.3964 48.752 18.3964 48.752C18.297 50.0605 19.4808 50.162 19.4808 50.162C21.2945 50.3881 21.7237 49.2551 21.7237 49.2551C21.5715 48.046 21.6602 41.7867 22.0513 39.5291C22.2606 38.32 22.2944 38.1043 22.5798 35.3711C22.6728 34.4727 22.7087 33.5997 22.7003 32.771C22.6876 30.8875 22.4593 29.2281 22.2289 28.0126C21.9794 26.6936 21.7215 25.8945 21.7215 25.8945L17.6143 27.518H17.6164Z" fill="#0F60A4"/>
<g style="mix-blend-mode:multiply" opacity="0.5">
<path d="M21.2296 27.6606C20.9146 27.6542 20.5954 27.7198 20.2974 27.8255C19.4455 28.1256 18.7014 28.726 18.2279 29.4975C17.9446 29.9626 17.7607 30.472 17.6169 30.9984V32.9791L18.4223 38.7014C17.8939 40.5151 17.8178 42.481 18.0186 43.5147C18.1898 44.3857 18.3399 47.5121 18.3843 48.4739C18.4667 44.986 18.898 41.5213 19.3694 38.063C18.7436 34.406 21.7538 33.2772 21.2296 27.6606Z" fill="#1161A4"/>
</g>
<path d="M21.7531 27.7462C21.7531 27.7462 21.0639 32.5827 18.3243 34.2527C18.3138 35.4534 18.1383 37.1149 17.9121 38.4932C17.4492 41.275 17.4006 41.4949 17.1131 42.7231C16.5762 45.0166 16.0836 51.3837 16.1576 52.6139C16.1576 52.6139 15.6587 53.7702 13.8556 53.5356C13.8556 53.5356 12.6782 53.4341 12.8642 52.1024C12.8642 52.1024 12.8938 50.7791 12.898 49.4177C12.898 49.1725 12.898 48.9252 12.8938 48.6842C12.8895 47.8704 12.8684 47.1305 12.824 46.769C12.6887 45.7184 12.8938 43.7208 13.5385 41.8754L13.3884 33.8743L13.3821 33.4262C13.0206 32.0395 12.7986 30.2067 13.5681 27.9893C13.6675 27.7081 13.7795 27.4206 13.9105 27.1289L21.751 27.7462H21.7531Z" fill="#0F60A4"/>
<g style="mix-blend-mode:multiply" opacity="0.5">
<path d="M18.8323 29.3113C16.8663 29.7848 15.5642 31.719 15.0801 33.6807C14.5981 35.6381 14.744 37.6928 14.6024 39.7052C14.4502 41.8529 13.9682 43.9605 13.4905 46.0575C13.3657 46.5965 13.2347 47.7317 12.8965 48.6871C12.8922 47.8733 12.8711 47.1334 12.8267 46.772C12.6914 45.7214 12.8965 43.7237 13.5412 41.8783L13.3911 33.8773L13.3848 33.4291C13.0233 32.0424 12.8013 30.2097 13.5708 27.9922C15.3253 28.434 17.0798 28.8716 18.8344 29.3134L18.8323 29.3113Z" fill="#1161A4"/>
</g>
<path d="M22.1588 27.6576C20.8503 29.0042 19.1422 29.6891 17.5463 29.8307C16.2991 29.9428 15.1216 29.725 14.2571 29.2261C14.0309 29.0951 13.8258 28.9408 13.6483 28.778C13.6419 28.7717 13.6335 28.759 13.6271 28.7569C13.236 28.4905 12.883 28.1988 12.7879 27.5815C12.7541 27.3701 12.752 27.1228 12.7879 26.8227C12.8492 26.3195 12.7668 25.214 12.6019 23.9224C12.5807 23.7406 12.5554 23.5504 12.5279 23.3601C12.1347 20.5 11.4709 17.0501 11.4709 17.0501C11.4709 17.0501 13.0056 14.5959 15.519 13.6066C17.8718 12.6807 20.8587 12.2136 21.161 13.9935C21.3809 15.2808 21.6937 19.9885 21.9093 22.8443C21.9453 23.3157 21.9791 23.7385 22.0087 24.0852C22.0488 24.5481 22.0827 24.88 22.108 25.0216C22.1545 25.3091 22.7063 27.1292 22.163 27.6555L22.1588 27.6576Z" fill="#1161A4"/>
<path d="M19.2531 18.6746C19.53 18.6133 19.8957 18.3977 20.0712 17.9686C20.3227 18.1314 20.6863 17.8988 20.9379 17.6367C20.754 18.2751 21.1091 18.6302 21.0626 19.1989C21.014 19.7739 20.5447 20.017 20.3988 20.5497C20.1494 20.2601 19.6907 20.5898 19.5131 20.1522C19.3376 19.721 19.5575 19.0107 19.251 18.6746H19.2531Z" fill="#FBA621"/>
<path d="M20.3612 20.2365C20.4394 20.078 20.5345 19.9469 20.6233 19.8243C20.7882 19.596 20.8812 19.4565 20.9002 19.243C20.9172 19.0464 20.8707 18.8646 20.8199 18.6744C20.7713 18.4905 20.7185 18.2897 20.7227 18.0508C20.6973 18.0698 20.6698 18.0867 20.6445 18.1036C20.4436 18.2262 20.2619 18.2706 20.1097 18.2368C19.987 18.4418 19.82 18.6131 19.6213 18.7357C19.596 18.7526 19.5685 18.7674 19.541 18.7822C19.6002 18.983 19.6023 19.2134 19.6044 19.4269C19.6065 19.6468 19.6087 19.8539 19.67 20.004C19.7355 20.1668 19.8496 20.1774 20.0441 20.1858C20.1477 20.19 20.2619 20.1943 20.3654 20.2387L20.3612 20.2365Z" fill="#FBCE88"/>
<path d="M19.9319 19.3646L19.7395 19.1363L20.0418 18.9503L20.1475 18.5508L20.3314 18.7706L20.6337 18.5846L20.5238 19.001L20.714 19.2293L20.4117 19.4154L20.306 19.8128L20.1221 19.5929L19.8198 19.779L19.9319 19.3646Z" fill="#FBA621"/>
<path d="M15.4974 12.5841L13.857 14.4063C13.0833 16.7696 14.7427 17.0191 16.0047 18.336L17.1145 16.3976L18.9473 16.7548L18.2729 13.3917L15.4953 12.582L15.4974 12.5841Z" fill="#0F60A4"/>
<g style="mix-blend-mode:multiply" opacity="0.5">
<path d="M22.0048 24.0888C21.2945 24.184 20.6477 24.611 20.0938 25.0443C19.3603 25.6277 18.6353 26.6636 17.8362 27.1476C16.3375 28.0566 16.4368 28.7013 17.5445 29.8323C16.2973 29.9443 15.1199 29.7266 14.2553 29.2277C14.0291 29.0966 13.8241 28.9423 13.6465 28.7796C13.6401 28.7732 13.6317 28.7605 13.6253 28.7584C13.2343 28.4921 12.8813 28.2004 12.7861 27.5831V26.8242C12.7861 26.3126 12.7502 25.2113 12.6001 23.924C12.579 23.7422 12.5536 23.5519 12.5261 23.3617C12.5325 23.3722 12.5451 23.3807 12.5515 23.3913C13.0631 23.8796 13.712 24.2601 14.4117 24.3108C14.9909 24.3552 15.5596 24.1755 16.1049 23.9831C17.6396 23.4399 19.1637 22.736 20.7914 22.6894C21.1698 22.6789 21.5609 22.7085 21.9076 22.8501C21.9435 23.3215 21.9773 23.7443 22.0069 24.091L22.0048 24.0888Z" fill="#1161A4"/>
</g>
<path d="M20.6547 13.1641C20.6547 13.1641 21.997 13.7475 22.7052 15.4006C23.2675 16.7112 24.2525 18.582 24.7155 20.1314L21.2889 19.8313L20.6526 13.1641H20.6547Z" fill="#1161A4"/>
<path d="M17.6164 24.2274C17.6164 24.2274 18.6437 24.0964 19.8825 23.8934C21.5207 23.6229 23.531 23.2255 24.0215 22.8323C24.3301 22.5849 24.5964 22.2953 24.7634 21.9952C24.9029 21.7478 24.9769 21.4963 24.9537 21.2595C24.9199 20.915 24.8332 20.5302 24.7127 20.1244L21.4066 19.4648L21.7279 20.452L17.8151 22.5638C18.092 22.9908 17.6143 24.2274 17.6143 24.2274H17.6164Z" fill="#1161A4"/>
<g style="mix-blend-mode:multiply" opacity="0.5">
<path d="M22.4007 20.2341C22.4007 20.2341 21.0711 17.7524 20.8808 16.7188C20.8808 16.7188 21.5319 19.1645 21.0647 19.4668C20.5976 19.7691 19.7837 20.0967 19.6527 20.528C19.5195 20.9592 18.5091 22.5932 15.9534 21.6822L16.7228 22.942H19.955L21.4283 20.5301L22.4007 20.2363V20.2341Z" fill="#1161A4"/>
</g>
<g style="mix-blend-mode:multiply" opacity="0.5">
<path d="M19.8842 23.9034C21.5225 23.6328 23.5328 23.2354 24.0232 22.8422C24.3318 22.5949 24.5982 22.3053 24.7652 22.0051C23.8541 22.54 22.8563 22.9268 21.8205 23.1382C21.6937 23.1636 21.5521 23.1826 21.4442 23.1107C21.3111 23.0219 21.2963 22.8359 21.3005 22.6752C21.3238 21.9692 21.569 21.3879 21.7656 20.7305C20.7826 21.4978 20.3006 22.7619 19.8821 23.9034H19.8842Z" fill="#1161A4"/>
</g>
<path d="M19.6514 21.6359C19.6514 21.6359 19.3703 21.7247 19.5056 21.2575C19.8839 20.987 19.6451 20.4268 20.6513 19.9702C21.3087 19.6721 22.3974 20.2323 22.3974 20.2323C22.3974 20.2323 21.0994 20.9954 20.9155 22.2997C20.0002 23.4518 19.6472 21.638 19.6472 21.638L19.6514 21.6359Z" fill="#FFB091"/>
<path d="M19.5061 21.2577C20.0219 20.8434 21.3642 22.5789 21.0027 22.9171C20.7681 23.1349 19.003 25.661 18.7641 25.8893C18.5252 26.1176 17.037 27.5022 15.8152 27.0498C14.5934 26.5974 12.0483 23.7225 11.6953 23.2955C11.3422 22.8664 9.66381 20.5982 10.5157 18.7803C11.2069 17.309 11.467 17.0469 11.467 17.0469C11.467 17.0469 13.4709 19.2749 14.5405 21.5177C15.6123 23.7606 16.2042 23.9001 16.2042 23.9001C16.2042 23.9001 17.9735 22.5684 19.5061 21.2599V21.2577Z" fill="#1161A4"/>
<path d="M16.2065 23.9023L17.8363 22.6361C17.8363 22.6361 17.2676 22.2472 16.8787 22.0527C16.4897 21.8582 14.9381 21.2917 14.5449 21.2917C14.1539 21.2917 13.2766 21.1796 13.266 21.3889C13.2534 21.5982 13.4626 21.632 13.4626 21.632C13.4626 21.632 13.1899 21.7229 13.209 21.8497C13.228 21.9766 13.5958 22.1372 13.8431 22.188C13.8431 22.188 13.7121 22.3063 13.7586 22.4416C13.8072 22.5769 14.4794 22.8327 14.7077 22.8855C14.7077 22.8855 14.621 22.9616 14.6485 23.0885C14.676 23.2153 14.7859 23.3062 15.6167 23.5303L16.2065 23.9044V23.9023Z" fill="#FFB091"/>
<path d="M17.4991 16.0268C17.4061 16.2107 17.2813 16.3439 17.1164 16.3925C15.5479 16.8554 14.2627 15.065 14.4403 14.0101C14.5861 12.9257 14.6707 12.3359 14.6707 12.3359L17.7041 13.0843C17.7041 13.0843 17.7379 13.3696 17.7548 13.7713C17.7844 14.4541 17.776 15.4772 17.4948 16.0289L17.4991 16.0268Z" fill="#FFB294"/>
<g style="mix-blend-mode:multiply" opacity="0.5">
<path d="M17.4978 16.0328C17.3477 16.1342 17.1807 16.1976 17.0011 16.1976C15.5678 16.1976 15.1091 13.4961 15.1091 13.4961L17.7557 13.7772C17.7853 14.46 17.7769 15.4831 17.4957 16.0349L17.4978 16.0328Z" fill="#FFB294"/>
</g>
<path d="M14.7999 12.7101C14.7999 12.7101 15.1466 14.0968 15.7681 14.6972C16.3896 15.2975 17.3789 15.5956 17.7551 15.6146C18.1314 15.6336 18.4295 15.6019 18.6726 15.3144C18.9178 15.0269 19.0679 12.3867 19.0679 12.3867C19.0615 11.3657 19.0446 11.0592 18.922 10.4905C18.7444 9.65343 18.1377 7.79956 15.7004 8.13355C14.5251 8.29421 13.7979 9.15244 13.6436 10.1882C13.521 11.0106 14.1805 12.4755 14.1805 12.4755L14.7978 12.7101H14.7999Z" fill="#FFB294"/>
<path d="M14.154 12.6466L15.3124 13.2638L15.3991 12.5705C15.3949 12.2386 15.6739 11.9743 16.0037 11.9997C16.5596 12.042 17.4115 12.0124 18.2296 11.6107C19.0054 11.2302 19.1407 10.7081 19.1407 10.7081C19.5317 9.20514 17.551 8.04462 16.0586 8.09535C14.247 8.15665 13.5114 9.37214 13.5093 10.446C13.5072 11.4226 14.154 12.6444 14.154 12.6444V12.6466Z" fill="#054182"/>
<path d="M14.4122 11.7141C14.2515 11.6338 14.0317 11.6444 13.9239 11.7881C13.8625 11.8684 13.8478 11.9762 13.8647 12.0756C13.8795 12.175 13.9217 12.268 13.9661 12.3589C14.0422 12.5153 14.1289 12.6675 14.2219 12.8155C14.298 12.936 14.391 13.0607 14.5284 13.0945C14.6701 13.1283 14.8392 13.2256 14.9153 13.1029C14.9914 12.9803 14.9829 12.6442 14.9554 12.5026C14.8941 12.2003 14.6975 11.86 14.4143 11.7162L14.4122 11.7141Z" fill="#FFB294"/>
<path d="M19.2613 8.91016V10.8444C19.2613 10.874 19.2613 10.9057 19.257 10.9353C19.219 11.3284 18.9421 11.7132 18.4221 12.0133C17.4201 12.5904 15.8621 12.6517 14.7439 12.1951C14.6128 12.1423 14.486 12.081 14.3697 12.0133C13.8096 11.6899 13.5305 11.2671 13.5305 10.8444V8.91016H19.2613Z" fill="#054182"/>
<path d="M19.8361 9.54688L19.2611 10.2762C18.3669 11.4684 15.9381 11.9736 14.4478 11.3289C14.1391 11.1936 13.8178 10.997 13.5303 10.7032C13.5303 10.7032 12.8433 10.1853 12.6531 9.87453L19.8361 9.54688Z" fill="#0F60A4"/>
<path d="M12.4921 9.41987C12.5893 10.4705 14.3777 11.1638 16.4831 10.9672C18.5886 10.7706 20.2184 9.7602 20.119 8.7096C20.0218 7.659 18.2334 6.96564 16.128 7.16223C14.0226 7.35882 12.3928 8.36926 12.4921 9.41987Z" fill="#1161A4"/>
<path d="M18.4728 11.5886C18.9928 11.2884 19.1387 11.1003 19.257 10.9375C19.8363 11.6139 19.7855 12.2671 18.9252 12.7639C17.5934 13.5334 15.8389 13.1909 14.7439 12.1974C15.6486 12.3306 17.4708 12.1678 18.4728 11.5886Z" fill="#333333"/>
<path opacity="0.2" d="M17.5937 13.0865C17.5091 13.0929 17.4224 13.0992 17.3379 13.0992L16.7312 12.222C16.8136 12.2093 16.8982 12.1945 16.9806 12.1797L17.5937 13.0865Z" fill="white"/>
<path opacity="0.2" d="M16.5409 12.2539L17.1307 13.0995C16.9024 13.0889 16.6741 13.0551 16.45 13.0022L15.9258 12.3152C16.1224 12.3025 16.3295 12.2835 16.5409 12.256V12.2539Z" fill="white"/>
<path d="M18.3579 11.6855C18.5735 11.5608 18.7468 11.286 18.7468 11.0703V10.582C18.4868 10.8272 18.2268 10.9773 17.9668 11.0323V11.5206C17.9668 11.7362 18.1422 11.8102 18.3558 11.6855H18.3579Z" fill="#FBB03B"/>
<path d="M47.0846 14.8109C47.2896 14.9102 47.3974 15.1364 47.3488 15.3584C47.2389 15.8488 47.0106 16.6521 46.6745 16.8064C46.1819 17.0305 41.7745 15.2823 41.7745 15.2823C41.7745 15.2823 39.1047 14.3965 38.9292 14.2169C38.7559 14.0372 35.2278 12.177 35.2278 12.177C35.2278 12.177 35.2278 8.39945 35.6463 8.16269C36.0649 7.92594 37.348 8.61295 38.8616 10.2258C40.2631 11.7183 41.9225 12.3144 41.9225 12.3144L47.0846 14.8109Z" fill="#0B5BB3"/>
<path d="M51.8375 19.0145C51.7783 19.0885 51.6578 19.1054 51.4993 19.0314C50.882 18.6742 50.6643 18.4903 50.1126 18.1161C49.9561 18.2746 49.6729 18.3592 49.453 18.3296C49.1486 18.2873 48.9077 18.0569 48.7301 17.8075C48.6223 17.8032 48.5504 17.9491 48.5758 18.0527C48.6011 18.1542 48.6836 18.2303 48.7555 18.3085C48.8992 18.4607 49.0134 18.6509 49.0472 18.8581C49.0852 19.0652 49.0345 19.2914 48.8929 19.4457C48.8337 19.5113 48.7216 19.4605 48.6582 19.3992C48.5948 19.3379 48.5631 19.2491 48.542 19.1625C48.5208 19.0758 48.5018 18.987 48.4616 18.9088C48.2989 18.5981 48.0135 18.3698 47.7218 18.1711C47.2313 17.8286 47.1468 17.1564 47.0453 16.5666C47.0157 16.3743 46.817 16.2834 46.6564 16.1798C46.6458 15.7485 46.8678 15.3067 47.2313 15.0742L47.2905 15.1207C48.0811 15.4188 48.8527 15.7697 49.5926 16.1777C49.9202 16.3573 50.1866 16.6956 50.4297 16.9831C50.51 17.0803 50.5924 17.186 50.6241 17.3086C50.6516 17.4101 50.5903 17.5623 50.5079 17.6532L50.5945 17.7229C50.9772 17.9639 51.3471 18.2176 51.6811 18.522C51.7508 18.5854 51.8227 18.6551 51.8629 18.7418C51.9009 18.8285 51.9009 18.9405 51.8396 19.0124L51.8375 19.0145Z" fill="#FFB294"/>
<path d="M36.4079 41.9452C36.1543 42.2137 36.0803 42.8923 36.0486 43.6638C36.1712 44.4608 36.9132 44.4819 37.5283 44.6468C38.7163 44.9681 39.2194 45.9426 40.8281 46.116C41.7836 46.2195 42.4452 46.0842 42.7116 45.4987C42.7707 45.2239 42.6397 44.9216 42.3311 44.5982C42.3311 44.5982 40.2468 43.3763 40.1939 43.332C40.1411 43.2876 39.2363 42.4632 39.2258 42.3849C39.2152 42.3067 39.0397 40.586 39.0397 40.586L36.6785 40.3281L36.4079 41.9431V41.9452Z" fill="black"/>
<path d="M39.6748 42.4555C38.1211 43.17 35.9121 43.7027 35.8064 42.6014C35.7705 42.2695 35.7367 41.9397 35.7071 41.6099C35.4217 38.4666 35.4492 35.4945 36.2947 32.9726L35.3942 27.9373L35.1448 26.54C35.4597 23.3967 36.9521 22.5173 39.2795 23.2508C39.3726 23.2783 39.4656 23.31 39.5607 23.3438C39.696 23.3925 39.8313 23.4453 39.9687 23.5024L40.0617 25.2506L40.4591 32.776C40.5014 35.6763 39.455 39.9062 39.6727 42.4513L39.6748 42.4555Z" fill="#0B5BB3"/>
<path d="M29.7312 47.4484C29.5051 48.2052 29.4607 48.4272 29.5685 48.9831C29.6847 49.2769 29.7989 49.4101 29.9278 49.816C30.08 50.3191 30.0695 51.1625 30.8262 51.6593C31.731 52.3548 33.4644 52.3653 33.9992 51.6022C33.995 51.2344 33.7392 50.4248 33.2762 49.7737L32.3757 48.1502L32.4117 46.6177L29.8771 46.0977L29.7312 47.4484Z" fill="black"/>
<path d="M39.7316 24.8498C39.7316 25.0211 39.7083 25.1881 39.6703 25.3466C39.5096 26.0357 39.0551 26.6192 38.5013 27.1476C38.4337 27.2132 38.3787 27.2639 38.3258 27.3125C37.4253 28.1285 36.3515 28.8134 35.8864 29.5532C35.8441 29.623 35.8061 29.6928 35.7744 29.7625C35.7173 30.1346 35.656 30.5129 35.5905 30.8956C35.1762 33.3794 34.6308 36.0492 33.9903 38.8501C33.2441 42.1901 32.946 45.3461 32.908 48.3943C31.5382 49.0475 29.8344 48.6797 29.4454 47.5995C29.4391 46.2403 29.4243 44.862 29.4412 43.5704C29.4729 40.8858 29.6293 38.5732 30.2106 37.5374L30.031 24.1057L32.0074 23.85L37.0152 23.201L38.3829 23.0234L39.461 24.4884L39.7252 24.8498H39.7316Z" fill="#0B5BB3"/>
<path d="M39.9937 24.0037L39.2813 23.2532L39.4166 22.0737L37.29 21.7714L36.4762 21.5156L36.1654 23.4752L36.1802 23.0482L35.2332 22.8749L32.0138 23.8515L30.0415 24.4497L30.217 37.5389C29.6335 38.5747 29.4792 40.8873 29.4475 43.5719C29.9506 41.2551 30.422 38.8643 31.3796 37.5241L31.9546 33.4316C33.1299 32.0364 34.32 30.8506 35.5968 30.8949C35.6518 30.5694 35.7046 30.2481 35.7532 29.9289L36.2965 32.975C35.451 35.4969 35.4235 38.469 35.7088 41.6124C36.064 38.0864 36.4233 34.5731 37.2647 32.882C36.8715 30.5462 36.5713 28.297 37.2604 26.9589C37.5099 26.5615 37.7868 26.2528 38.087 26.014C38.1462 25.9654 38.2053 25.9231 38.2645 25.885C38.8268 25.5045 39.4314 25.3354 40.0677 25.2572L39.9979 24.0058L39.9937 24.0037Z" fill="#054688"/>
<path d="M40.3398 25.2067C40.0481 25.5914 39.6718 25.881 39.1899 26.0438C38.4268 25.9402 37.7841 25.5301 37.2303 24.8854C36.9745 26.4729 36.1522 28.7136 35.7442 29.0645C35.2538 29.5444 34.1229 29.6924 32.9243 29.4894C32.5248 29.4218 32.121 29.314 31.7257 29.1681C30.8464 28.8426 30.0367 28.3162 29.5209 27.5806C29.0791 26.716 29.6837 24.6169 29.4723 22.1183L28.9375 18.865L28.0898 12.6502C29.6858 10.9591 30.692 9.96557 32.3831 8.70569L36.3446 8.49219C37.9448 9.22148 37.9448 10.1347 38.228 12.2718C38.228 12.2718 38.5409 18.8967 38.9108 20.4864C39.2808 22.076 40.4392 24.3717 40.4392 24.3717C40.5491 24.6486 40.5153 24.9678 40.3377 25.2025L40.3398 25.2067Z" fill="#0B5BB3"/>
<path d="M34.3568 11.6346L31.4207 11.7889L36.5215 19.8365C37.6735 16.6255 37.8067 13.6259 36.0522 10.4297L34.3547 11.6367L34.3568 11.6346Z" fill="#F2F2F2"/>
<path d="M34.3087 11.7435L34.2854 12.8575L35.0443 13.8637C35.3783 15.4428 35.8983 17.153 35.9427 18.3938L36.598 19.9243L37.0926 18.3093C36.6149 16.3856 35.9765 14.6395 35.5199 13.3923L35.4015 12.0352L34.6152 11.5977L34.3065 11.7456L34.3087 11.7435Z" fill="#0071BC"/>
<path d="M32.7618 8.26774L31.2356 9.62274C30.5697 12.1044 32.6181 12.9965 33.9942 14.2839L34.6432 12.1129L36.5541 12.3793L35.6705 8.9463L32.7597 8.26562L32.7618 8.26774Z" fill="white"/>
<path d="M31.8228 9.10156C30.6961 10.0634 31.4211 11.7925 32.8776 13.3315C34.1903 14.7182 36.3486 17.8531 36.6932 20.227C35.3403 17.9566 32.9981 15.1726 31.7572 14.4053L32.0595 13.528L31.2732 13.75C30.4466 12.7438 30.0239 11.6678 30.0704 10.6278L31.8207 9.10368L31.8228 9.10156Z" fill="#054688"/>
<path d="M34.6313 8.63492C36.4387 10.195 37.8043 16.951 36.5677 20.014C38.0051 18.0755 38.337 15.245 37.4788 10.8799L37.0074 10.622L37.1131 10.1358L35.5593 8.45312L34.6313 8.63492Z" fill="#054688"/>
<path d="M35.0192 11.7192C34.9325 11.9158 34.812 12.0595 34.645 12.1166C33.0512 12.681 31.6264 10.9054 31.7532 9.80825C31.8441 8.68155 31.8991 8.06641 31.8991 8.06641L35.072 8.66886C35.072 8.66886 35.1228 8.96058 35.1629 9.3749C35.2327 10.0767 35.2792 11.1337 35.0213 11.7171L35.0192 11.7192Z" fill="#FFB294"/>
<g style="mix-blend-mode:multiply" opacity="0.5">
<path d="M35.0196 11.7203C34.8695 11.8345 34.7025 11.9084 34.5165 11.9169C33.0368 11.9972 32.4153 9.23438 32.4153 9.23438L35.1612 9.37601C35.231 10.0778 35.2775 11.1348 35.0196 11.7182V11.7203Z" fill="#FFB294"/>
</g>
<path d="M32.1716 8.59418C32.1716 8.59418 32.5838 9.93015 33.2222 10.484C33.8606 11.0357 34.8414 11.2767 35.2114 11.2767C35.5813 11.2767 35.8688 11.2281 36.0929 10.9343C36.3169 10.6404 36.3254 8.05514 36.3254 8.05514C36.2641 7.05949 36.2324 6.75932 36.0844 6.21183C35.8667 5.40432 35.1775 3.62654 32.8142 4.08103C31.6748 4.30087 31.009 5.17602 30.9138 6.19491C30.8377 7.00453 31.5586 8.3997 31.5586 8.3997L32.1737 8.59629L32.1716 8.59418Z" fill="#FFB294"/>
<path d="M31.5379 8.56324L32.7005 9.10651L32.7492 8.42584C32.728 8.10241 32.9859 7.82972 33.3093 7.83606C33.8526 7.84663 34.6855 7.77476 35.4613 7.3393C36.199 6.92709 36.3026 6.4113 36.3026 6.4113C36.6049 4.92312 34.6115 3.89366 33.155 4.02261C31.3878 4.17692 30.7367 5.40298 30.7896 6.45358C30.8382 7.40694 31.5358 8.56535 31.5358 8.56535L31.5379 8.56324Z" fill="black"/>
<path d="M31.7405 7.64337C31.5798 7.57361 31.3642 7.59686 31.267 7.74061C31.212 7.82305 31.2036 7.92874 31.2226 8.02387C31.2416 8.11899 31.2881 8.20778 31.3367 8.29444C31.4192 8.44242 31.5122 8.58828 31.6094 8.72779C31.6898 8.84194 31.787 8.95821 31.9244 8.98357C32.0639 9.00894 32.2351 9.09561 32.3028 8.97089C32.3704 8.84617 32.3451 8.51852 32.3091 8.38111C32.2351 8.0894 32.0237 7.76809 31.7384 7.64337H31.7405Z" fill="#FFB294"/>
<path d="M32.924 29.4868C32.5245 29.4192 32.1208 29.3114 31.7255 29.1655C30.8461 28.84 30.0365 28.3136 29.5207 27.578C29.0789 26.7134 29.6835 24.6143 29.4721 22.1157L28.9373 18.8624L31.104 16.0742C30.5184 19.9638 31.4021 24.5678 32.9198 29.4847L32.924 29.4868Z" fill="#054688"/>
<g style="mix-blend-mode:multiply" opacity="0.5">
<path d="M50.1138 18.1133C49.9574 18.2718 49.6741 18.3564 49.4543 18.3268C49.1499 18.2845 48.9089 18.0541 48.7313 17.8046C48.6235 17.8004 48.5516 17.9463 48.577 18.0499C47.9196 17.4051 48.6362 17.1345 48.9427 17.2741C49.2492 17.4093 50.1138 18.1133 50.1138 18.1133Z" fill="#FFB294"/>
</g>
<path d="M29.4705 24.5982C28.1112 23.3489 26.7118 22.5541 25.9656 21.6451C25.6042 21.2055 25.4435 20.5882 25.6063 19.7025C25.8282 18.2735 27.2488 14.3078 28.0901 12.6484L28.4347 15.8531L28.4452 15.963L29.667 22.6408C29.667 22.6408 29.5085 23.888 29.4683 24.5982H29.4705Z" fill="#0B5BB3"/>
<path d="M26.4222 16.8212C26.9464 15.2886 27.6207 13.5742 28.0921 12.6399C29.6374 11.1285 32.3516 13.9146 30.9226 16.2842L28.925 19.4508C28.0393 19.7912 26.1452 18.284 26.4222 16.8212Z" fill="#0B5BB3"/>
<path d="M75.1124 36.5412V53.6701L61.4968 45.8085V28.6797L75.1124 36.5412Z" fill="#84BFFF"/>
<path d="M75.8823 36.0977V53.2265L75.1128 53.6704V36.5416L75.8823 36.0977Z" fill="#116FD6"/>
<path d="M47.958 52.2248V68.0769L34.3403 60.2153V44.3633L47.958 52.2248Z" fill="#84BFFF"/>
<path d="M34.3403 44.3634L47.958 52.2249L58.2336 46.2912L44.6181 38.4297L34.3403 44.3634Z" fill="#84BFFF"/>
<path d="M58.2329 46.293V62.1471L47.9573 68.0787V52.2267L58.2329 46.293Z" fill="#116FD6"/>
<path d="M48.7112 60.0607V63.2103L57.4775 58.1497V55L48.7112 60.0607Z" fill="#B3D6FC"/>
<path d="M57.4775 51.4141L48.7112 56.4747V59.6244L57.4775 54.5638V51.4141Z" fill="#B3D6FC"/>
<path d="M57.4775 47.6055L48.7112 52.6661V56.042L57.4775 50.9813V47.6055Z" fill="#B3D6FC"/>
<path d="M53.4415 54.2273C53.3865 54.1956 53.3104 54.1999 53.2259 54.2485C53.0568 54.3457 52.9215 54.5804 52.9236 54.7727C52.9236 54.8678 52.9574 54.9355 53.0124 54.9672L53.4986 55.2547C53.4436 55.223 53.4098 55.1553 53.4098 55.0602C53.4098 54.8678 53.5451 54.6332 53.7121 54.536C53.7966 54.4873 53.8727 54.4831 53.9277 54.5148L53.4415 54.2273Z" fill="#84BFFF"/>
<path d="M53.7115 54.534C53.8785 54.4368 54.0159 54.515 54.0159 54.7074C54.0159 54.8997 53.8806 55.1365 53.7136 55.2316C53.5445 55.3288 53.4092 55.2506 53.4092 55.0583C53.4092 54.8659 53.5445 54.6313 53.7115 54.534Z" fill="#84BFFF"/>
<path d="M33.2769 45.0372L47.9028 53.4801V52.5817L33.2769 44.1367V45.0372Z" fill="#116FD6"/>
<path d="M33.2769 44.1317L47.9028 52.5767L77.0153 35.7671L62.3914 27.3242L33.2769 44.1317Z" fill="#B3D6FC"/>
<path d="M47.9031 53.4815L77.0155 36.674V35.7734L47.9031 52.5831V53.4815Z" fill="#116FD6"/>
<path d="M66.721 40.1639L61.2608 43.3157L54.3293 39.312L59.7874 36.1602L66.721 40.1639Z" fill="#F2F2F2"/>
<path d="M57.4424 47.918L54.7578 49.5203L61.2348 53.2576V50.108L57.4424 47.918Z" fill="#DDEDFF"/>
<path d="M54.7569 49.5195L48.7112 52.9969V55.9965L52.5035 58.1865L58.5492 51.7074L54.7569 49.5195Z" fill="#96C3F4"/>
<path d="M48.7112 52.9961V56.1458L52.5035 58.3358V55.1861L48.7112 52.9961Z" fill="#DDEDFF"/>
<path d="M60.8812 49.7266L52.1128 54.7872V58.1631L52.5039 58.4083L60.8812 53.1024L61.2702 49.9718L60.8812 49.7266Z" fill="#116FD6"/>
<path d="M61.2709 49.9766L52.5046 55.0372V58.4131L61.2709 53.3524V49.9766Z" fill="#B3D6FC"/>
<path d="M57.4234 52.9227C57.3685 52.8909 57.2924 52.8952 57.2078 52.9438C57.0387 53.041 56.9034 53.2757 56.9055 53.468C56.9055 53.5632 56.9394 53.6308 56.9943 53.6625L57.4805 53.95C57.4256 53.9183 57.3917 53.8506 57.3917 53.7555C57.3917 53.5632 57.527 53.3285 57.694 53.2313C57.7786 53.1827 57.8547 53.1784 57.9096 53.2101L57.4234 52.9227Z" fill="#84BFFF"/>
<path d="M57.6934 53.2293C57.8604 53.1321 57.9978 53.2103 57.9978 53.4027C57.9978 53.595 57.8625 53.8318 57.6955 53.9269C57.5264 54.0242 57.3911 53.9459 57.3911 53.7536C57.3911 53.5612 57.5264 53.3266 57.6934 53.2293Z" fill="#84BFFF"/>
<path d="M58.167 35.1919C58.167 35.0608 58.0803 34.9297 57.907 34.8283L55.3893 33.3655C55.0427 33.1646 54.4761 33.1646 54.1252 33.3655L49.0456 36.2974C48.8447 36.4137 48.7623 36.5701 48.7919 36.7202C48.7877 36.7012 48.7834 36.6843 48.7834 36.6652V37.3903C48.7856 37.5214 48.8722 37.6524 49.0456 37.7539L51.5632 39.2167C51.9099 39.4175 52.4764 39.4175 52.8273 39.2167L57.907 36.2847C58.0824 36.1833 58.1712 36.0501 58.1712 35.9169V35.1919H58.167Z" fill="#007AFF"/>
<path d="M49.0451 36.2974C48.6964 36.5004 48.6942 36.828 49.0409 37.0288L51.5586 38.4916C51.9052 38.6925 52.4718 38.6925 52.8227 38.4916L57.9023 35.5597C58.2511 35.3589 58.2532 35.0291 57.9066 34.8283L55.3889 33.3655C55.0422 33.1646 54.4757 33.1646 54.1248 33.3655L49.0451 36.2974Z" fill="#D2E8FF"/>
<path d="M53.0113 37.0394L52.041 36.475L52.5145 33.1055L53.0007 33.3887L53.0113 37.0394Z" fill="#2B8BF2"/>
<path d="M53.0016 33.3893L52.5154 33.106L53.9528 32.2773L54.4369 32.5606L53.0016 33.3893Z" fill="#3392F9"/>
<path d="M54.4373 32.5625L54.4479 36.2132L53.0125 37.0418L53.002 33.3911L54.4373 32.5625Z" fill="#D2E8FF"/>
<path d="M54.4373 32.5625L54.4479 36.2132L53.0125 37.0418L53.002 33.3911L54.4373 32.5625Z" fill="#007AFF"/>
<path d="M46.0542 38.7123L45.5595 38.4205L45.5278 27.7031L46.0246 27.9927L46.0542 38.7123Z" fill="#007AFF"/>
<path d="M46.0253 27.9953L45.5286 27.7057L60.1334 19.2734L60.6302 19.563L46.0253 27.9953Z" fill="#D2E8FF"/>
<path d="M46.0253 27.9953L45.5286 27.7057L60.1334 19.2734L60.6302 19.563L46.0253 27.9953Z" fill="#E6E6E6"/>
<path d="M60.6302 19.5625L60.662 30.2799L46.055 38.7143L46.0254 27.9948L60.6302 19.5625Z" fill="#CCCCCC"/>
<path d="M46.4523 38.0236L46.4502 37.8291L46.4248 28.2215L60.07 20.343L60.2327 20.25L60.2623 30.05L46.4523 38.0236Z" fill="#2B8BF2"/>
<path d="M46.4502 37.8298L46.4248 28.2222L60.07 20.3438L60.0932 29.9535L46.4502 37.8298Z" fill="#098AFF"/>
<path d="M61.4138 37.9409L52.2966 43.2045L48.9292 41.2597V41.006L58.0464 35.9961L61.4138 37.6851V37.9409Z" fill="#666666"/>
<path d="M61.4138 37.687L52.2966 42.9505L48.9292 41.0079L58.0464 35.7422L61.4138 37.687Z" fill="#1A1A1A"/>
<path d="M49.5732 40.9441L50.0785 40.6523L50.4653 40.8743L49.9601 41.166L49.5732 40.9441Z" fill="white"/>
<path d="M50.1604 40.6042L50.6677 40.3125L51.0525 40.5345L50.5472 40.8262L50.1604 40.6042Z" fill="white"/>
<path d="M50.751 40.2566L51.2562 39.9648L51.6409 40.1889L51.1357 40.4806L50.751 40.2566Z" fill="white"/>
<path d="M51.3381 39.9206L51.8434 39.6289L52.2302 39.8509L51.7229 40.1426L51.3381 39.9206Z" fill="white"/>
<path d="M51.9258 39.5769L52.431 39.2852L52.8178 39.5071L52.3126 39.7988L51.9258 39.5769Z" fill="white"/>
<path d="M52.5129 39.2409L53.0203 38.9492L53.405 39.1733L52.8998 39.465L52.5129 39.2409Z" fill="white"/>
<path d="M53.1025 38.8972L53.6078 38.6055L53.9925 38.8274L53.4873 39.1191L53.1025 38.8972Z" fill="white"/>
<path d="M53.6919 38.5612L54.1971 38.2695L54.584 38.4915L54.0766 38.7832L53.6919 38.5612Z" fill="white"/>
<path d="M54.2793 38.2253L54.7845 37.9336L55.1714 38.1577L54.6661 38.4494L54.2793 38.2253Z" fill="white"/>
<path d="M54.8669 37.8816L55.3743 37.5898L55.759 37.8118L55.2538 38.1035L54.8669 37.8816Z" fill="white"/>
<path d="M55.4556 37.5417L55.9608 37.25L56.3455 37.472L55.8403 37.7637L55.4556 37.5417Z" fill="white"/>
<path d="M50.2649 41.3368L50.7722 41.043L51.157 41.267L50.6517 41.5588L50.2649 41.3368Z" fill="white"/>
<path d="M50.8533 40.9948L51.3585 40.7031L51.7432 40.9251L51.238 41.2168L50.8533 40.9948Z" fill="white"/>
<path d="M51.4419 40.655L51.9471 40.3633L52.334 40.5852L51.8266 40.8791L51.4419 40.655Z" fill="white"/>
<path d="M52.0298 40.3212L52.535 40.0273L52.9218 40.2514L52.4166 40.5431L52.0298 40.3212Z" fill="white"/>
<path d="M52.6169 39.9792L53.1243 39.6875L53.509 39.9095L53.0038 40.2012L52.6169 39.9792Z" fill="white"/>
<path d="M53.207 39.6394L53.7123 39.3477L54.097 39.5717L53.5918 39.8634L53.207 39.6394Z" fill="white"/>
<path d="M53.7942 39.2995L54.2994 39.0078L54.6863 39.2298L54.1789 39.5215L53.7942 39.2995Z" fill="white"/>
<path d="M54.3831 38.9597L54.8883 38.668L55.2751 38.8899L54.7699 39.1816L54.3831 38.9597Z" fill="white"/>
<path d="M54.9695 38.6237L55.4768 38.332L55.8615 38.5561L55.3563 38.8478L54.9695 38.6237Z" fill="white"/>
<path d="M55.5593 38.2839L56.0645 37.9922L56.4493 38.2141L55.9441 38.5059L55.5593 38.2839Z" fill="white"/>
<path d="M56.1472 37.9441L56.6524 37.6523L57.0393 37.8743L56.5319 38.166L56.1472 37.9441Z" fill="white"/>
<path d="M50.708 41.6003L51.2132 41.3086L51.598 41.5327L51.0927 41.8244L50.708 41.6003Z" fill="white"/>
<path d="M51.2952 41.2487L51.8004 40.957L52.1851 41.179L51.6799 41.4707L51.2952 41.2487Z" fill="white"/>
<path d="M51.8833 40.9089L52.3885 40.6172L52.7754 40.8391L52.2701 41.1309L51.8833 40.9089Z" fill="white"/>
<path d="M52.4717 40.573L52.9769 40.2812L53.3637 40.5053L52.8585 40.797L52.4717 40.573Z" fill="white"/>
<path d="M53.0613 40.2331L53.5665 39.9414L53.9512 40.1634L53.446 40.4551L53.0613 40.2331Z" fill="white"/>
<path d="M53.6494 39.8933L54.1546 39.6016L54.5394 39.8235L54.0341 40.1152L53.6494 39.8933Z" fill="white"/>
<path d="M54.2366 39.5534L54.7418 39.2617L55.1286 39.4858L54.6234 39.7775L54.2366 39.5534Z" fill="white"/>
<path d="M54.824 39.2175L55.3292 38.9258L55.716 39.1477L55.2108 39.4395L54.824 39.2175Z" fill="white"/>
<path d="M55.4138 38.8777L55.919 38.5859L56.3038 38.8079L55.7985 39.0996L55.4138 38.8777Z" fill="white"/>
<path d="M56.0017 38.53L56.5069 38.2383L56.8917 38.4624L56.3864 38.7541L56.0017 38.53Z" fill="white"/>
<path d="M51.1499 41.8542L51.6551 41.5625L52.0399 41.7845L51.5346 42.0762L51.1499 41.8542Z" fill="white"/>
<path d="M51.7375 41.5027L52.2428 41.2109L52.6296 41.435L52.1244 41.7267L51.7375 41.5027Z" fill="white"/>
<path d="M52.325 41.1706L52.8302 40.8789L53.217 41.1009L52.7118 41.3926L52.325 41.1706Z" fill="white"/>
<path d="M52.9148 40.8269L53.42 40.5352L53.8047 40.7571L53.2995 41.0488L52.9148 40.8269Z" fill="white"/>
<path d="M53.5029 40.487L54.0081 40.1953L54.3929 40.4194L53.8877 40.7111L53.5029 40.487Z" fill="white"/>
<path d="M54.0911 40.1472L54.5963 39.8555L54.9831 40.0774L54.4758 40.3691L54.0911 40.1472Z" fill="white"/>
<path d="M54.679 39.8112L55.1842 39.5195L55.571 39.7415L55.0658 40.0353L54.679 39.8112Z" fill="white"/>
<path d="M55.2673 39.4735L55.7726 39.1797L56.1573 39.4038L55.6521 39.6955L55.2673 39.4735Z" fill="white"/>
<path d="M55.855 39.1316L56.3602 38.8398L56.7449 39.0618L56.2397 39.3535L55.855 39.1316Z" fill="white"/>
<path d="M56.5895 38.198L57.0313 38.4537L56.4436 38.792L56.8304 39.016L57.4181 38.6757L57.5661 38.5911L57.9233 38.384L57.5957 38.1937L57.5365 38.1599L57.0947 37.9062L56.5895 38.198Z" fill="white"/>
<path d="M52.334 41.6756L52.1797 41.7644L51.592 42.1047L51.9768 42.3267L52.5665 41.9884L52.7209 41.8975L53.0718 41.6946L52.6849 41.4727L52.334 41.6756Z" fill="white"/>
<path d="M52.7668 41.4266L53.2742 41.1328L53.6589 41.3569L53.1537 41.6486L52.7668 41.4266Z" fill="white"/>
<path d="M53.3564 41.0925L53.8617 40.8008L54.2464 41.0227L53.7412 41.3145L53.3564 41.0925Z" fill="white"/>
<path d="M53.9446 40.7409L54.4498 40.4492L54.8366 40.6733L54.3293 40.965L53.9446 40.7409Z" fill="white"/>
<path d="M54.5317 40.4011L55.037 40.1094L55.4238 40.3313L54.9186 40.623L54.5317 40.4011Z" fill="white"/>
<path d="M55.1223 40.0652L55.6275 39.7734L56.0123 39.9954L55.507 40.2871L55.1223 40.0652Z" fill="white"/>
<path d="M55.7095 39.7253L56.2147 39.4336L56.5994 39.6577L56.0942 39.9494L55.7095 39.7253Z" fill="white"/>
<path d="M56.2971 39.3855L56.8023 39.0938L57.1892 39.3157L56.6818 39.6074L56.2971 39.3855Z" fill="white"/>
<path d="M57.3897 38.7583L57.3052 38.809L56.8845 39.05L57.2714 39.272L57.6899 39.031L57.7766 38.9803L58.3642 38.642L57.9795 38.418L57.3897 38.7583Z" fill="white"/>
<path d="M52.0339 42.362L52.5392 42.0703L52.926 42.2923L52.4208 42.584L52.0339 42.362Z" fill="white"/>
<path d="M52.6218 42.0183L53.1292 41.7266L53.5139 41.9485L53.0087 42.2402L52.6218 42.0183Z" fill="white"/>
<path d="M53.2117 41.6784L53.7169 41.3867L54.1016 41.6108L53.5964 41.9025L53.2117 41.6784Z" fill="white"/>
<path d="M56.4055 39.8334L56.1518 39.9792L56.0694 40.0278L55.5642 40.3196L55.4817 40.3661L54.9744 40.6578L54.892 40.7064L54.3867 40.9981L53.7991 41.3384L54.1838 41.5604L54.7736 41.2201L55.2788 40.9284L55.3612 40.8818L55.8665 40.5901L55.9489 40.5415L56.4541 40.2498L56.5366 40.2012L56.7902 40.0553L57.0439 39.9095L56.657 39.6875L56.4055 39.8334Z" fill="white"/>
<path d="M56.7393 39.6394L57.2445 39.3477L57.6313 39.5717L57.1261 39.8634L56.7393 39.6394Z" fill="white"/>
<path d="M57.3264 39.3034L57.8337 39.0117L58.2185 39.2337L57.7133 39.5254L57.3264 39.3034Z" fill="white"/>
<path d="M57.9167 38.9636L58.422 38.6719L58.8067 38.8938L58.3015 39.1856L57.9167 38.9636Z" fill="white"/>
<path d="M56.3 37.0573L56.8053 36.7656L57.19 36.9876L56.6848 37.2793L56.3 37.0573Z" fill="white"/>
<path d="M56.8872 36.7058L57.3924 36.4141L57.7772 36.636L57.2719 36.9299L56.8872 36.7058Z" fill="white"/>
<path d="M57.4753 36.3759L57.9806 36.082L58.3674 36.3061L57.8622 36.5978L57.4753 36.3759Z" fill="white"/>
<path d="M56.9917 37.4558L57.4969 37.1641L57.8816 37.386L57.3764 37.6777L56.9917 37.4558Z" fill="white"/>
<path d="M57.5789 37.1159L58.0841 36.8242L58.4709 37.0462L57.9636 37.3379L57.5789 37.1159Z" fill="white"/>
<path d="M58.167 36.7761L58.6722 36.4844L59.0591 36.7084L58.5538 37.0002L58.167 36.7761Z" fill="white"/>
<path d="M57.4333 37.7118L57.9386 37.418L58.3254 37.642L57.8181 37.9338L57.4333 37.7118Z" fill="white"/>
<path d="M58.0205 37.3698L58.5257 37.0781L58.9126 37.3001L58.4073 37.5918L58.0205 37.3698Z" fill="white"/>
<path d="M58.6086 37.03L59.116 36.7383L59.5007 36.9602L58.9955 37.2541L58.6086 37.03Z" fill="white"/>
<path d="M57.8757 37.9636L58.381 37.6719L58.7678 37.8959L58.2626 38.1877L57.8757 37.9636Z" fill="white"/>
<path d="M58.4634 37.6237L58.9707 37.332L59.3554 37.554L58.8502 37.8457L58.4634 37.6237Z" fill="white"/>
<path d="M59.0518 37.2878L59.557 36.9961L59.9417 37.218L59.4365 37.5098L59.0518 37.2878Z" fill="white"/>
<path d="M59.0584 37.7889L58.9062 37.8777L58.3164 38.218L58.7032 38.4399L59.2909 38.1017L59.4452 38.0129L59.7961 37.81L59.4114 37.5859L59.0584 37.7889Z" fill="white"/>
<path d="M59.4937 37.5417L59.9989 37.25L60.3857 37.472L59.8784 37.7637L59.4937 37.5417Z" fill="white"/>
<path d="M58.7607 38.4714L59.266 38.1797L59.6507 38.4016L59.1455 38.6934L58.7607 38.4714Z" fill="white"/>
<path d="M59.3486 38.1355L59.8539 37.8438L60.2386 38.0657L59.7334 38.3595L59.3486 38.1355Z" fill="white"/>
<path d="M59.9358 37.7977L60.441 37.5039L60.8279 37.728L60.3226 38.0197L59.9358 37.7977Z" fill="white"/>
<path d="M62.4807 31.4629L62.969 31.1797L63.4129 31.3213L62.8718 31.6363L62.4807 31.4629Z" fill="#666666"/>
<path d="M64.8095 32.494L63.6046 33.1958C63.6426 33.1725 63.6553 33.0985 63.6236 33.014C63.4629 32.5976 62.981 32.0543 62.5603 31.8112L63.7652 31.1094C64.1859 31.3525 64.6678 31.8957 64.8285 32.3122C64.8623 32.3967 64.8496 32.4728 64.8095 32.494Z" fill="#666666"/>
<path d="M62.5594 31.8139C62.9801 32.057 63.4621 32.6002 63.6227 33.0167C63.6714 33.1393 63.6227 33.2428 63.5361 33.1942L62.0056 32.3106C61.9105 32.2557 61.8407 32.0887 61.8661 31.9787C61.9485 31.6194 62.236 31.6278 62.5594 31.8139Z" fill="#1A1A1A"/>
<path d="M63.1953 31.4436L63.7639 31.1117C63.5567 30.9912 63.3623 30.9447 63.2291 31.0229L62.7239 31.3167C62.7471 31.3125 62.7683 31.304 62.7936 31.304C62.9141 31.304 63.0536 31.3527 63.1932 31.4414L63.1953 31.4436Z" fill="#999999"/>
<path d="M62.6163 31.3823C62.3161 31.5514 62.9735 31.1709 62.0244 31.7226C62.1576 31.6444 62.35 31.6909 62.5592 31.8114L63.1617 31.4626C62.9545 31.3358 62.7579 31.3041 62.6184 31.3823H62.6163Z" fill="#CCCCCC"/>
<path d="M65.5764 39.6474L67.1893 38.7109L67.1872 39.4656L65.5764 40.402V39.6474Z" fill="#F1FFC9"/>
<path d="M61.7727 37.4482L65.5756 39.6445L67.1885 38.708L64.673 37.2558L63.3856 36.5117L63.17 36.6364L62.984 36.7442L62.8402 36.8288L61.7727 37.4482Z" fill="#6D9647"/>
<path d="M65.5756 39.6455V40.4002L61.7727 38.2039V37.4492L65.5756 39.6455Z" fill="#C1D680"/>
<path d="M65.5393 37.7522L63.9286 38.6886L63.4001 38.3821L63.3219 38.3377L63.1697 38.249L64.7805 37.3125L64.9348 37.4013L65.0109 37.4457L65.5393 37.7522Z" fill="#F6F6F6"/>
<path d="M63.9282 38.6897L63.9261 39.4443L63.3998 39.1399L63.3215 39.0956L63.1672 39.0068L63.1693 38.25L63.3215 38.3388L63.3998 38.3832L63.9282 38.6897Z" fill="#C6C6C6"/>
<path d="M64.9641 37.4233L63.3512 38.3597V39.1165L63.2751 39.0721V38.3175L64.8859 37.3789L64.9641 37.4233Z" fill="#F50D1B"/>
<path d="M63.3512 38.3587V39.1155L63.2751 39.0711V38.3164L63.3512 38.3587Z" fill="#C00A15"/>
<path d="M65.4232 37.685L63.8124 38.6215V39.3782L63.7363 39.3338V38.5771L65.3471 37.6406L65.4232 37.685Z" fill="#F50D1B"/>
<path d="M63.8124 38.6225V39.3793L63.7363 39.3349V38.5781L63.8124 38.6225Z" fill="#C00A15"/>
<path d="M65.5754 38.7802L67.1883 37.8438L67.1862 38.5984L65.5754 39.5349V38.7802Z" fill="#F1FFC9"/>
<path d="M61.7727 36.581L65.5756 38.7773L67.1885 37.8409L64.673 36.3886L63.3856 35.6445L63.17 35.7693L62.984 35.8771L62.8402 35.9616L61.7727 36.581Z" fill="#6D9647"/>
<path d="M65.5756 38.7784V39.533L61.7727 37.3367V36.582L65.5756 38.7784Z" fill="#C1D680"/>
<path d="M65.5393 36.8928L63.9286 37.8293L63.4001 37.5228L63.3219 37.4784L63.1697 37.3896L64.7805 36.4531L64.9348 36.5419L65.0109 36.5863L65.5393 36.8928Z" fill="#F6F6F6"/>
<path d="M63.9282 37.8303L63.9261 38.585L63.3998 38.2806L63.3215 38.2362L63.1672 38.1453L63.1693 37.3906L63.3215 37.4794L63.3998 37.5238L63.9282 37.8303Z" fill="#C6C6C6"/>
<path d="M64.9641 36.5561L63.3512 37.4926V38.2493L63.2751 38.2049V37.4482L64.8859 36.5117L64.9641 36.5561Z" fill="#F50D1B"/>
<path d="M63.3512 37.4936V38.2504L63.2751 38.206V37.4492L63.3512 37.4936Z" fill="#C00A15"/>
<path d="M65.4232 36.8217L63.8124 37.7582V38.5128L63.7363 38.4685V37.7138L65.3471 36.7773L65.4232 36.8217Z" fill="#F50D1B"/>
<path d="M63.8124 37.7592V38.5139L63.7363 38.4695V37.7148L63.8124 37.7592Z" fill="#C00A15"/>
<path d="M65.5745 37.9052L67.1874 36.9688L67.1852 37.7234L65.5745 38.6599V37.9052Z" fill="#F1FFC9"/>
<path d="M61.7727 35.706L65.5756 37.9023L67.1885 36.9659L64.673 35.5157L63.3856 34.7695L63.17 34.8942L62.984 35.0021L62.8402 35.0866L61.7727 35.706Z" fill="#6D9647"/>
<path d="M65.5756 37.9034V38.658L61.7727 36.4638V35.707L65.5756 37.9034Z" fill="#C1D680"/>
<path d="M65.5396 36.01L63.9288 36.9465L63.4003 36.6399L63.3221 36.5955L63.1699 36.5089L64.7807 35.5703L64.935 35.6591L65.0111 35.7035L65.5396 36.01Z" fill="#F6F6F6"/>
<path d="M63.9282 36.9454L63.9261 37.7L63.3998 37.3956L63.3215 37.3513L63.1672 37.2625L63.1693 36.5078L63.3215 36.5945L63.3998 36.6389L63.9282 36.9454Z" fill="#C6C6C6"/>
<path d="M64.9629 35.6751L63.35 36.6137V37.3683L63.2739 37.3239V36.5693L64.8847 35.6328L64.9629 35.6751Z" fill="#F50D1B"/>
<path d="M63.35 36.6147V37.3694L63.2739 37.325V36.5703L63.35 36.6147Z" fill="#C00A15"/>
<path d="M65.4237 35.9428L63.8129 36.8793V37.6361L63.7368 37.5917V36.8349L65.3476 35.8984L65.4237 35.9428Z" fill="#F50D1B"/>
<path d="M63.8129 36.8803V37.6371L63.7368 37.5927V36.8359L63.8129 36.8803Z" fill="#C00A15"/>
<path d="M65.5775 37.0341L67.1883 36.0977L67.1862 36.8523L65.5754 37.7888L65.5775 37.0341Z" fill="#F1FFC9"/>
<path d="M61.7751 34.8349L65.578 37.0312L67.1888 36.0948L64.6754 34.6425L63.3859 33.8984L63.1724 34.0232L62.9864 34.131L62.8405 34.2155L61.7751 34.8349Z" fill="#6D9647"/>
<path d="M62.2803 34.8418L63.3858 34.1992L66.6814 36.1017L65.5758 36.7443L62.2803 34.8418Z" fill="#F1FFC9"/>
<path d="M65.5777 37.0362L65.5756 37.7908L61.7727 35.5945L61.7748 34.8398L65.5777 37.0362Z" fill="#C1D680"/>
<path d="M65.0662 34.989C65.3346 35.1433 65.2353 35.4541 64.8421 35.6802C64.4489 35.9064 63.9141 35.9635 63.6456 35.8092C63.3772 35.6549 63.4765 35.3441 63.8697 35.118C64.2629 34.8918 64.7977 34.8347 65.0662 34.989Z" fill="#6D9647"/>
<path d="M65.5417 35.1506L63.9288 36.0871L63.4003 35.7806L63.3242 35.7362L63.1699 35.6474L64.7807 34.7109L64.935 34.7997L65.0111 34.8441L65.5417 35.1506Z" fill="#F6F6F6"/>
<path d="M63.9282 36.0881V36.8428L63.3998 36.5384L63.3215 36.494L63.1672 36.4031L63.1693 35.6484L63.3215 35.7372L63.3998 35.7816L63.9282 36.0881Z" fill="#C6C6C6"/>
<path d="M64.9629 34.8139L63.3521 35.7504V36.5071L63.2739 36.4628V35.706L64.8868 34.7695L64.9629 34.8139Z" fill="#F50D1B"/>
<path d="M63.3521 35.7514V36.5082L63.2739 36.4638V35.707L63.3521 35.7514Z" fill="#C00A15"/>
<path d="M65.4261 35.0835L63.8132 36.0199V36.7746L63.7371 36.7302V35.9755L65.3478 35.0391L65.4261 35.0835Z" fill="#F50D1B"/>
<path d="M63.8132 36.021V36.7756L63.7371 36.7312V35.9766L63.8132 36.021Z" fill="#C00A15"/>
<path d="M65.7043 35.7271C65.7952 35.78 65.7952 35.8645 65.7043 35.9153C65.6134 35.9681 65.4675 35.9681 65.3787 35.9153C65.2878 35.8624 65.2878 35.7779 65.3787 35.7271C65.4696 35.6743 65.6155 35.6743 65.7043 35.7271Z" fill="#6D9647"/>
<path d="M63.713 34.7506C63.8039 34.8034 63.8039 34.888 63.713 34.9387C63.6221 34.9916 63.4763 34.9916 63.3875 34.9387C63.2966 34.8859 63.2966 34.8034 63.3875 34.7506C63.4784 34.6977 63.6243 34.6977 63.713 34.7506Z" fill="#6D9647"/>
<path d="M64.8142 35.8041L65.5985 36.2565L65.719 36.1867L64.9347 35.7344L64.8142 35.8041Z" fill="#6D9647"/>
<path d="M64.7119 35.9339L65.3292 36.2911L65.4264 36.2362L64.807 35.8789L64.7119 35.9339Z" fill="#6D9647"/>
<path d="M63.8354 40.956L65.4462 40.0195V40.7742L63.8354 41.7106V40.956Z" fill="#F1FFC9"/>
<path d="M60.0327 38.7568L63.8356 40.9531L65.4485 40.0166L62.933 38.5644L61.6435 37.8203L61.43 37.945L61.244 38.0528L61.1002 38.1374L60.0327 38.7568Z" fill="#6D9647"/>
<path d="M63.8356 40.9541V41.7088L60.0327 39.5125V38.7578L63.8356 40.9541Z" fill="#C1D680"/>
<path d="M63.7998 39.0647L62.1891 39.999L61.6585 39.6946L61.5824 39.6502L61.4302 39.5615L63.041 38.625L63.1953 38.7138L63.2714 38.7582L63.7998 39.0647Z" fill="#F6F6F6"/>
<path d="M62.1885 40.0001L62.1864 40.7568L61.6579 40.4503L61.5818 40.4059L61.4275 40.3172L61.4296 39.5625L61.5818 39.6513L61.6579 39.6957L62.1885 40.0001Z" fill="#C6C6C6"/>
<path d="M63.2213 38.728L61.6105 39.6644V40.4212L61.5344 40.3747V39.62L63.1452 38.6836L63.2213 38.728Z" fill="#F50D1B"/>
<path d="M61.6105 39.6655V40.4223L61.5344 40.3757V39.6211L61.6105 39.6655Z" fill="#C00A15"/>
<path d="M63.6853 38.9975L62.0746 39.934V40.6886L61.9963 40.6442V39.8896L63.6092 38.9531L63.6853 38.9975Z" fill="#F50D1B"/>
<path d="M62.0746 39.935V40.6897L61.9963 40.6453V39.8906L62.0746 39.935Z" fill="#C00A15"/>
<path d="M63.8354 40.0849L65.4462 39.1484V39.9052L63.8354 40.8417V40.0849Z" fill="#F1FFC9"/>
<path d="M60.0327 37.8857L63.8356 40.082L65.4485 39.1434L62.933 37.6933L61.6435 36.9492L61.43 37.0739L61.244 37.1817L61.1002 37.2663L60.0327 37.8857Z" fill="#6D9647"/>
<path d="M63.8356 40.0809V40.8377L60.0327 38.6414V37.8867L63.8356 40.0809Z" fill="#C1D680"/>
<path d="M63.7998 38.1993L62.1891 39.1357L61.6585 38.8313L61.5824 38.787L61.4302 38.6982L63.041 37.7617L63.1953 37.8505L63.2714 37.8949L63.7998 38.1993Z" fill="#F6F6F6"/>
<path d="M62.1885 39.1368L62.1864 39.8936L61.6579 39.5871L61.5818 39.5427L61.4275 39.4539L61.4296 38.6992L61.5818 38.788L61.6579 38.8324L62.1885 39.1368Z" fill="#C6C6C6"/>
<path d="M63.223 37.8569L61.6122 38.7933V39.548L61.5361 39.5036V38.749L63.1469 37.8125L63.223 37.8569Z" fill="#F50D1B"/>
<path d="M61.6122 38.7944V39.549L61.5361 39.5047V38.75L61.6122 38.7944Z" fill="#C00A15"/>
<path d="M63.6851 38.1264L62.0743 39.0629V39.8175L61.9961 39.7731V39.0185L63.609 38.082L63.6851 38.1264Z" fill="#F50D1B"/>
<path d="M62.0746 39.0639V39.8186L61.9963 39.7742V39.0195L62.0746 39.0639Z" fill="#C00A15"/>
<path d="M63.8354 39.2177L65.4462 38.2812V39.0359L63.8354 39.9724V39.2177Z" fill="#F1FFC9"/>
<path d="M60.0327 37.0185L63.8356 39.2148L65.4485 38.2784L62.933 36.8261L61.6435 36.082L61.43 36.2068L61.244 36.3146L61.1002 36.3991L60.0327 37.0185Z" fill="#6D9647"/>
<path d="M63.8356 39.2159V39.9705L60.0327 37.7742V37.0195L63.8356 39.2159Z" fill="#C1D680"/>
<path d="M63.7998 37.3225L62.1891 38.2568L61.6585 37.9524L61.5824 37.908L61.4302 37.8193L63.041 36.8828L63.1953 36.9716L63.2714 37.016L63.7998 37.3225Z" fill="#F6F6F6"/>
<path d="M62.1887 38.2579L62.1866 39.0147L61.6582 38.7081L61.5821 38.6638L61.4277 38.575L61.4299 37.8203L61.5821 37.9091L61.6582 37.9535L62.1887 38.2579Z" fill="#C6C6C6"/>
<path d="M63.2213 36.9897L61.6105 37.9262V38.6829L61.5344 38.6364V37.8818L63.1452 36.9453L63.2213 36.9897Z" fill="#F50D1B"/>
<path d="M61.6105 37.9272V38.684L61.5344 38.6375V37.8828L61.6105 37.9272Z" fill="#C00A15"/>
<path d="M63.6853 37.2553L62.0746 38.1918V38.9464L61.9963 38.902V38.1474L63.6092 37.2109L63.6853 37.2553Z" fill="#F50D1B"/>
<path d="M62.0746 38.1928V38.9475L61.9963 38.9031V38.1484L62.0746 38.1928Z" fill="#C00A15"/>
<path d="M63.8376 38.3583L65.4483 37.4219L65.4462 38.1786L63.8354 39.1151L63.8376 38.3583Z" fill="#F1FFC9"/>
<path d="M60.0347 36.163L63.8376 38.3572L65.4483 37.4208L62.9349 35.9707L61.6454 35.2266L61.4298 35.3513L61.2459 35.4591L61.1001 35.5436L60.0347 36.163Z" fill="#6D9647"/>
<path d="M60.5388 36.1679L61.6444 35.5273L64.9399 37.4298L63.8344 38.0725L60.5388 36.1679Z" fill="#F1FFC9"/>
<path d="M63.8377 38.3505L63.8356 39.1072L60.0327 36.9109L60.0348 36.1562L63.8377 38.3505Z" fill="#C1D680"/>
<path d="M63.3252 36.3015C63.5937 36.4558 63.4943 36.7666 63.1011 36.9927C62.708 37.2189 62.1731 37.276 61.9047 37.1217C61.6362 36.9674 61.7356 36.6566 62.1287 36.4305C62.5219 36.2043 63.0567 36.1472 63.3252 36.3015Z" fill="#6D9647"/>
<path d="M63.802 36.4571L62.1891 37.3936L61.6606 37.0892L61.5845 37.0448L61.4302 36.956L63.041 36.0195L63.1953 36.1083L63.2714 36.1527L63.802 36.4571Z" fill="#F6F6F6"/>
<path d="M62.1885 37.3946V38.1514L61.66 37.8449L61.5818 37.8005L61.4275 37.7117L61.4296 36.957L61.5818 37.0458L61.66 37.0902L62.1885 37.3946Z" fill="#C6C6C6"/>
<path d="M63.2251 36.1342L61.6122 37.0707V37.8253L61.5361 37.781V37.0263L63.149 36.0898L63.2251 36.1342Z" fill="#F50D1B"/>
<path d="M61.6122 37.0717V37.8264L61.5361 37.782V37.0273L61.6122 37.0717Z" fill="#C00A15"/>
<path d="M63.6873 36.392L62.0744 37.3285V38.0832L61.9983 38.0388V37.2841L63.6091 36.3477L63.6873 36.392Z" fill="#F50D1B"/>
<path d="M62.0744 37.3295V38.0842L61.9983 38.0398V37.2852L62.0744 37.3295Z" fill="#C00A15"/>
<path d="M63.9648 37.0435C64.0557 37.0964 64.0557 37.1809 63.9648 37.2317C63.8739 37.2845 63.728 37.2845 63.6392 37.2317C63.5483 37.1788 63.5483 37.0943 63.6392 37.0435C63.7301 36.9907 63.876 36.9907 63.9648 37.0435Z" fill="#6D9647"/>
<path d="M61.9711 36.0631C62.062 36.1159 62.062 36.2005 61.9711 36.2512C61.8802 36.3041 61.7343 36.3041 61.6456 36.2512C61.5547 36.1984 61.5547 36.1138 61.6456 36.0631C61.7365 36.0102 61.8823 36.0102 61.9711 36.0631Z" fill="#6D9647"/>
<path d="M63.075 37.1205L63.8571 37.5729L63.9797 37.5032L63.1954 37.0508L63.075 37.1205Z" fill="#6D9647"/>
<path d="M62.9719 37.2464L63.5892 37.6036L63.6864 37.5487L63.067 37.1914L62.9719 37.2464Z" fill="#6D9647"/>
<path d="M62.0962 42.2763L63.707 41.3398V42.0945L62.0962 43.031V42.2763Z" fill="#F1FFC9"/>
<path d="M58.2935 40.0771L62.0963 42.2713L63.7071 41.3348L61.1937 39.8847L59.9042 39.1406L59.6907 39.2653L59.5047 39.3732L59.361 39.4556L58.2935 40.0771Z" fill="#6D9647"/>
<path d="M62.0963 42.2723V43.027L58.2935 40.8328V40.0781L62.0963 42.2723Z" fill="#C1D680"/>
<path d="M62.06 40.379L60.4492 41.3154L59.9186 41.011L59.8425 40.9666L59.6882 40.8779L61.3011 39.9414L61.4554 40.0302L61.5315 40.0725L62.06 40.379Z" fill="#F6F6F6"/>
<path d="M60.4492 41.3165L60.4471 42.0711L59.9186 41.7667L59.8425 41.7223L59.6882 41.6336V40.8789L59.8425 40.9677L59.9186 41.0121L60.4492 41.3165Z" fill="#C6C6C6"/>
<path d="M61.4838 40.0444L59.873 40.9808V41.7355L59.7969 41.6911V40.9365L61.4077 40L61.4838 40.0444Z" fill="#F50D1B"/>
<path d="M59.873 40.9819V41.7365L59.7969 41.6922V40.9375L59.873 40.9819Z" fill="#C00A15"/>
<path d="M61.9422 40.3139L60.3314 41.2504V42.0071L60.2532 41.9628V41.206L61.8661 40.2695L61.9422 40.3139Z" fill="#F50D1B"/>
<path d="M60.3314 41.2514V42.0082L60.2532 41.9638V41.207L60.3314 41.2514Z" fill="#C00A15"/>
<path d="M62.0972 41.3779L63.7079 40.4414V41.1961L62.0972 42.1325V41.3779Z" fill="#F1FFC9"/>
<path d="M58.2935 39.1765L62.0963 41.3729L63.7071 40.4364L61.1937 38.9863L59.9042 38.2422L59.6907 38.3648L59.5047 38.4726L59.361 38.5572L58.2935 39.1765Z" fill="#6D9647"/>
<path d="M62.0963 41.376V42.1307L58.2935 39.9365V39.1797L62.0963 41.376Z" fill="#C1D680"/>
<path d="M62.06 39.4944L60.4492 40.4308L59.9186 40.1243L59.8425 40.082L59.6882 39.9933L61.3011 39.0547L61.4554 39.1435L61.5315 39.1879L62.06 39.4944Z" fill="#F6F6F6"/>
<path d="M60.4492 40.4298L60.4471 41.1844L59.9186 40.88L59.8425 40.8356L59.6882 40.7468V39.9922L59.8425 40.081L59.9186 40.1232L60.4492 40.4298Z" fill="#C6C6C6"/>
<path d="M61.4845 39.1517L59.8737 40.0902V40.8449L59.7976 40.8005V40.0458L61.4084 39.1094L61.4845 39.1517Z" fill="#F50D1B"/>
<path d="M59.8737 40.0913V40.8459L59.7976 40.8015V40.0469L59.8737 40.0913Z" fill="#C00A15"/>
<path d="M61.9422 39.4233L60.3314 40.3598V41.1165L60.2532 41.0721V40.3154L61.8661 39.3789L61.9422 39.4233Z" fill="#F50D1B"/>
<path d="M60.3314 40.3608V41.1176L60.2532 41.0732V40.3164L60.3314 40.3608Z" fill="#C00A15"/>
<path d="M62.0962 40.5107L63.707 39.5742V40.3289L62.0962 41.2653V40.5107Z" fill="#F1FFC9"/>
<path d="M58.2935 38.3115L62.0963 40.5057L63.7071 39.5692L61.1937 38.1191L59.9042 37.375L59.6907 37.4997L59.5047 37.6075L59.361 37.6921L58.2935 38.3115Z" fill="#6D9647"/>
<path d="M62.0963 40.5067V41.2614L58.2935 39.0672V38.3125L62.0963 40.5067Z" fill="#C1D680"/>
<path d="M62.0593 38.6251L60.4485 39.5615L59.9179 39.2571L59.8418 39.2127L59.6875 39.124L61.3004 38.1875L61.4547 38.2763L61.5308 38.3207L62.0593 38.6251Z" fill="#F6F6F6"/>
<path d="M60.4485 39.5626L60.4464 40.3172L59.9179 40.0128L59.8418 39.9684L59.6875 39.8797V39.125L59.8418 39.2138L59.9179 39.2582L60.4485 39.5626Z" fill="#C6C6C6"/>
<path d="M61.4838 38.2866L59.873 39.223V39.9777L59.7969 39.9333V39.1786L61.4077 38.2422L61.4838 38.2866Z" fill="#F50D1B"/>
<path d="M59.873 39.2241V39.9787L59.7969 39.9343V39.1797L59.873 39.2241Z" fill="#C00A15"/>
<path d="M61.9422 38.5444L60.3314 39.4808V40.2376L60.2532 40.1932V39.4386L61.8661 38.5L61.9422 38.5444Z" fill="#F50D1B"/>
<path d="M60.3314 39.4798V40.2365L60.2532 40.1922V39.4375L60.3314 39.4798Z" fill="#C00A15"/>
<path d="M62.0962 39.6552L63.7091 38.7188L63.707 39.4734L62.0962 40.4099V39.6552Z" fill="#F1FFC9"/>
<path d="M58.2937 37.4638L62.0966 39.6601L63.7095 38.7237L61.1961 37.2735L59.9066 36.5273L59.691 36.6521L59.5071 36.7599L59.3612 36.8444L58.2937 37.4638Z" fill="#6D9647"/>
<path d="M58.8015 37.4707L59.9071 36.8281L63.2026 38.7306L62.0971 39.3732L58.8015 37.4707Z" fill="#F1FFC9"/>
<path d="M62.0963 39.6573V40.4119L58.2935 38.2177V37.4609L62.0963 39.6573Z" fill="#C1D680"/>
<path d="M61.5872 37.6062C61.8556 37.7605 61.7563 38.0713 61.3631 38.2974C60.9699 38.5236 60.4351 38.5807 60.1666 38.4264C59.8982 38.2721 59.9975 37.9613 60.3907 37.7351C60.7839 37.509 61.3187 37.4519 61.5872 37.6062Z" fill="#6D9647"/>
<path d="M62.0606 37.7678L60.4498 38.7043L59.9213 38.3978L59.8431 38.3534L59.6909 38.2667L61.3017 37.3281L61.456 37.4169L61.5321 37.4613L62.0606 37.7678Z" fill="#F6F6F6"/>
<path d="M60.4492 38.7032V39.4579L59.9208 39.1535L59.8425 39.1091L59.6882 39.0203L59.6903 38.2656L59.8425 38.3523L59.9208 38.3967L60.4492 38.7032Z" fill="#C6C6C6"/>
<path d="M61.4859 37.4368L59.873 38.3754V39.13L59.7969 39.0856V38.331L61.4098 37.3945L61.4859 37.4368Z" fill="#F50D1B"/>
<path d="M59.873 38.3764V39.1311L59.7969 39.0867V38.332L59.873 38.3764Z" fill="#C00A15"/>
<path d="M61.9454 37.7006L60.3346 38.6371V39.3939L60.2585 39.3495V38.5927L61.8693 37.6562L61.9454 37.7006Z" fill="#F50D1B"/>
<path d="M60.3349 38.6381V39.3949L60.2588 39.3505V38.5938L60.3349 38.6381Z" fill="#C00A15"/>
<path d="M62.2262 38.3482C62.3171 38.4011 62.3171 38.4835 62.2262 38.5364C62.1353 38.5892 61.9895 38.5892 61.9007 38.5364C61.8098 38.4835 61.8098 38.399 61.9007 38.3482C61.9916 38.2954 62.1374 38.2954 62.2262 38.3482Z" fill="#6D9647"/>
<path d="M60.2323 37.3756C60.3232 37.4284 60.3232 37.513 60.2323 37.5637C60.1414 37.6166 59.9956 37.6166 59.9068 37.5637C59.8159 37.5109 59.8159 37.4263 59.9068 37.3756C59.9977 37.3227 60.1436 37.3227 60.2323 37.3756Z" fill="#6D9647"/>
<path d="M61.3347 38.4234L62.1169 38.8758L62.2395 38.8039L61.4552 38.3516L61.3347 38.4234Z" fill="#6D9647"/>
<path d="M61.2312 38.5454L61.8485 38.9005L61.9436 38.8455L61.3263 38.4883L61.2312 38.5454Z" fill="#6D9647"/>
<path d="M67.6809 52.0341C68.573 55.5135 69.4904 59.4749 70.0908 62.5485C70.3994 63.3032 71.3274 63.4934 72.137 63.6055C72.3716 63.6372 72.6042 63.597 72.8325 63.5484C73.4032 63.4321 73.3652 63.0474 73.2193 62.6606C72.8726 60.9864 72.7606 59.8258 72.6253 58.5934C72.5492 57.8895 72.4625 57.1645 72.323 56.3083C72.025 54.4946 71.765 52.7105 70.875 51.1018C70.9744 50.8566 71.2048 50.6896 71.4225 50.5395C73.0946 49.3748 74.5003 48.3073 76.1703 47.1425C76.2464 47.6012 76.2147 48.0705 76.2527 48.5356C76.2908 49.0006 76.5043 49.4593 76.7178 49.8715C77.5274 51.4485 78.3518 52.943 78.986 54.5982C79.3179 55.467 79.6519 56.2703 79.9732 57.0693C80.3685 58.0544 80.7321 59.0331 81.0344 60.1302C81.1696 60.6291 81.677 61.8446 83.607 61.7114C83.7761 61.7009 83.9494 61.667 84.091 61.574C84.2327 61.481 84.3637 61.2887 84.3405 61.1217C84.1397 59.6208 83.5752 58.4539 83.1905 56.989C82.8481 55.6742 82.679 54.2473 82.3365 52.9282C81.8144 50.92 80.2882 49.0936 80.1296 48.914C79.9668 48.7343 79.6476 48.3538 79.9267 47.7703C80.0704 47.4702 80.3664 46.7303 80.6158 46.0813C80.8547 45.4683 81.0513 44.942 81.0513 44.942C83.18 42.9147 81.7552 40.3633 81.7552 40.3633C79.8464 40.3633 77.9904 41.1475 76.1238 41.5365C74.828 41.8071 73.0016 41.9212 72.0799 42.8725C71.6952 43.272 71.321 43.6736 70.9596 44.0837C69.6828 45.5296 68.5603 47.0749 67.6577 48.8019C67.144 49.7807 67.4082 50.9644 67.683 52.0319L67.6809 52.0341Z" fill="#1880F1"/>
<g style="mix-blend-mode:multiply" opacity="0.5">
<path d="M72.326 56.3179C72.0279 54.5042 71.7679 52.7201 70.878 51.1114C70.9773 50.8662 71.2077 50.6992 71.4255 50.5491C73.0976 49.3844 74.5033 48.3169 76.1733 47.1521C76.2494 47.6108 76.2177 48.0801 76.2557 48.5452C76.2938 49.0102 76.5073 49.4689 76.7208 49.8812C77.5304 51.4581 78.3548 52.9526 78.989 54.6078C79.3208 55.4766 79.6548 56.2799 79.9762 57.0789C79.6548 55.1511 79.0756 53.2634 78.2554 51.4856C77.7904 50.4815 77.1309 49.3992 77.2091 48.2957C78.1392 47.2938 79.3251 46.5285 80.6209 46.0931C80.8598 45.48 81.0563 44.9537 81.0563 44.9537C83.185 42.9265 81.7603 40.375 81.7603 40.375C79.8514 40.375 77.9954 41.1593 76.1289 41.5482C74.8331 41.8188 73.0067 41.9329 72.085 42.8842C71.7003 43.2837 71.3261 43.6853 70.9646 44.0954C71.6728 44.3216 72.1632 45.0509 72.9285 45.5117C73.3872 45.7887 73.886 46.1205 73.9304 46.6554C73.9896 47.3318 73.5732 47.613 73.0405 48.0336C71.8525 48.9743 70.7427 50.0503 69.5547 50.9888C70.7744 53.4621 71.8229 55.9818 72.6304 58.6009C72.5543 57.897 72.4676 57.172 72.3281 56.3158L72.326 56.3179Z" fill="#1B76D1"/>
</g>
<path d="M64.1889 38.6783C63.5991 38.5853 63.0791 38.0801 62.483 38.0547C62.185 38.0674 61.889 38.0822 61.591 38.0949C61.5339 38.097 61.4726 38.1012 61.424 38.1329C61.3753 38.1646 61.3077 38.2365 61.3373 38.2851C61.2231 38.2766 61.1069 38.2682 60.9927 38.2597C60.9018 38.2534 60.8067 38.2471 60.7243 38.2893C60.6735 38.3147 60.6313 38.3633 60.6249 38.4183C60.6186 38.4754 60.627 38.5493 60.6841 38.5536C60.5974 38.5536 60.5065 38.5557 60.4262 38.5937C60.3459 38.6297 60.2803 38.7121 60.2909 38.7988C60.2994 38.8643 60.348 38.9193 60.4051 38.951C60.4621 38.9827 60.5171 39.0546 60.5826 39.0672C60.5129 39.0715 60.4621 39.1433 60.4643 39.211C60.4643 39.2807 60.5108 39.342 60.5678 39.3822C60.6249 39.4224 60.6904 39.4435 60.756 39.4647C61.1132 39.5788 61.5529 39.5471 61.8087 39.8219C62.1533 40.1897 62.6373 40.4265 63.1404 40.4687C63.6435 40.511 64.1593 40.3631 64.5631 40.0565C64.7406 39.9213 64.802 39.6612 64.7893 39.4393C64.7766 39.2152 64.673 38.9996 64.5102 38.8474C64.4215 38.765 64.3031 38.6402 64.1889 38.6783Z" fill="#FFB294"/>
<path d="M67.356 35.9123C67.2081 36.6606 67.0791 37.3962 66.9312 38.1445C67.5695 38.2967 68.2629 38.2037 68.8379 37.8845C69.0979 37.7408 69.3304 37.5548 69.5841 37.4026C69.8377 37.2504 70.1231 37.1299 70.4191 37.1362C70.3472 36.7874 70.3134 36.4577 70.2415 36.1089C69.7891 36.335 69.2353 36.2019 68.7406 36.1004C68.2904 36.0074 67.8063 36.0032 67.3582 35.9102L67.356 35.9123Z" fill="#FFB294"/>
<path d="M73.2137 26.5415L72.1335 25.8968C71.9665 25.7974 71.7615 25.7847 71.5839 25.8651C70.8652 26.1906 69.0599 27.1397 69.0261 28.4588L68.8464 30.2049L73.1503 26.7127L73.2137 26.5415Z" fill="#0B4D95"/>
<path d="M71.9878 36.8636C71.5248 37.1722 70.8568 37.5273 70.3136 37.6457C69.8422 37.4343 69.6625 36.7071 69.6223 36.1913C70.0218 36.0434 70.2375 35.8193 70.4531 35.7369C70.6074 35.6798 70.618 35.6016 70.7828 35.6016C70.9625 35.6016 71.1211 35.7178 71.2564 35.8383C71.5502 36.0983 71.77 36.5359 71.9878 36.8614V36.8636Z" fill="#1880F1"/>
<path d="M68.1952 29.8249C68.2058 30.8882 68.396 32.0593 68.7448 33.1374C68.9139 33.6595 69.1211 34.1605 69.3663 34.6171C69.8758 35.5704 70.5374 36.4287 71.1166 37.3377C71.6958 38.2487 72.2032 39.2338 72.3511 40.3034C72.4991 41.3731 72.3892 42.4998 71.6176 43.2544C72.6428 43.7068 73.4757 44.8568 74.4037 45.6072C74.8286 45.9539 75.2789 46.216 75.7735 46.2879C77.1074 46.4802 78.7478 45.9179 79.8893 45.2034C81.0286 44.4868 81.7812 44.0091 82.6923 43.0134C82.5993 41.0475 82.2272 39.9314 81.8066 38.8808C81.1851 37.3355 80.5657 35.7882 80.0753 34.1964C79.6166 32.6934 79.2741 31.1482 78.6695 29.6981C78.5343 29.3704 78.3715 29.0512 78.1939 28.7405C78.0755 26.3454 75.7122 26.0664 75.7122 26.0664C74.2579 26.0854 73.072 26.0136 71.8163 26.7513C70.5628 27.4912 69.2437 28.8166 68.1931 29.8249H68.1952Z" fill="#1880F1"/>
<g style="mix-blend-mode:multiply" opacity="0.5">
<path d="M68.7451 33.1416C68.9142 33.6637 69.1214 34.1647 69.3666 34.6213C69.876 35.5747 70.5377 36.4329 71.1169 37.3419C71.6961 38.253 72.2034 39.238 72.3514 40.3077C72.4994 41.3773 72.3895 42.504 71.6179 43.2587C72.6431 43.711 73.476 44.861 74.404 45.6114C74.3237 45.5015 74.2391 45.3979 74.1863 45.3007C73.7762 44.5608 73.6134 43.7005 73.5627 42.8655C73.4887 41.6754 73.6155 40.4726 73.4464 39.2909C73.2477 37.8957 72.6474 36.583 71.8758 35.3992C71.1063 34.2197 70.1699 33.1585 69.2377 32.1016C69.0728 32.4482 68.91 32.7949 68.7472 33.1416H68.7451Z" fill="#1B76D1"/>
</g>
<path d="M69.7904 33.333C69.1457 34.6647 68.6151 35.8421 67.9703 37.1739C67.4926 38.159 66.8458 39.0806 66.053 39.8332C65.7846 40.0868 65.4781 40.313 65.1229 40.4229C64.7699 40.5307 64.3619 40.5096 64.0575 40.3003C63.7531 40.091 63.5819 39.6767 63.713 39.3301C64.1506 38.1843 64.6072 36.9562 65.3512 35.9859C66.0213 35.1128 66.1714 33.8487 66.5139 32.8024C66.8563 31.756 67.3214 30.5003 68.1923 29.8281C69.2006 30.4327 70.2999 32.2781 69.7883 33.3351L69.7904 33.333Z" fill="#1880F1"/>
<g style="mix-blend-mode:multiply" opacity="0.5">
<path d="M74.0249 27.9648C75.8111 29.3135 76.9104 31.3893 77.6206 33.5117C78.3309 35.634 78.705 37.8536 79.3646 39.9929C78.426 37.9995 77.8362 35.894 77.1492 33.7992C76.4643 31.7064 75.6167 29.4868 74.0249 27.9648Z" fill="#1B76D1"/>
</g>
<path d="M46.0326 31.5975L46.0305 30.234L55.3084 24.8711L55.3105 26.2346L46.0326 31.5975Z" fill="white"/>
<path d="M50.6714 29.4578L55.3135 26.7773L55.3219 30.9206L50.6714 33.6073V29.4578Z" fill="white"/>
<path d="M50.3755 29.6289V33.7785L46.0441 36.2834L46.0356 32.1381L50.3755 29.6289Z" fill="white"/>
<path d="M48.6397 31.0391V34.3705L46.3398 35.7002L46.3335 32.3729L48.6397 31.0391Z" fill="#E6E6E6"/>
<path d="M51.0525 29.8705L54.9061 27.6445V27.951L51.0525 30.1791V29.8705Z" fill="#333333"/>
<path d="M48.8828 30.9079L50.0772 30.2188V30.7895L48.8828 31.4786V30.9079Z" fill="#E6E6E6"/>
<path d="M50.0772 31.1016V32.1141L48.8828 32.8032V31.7928L50.0772 31.1016Z" fill="#E6E6E6"/>
<path d="M50.0772 33.551L48.8828 34.2423V33.1071L50.0772 32.418V33.551Z" fill="#E6E6E6"/>
<path d="M51.9727 30.0196L54.9067 28.3242V28.6307L51.9727 30.3261V30.0196Z" fill="#333333"/>
<path d="M52.303 26.9555L55.0278 25.3828V25.5984L52.303 27.1733V26.9555Z" fill="#333333"/>
<path d="M52.9539 27.0579L55.0276 25.8594V26.0771L52.9539 27.2757V27.0579Z" fill="#333333"/>
<path d="M67.2238 15.7277C67.1625 15.6749 67.0738 15.6981 67.0484 15.7763C67.0209 15.8588 67.0547 15.9327 67.0759 16.0131C67.0949 16.0828 67.1139 16.1547 67.1351 16.2245C67.1795 16.383 67.2238 16.5415 67.2682 16.698C67.357 17.0087 67.4585 17.3152 67.56 17.6217C67.5938 17.7232 67.7439 17.683 67.7206 17.5774C67.653 17.2603 67.5832 16.9474 67.5029 16.6346C67.4627 16.4802 67.4226 16.328 67.3824 16.1758L67.3211 15.9475C67.2999 15.8693 67.2894 15.7848 67.226 15.7298L67.2238 15.7277Z" fill="white"/>
<path d="M65.3055 19.1953C65.185 19.0769 65.0708 18.9522 64.9503 18.8338C64.8298 18.7154 64.7051 18.6013 64.5783 18.4871C64.4515 18.373 64.3267 18.261 64.1999 18.1468C64.0815 18.0411 63.9526 17.8826 63.7771 17.9143C63.7327 17.9227 63.7074 17.9671 63.7053 18.0073C63.6947 18.1764 63.887 18.299 63.9991 18.3962C64.1217 18.504 64.2443 18.614 64.3669 18.7218C64.6185 18.9437 64.8848 19.1446 65.1448 19.3559C65.2568 19.4468 65.4154 19.2968 65.3055 19.1911V19.1953Z" fill="white"/>
<path d="M63.5654 21.4381C63.2356 21.3472 62.9058 21.25 62.5718 21.1717L62.0877 21.0576C61.9144 21.0153 61.7347 20.9477 61.5572 20.9899C61.462 21.0132 61.4155 21.1548 61.498 21.2204C61.6438 21.3366 61.8214 21.3535 61.999 21.3916C62.1617 21.4275 62.3224 21.4613 62.4852 21.4973C62.8213 21.5713 63.1616 21.6262 63.4998 21.6875C63.6605 21.7171 63.7281 21.4846 63.5654 21.4402V21.4381Z" fill="white"/>
<path d="M63.718 23.8985C63.3502 23.9725 62.9845 24.0422 62.6251 24.1543C62.4518 24.2071 62.2785 24.2578 62.1072 24.3149C61.9867 24.353 61.6802 24.4544 61.7606 24.6405C61.8367 24.818 62.1199 24.7229 62.2489 24.6827C62.4222 24.6278 62.5934 24.5728 62.7647 24.5179C63.1219 24.4037 63.4601 24.2515 63.8026 24.1014C63.9231 24.0486 63.8322 23.8773 63.718 23.9006V23.8985Z" fill="white"/>
<path d="M64.4929 26.8588C64.2837 27.011 64.0702 27.1526 63.8651 27.3112C63.7615 27.3915 63.6537 27.4655 63.5565 27.5543C63.51 27.5944 63.4698 27.643 63.4233 27.6853C63.3705 27.7339 63.3303 27.791 63.288 27.8481C63.2394 27.9136 63.3218 28.0151 63.3958 27.9876C63.6495 27.8988 63.8567 27.7361 64.0638 27.5669C64.2646 27.4021 64.4443 27.2182 64.6261 27.0321C64.7107 26.9455 64.5944 26.7848 64.4908 26.8588H64.4929Z" fill="white"/>
<path d="M70.9796 16.2493C70.8993 16.2979 70.8676 16.3465 70.8295 16.4311C70.7978 16.503 70.7703 16.5748 70.7429 16.6488C70.6858 16.7947 70.6308 16.9405 70.5822 17.0906C70.5357 17.2344 70.4892 17.3802 70.4469 17.5261C70.4025 17.6762 70.3793 17.8326 70.3518 17.9869C70.3433 18.0355 70.3624 18.0842 70.411 18.1032C70.4511 18.1201 70.5146 18.1074 70.5357 18.0609C70.5949 17.9193 70.6604 17.7819 70.7133 17.6381C70.7682 17.4902 70.819 17.3422 70.876 17.1963C70.931 17.0547 70.9838 16.911 71.0388 16.7693C71.0663 16.7017 71.0938 16.6319 71.1191 16.5643C71.1339 16.5241 71.1551 16.4839 71.1593 16.4417C71.1656 16.3973 71.1551 16.3592 71.1445 16.3148C71.1276 16.2451 71.0409 16.2134 70.9817 16.2493H70.9796Z" fill="white"/>
<path d="M74.2922 17.8306C74.1189 17.8898 73.9794 18.0526 73.8589 18.1836C73.7278 18.3231 73.601 18.4648 73.4763 18.6106C73.3558 18.7523 73.2374 18.8939 73.1233 19.0397C73.0049 19.1941 72.8759 19.3505 72.7893 19.5259C72.728 19.6464 72.8802 19.769 72.9795 19.6697C73.1106 19.5407 73.2184 19.3885 73.3346 19.2448C73.4551 19.0968 73.5756 18.9488 73.7004 18.8051C73.8208 18.6656 73.9456 18.5282 74.0745 18.3929C74.1971 18.2618 74.3557 18.1244 74.417 17.9511C74.4423 17.8813 74.3641 17.8052 74.2944 17.8285L74.2922 17.8306Z" fill="white"/>
<path d="M75.9671 21.2674C75.8825 21.2378 75.7937 21.2631 75.7092 21.2843C75.6225 21.3075 75.5337 21.3287 75.447 21.3498C75.2843 21.39 75.1215 21.4301 74.9587 21.4682C74.796 21.5062 74.6332 21.5443 74.4704 21.5823C74.3816 21.6035 74.295 21.6225 74.2062 21.6415C74.1195 21.6606 74.0286 21.6711 73.9525 21.7176C73.868 21.7684 73.8722 21.9333 73.9842 21.948C74.1512 21.9713 74.3436 21.9058 74.5106 21.8719C74.6818 21.8381 74.8509 21.8022 75.0222 21.762C75.1913 21.724 75.3604 21.6838 75.5295 21.6415C75.6817 21.6035 75.9163 21.5887 76.0241 21.464C76.0854 21.3942 76.0558 21.297 75.9713 21.2674H75.9671Z" fill="white"/>
<path d="M75.7135 24.7884C75.4725 24.7397 75.2463 24.6594 75.0159 24.5728C74.7559 24.4755 74.4938 24.3846 74.2147 24.3635C74.1471 24.3592 74.0879 24.4248 74.0879 24.4903C74.0879 24.5643 74.145 24.6108 74.2147 24.6171C74.703 24.6636 75.1195 24.9617 75.5951 25.0568C75.7008 25.078 75.9037 25.1202 75.9629 24.9976C76.039 24.8391 75.8128 24.8095 75.7135 24.7884Z" fill="white"/>
</g>
<defs>
<clipPath id="clip0_7454_26822">
<rect width="96" height="56" fill="white"/>
</clipPath>
</defs>
</svg>
