<svg width="96" height="56" viewBox="0 0 96 56" fill="none" xmlns="http://www.w3.org/2000/svg">
<g clip-path="url(#clip0_7454_30288)">
<g clip-path="url(#clip1_7454_30288)">
<path d="M40.5661 35.5207L37.8963 31.6611L36.5857 24.2714L46.7795 20.9766L56.0277 23.0005V35.5207L56.9248 55.8543H39.4982L40.5661 35.5207Z" fill="#0CCDEF"/>
<path opacity="0.2" d="M46.7795 20.9766L36.5857 24.2714L37.0362 26.8036L38.5157 27.1501L41.302 25.4669L44.1932 26.4873L46.7154 24.9058L50.7114 26.7415L47.896 30.8704L48.7697 55.8543L56.0277 27.6979V23.0005L46.7795 20.9766Z" fill="#231F20"/>
<path d="M46.7155 12.1729V22.8255L44.1932 24.407L41.3021 23.3865L39.9875 12.8865L43.3505 11L46.7155 12.1729Z" fill="#0CBAFF"/>
<path d="M50.7115 10.3867L46.7156 12.1716V22.8241L50.7115 24.6598L53.6551 23.8445L54.3367 12.3655L50.7115 10.3867Z" fill="#0CBAFF"/>
<path d="M57.8083 12.1719L54.3366 12.3658L53.655 23.8449L55.3365 25.0686L59.1752 23.9465L59.8063 14.0565L57.8083 12.1719Z" fill="#0CBAFF"/>
<g opacity="0.2">
<path d="M54.3366 12.3672C54.3191 13.3255 54.2822 14.2838 54.2395 15.2403C54.1987 16.1986 54.1404 17.155 54.0919 18.1114C54.0278 19.0679 53.9715 20.0243 53.8997 20.9788L53.7871 22.4116C53.7424 22.8898 53.7055 23.3662 53.655 23.8444C53.6609 23.3643 53.6803 22.8861 53.6919 22.4078L53.7502 20.9713C53.7909 20.013 53.8492 19.0566 53.8977 18.1001C53.9618 17.1437 54.0181 16.1873 54.09 15.2327C54.1618 14.2763 54.2375 13.3217 54.3346 12.3672H54.3366Z" fill="#231F20"/>
</g>
<path d="M39.9875 12.8867H36.9372L35.3081 15.5376L35.677 24.4072L38.5158 25.0699L41.3021 23.3868L39.9875 12.8867Z" fill="#0CBAFF"/>
<path d="M61.3421 18.5974L62.6528 26.1529L56.0278 35.5195L56.9248 55.8531H48.7698V31.5507L50.8746 28.3481L53.8667 26.8551L54.8375 23.3288L49.9348 19.9869L49.6435 16.6921L51.5852 14.6211L61.3421 18.5974Z" fill="#70DEFF"/>
<g opacity="0.2">
<path d="M41.3021 23.3847C41.1526 22.5149 41.0244 21.6413 40.9001 20.7677C40.7739 19.8941 40.6671 19.0187 40.5487 18.1451C40.4458 17.2696 40.3371 16.3941 40.2419 15.5168L40.104 14.2007C40.0652 13.7621 40.0206 13.3234 39.9875 12.8828C40.0633 13.3177 40.1293 13.7545 40.1992 14.1894L40.3895 15.4979C40.5137 16.3715 40.6225 17.247 40.7409 18.1206C40.8419 18.9961 40.9526 19.8715 41.0477 20.7489C41.1409 21.6263 41.2322 22.5036 41.3021 23.3829V23.3847Z" fill="#231F20"/>
</g>
<g opacity="0.2">
<path d="M46.7155 12.1719C46.7563 13.0605 46.7737 13.9473 46.7893 14.836C46.8048 15.7246 46.8029 16.6114 46.8126 17.5C46.8048 18.3887 46.8048 19.2755 46.7912 20.1641L46.764 21.4952C46.7485 21.9395 46.7388 22.3839 46.7155 22.8263C46.6941 22.382 46.6844 21.9376 46.667 21.4952L46.6398 20.1641C46.6242 19.2755 46.6242 18.3887 46.6184 17.5C46.6262 16.6114 46.6242 15.7246 46.6417 14.836C46.6572 13.9473 46.6767 13.0605 46.7155 12.1719Z" fill="#231F20"/>
</g>
<path opacity="0.2" d="M52.0861 14.8242L50.9055 16.5507L52.0861 17.701L54.7889 18.6198L55.7112 16.3022L52.0861 14.8242Z" fill="white"/>
<path d="M64.1751 38.9959C64.1984 38.962 64.2217 38.9244 64.2567 38.9055C64.2916 38.8867 64.3324 38.8867 64.3712 38.8867C64.5965 38.8867 64.8217 38.8867 65.0469 38.8867C65.1382 39.1842 65.1654 39.5005 65.1207 39.8074C65.1168 39.8413 65.1091 39.8752 65.0838 39.8977C65.0566 39.9203 65.0178 39.9241 64.9829 39.9241C64.5382 39.9392 64.0936 39.9749 63.647 39.9957C63.4237 40.0051 63.2023 40.007 62.979 40.0088C62.9324 40.0088 62.7985 40.0352 62.7596 40.0088C62.5965 39.8921 62.9305 39.8206 63.0082 39.7848C63.148 39.7227 63.2975 39.6775 63.4334 39.6078C63.7266 39.4591 63.9945 39.2708 64.1751 38.9959Z" fill="black"/>
<path d="M67.4351 38.9959C67.4584 38.962 67.4798 38.9244 67.5167 38.9055C67.5516 38.8867 67.5924 38.8867 67.6312 38.8867H68.3069C68.3982 39.1823 68.4254 39.4986 68.3807 39.8055C68.3768 39.8394 68.3691 39.8733 68.3438 39.8959C68.3166 39.9185 68.2778 39.9222 68.2429 39.9222C67.7982 39.9373 67.3536 39.9731 66.907 39.9938C66.6837 40.0032 66.4623 40.0051 66.2391 40.007C66.1925 40.007 66.0585 40.0333 66.0196 40.007C65.8565 39.8902 66.1905 39.8187 66.2682 39.7829C66.408 39.7208 66.5575 39.6756 66.6934 39.6059C66.9866 39.4572 67.2546 39.2689 67.4351 38.994V38.9959Z" fill="black"/>
<path d="M65.4992 34.5462C65.509 34.6384 65.5206 34.7307 65.5264 34.8192C65.5458 35.1035 65.5478 35.3896 65.54 35.6758C65.5187 36.5099 65.3575 37.3289 65.2701 38.1554C65.2585 38.257 65.2643 38.884 65.1478 38.933C64.8663 39.0534 64.5381 39.0685 64.2469 38.9763C64.2139 38.965 64.1789 38.9518 64.1575 38.9254C64.1342 38.8972 64.1304 38.8576 64.1284 38.82C64.0741 37.9351 64.1459 37.0276 64.0605 36.1521C64.008 35.6118 63.9964 35.0696 63.9964 34.5292C63.9964 34.0058 63.975 33.5596 64.1556 33.0588C64.5168 32.0666 64.8468 31.0612 65.142 30.0483C65.1925 29.8751 65.3342 29.7847 65.5051 29.7132C65.6759 29.6416 65.8662 29.6266 66.0507 29.6153C66.3012 29.6002 66.5575 29.5946 66.8002 29.6586C67.0429 29.7226 67.2739 29.8694 67.3807 30.0897C67.4429 30.2177 67.4603 30.3608 67.4681 30.5002C67.4836 30.792 67.4506 31.0763 67.3846 31.3606C67.3225 31.6298 67.1167 31.835 66.9516 32.0553C66.5769 32.5561 66.2002 33.055 65.8254 33.5558C65.707 33.714 65.5672 33.891 65.5148 34.0849C65.4759 34.2299 65.4837 34.388 65.4973 34.5443L65.4992 34.5462Z" fill="#004D7B"/>
<path d="M67.6039 34.5922C67.6311 34.8859 67.666 35.1777 67.7126 35.4695C67.8757 36.5276 68.1379 37.565 68.3806 38.6081C68.4388 38.8585 68.3883 38.9413 68.1612 39.0618C68.0097 39.1428 67.6486 39.2934 67.4738 39.2068C67.3301 39.1333 67.2796 38.8679 67.2428 38.7267C67.0486 37.9755 66.8544 37.2242 66.67 36.4712C66.4874 35.7237 66.3632 34.9537 66.1127 34.225C65.8234 33.3835 65.7011 32.5551 65.7069 31.6739C65.7069 31.4198 65.6312 31.0282 65.7302 30.7947C65.8525 30.5104 66.2894 30.4351 66.5651 30.5048C66.8894 30.5857 67.1515 30.8474 67.2894 31.1355C67.4699 31.5139 67.4835 31.945 67.4913 32.363C67.5088 33.1086 67.5301 33.8523 67.6 34.5922H67.6039Z" fill="#004D7B"/>
<path d="M65.2001 23.4194C65.239 23.6002 65.3283 23.7866 65.4972 23.8732C65.6584 23.9579 65.8564 23.9334 66.0331 23.8845C66.4506 23.7677 66.837 23.506 67.0389 23.1333C67.2408 22.7605 67.2272 22.2691 66.9573 21.9396C66.6739 21.5932 65.971 21.4331 65.6253 21.7777C65.2545 22.1467 65.0933 22.9318 65.2001 23.4194Z" fill="#FAAA94"/>
<path d="M66.6855 30.385C66.1476 30.4923 65.5923 30.5205 65.0467 30.4716C65.004 30.4678 64.9555 30.4603 64.9302 30.4264C64.9108 30.4019 64.9089 30.368 64.9069 30.3379C64.8506 28.7244 64.87 27.0638 65.2331 25.4842C65.2817 25.2733 65.3302 25.0606 65.4389 24.8723C65.6001 24.5937 65.8894 24.3866 66.2137 24.3226C66.5379 24.2586 66.8874 24.3376 67.1496 24.5334C67.4 24.7217 67.5612 25.0041 67.6447 25.3016C67.7282 25.5991 67.7379 25.9097 67.7301 26.2166C67.7204 26.5856 67.6874 26.9528 67.6524 27.3199C67.6097 27.7812 67.567 28.2424 67.5243 28.7037C67.4874 29.0972 67.4078 29.4587 67.4855 29.8522C67.5088 29.9651 67.536 29.9444 67.4738 30.0423C67.4272 30.1158 67.3088 30.1722 67.235 30.2118C67.0641 30.3021 66.8738 30.3511 66.6855 30.3888V30.385Z" fill="#00A073"/>
<path d="M65.9476 23.8003C65.9476 23.7325 65.9496 23.6591 65.9942 23.6064C66.0234 23.5706 66.0661 23.5518 66.1088 23.533C66.3321 23.4332 66.5612 23.3447 66.7942 23.2656C66.7845 23.6666 66.7748 24.0677 66.7631 24.4687C66.7631 24.5007 66.7631 24.5327 66.7476 24.5609C66.7301 24.5967 66.6932 24.6193 66.6564 24.6363C66.4835 24.7172 66.1515 24.7266 66.0078 24.5722C65.8622 24.416 65.9496 23.9961 65.9496 23.8003H65.9476Z" fill="#FAAA94"/>
<path d="M66.0622 26.3767C65.6486 26.7231 65.1962 27.0112 64.7419 27.3049C64.4506 27.4932 64.1089 27.7643 63.7341 27.6758C63.4642 27.6118 63.2235 27.4461 62.9827 27.3218C62.6623 27.1562 62.3167 27.0074 62.0157 26.8116C61.7983 26.6836 61.1342 26.3616 61.2624 26.0453C61.3148 25.9192 61.441 25.8608 61.5769 25.8891C62.3419 26.0472 62.9613 26.5047 63.6798 26.774C63.9302 26.8681 64.1632 26.7137 64.336 26.548C64.7982 26.0999 65.2253 25.6161 65.7302 25.2113C65.9671 25.0211 66.2874 24.8837 66.5049 25.1793C66.6447 25.3694 66.633 25.6368 66.5282 25.8476C66.4253 26.0585 66.2447 26.2261 66.0622 26.3786V26.3767Z" fill="#FAAA94"/>
<path d="M65.1788 25.5225C65.4099 25.323 65.6429 25.1272 65.8992 24.9596C66.0875 24.8353 66.3322 24.7826 66.5477 24.8749C66.8642 25.0142 66.9515 25.3135 66.8603 25.6298C66.8098 25.8068 66.7011 25.9612 66.5846 26.1043C66.3283 26.4187 66.0176 26.6898 65.67 26.9082C65.6467 26.9233 65.6215 26.9365 65.5943 26.9327C65.571 26.9289 65.5535 26.912 65.5361 26.895C65.3768 26.7331 65.2215 26.5674 65.0681 26.4018C64.9905 26.3189 64.9186 26.2304 64.839 26.1514C64.7924 26.1043 64.6856 26.0516 64.7031 25.9763C64.7147 25.9292 64.7516 25.8953 64.7885 25.8633L65.0837 25.6072C65.1147 25.579 65.1477 25.5526 65.1788 25.5244V25.5225Z" fill="#00A073"/>
<path d="M65.4661 22.1047C65.6156 22.1951 65.8758 22.1725 66.0486 22.1989C66.1651 22.2158 66.2913 22.2422 66.369 22.3288C66.4467 22.4173 66.4505 22.5415 66.4486 22.6582C66.4486 22.7844 66.4428 22.9105 66.437 23.0386C66.4836 22.9463 66.534 22.854 66.5884 22.7656C66.6253 22.7072 66.6758 22.6413 66.7457 22.6413C66.8195 22.6413 66.8719 22.7128 66.8913 22.7825C66.9321 22.9407 66.8641 23.1026 66.8117 23.257C66.7593 23.4113 66.7224 23.5921 66.8117 23.7276C66.8874 23.6316 66.9884 23.5563 67.0816 23.4735C67.3301 23.2513 67.5262 22.952 67.5457 22.6244C67.5612 22.374 67.4757 22.1254 67.3418 21.9127C67.2641 21.7884 67.1709 21.6736 67.0505 21.5888C66.7845 21.4043 66.4331 21.3987 66.1088 21.4194C65.9457 21.4307 65.7535 21.4589 65.5962 21.4025C65.47 21.3573 65.3826 21.3441 65.2622 21.4326C65.0079 21.6209 65.2622 21.9805 65.4642 22.1047H65.4661Z" fill="black"/>
<path d="M59.6567 23.5703C59.4509 23.6757 59.2451 23.7793 59.0393 23.8847C58.9344 23.9374 58.8276 23.9864 58.7247 24.0429C58.6335 24.0918 58.5344 24.1464 58.4529 24.2123C58.5422 24.427 58.6606 24.6209 58.7635 24.8261C58.7674 24.8336 58.7733 24.8412 58.781 24.843C58.7849 24.843 58.7888 24.843 58.7927 24.8393C59.1635 24.6416 59.548 24.4703 59.915 24.265C59.9519 24.2443 59.9965 24.2236 60.0334 24.2424C60.0567 24.2537 60.0703 24.2763 60.0819 24.2989C60.2955 24.6868 60.5091 25.0727 60.7246 25.4606" stroke="black" stroke-miterlimit="10"/>
<path d="M58.5363 23.7638C58.5207 23.7751 58.5071 23.7863 58.4955 23.8014C58.4314 23.8805 58.4838 23.9351 58.5266 24.0029C58.5906 24.1064 58.6411 24.2175 58.6994 24.3229C58.7207 24.3606 58.744 24.402 58.7867 24.4152C58.8295 24.4284 58.8761 24.4077 58.9168 24.3888C59.5382 24.0819 60.1615 23.7732 60.7401 23.3985C60.7886 23.3665 60.841 23.3288 60.8488 23.2705C60.8527 23.2385 60.841 23.2065 60.8274 23.1782C60.7789 23.0634 60.7207 22.9542 60.6508 22.8525C60.5614 22.7226 60.4488 22.7603 60.3304 22.8243C60.142 22.9259 59.9498 23.0238 59.7595 23.1217C59.379 23.3213 58.9984 23.519 58.6159 23.7186C58.5887 23.7336 58.5615 23.7468 58.5363 23.7656V23.7638Z" fill="#0CBAFF"/>
<path d="M60.1538 24.8205C60.3149 25.0785 60.4625 25.3533 60.6101 25.6207C60.6178 25.6358 60.6275 25.6527 60.645 25.6602C60.6605 25.6659 60.678 25.664 60.6935 25.6602C60.7654 25.6433 60.8333 25.6132 60.8916 25.5699C60.9071 25.5586 60.9246 25.5454 60.9285 25.5266C60.9343 25.504 60.9246 25.4832 60.913 25.4625C60.7654 25.1801 60.6392 24.8827 60.4664 24.6172C60.3557 24.6737 60.247 24.7377 60.146 24.8092C60.1479 24.813 60.1518 24.8168 60.1538 24.8205Z" fill="#004D7B"/>
<path d="M60.6004 26.1924C60.0839 26.2075 59.8548 25.2096 60.4101 25.0627C60.515 25.0345 60.6198 25.0063 60.7266 24.9799C60.7557 24.9724 60.7849 24.9648 60.8159 24.9648C60.9169 24.9648 60.9907 25.0571 61.0431 25.1399C61.1635 25.3301 61.247 25.5636 61.4101 25.7255C61.4683 25.7838 61.8353 26.0964 61.7615 26.1962C61.6936 26.2884 61.6081 26.392 61.4897 26.3938C61.2606 26.3995 61.1013 26.1867 60.8703 26.1736C60.781 26.1679 60.6878 26.1886 60.5985 26.1924H60.6004Z" fill="#FAAA94"/>
<path d="M36.0829 54.9725C36.0596 54.9386 36.0363 54.9009 36.0013 54.8821C35.9664 54.8633 35.9256 54.8633 35.8868 54.8633C35.6615 54.8633 35.4363 54.8633 35.2111 54.8633C35.1198 55.1608 35.0926 55.4771 35.1373 55.7839C35.1412 55.8178 35.1489 55.8517 35.1742 55.8743C35.2013 55.8969 35.2402 55.9007 35.2751 55.9007C35.7198 55.9157 36.1644 55.9515 36.611 55.9722C36.8343 55.9816 37.0556 55.9835 37.2789 55.9854C37.3255 55.9854 37.4595 56.0118 37.4983 55.9854C37.6614 55.8687 37.3275 55.7971 37.2498 55.7613C37.11 55.6992 36.9605 55.654 36.8246 55.5844C36.5314 55.4356 36.2634 55.2474 36.0829 54.9725Z" fill="black"/>
<path d="M32.7955 54.5786C32.7839 54.5391 32.7722 54.4977 32.7431 54.4694C32.7159 54.4431 32.6771 54.4299 32.6402 54.4186L31.9936 54.2266C31.8169 54.4845 31.6965 54.7801 31.646 55.087C31.6402 55.119 31.6363 55.1566 31.6538 55.1849C31.6713 55.215 31.7082 55.2282 31.7412 55.2395C32.1625 55.3807 32.5761 55.5407 32.9974 55.6857C33.2071 55.7572 33.4207 55.8212 33.6324 55.8871C33.677 55.9003 33.7974 55.9625 33.8421 55.9474C34.0323 55.8815 33.7353 55.7177 33.6712 55.6631C33.5566 55.5633 33.4265 55.4786 33.3178 55.375C33.0829 55.1491 32.8829 54.8931 32.7936 54.5805L32.7955 54.5786Z" fill="black"/>
<path d="M34.7566 50.5271C34.7469 50.6194 34.7352 50.7116 34.7294 50.8001C34.71 51.0844 34.708 51.3706 34.7158 51.6568C34.7372 52.4908 34.8983 53.3098 34.9857 54.1363C34.9974 54.238 34.9915 54.865 35.108 54.9139C35.3896 55.0344 35.7177 55.0495 36.009 54.9572C36.042 54.9459 36.0769 54.9327 36.0983 54.9064C36.1216 54.8781 36.1255 54.8386 36.1274 54.8009C36.1818 53.9161 36.1099 53.0086 36.1954 52.1331C36.2478 51.5928 36.2594 51.0505 36.2594 50.5102C36.2594 49.9868 36.2808 49.5406 36.1002 49.0398C35.7391 48.0476 35.409 47.0422 35.1139 46.0293C35.0634 45.8561 34.9216 45.7657 34.7508 45.6941C34.5799 45.6226 34.3896 45.6075 34.2052 45.5962C33.9547 45.5812 33.6984 45.5736 33.4557 45.6395C33.213 45.7035 32.9819 45.8504 32.8751 46.0707C32.813 46.1987 32.7955 46.3418 32.7877 46.4811C32.7722 46.7729 32.8052 47.0572 32.8712 47.3415C32.9334 47.6108 33.1392 47.816 33.3042 48.0363C33.679 48.5371 34.0556 49.036 34.4304 49.5368C34.5488 49.695 34.6886 49.8738 34.7411 50.0659C34.7799 50.2108 34.7721 50.369 34.7585 50.5252L34.7566 50.5271Z" fill="#004D7B"/>
<path d="M32.8655 49.9498C32.8286 50.0364 32.7898 50.1211 32.7567 50.204C32.6519 50.4695 32.5645 50.7443 32.4868 51.0192C32.2577 51.8231 32.1645 52.6515 31.9995 53.4687C31.9801 53.5684 31.7859 54.1672 31.883 54.2481C32.116 54.442 32.4247 54.5494 32.7315 54.5456C32.7664 54.5456 32.8033 54.5418 32.8325 54.523C32.8635 54.5023 32.8791 54.4646 32.8907 54.4307C33.2092 53.6005 33.413 52.7118 33.7586 51.8985C33.9703 51.3976 34.145 50.8818 34.3081 50.364C34.4674 49.8632 34.6208 49.4415 34.5975 48.9124C34.5683 48.2761 34.5528 47.6397 34.5489 47.0033C34.5489 46.7492 34.6246 46.3576 34.5256 46.1241C34.4402 45.9264 34.18 45.821 33.9742 45.8285C33.7392 45.8379 33.5198 45.9659 33.3684 46.1392C33.2169 46.3142 33.1257 46.5308 33.0635 46.751C32.9082 47.3102 32.9315 47.9014 32.9587 48.4794C32.982 48.9821 33.0674 49.4773 32.8655 49.9536V49.9498Z" fill="#004D7B"/>
<path d="M36.6244 41.3425C36.8147 41.3425 37.0069 41.3029 37.1894 41.2653C38.0476 41.0826 38.9059 40.8247 39.7835 40.7475C39.8107 40.7456 39.8398 40.7438 39.8651 40.755C39.8903 40.7663 39.9058 40.7908 39.9214 40.8134C39.9738 40.8925 40.0262 40.9979 39.9718 41.077C39.9524 41.1052 39.9233 41.1241 39.8942 41.141C39.2515 41.5439 38.5525 41.7473 37.8341 41.9751C37.5506 42.0654 37.2302 42.2537 36.9331 42.2594C36.5953 42.265 36.271 42.1633 35.9409 42.1144C35.3545 42.0278 34.774 41.9111 34.1915 41.8037C33.9624 41.7623 33.6866 41.736 33.5099 41.5722C33.3002 41.3782 33.3177 41.0055 33.6129 40.8963C33.9818 40.7607 34.5021 40.8831 34.8711 40.9678C35.3642 41.0826 35.8574 41.1994 36.3506 41.3161C36.4399 41.3368 36.5331 41.3462 36.6244 41.3443V41.3425Z" fill="#FAAA94"/>
<path d="M39.5195 40.8119C39.5351 40.7422 39.6496 40.7102 39.7001 40.6669C39.7681 40.6067 39.8205 40.5445 39.8613 40.4636C39.9836 40.2226 40.0088 39.9496 40.0457 39.686C40.0632 39.5561 40.0729 39.4055 40.1273 39.2831C40.1739 39.1758 40.3156 39.1965 40.3583 39.2906C40.4108 39.4073 40.3816 39.5467 40.3836 39.6653C40.3836 39.8272 40.3855 39.9872 40.3836 40.1491C40.3797 40.3939 40.3836 40.6462 40.3312 40.8853C40.3195 40.9437 40.304 41.0039 40.2632 41.0472C40.1506 41.1658 39.9331 41.1414 39.7894 41.1959C39.77 41.2035 39.7486 41.2129 39.7292 41.2223C39.6943 41.0905 39.6147 40.9888 39.5409 40.874C39.5292 40.8552 39.5156 40.8326 39.5215 40.81L39.5195 40.8119Z" fill="#FAAA94"/>
<path d="M39.1375 40.9042L37.8699 38.2969L37.617 38.4125L38.8846 41.0198L39.1375 40.9042Z" fill="#FCB538"/>
<path d="M38.4798 38.6398L38.2314 38.1289L37.2655 38.5705L37.5139 39.0814L38.4798 38.6398Z" fill="#004D7B"/>
<path d="M35.3275 40.7991C35.0382 40.6937 34.747 40.592 34.446 40.5242C34.2246 40.4753 33.9761 40.511 33.8111 40.6729C33.5664 40.9139 33.5975 41.2227 33.7994 41.4863C33.912 41.6331 34.0713 41.7405 34.2344 41.8327C34.5916 42.0361 34.9819 42.181 35.3858 42.262C35.413 42.2676 35.4421 42.2714 35.4654 42.2582C35.4867 42.2469 35.4964 42.2243 35.5042 42.2017C35.5916 41.9946 35.677 41.7856 35.7586 41.5767C35.7993 41.4731 35.8343 41.3658 35.879 41.2622C35.9042 41.202 35.9838 41.1154 35.9391 41.0514C35.912 41.0118 35.8634 40.993 35.8168 40.9761C35.6926 40.9309 35.5702 40.8857 35.446 40.8405C35.4052 40.8255 35.3664 40.8104 35.3256 40.7972L35.3275 40.7991Z" fill="#00A073"/>
<path d="M39.2068 40.5012C39.0573 40.6104 38.7389 40.6142 38.5777 40.7065C38.4282 40.7893 38.3564 40.9418 38.17 40.9926C38.1059 41.0115 38.0185 41.0077 37.9933 40.9474C37.9797 40.9154 37.9894 40.8797 37.9991 40.8477C38.1331 40.4127 38.137 39.863 38.7641 39.8517C39.0204 39.846 39.2806 40.0343 39.2981 40.2828C39.302 40.345 39.2903 40.4109 39.2515 40.4598C39.2398 40.4749 39.2243 40.4899 39.2068 40.5031V40.5012Z" fill="#FAAA94"/>
<path d="M35.0556 39.3999C35.0168 39.5807 34.9274 39.767 34.7585 39.8536C34.5974 39.9384 34.3993 39.9139 34.2226 39.8649C33.8051 39.7482 33.4188 39.4865 33.2168 39.1137C33.0149 38.7391 33.0285 38.2496 33.2984 37.9201C33.5819 37.5736 34.2847 37.4136 34.6304 37.7582C35.0012 38.1272 35.1624 38.9123 35.0556 39.3999Z" fill="#FAAA94"/>
<path d="M33.5702 46.3655C34.1081 46.4728 34.6634 46.501 35.209 46.4521C35.2517 46.4483 35.3003 46.4408 35.3255 46.4069C35.3449 46.3824 35.3469 46.3485 35.3469 46.3184C35.4032 44.7049 35.3837 43.0443 35.0207 41.4647C34.9721 41.2538 34.9236 41.0411 34.8148 40.8528C34.6537 40.5741 34.3644 40.367 34.0401 40.303C33.7178 40.239 33.3663 40.3181 33.1042 40.5139C32.8537 40.7022 32.6926 40.9846 32.6091 41.2821C32.5256 41.5795 32.5159 41.8902 32.5237 42.1971C32.5334 42.5661 32.5664 42.9332 32.6013 43.3004C32.644 43.7616 32.6868 44.2229 32.7295 44.6842C32.7664 45.0777 32.846 45.4391 32.7683 45.8326C32.745 45.9456 32.7178 45.9249 32.78 46.0228C32.8266 46.0962 32.945 46.1527 33.0188 46.1922C33.1897 46.2826 33.3799 46.3316 33.5683 46.3692L33.5702 46.3655Z" fill="#00A073"/>
<path d="M34.3099 39.7769C34.3099 39.7091 34.308 39.6357 34.2634 39.583C34.2342 39.5491 34.1915 39.5284 34.1488 39.5095C33.9255 39.4098 33.6964 39.3213 33.4634 39.2422C33.4731 39.6432 33.4828 40.0442 33.4944 40.4453C33.4944 40.4773 33.4944 40.5093 33.51 40.5375C33.5275 40.5733 33.5643 40.5959 33.6012 40.6128C33.774 40.6938 34.1061 40.7032 34.2498 40.5488C34.3954 40.3925 34.308 39.9727 34.308 39.7769H34.3099Z" fill="#FAAA94"/>
<path d="M37.6013 40.8483C37.7333 40.7278 38.1838 40.1912 38.3896 40.4698C38.4478 40.547 38.4071 40.6562 38.3643 40.7428C38.1352 41.2079 37.842 41.639 37.5178 42.0457C37.211 42.4298 36.9003 42.8289 36.5547 43.181C36.3217 43.4182 36.0965 43.5632 35.7489 43.4389C35.279 43.2714 34.8169 43.0398 34.4616 42.6952C34.3198 42.5597 34.2033 42.4015 34.0888 42.2434C34.0266 42.1568 33.9626 42.0683 33.9315 41.9685C33.9004 41.8668 33.9062 41.7501 33.9723 41.6673C34.0499 41.5675 34.1975 41.5374 34.3237 41.5637C34.4499 41.5882 34.5625 41.6578 34.6713 41.7256C35.0072 41.9346 35.3431 42.1436 35.6771 42.3526C35.9431 42.5183 36.0634 42.3225 36.2421 42.1436C36.6809 41.703 37.1372 41.2756 37.5993 40.8483H37.6013Z" fill="#FAAA94"/>
<path d="M35.0789 41.69C34.8479 41.4904 34.6149 41.2946 34.3586 41.127C34.1702 41.0028 33.9256 40.9501 33.7101 41.0442C33.3936 41.1835 33.3062 41.4829 33.3974 41.7992C33.4479 41.9762 33.5567 42.1305 33.6732 42.2736C33.9295 42.588 34.2401 42.8592 34.5877 43.0776C34.611 43.0926 34.6362 43.1058 34.6634 43.102C34.6867 43.0983 34.7042 43.0813 34.7217 43.0644C34.8809 42.9025 35.0362 42.7368 35.1896 42.5711C35.2673 42.4883 35.3391 42.3998 35.4187 42.3207C35.4653 42.2736 35.5721 42.2209 35.5547 42.1456C35.543 42.0985 35.5061 42.0646 35.4692 42.0326C35.3702 41.9479 35.2731 41.8632 35.1741 41.7766C35.143 41.7483 35.11 41.722 35.0789 41.6937V41.69Z" fill="#00A073"/>
<path d="M34.7896 38.0842C34.6401 38.1746 34.3799 38.152 34.2071 38.1783C34.0906 38.1953 33.9644 38.2216 33.8867 38.3082C33.8091 38.3967 33.8052 38.521 33.8071 38.6377C33.8071 38.7639 33.8129 38.89 33.8188 39.018C33.7722 38.9258 33.7217 38.8335 33.6673 38.745C33.6304 38.6867 33.5799 38.6208 33.51 38.6208C33.4363 38.6208 33.3838 38.6923 33.3644 38.762C33.3236 38.9201 33.3916 39.082 33.444 39.2364C33.4964 39.3908 33.5333 39.5716 33.444 39.7071C33.3683 39.6111 33.2673 39.5358 33.1741 39.453C32.9256 39.2308 32.7295 38.9314 32.7101 38.6038C32.6945 38.3534 32.78 38.1049 32.9139 37.8922C32.9916 37.7679 33.0848 37.653 33.2052 37.5683C33.4712 37.3838 33.8226 37.3782 34.1469 37.3989C34.2848 37.4083 34.4265 37.4196 34.5644 37.4045C34.6809 37.3913 34.7644 37.3857 34.8556 37.4742C34.9275 37.5457 35.0537 37.7039 35.0381 37.8112C35.0245 37.9148 34.875 38.0334 34.7915 38.0842H34.7896Z" fill="black"/>
<path d="M35.7975 37.7032L32.3057 38.4961L32.3668 38.7491L35.8586 37.9562L35.7975 37.7032Z" fill="#FCB538"/>
<path d="M32.4675 38.4566C32.2869 37.7054 32.7665 36.9542 33.5412 36.7791C34.316 36.604 35.0907 37.069 35.2713 37.8202" fill="#FCB538"/>
<path d="M70.0001 39.8516H61.7771V55.981H70.0001V39.8516Z" fill="#919191"/>
<path d="M37.1021 16.8536C37.1021 16.8536 37.1118 16.8404 37.1157 16.8329C37.1856 16.735 38.0438 16.6748 38.0535 16.6955C38.2477 17.1172 38.3525 17.5615 38.2457 18.0209C38.2166 18.1433 38.1661 18.2732 38.0535 18.3372C37.972 18.3824 37.871 18.3843 37.7758 18.3824C37.7021 18.3824 37.6263 18.3824 37.5584 18.3561C37.4458 18.3146 37.3681 18.2148 37.306 18.1132C37.1351 17.8289 36.9001 17.1718 37.1001 16.8517L37.1021 16.8536Z" fill="black"/>
<path d="M37.4323 7.81147C37.1682 8.30287 37.0129 8.8338 36.9391 9.43628C36.8459 10.2082 36.8828 10.9877 36.9197 11.7633C36.9235 11.8631 36.9333 11.9723 37.0032 12.0458C37.1197 12.1644 37.341 12.1098 37.442 11.9799C37.5449 11.85 37.5604 11.6767 37.5721 11.5129L37.673 10.1649C37.6886 9.95403 37.7041 9.74316 37.7468 9.53606C37.8672 8.93547 38.1953 8.40642 38.4885 7.87361C38.5817 7.70416 38.6458 7.51965 38.7079 7.33702C38.741 7.23724 38.7759 7.13557 38.774 7.03014C38.774 6.9247 38.7332 6.81362 38.6439 6.75337C38.539 6.67995 38.3895 6.69313 38.2769 6.75337C38.1643 6.81362 38.0769 6.91153 37.9934 7.00566C37.7662 7.26548 37.5798 7.53283 37.4284 7.81336L37.4323 7.81147Z" fill="#FAAA94"/>
<path d="M42.0631 5.35638C42.0825 5.58419 42.1019 5.812 42.1194 6.04169C42.1233 6.09064 42.1272 6.14148 42.1544 6.1829C42.2087 6.2695 42.4495 6.25068 42.5446 6.26197C42.5602 6.26386 42.5776 6.26574 42.5932 6.26009C42.6495 6.2375 42.6495 6.04169 42.6553 5.99086C42.6708 5.88166 42.6805 5.77434 42.6922 5.66514C42.7136 5.45428 42.7388 5.24153 42.7951 5.03631C42.8223 4.94029 42.8495 4.84615 42.7563 4.78026C42.6126 4.68047 42.3233 4.64282 42.1582 4.70871C41.9621 4.78779 42.0359 5.04384 42.0495 5.20011C42.0534 5.25282 42.0592 5.30554 42.0631 5.35826V5.35638Z" fill="#919191"/>
<path d="M41.8573 8.01726C41.8787 8.00973 41.8884 7.97584 41.8845 7.89865C41.869 7.69155 41.869 7.49574 41.8961 7.28676C41.933 7.00058 41.9855 6.71441 42.0806 6.44141C42.1039 6.37551 42.135 6.30397 42.199 6.27761C42.5427 6.13076 42.5233 6.84432 42.5427 6.9874C42.6223 7.58423 42.6689 8.23754 42.568 8.83061C42.5291 9.06783 42.5116 9.45191 42.1757 9.44626C41.9466 9.4425 41.7272 9.20339 41.5758 9.0603C41.0068 8.52372 40.469 7.95137 40.0418 7.30182C39.9836 7.21145 39.9098 7.11167 39.9079 7.00058C39.904 6.85938 39.9778 6.71064 40.0768 6.61086C40.1195 6.56755 40.1719 6.52802 40.2341 6.51295C40.337 6.4866 40.4282 6.54873 40.502 6.61086C40.9234 6.96105 41.2767 7.36019 41.6185 7.78192C41.6573 7.83087 41.7991 8.03986 41.8592 8.01915L41.8573 8.01726Z" fill="#FAAA94"/>
<path d="M43.0729 5.47692C43.467 5.58047 43.8437 5.78757 44.0826 6.10952C44.1447 6.19236 44.2282 6.29403 44.3291 6.26579C44.3641 6.25638 44.3913 6.2319 44.4165 6.20743C44.9291 5.7198 45.1136 4.93658 44.8728 4.2795C44.8146 4.12135 44.6942 3.94625 44.5194 3.95755C44.4534 3.96132 44.3913 3.99521 44.333 4.02533C44.0631 4.17218 43.7932 4.31904 43.5039 4.42259C43.2049 4.53179 42.8884 4.59203 42.5719 4.6071C42.3292 4.61839 41.9409 4.51484 41.7467 4.70876C41.6904 4.76525 41.671 4.8462 41.6691 4.92528C41.6671 4.98553 41.6729 5.04577 41.6943 5.10037C41.7894 5.34136 42.1253 5.30559 42.3331 5.3489C42.5778 5.39973 42.8302 5.41103 43.0729 5.47504V5.47692Z" fill="#FCB538"/>
<path d="M42.7253 5.6819C42.7253 5.6819 42.7331 5.68755 42.735 5.69132C42.7661 5.72521 42.7797 5.77227 42.7894 5.81746C42.8127 5.92289 42.8341 6.03021 42.8496 6.13753C42.8574 6.18459 42.8632 6.23166 42.8535 6.27685C42.8166 6.44441 42.5156 6.55738 42.504 6.81155C42.504 6.82284 42.2477 6.68917 42.1292 6.68352C42.1059 6.68352 42.0632 6.66469 42.0632 6.66469C42.0632 6.66469 42.0457 6.62516 42.0457 6.60445C42.0399 6.42182 42.036 6.24484 42.0089 6.0641C41.9991 5.99255 42.0011 5.91348 42.0477 5.857C42.1021 5.78734 42.1933 5.78169 42.271 5.74968C42.3525 5.71391 42.4283 5.67437 42.5156 5.65178C42.5875 5.63295 42.671 5.63483 42.7253 5.6819Z" fill="#FAAA94"/>
<path d="M44.9543 5.16939C44.8572 5.88671 44.5757 6.44212 44.3252 6.41012C44.0767 6.37811 43.9524 5.77187 44.0514 5.05454C44.1485 4.33722 44.4301 3.78181 44.6805 3.81382C44.9291 3.84582 45.0533 4.45206 44.9543 5.16939Z" fill="#919191"/>
<path d="M42.63 17.1372C42.6183 17.0977 42.6067 17.0563 42.5775 17.028C42.5504 17.0017 42.5115 16.9885 42.4746 16.9772L41.8281 16.7852C41.6514 17.0431 41.531 17.3387 41.4805 17.6456C41.4747 17.6776 41.4708 17.7152 41.4883 17.7435C41.5057 17.7736 41.5426 17.7868 41.5756 17.7981C41.997 17.9393 42.4106 18.0993 42.8319 18.2443C43.0416 18.3158 43.2552 18.3798 43.4668 18.4457C43.5115 18.4589 43.6319 18.521 43.6765 18.506C43.8668 18.4401 43.5697 18.2763 43.5057 18.2217C43.3911 18.1219 43.261 18.0372 43.1523 17.9336C42.9173 17.7077 42.7174 17.4516 42.628 17.1391L42.63 17.1372Z" fill="black"/>
<path d="M40.8768 5.33907C40.7836 5.50098 40.6399 5.64972 40.4535 5.68549C40.2729 5.71938 40.0923 5.63842 39.939 5.53864C39.5759 5.30518 39.2904 4.94369 39.2147 4.52761C39.139 4.11152 39.3021 3.64836 39.6632 3.41302C40.0399 3.16638 40.7622 3.2191 40.9836 3.64836C41.2224 4.10964 41.1311 4.90415 40.8787 5.33907H40.8768Z" fill="#FAAA94"/>
<path d="M39.0127 11.7564C39.502 11.8148 39.9972 11.8167 40.4865 11.7602C40.6302 11.7432 40.7894 11.715 40.8806 11.6058C40.9602 11.5117 40.9699 11.3817 40.9758 11.2594L41.1039 8.75532C41.1583 7.68592 41.4088 5.95757 39.8632 5.82013C39.3234 5.77306 38.8962 5.81071 38.5506 6.26257C38.2419 6.66548 38.1992 7.19829 38.17 7.6991L37.9662 11.0127C37.9565 11.1709 37.9506 11.346 38.0516 11.4702C38.1429 11.5832 38.2963 11.6265 38.4399 11.6566C38.6302 11.698 38.8205 11.73 39.0127 11.7526V11.7564Z" fill="#00A073"/>
<path d="M40.1759 5.19095C40.1759 5.12317 40.1759 5.04974 40.1293 4.99703C40.1002 4.96125 40.0575 4.94243 40.0148 4.9236C39.7915 4.82381 39.5623 4.73533 39.3293 4.65625L39.3604 5.85932C39.3604 5.89133 39.3604 5.92333 39.3759 5.95157C39.3934 5.98735 39.4303 6.00994 39.4672 6.02688C39.64 6.10784 39.972 6.11726 40.1157 5.96287C40.2614 5.8066 40.174 5.38675 40.174 5.19095H40.1759Z" fill="#FAAA94"/>
<path d="M41.4786 7.2013C41.3019 6.95654 41.1194 6.71367 40.9116 6.49338C40.7582 6.33147 40.531 6.22415 40.3019 6.26746C39.9602 6.33335 39.8049 6.60447 39.8184 6.93206C39.8262 7.11469 39.8942 7.28978 39.9757 7.45546C40.1524 7.81695 40.3893 8.15208 40.6767 8.44014C40.6961 8.45897 40.7174 8.47968 40.7446 8.48156C40.7679 8.48156 40.7893 8.47026 40.8106 8.45708C41.0029 8.3347 41.1951 8.20856 41.3834 8.08053C41.4786 8.01652 41.5698 7.94686 41.6669 7.88661C41.7232 7.85084 41.8397 7.8226 41.8397 7.74541C41.8397 7.69834 41.8106 7.65504 41.7834 7.61738C41.7077 7.51195 41.632 7.4084 41.5562 7.30296C41.531 7.26907 41.5077 7.23518 41.4825 7.2013H41.4786Z" fill="#00A073"/>
<path d="M37.7449 6.97939C37.941 6.74781 38.1391 6.51811 38.3643 6.3129C38.5294 6.16228 38.7643 6.07191 38.9895 6.13215C39.3255 6.22064 39.4594 6.50305 39.4206 6.83065C39.3992 7.01327 39.3177 7.18272 39.2245 7.34087C39.0206 7.68918 38.7585 8.00548 38.4517 8.27283C38.4323 8.28977 38.409 8.3086 38.3818 8.3086C38.3585 8.3086 38.3371 8.29354 38.3177 8.28036C38.1352 8.1448 37.9546 8.00548 37.7741 7.86427C37.6847 7.79461 37.5993 7.7193 37.5061 7.65152C37.4537 7.61199 37.3391 7.57621 37.3449 7.49902C37.3488 7.45195 37.3799 7.41242 37.411 7.37476C37.4945 7.27498 37.5779 7.17707 37.6614 7.07729C37.6886 7.04528 37.7158 7.01328 37.743 6.98127L37.7449 6.97939Z" fill="#00A073"/>
<path d="M41.032 4.00829C40.8611 4.05159 40.6204 3.95369 40.4476 3.92733C40.3311 3.91039 40.2029 3.89721 40.1019 3.95934C40.001 4.02147 39.9582 4.14008 39.9233 4.24928C39.8845 4.36977 39.8495 4.49215 39.8165 4.61453C39.801 4.51286 39.7816 4.41119 39.7563 4.30953C39.7408 4.24175 39.7117 4.16644 39.6437 4.14385C39.5738 4.12125 39.5 4.17585 39.4612 4.2361C39.3738 4.37542 39.3874 4.54863 39.3893 4.71055C39.3913 4.87247 39.3719 5.05509 39.2418 5.15864C39.1991 5.0438 39.1253 4.94401 39.0631 4.83858C38.8942 4.55428 38.803 4.21162 38.8845 3.89344C38.9466 3.65057 39.1059 3.4397 39.3 3.27402C39.4107 3.178 39.5369 3.09704 39.6786 3.05186C39.9893 2.95395 40.3252 3.05186 40.6301 3.1667C40.7718 3.2213 40.9116 3.26272 41.0592 3.2985C41.1466 3.31921 41.2592 3.36439 41.3077 3.44535C41.3349 3.4943 41.3368 3.55266 41.3368 3.60726C41.3368 3.83319 41.2631 3.94804 41.032 4.00641V4.00829Z" fill="black"/>
<path d="M39.2729 13.0091C38.8749 13.0694 38.4031 13.1372 38.405 13.1127C38.405 13.6625 38.3623 14.2066 38.3623 14.7563C38.3623 15.3475 38.3623 15.9387 38.3623 16.528C38.3623 16.6014 38.3603 16.6805 38.3118 16.737C38.273 16.7822 38.2108 16.8029 38.1526 16.8198C37.7274 16.9403 37.2769 16.9742 36.8381 16.9196C36.8148 16.9158 36.7953 15.3927 36.7915 15.2816C36.7701 14.489 36.7021 13.7058 36.5856 12.9207C36.5138 12.4311 36.4614 11.6724 37.0847 11.5011C37.5312 11.3787 38.0827 11.3881 38.5409 11.4163C38.8225 11.4333 39.1021 11.4709 39.3836 11.4935C40.5505 11.5896 41.7253 11.4465 42.8922 11.5613C43.4553 11.6159 43.7465 11.8494 43.7388 12.4123C43.731 12.9207 43.6495 13.4271 43.566 13.9298C43.3854 15.0124 43.1873 16.0912 42.9738 17.1681C42.5291 17.2547 42.0534 17.1907 41.6495 16.9911C41.5932 16.9629 41.5369 16.9309 41.5059 16.8782C41.4787 16.8311 41.4767 16.7765 41.4767 16.7219C41.4651 15.9199 41.6126 15.1291 41.7253 14.3365C41.7757 13.9769 41.9602 13.5269 41.8922 13.1673C41.8922 13.1673 41.1505 13.1221 41.0748 13.1165C40.7874 13.092 40.5408 13.0261 40.2593 12.9621C40.1117 12.9282 39.9583 12.9169 39.8088 12.9282C39.7661 12.932 39.5331 12.9677 39.271 13.0073L39.2729 13.0091Z" fill="#004D7B"/>
<path d="M42.0738 3.94052L38.4956 3.70703L38.4775 3.96814L42.0557 4.20163L42.0738 3.94052Z" fill="#FCB538"/>
<path d="M38.6594 3.71647C38.7118 2.94643 39.3992 2.36466 40.1933 2.41738C40.9875 2.46821 41.5875 3.1347 41.5331 3.90475" fill="#FCB538"/>
<path d="M64.4649 21.8769L67.9299 22.7734L67.999 22.5224L64.534 21.6259L64.4649 21.8769Z" fill="#FCB538"/>
<path d="M67.8391 22.4799C68.0449 21.7344 67.5866 20.97 66.8197 20.7704C66.0508 20.5708 65.2625 21.0152 65.0566 21.7589" fill="#FCB538"/>
</g>
</g>
<defs>
<clipPath id="clip0_7454_30288">
<rect width="96" height="56" fill="white"/>
</clipPath>
<clipPath id="clip1_7454_30288">
<rect width="53" height="71" fill="white" transform="translate(17 -15)"/>
</clipPath>
</defs>
</svg>
