<svg width="78" height="50" viewBox="0 0 78 50" fill="none" xmlns="http://www.w3.org/2000/svg">
<g clip-path="url(#clip0_7454_30975)">
<path d="M45.4655 1.2997C44.0606 0.873733 42.5977 2.1186 41.1559 1.83868C40.2813 1.66829 39.6193 0.976314 38.8413 0.545129C37.6769 -0.0981702 36.0297 -0.202489 34.8407 0.395605C33.6518 0.9937 32.8844 1.63178 32.7228 2.94272C31.641 2.32724 29.8339 3.67643 29.2193 4.97868C28.6046 6.28092 28.7591 7.62664 29.1069 9.02103C29.7075 11.4221 30.791 13.7049 32.275 15.6957C32.4067 15.8713 32.6157 16.0678 32.8159 15.9739C32.9546 15.9096 33.0003 15.7392 33.0249 15.5896C33.2321 14.3135 33.0688 13.013 32.9564 11.7246C32.8457 10.438 32.7895 9.1097 33.2005 7.88396C33.6114 6.65821 34.5808 5.53852 35.8611 5.28816C36.8059 5.10386 37.7893 5.40812 38.6288 5.87582C39.47 6.34352 40.2076 6.96769 41.0084 7.49972C41.8092 8.03174 42.7066 8.48031 43.6707 8.5203C44.6331 8.56203 45.6675 8.11172 46.0767 7.24935C46.4876 6.38524 46.0275 5.1595 45.0844 4.96129C45.9502 4.88305 46.7071 4.14239 46.7949 3.28524C46.8845 2.42982 46.2962 1.55181 45.4638 1.2997H45.4655Z" fill="#263238"/>
<path d="M41.133 23.6633L40.9978 20.9023C40.9978 20.9023 44.6717 20.2051 44.5891 16.547C44.5488 14.7806 44.1659 11.1485 43.7813 7.86596C43.3669 4.33476 40.2848 1.71115 36.6969 1.83633L36.3404 1.8485C32.505 2.20492 30.668 5.62832 31.1317 9.41335L32.0168 24.1519C32.166 26.6329 34.3086 28.528 36.8146 28.3976C39.3242 28.2655 41.2559 26.1496 41.133 23.6633Z" fill="#FFBE9D"/>
<path d="M41.0013 20.9023C41.0013 20.9023 38.6726 21.1718 36.1367 19.7148C36.1367 19.7148 37.3678 22.3072 41.0434 21.8499L41.0013 20.9023Z" fill="#EB996E"/>
<path d="M42.2306 10.7512C42.2499 11.0259 42.0304 11.271 41.7406 11.2954C41.4508 11.3215 41.1997 11.118 41.1804 10.8433C41.1611 10.5686 41.3806 10.3235 41.6704 10.2991C41.9601 10.273 42.2112 10.4765 42.2306 10.7512Z" fill="#263238"/>
<path d="M42.8066 9.68716C42.7434 9.7567 42.3342 9.47852 41.7652 9.49938C41.198 9.51329 40.7923 9.81582 40.7273 9.74975C40.6957 9.72019 40.7589 9.59501 40.9345 9.45766C41.1084 9.32204 41.4087 9.18469 41.7617 9.17252C42.1147 9.16209 42.4167 9.28031 42.5924 9.40723C42.7715 9.53416 42.8347 9.65412 42.8031 9.68716H42.8066Z" fill="#263238"/>
<path d="M36.8146 11.091C36.8339 11.3657 36.6144 11.6109 36.3246 11.6352C36.0348 11.6613 35.7837 11.4596 35.7644 11.1832C35.745 10.9085 35.9646 10.6633 36.2543 10.639C36.5441 10.6129 36.7952 10.8163 36.8146 11.091Z" fill="#263238"/>
<path d="M37.4732 9.98013C37.41 10.0497 36.9991 9.77149 36.4318 9.79235C35.8646 9.80626 35.4589 10.1088 35.3939 10.0427C35.3623 10.0132 35.4238 9.88798 35.6012 9.75062C35.775 9.61501 36.0753 9.47766 36.4283 9.46549C36.7813 9.45505 37.0834 9.57328 37.259 9.7002C37.4381 9.82712 37.5013 9.94883 37.4715 9.98013H37.4732Z" fill="#263238"/>
<path d="M39.6806 14.0762C39.6771 14.0449 40.0283 13.9719 40.5973 13.8798C40.7413 13.8606 40.8783 13.8259 40.8994 13.7285C40.9292 13.6242 40.8643 13.4712 40.787 13.306C40.6377 12.9635 40.4832 12.6036 40.3199 12.2281C39.6701 10.6928 39.1924 9.42883 39.2556 9.40275C39.3188 9.37667 39.8966 10.6007 40.5464 12.1359C40.7027 12.5149 40.8537 12.8748 40.996 13.2208C41.0574 13.3825 41.1575 13.5633 41.0908 13.7807C41.0557 13.8885 40.9521 13.9702 40.8608 13.998C40.7694 14.0293 40.6869 14.0345 40.6149 14.0397C40.0406 14.0901 39.6841 14.1058 39.6806 14.0728V14.0762Z" fill="#263238"/>
<path d="M37.5207 8.81197C37.4662 8.96497 36.899 8.8989 36.2334 8.98583C35.566 9.05886 35.0304 9.2588 34.9409 9.12145C34.9005 9.05538 34.9935 8.91107 35.2078 8.76155C35.422 8.61202 35.7627 8.46772 36.1631 8.41903C36.5635 8.37209 36.9306 8.42947 37.1729 8.52509C37.4188 8.62072 37.5435 8.73894 37.5207 8.81197Z" fill="#263238"/>
<path d="M42.9103 8.84479C42.7961 8.95954 42.4238 8.7822 41.9567 8.72135C41.493 8.64311 41.0839 8.70396 41.0083 8.56139C40.9767 8.49185 41.054 8.37188 41.2419 8.27278C41.4263 8.17367 41.7231 8.10934 42.0427 8.15629C42.3623 8.20497 42.6275 8.35276 42.7733 8.50054C42.9226 8.65006 42.9612 8.78742 42.9103 8.84479Z" fill="#263238"/>
<path d="M31.5303 12.1119C31.467 12.0875 28.9663 11.4564 29.1349 13.9548C29.3035 16.4515 31.8025 15.7682 31.8007 15.697C31.8007 15.6257 31.5303 12.1119 31.5303 12.1119Z" fill="#FFBE9D"/>
<path d="M30.9667 14.8022C30.9544 14.7952 30.9245 14.8352 30.8525 14.8734C30.7823 14.9117 30.6593 14.9412 30.5241 14.9013C30.2519 14.8213 29.999 14.4179 29.9551 13.9693C29.934 13.7433 29.9674 13.5225 30.0359 13.3382C30.1009 13.1504 30.2115 13.0148 30.3432 12.9818C30.4749 12.9418 30.575 13.0148 30.6101 13.0844C30.6488 13.1522 30.6365 13.2026 30.6505 13.2061C30.6576 13.2113 30.7015 13.1609 30.6751 13.0583C30.6611 13.0096 30.6277 12.9522 30.5645 12.9088C30.5013 12.8636 30.4099 12.8444 30.3169 12.8618C30.1237 12.8879 29.9604 13.0774 29.8849 13.2791C29.7988 13.4825 29.7549 13.7311 29.7795 13.985C29.8304 14.4875 30.1219 14.9412 30.4942 15.0212C30.6751 15.056 30.8191 14.9917 30.8911 14.9291C30.9649 14.863 30.9754 14.8056 30.9649 14.8022H30.9667Z" fill="#EB996E"/>
<path d="M44.5349 7.07369C42.9227 7.55877 41.0805 7.21452 39.7581 6.18176C38.8326 5.45848 38.1003 4.39791 36.9623 4.09365C36.1966 3.88849 35.3589 4.07974 34.6793 4.48484C33.9979 4.88821 33.457 5.48804 32.9951 6.12786C33.7749 7.96213 33.3692 10.0537 32.9512 11.9993C32.9056 12.2149 32.8494 12.4461 32.6773 12.5869C32.3857 12.8251 31.9326 12.6617 31.6622 12.4026C31.2302 11.9854 31.0458 11.3803 30.9193 10.7961C30.6296 9.46433 30.5453 8.07862 30.7999 6.73987C31.0546 5.40111 31.6587 4.11277 32.6193 3.13739C33.8188 1.9186 35.5381 1.24922 37.2573 1.21619C38.9766 1.18315 40.6819 1.76212 42.0903 2.73924C42.7436 3.19303 43.3495 3.74765 43.7042 4.45355" fill="#263238"/>
<path d="M46.5579 2.14403C46.5579 2.14403 46.5755 2.22053 46.5421 2.36136C46.5105 2.50046 46.4192 2.70736 46.2067 2.88991C45.9977 3.07421 45.6658 3.20461 45.2742 3.23417C45.0792 3.24981 44.8685 3.25155 44.6455 3.21678C44.426 3.18201 44.1889 3.10724 43.9922 2.94381C43.8008 2.78559 43.6409 2.53697 43.6515 2.24835C43.6603 1.95626 43.8886 1.70242 44.166 1.59114C44.3048 1.53377 44.4611 1.50595 44.6191 1.51812C44.7772 1.53029 44.9335 1.59636 45.0599 1.69546C45.3198 1.89541 45.4551 2.22575 45.4674 2.55609C45.4814 2.89165 45.3392 3.23416 45.1021 3.48801C44.865 3.74533 44.5489 3.92789 44.2047 4.03394C43.511 4.24953 42.7365 4.14348 42.0376 3.87573C41.3316 3.61145 40.7117 3.2133 40.1304 2.82732C39.5473 2.44134 38.9818 2.07275 38.3988 1.81543C37.8175 1.55463 37.2134 1.42423 36.6479 1.45727C36.0824 1.4903 35.5731 1.66591 35.1499 1.89367C34.2999 2.35963 33.8135 3.01162 33.5272 3.46019C33.3832 3.68795 33.2884 3.87573 33.2251 4.00265C33.1619 4.12957 33.1303 4.19738 33.1268 4.19564C33.125 4.19564 33.1303 4.17651 33.1426 4.14174C33.1549 4.10697 33.1742 4.05655 33.2023 3.99048C33.2585 3.86008 33.3463 3.66709 33.4851 3.43411C33.7608 2.97337 34.242 2.30399 35.106 1.81717C35.5345 1.57897 36.0578 1.39294 36.6391 1.35469C37.2222 1.3147 37.8491 1.44684 38.4427 1.71111C39.0398 1.97017 39.6123 2.34224 40.1954 2.72648C40.7784 3.11072 41.3895 3.50192 42.0797 3.76098C42.7611 4.02177 43.5057 4.12088 44.166 3.91745C44.4909 3.81835 44.7912 3.64449 45.0107 3.40803C45.232 3.17157 45.3602 2.86557 45.3497 2.55957C45.3409 2.25705 45.2162 1.95626 44.9897 1.78066C44.7684 1.59462 44.454 1.58071 44.2047 1.68503C43.9535 1.78413 43.7569 2.00494 43.7481 2.25183C43.7358 2.49872 43.8745 2.72648 44.0501 2.876C44.2275 3.02727 44.4505 3.10203 44.6595 3.13854C44.872 3.17331 45.0792 3.17505 45.2689 3.16462C45.65 3.14202 45.9714 3.02205 46.1751 2.85166C46.3823 2.68128 46.4789 2.48829 46.5175 2.35441C46.5579 2.2188 46.5492 2.1423 46.5562 2.1423L46.5579 2.14403Z" fill="#455A64"/>
<path d="M28.8451 7.14679C28.8539 7.12071 29.1331 7.27892 29.6231 7.31891C29.8672 7.33456 30.1605 7.30674 30.466 7.20242C30.7716 7.10158 31.0912 6.93119 31.3968 6.71908C32.0062 6.28268 32.3364 5.65329 32.4698 5.19081C32.6068 4.72137 32.5857 4.41016 32.6103 4.41016C32.6173 4.41016 32.6296 4.48666 32.6314 4.62575C32.6314 4.76484 32.6156 4.96826 32.5559 5.21341C32.44 5.69675 32.1098 6.36092 31.4723 6.81992C31.1545 7.04073 30.8261 7.21285 30.5029 7.31196C30.1815 7.41454 29.8689 7.4354 29.6161 7.40758C29.3614 7.37803 29.1647 7.31196 29.0365 7.25458C28.9083 7.19721 28.8416 7.15548 28.8451 7.14852V7.14679Z" fill="#455A64"/>
<path d="M29.0208 8.95418C29.0243 8.93158 29.3211 8.98548 29.7953 8.94375C30.2659 8.90376 30.9245 8.73511 31.5163 8.31958C32.1081 7.9023 32.4822 7.34072 32.6754 6.91301C32.872 6.48183 32.916 6.18626 32.9388 6.19147C32.9458 6.19147 32.9423 6.26797 32.9195 6.40011C32.8966 6.53225 32.8475 6.7235 32.7561 6.94779C32.5805 7.39636 32.2047 7.98576 31.5883 8.42042C30.9736 8.85334 30.287 9.0133 29.8023 9.03242C29.5582 9.04285 29.3597 9.02721 29.2263 9.00634C29.091 8.98548 29.019 8.96462 29.0208 8.95592V8.95418Z" fill="#455A64"/>
<path d="M35.6713 12.4347C35.6379 12.4434 35.6028 12.419 35.594 12.3825C35.5853 12.346 35.6063 12.3095 35.6397 12.3025C35.6731 12.2939 35.7082 12.3182 35.717 12.3547C35.7258 12.3912 35.7047 12.4277 35.6713 12.4347Z" fill="#EB996E"/>
<path d="M36.7479 12.1529C36.7146 12.1615 36.6794 12.1337 36.6689 12.092C36.6584 12.0503 36.6777 12.0103 36.711 12.0016C36.7444 11.9929 36.7795 12.0207 36.7901 12.0624C36.8006 12.1042 36.7813 12.1442 36.7479 12.1529Z" fill="#EB996E"/>
<path d="M37.4766 12.1106C37.4433 12.1158 37.4082 12.0758 37.3976 12.0201C37.3888 11.9645 37.4082 11.9158 37.4433 11.9106C37.4766 11.9054 37.5118 11.9454 37.5205 12.001C37.5293 12.0567 37.51 12.1053 37.4749 12.1106H37.4766Z" fill="#EB996E"/>
<path d="M36.228 13.0878C36.1929 13.0878 36.1648 13.0721 36.1648 13.0495C36.1648 13.0269 36.1911 13.0096 36.2263 13.0078C36.2614 13.0078 36.2895 13.0235 36.2895 13.0461C36.2895 13.0687 36.2631 13.0861 36.228 13.0878Z" fill="#EB996E"/>
<path d="M37.215 12.8286C37.1799 12.8321 37.1483 12.8043 37.1448 12.766C37.1395 12.7278 37.1641 12.693 37.1974 12.6878C37.2326 12.6843 37.2642 12.7121 37.2677 12.7504C37.273 12.7886 37.2484 12.8234 37.215 12.8286Z" fill="#EB996E"/>
<path d="M42.3711 12.0358C42.3378 12.0445 42.3026 12.0202 42.2939 11.9819C42.2851 11.9437 42.3044 11.9072 42.3378 11.9002C42.3711 11.8915 42.4063 11.9158 42.415 11.9541C42.4238 11.9923 42.4045 12.0289 42.3711 12.0358Z" fill="#EB996E"/>
<path d="M43.1069 11.9405C43.0718 11.9457 43.0402 11.9144 43.0349 11.8709C43.0297 11.8275 43.0525 11.7892 43.0859 11.7857C43.121 11.7805 43.1526 11.8118 43.1579 11.8553C43.1631 11.8987 43.1403 11.937 43.1069 11.9405Z" fill="#EB996E"/>
<path d="M41.7179 12.077C41.6846 12.0857 41.6512 12.0684 41.6442 12.0388C41.6371 12.0092 41.6582 11.9797 41.6916 11.971C41.725 11.9623 41.7583 11.9797 41.7653 12.0092C41.7724 12.0388 41.7513 12.0684 41.7179 12.077Z" fill="#EB996E"/>
<path d="M42.2921 12.7885C42.2605 12.8041 42.2218 12.7868 42.2043 12.7503C42.1867 12.7155 42.1972 12.6738 42.2288 12.6581C42.2605 12.6425 42.2991 12.6598 42.3167 12.6964C42.3342 12.7311 42.3237 12.7729 42.2921 12.7885Z" fill="#EB996E"/>
<path d="M42.9191 12.6422C42.8857 12.6335 42.8629 12.6056 42.8699 12.5778C42.877 12.55 42.9086 12.5326 42.9437 12.5413C42.9771 12.55 42.9999 12.5778 42.9929 12.6056C42.9858 12.6335 42.9542 12.6508 42.9191 12.6422Z" fill="#EB996E"/>
<path d="M39.7545 16.0307C39.7106 16.2723 39.665 16.5157 39.5543 16.7348C39.4437 16.9539 39.2558 17.1469 39.017 17.206C38.7623 17.2686 38.4813 17.1677 38.2952 16.9834C38.109 16.7991 38.0054 16.5453 37.965 16.288C37.9281 16.055 37.9791 15.7577 38.2056 15.6847C38.3004 15.6534 38.4023 15.6725 38.4989 15.6899C38.9379 15.7716 39.377 15.8551 39.816 15.9368" fill="#EB996E"/>
<path d="M39.4683 17.1195C39.4543 17.083 39.2084 17.2429 38.8027 17.1699C38.606 17.1334 38.3777 17.0291 38.2214 16.8257C38.0669 16.624 37.9826 16.3267 38.0458 16.0398C38.0599 15.9685 38.088 15.9007 38.1161 15.8381C38.1547 15.779 38.1459 15.7825 38.2004 15.779C38.253 15.7825 38.3408 15.8033 38.4111 15.8155C38.4848 15.8294 38.5569 15.8433 38.6271 15.8572C38.9098 15.9094 39.1645 15.9546 39.3787 15.9876C39.8072 16.0554 40.0759 16.0833 40.083 16.0537C40.09 16.0241 39.8318 15.9424 39.4121 15.8364C39.2014 15.7825 38.9502 15.7234 38.671 15.659C38.6008 15.6434 38.5288 15.6277 38.4567 15.6103C38.3795 15.5947 38.3198 15.5756 38.2162 15.5634C38.1652 15.5599 38.0967 15.5651 38.037 15.6051C37.9773 15.6434 37.9475 15.6955 37.9246 15.7373C37.8842 15.8207 37.8509 15.9024 37.8333 15.9928C37.756 16.351 37.8649 16.7092 38.0669 16.9508C38.2724 17.1977 38.5569 17.302 38.7852 17.3229C39.0187 17.3455 39.2031 17.2933 39.3173 17.2377C39.4314 17.1821 39.4806 17.1299 39.4736 17.1195H39.4683Z" fill="#263238"/>
<path d="M31.3142 23.3788L31.8428 21.9774L36.3843 26.8247L41.1154 21.6992L42.3816 23.4257C42.3816 23.4257 43.776 30.1682 43.6478 30.2951C43.5196 30.422 36.8971 34.4713 36.8971 34.4713L31.3968 34.2801L27.6877 27.2838L31.3142 23.3788Z" fill="#EBEBEB"/>
<path d="M11.0148 47.9682L10.9639 38.583C10.9639 38.583 16.4817 30.3783 17.5144 29.3577C18.972 27.9147 19.9554 26.9132 20.6122 26.4055C21.0021 26.1047 21.5483 26.103 21.9381 26.402L31.4021 23.1455C31.4021 23.1455 29.955 25.5014 32.1414 28.431C34.3279 31.3624 35.9031 34.4068 35.9031 34.4068C35.9031 34.4068 38.1405 30.7834 39.0045 30.0619C39.8703 29.3403 42.8558 24.486 42.1726 23.043L50.0192 26.4159C50.0192 26.4159 50.3985 25.8544 50.8709 26.0873C51.3433 26.3221 54.8943 27.7773 56.2659 30.354C57.6374 32.9307 64.5233 42.8427 64.5233 42.8427L57.021 49.3591L11.0166 47.9665L11.0148 47.9682Z" fill="#407BFF"/>
<path d="M25.6524 34.9611C25.6524 34.9611 25.6278 34.9419 25.5857 34.8985C25.5383 34.8481 25.4786 34.7837 25.4066 34.7072C25.3293 34.6238 25.2345 34.5212 25.1344 34.396C25.0325 34.2708 24.9096 34.1335 24.7919 33.9683C24.669 33.8066 24.5338 33.6293 24.4038 33.4293C24.2651 33.2346 24.1334 33.0155 23.9946 32.786C23.7242 32.3218 23.4555 31.795 23.2219 31.2195C22.9936 30.6423 22.825 30.0755 22.7003 29.5539C22.6441 29.2913 22.5897 29.0427 22.5581 28.8063C22.5159 28.5715 22.4949 28.3507 22.4738 28.149C22.4492 27.9474 22.4457 27.7648 22.4369 27.6031C22.4264 27.4432 22.4264 27.3041 22.4281 27.1911C22.4299 27.0867 22.4316 26.9998 22.4334 26.9303C22.4351 26.8711 22.4387 26.8398 22.4404 26.8398C22.4439 26.8398 22.4474 26.8711 22.4509 26.9303C22.4545 26.9998 22.458 27.085 22.4632 27.1893C22.4668 27.3023 22.472 27.4397 22.4878 27.5996C22.5019 27.7596 22.5089 27.9421 22.5388 28.1404C22.5633 28.3403 22.5879 28.5594 22.6336 28.7923C22.6687 29.0271 22.7267 29.2739 22.7829 29.533C22.9093 30.0511 23.0797 30.611 23.3062 31.183C23.5363 31.7533 23.8032 32.2766 24.0666 32.7408C24.2036 32.9703 24.3318 33.1894 24.467 33.3841C24.5935 33.5841 24.7252 33.7631 24.8446 33.9266C24.9587 34.0935 25.0782 34.2326 25.1748 34.3612C25.2713 34.4899 25.3609 34.5959 25.4347 34.6811C25.5014 34.7629 25.5558 34.8289 25.5997 34.8828C25.6366 34.9298 25.6559 34.9558 25.6524 34.9576V34.9611Z" fill="#263238"/>
<path d="M21.5571 32.5554C21.5466 32.5554 21.5396 32.3694 21.5782 32.0738C21.6151 31.7782 21.7082 31.3714 21.8838 30.9471C22.0611 30.5247 22.2859 30.1717 22.4721 29.937C22.6565 29.7005 22.7952 29.5754 22.8022 29.5823C22.8128 29.5927 22.6934 29.7318 22.5248 29.9752C22.3544 30.2169 22.1437 30.5681 21.9698 30.9837C21.796 31.3992 21.6959 31.7956 21.6432 32.086C21.5887 32.3763 21.5729 32.5589 21.5589 32.5589L21.5571 32.5554Z" fill="#263238"/>
<path d="M20.3173 40.7509C20.3173 40.7509 20.298 40.7039 20.2716 40.6118C20.2453 40.5196 20.2031 40.384 20.1575 40.2067C20.0644 39.8537 19.9397 39.3391 19.8168 38.6975C19.5709 37.4144 19.3496 35.6114 19.4041 33.6155C19.4287 32.6192 19.5059 31.6647 19.7167 30.8215C19.9204 29.9765 20.2734 29.2584 20.6738 28.7351C21.0724 28.2065 21.5044 27.8744 21.8206 27.6867C21.9786 27.591 22.1086 27.5302 22.1981 27.4937C22.2877 27.4572 22.3351 27.4398 22.3369 27.4415C22.3369 27.445 22.293 27.4676 22.2052 27.5093C22.1191 27.5511 21.9927 27.6171 21.8381 27.7162C21.5308 27.911 21.1093 28.2465 20.7247 28.7733C20.3366 29.2949 19.9959 30.0043 19.7975 30.8423C19.5937 31.6786 19.5182 32.6262 19.4936 33.6189C19.4392 35.6079 19.6499 37.4057 19.8782 38.6871C19.9924 39.3287 20.1065 39.845 20.1908 40.1997C20.2312 40.3718 20.2646 40.5075 20.2874 40.6083C20.3085 40.7022 20.319 40.7509 20.3155 40.7526L20.3173 40.7509Z" fill="#263238"/>
<path d="M22.3105 37.6125C22.3105 37.6125 22.2894 37.5395 22.2683 37.4056C22.2455 37.2717 22.2262 37.0753 22.2156 36.8318C22.2051 36.5884 22.2156 36.2981 22.2472 35.9764C22.2841 35.6565 22.3473 35.3053 22.4492 34.9472C22.5528 34.589 22.6845 34.2569 22.8215 33.9648C22.9637 33.6745 23.1095 33.4206 23.2465 33.2189C23.3835 33.0173 23.5029 32.859 23.5942 32.7565C23.6838 32.6539 23.7347 32.5982 23.74 32.6017C23.754 32.6121 23.5573 32.8434 23.3009 33.2537C23.171 33.4571 23.034 33.711 22.897 33.9996C22.7653 34.2899 22.6389 34.6185 22.5352 34.9715C22.4369 35.3262 22.3719 35.6704 22.3298 35.9869C22.2929 36.3033 22.2771 36.5902 22.2788 36.8318C22.2806 37.3152 22.3263 37.6125 22.3087 37.6142L22.3105 37.6125Z" fill="#263238"/>
<path d="M23.3149 39.8786C23.3149 39.8786 23.2991 39.7951 23.285 39.6404C23.271 39.4874 23.2587 39.2649 23.2499 38.9901C23.2324 38.4407 23.2447 37.6792 23.3237 36.8429C23.4045 36.0066 23.5379 35.2555 23.6591 34.72C23.7188 34.4523 23.7733 34.2349 23.8154 34.0872C23.8576 33.9394 23.8839 33.8577 23.8892 33.8594C23.8944 33.8594 23.8804 33.9446 23.8505 34.0959C23.8172 34.2628 23.7733 34.4766 23.7223 34.7322C23.6187 35.2712 23.4958 36.0188 23.415 36.8516C23.336 37.6844 23.3149 38.4425 23.3149 38.9901C23.3167 39.2509 23.3184 39.4683 23.3202 39.6404C23.3219 39.7934 23.3202 39.8786 23.3149 39.8786Z" fill="#263238"/>
<path d="M35.5255 33.7913C35.5255 33.8156 33.1178 33.8365 30.1482 33.8365C27.1785 33.8365 24.769 33.8156 24.769 33.7913C24.769 33.767 27.1767 33.7461 30.1482 33.7461C33.1196 33.7461 35.5255 33.767 35.5255 33.7913Z" fill="#263238"/>
<path d="M26.641 48.4393C26.6164 48.4393 26.6182 45.2941 26.6463 41.4169C26.6744 37.538 26.7183 34.3945 26.7428 34.3945C26.7674 34.3945 26.7657 37.538 26.7376 41.4187C26.7095 45.2958 26.6656 48.4411 26.641 48.4411V48.4393Z" fill="#263238"/>
<path d="M29.911 48.715C29.911 48.715 29.9075 48.6629 29.911 48.5655C29.9145 48.4594 29.9215 48.3169 29.9285 48.1378C29.9479 47.757 29.9742 47.2215 30.0076 46.5643C30.0848 45.229 30.1885 43.3982 30.3044 41.3745C30.4308 39.3524 30.545 37.5216 30.6275 36.1863C30.6732 35.5291 30.71 34.9936 30.7364 34.6146C30.7504 34.4355 30.7627 34.2929 30.7697 34.1869C30.7785 34.0895 30.7856 34.0374 30.7873 34.0391C30.7908 34.0391 30.7908 34.0913 30.7873 34.1886C30.7838 34.2947 30.7768 34.4373 30.7697 34.6163C30.7504 34.9971 30.7241 35.5326 30.6907 36.1898C30.6134 37.5251 30.5098 39.3576 30.3939 41.3814C30.2675 43.4035 30.1533 45.2343 30.0708 46.5695C30.0251 47.2267 29.9883 47.7622 29.9619 48.1413C29.9479 48.3204 29.9356 48.4629 29.9285 48.569C29.9198 48.6663 29.9127 48.7185 29.911 48.7168V48.715Z" fill="#263238"/>
<path d="M34.5157 48.014C34.4911 48.0122 34.7299 44.867 35.0513 40.9898C35.3727 37.1109 35.6537 33.9709 35.6782 33.9727C35.7028 33.9744 35.464 37.1196 35.1426 40.9968C34.8212 44.874 34.5402 48.0157 34.5157 48.014Z" fill="#263238"/>
<path d="M47.8907 33.8616C47.8907 33.886 45.3302 33.9068 42.1727 33.9068C39.0151 33.9068 36.4546 33.886 36.4546 33.8616C36.4546 33.8373 39.0133 33.8164 42.1727 33.8164C45.332 33.8164 47.8907 33.8373 47.8907 33.8616Z" fill="#263238"/>
<path d="M39.2275 48.1941C39.2275 48.1941 39.2187 48.1472 39.2116 48.055C39.2046 47.9542 39.1941 47.822 39.1835 47.6534C39.159 47.3057 39.1361 46.7997 39.1186 46.1773C39.0817 44.9289 39.0905 43.2024 39.2187 41.3021C39.3504 39.4 39.5769 37.6875 39.7824 36.4565C39.8843 35.841 39.9773 35.3438 40.0476 35.0013C40.0827 34.8378 40.109 34.7057 40.1301 34.6083C40.1494 34.5179 40.1617 34.471 40.1652 34.4727C40.1688 34.4727 40.1617 34.5214 40.1477 34.6118C40.1319 34.7109 40.109 34.843 40.0809 35.0082C40.0195 35.3525 39.9387 35.8497 39.8439 36.4669C39.6542 37.6996 39.4382 39.4105 39.3065 41.3091C39.1783 43.2077 39.159 44.9307 39.18 46.1773C39.1888 46.8014 39.2029 47.3057 39.2169 47.6534C39.2222 47.8203 39.2257 47.9542 39.2292 48.055C39.2292 48.1472 39.2292 48.1958 39.2275 48.1958V48.1941Z" fill="#263238"/>
<path d="M43.5109 50C43.5109 50 43.5074 49.9861 43.5057 49.96C43.5039 49.9288 43.5004 49.8888 43.4969 49.8418C43.4916 49.7305 43.4828 49.5793 43.4723 49.3898C43.4512 48.9968 43.4319 48.4283 43.4161 47.7259C43.3827 46.3211 43.3845 44.3773 43.4758 42.2352C43.5689 40.0915 43.7357 38.1564 43.8885 36.7585C43.964 36.0596 44.0325 35.4945 44.0869 35.1051C44.1133 34.9173 44.1344 34.7678 44.1502 34.6565C44.1572 34.6095 44.1642 34.5713 44.1695 34.54C44.1748 34.5139 44.1783 34.5 44.1783 34.5C44.1783 34.5 44.1783 34.5139 44.1783 34.54C44.1748 34.5713 44.173 34.6095 44.1677 34.6565C44.1572 34.7678 44.1414 34.9173 44.1221 35.1068C44.0782 35.498 44.0202 36.063 43.9517 36.762C43.8147 38.1599 43.6584 40.095 43.5671 42.237C43.4758 44.3773 43.4653 46.3193 43.4811 47.7224C43.4881 48.4248 43.4986 48.9934 43.5092 49.3863C43.5127 49.5758 43.5144 49.7271 43.5162 49.8383C43.5162 49.8853 43.5162 49.9235 43.5162 49.9566C43.5162 49.9826 43.5162 49.9966 43.5127 49.9966L43.5109 50Z" fill="#263238"/>
<path d="M47.7449 33.8611C47.7449 33.8611 47.7765 33.7585 47.8502 33.5829C47.9293 33.3916 48.0311 33.1378 48.1576 32.8318C48.414 32.1972 48.7512 31.3139 49.0971 30.3281C49.4396 29.3493 49.7504 28.4626 49.9805 27.8019C50.0964 27.4802 50.193 27.2194 50.2615 27.0404C50.3299 26.8613 50.3721 26.7639 50.3774 26.7656C50.3826 26.7674 50.3545 26.87 50.2948 27.0525C50.2298 27.249 50.1456 27.5081 50.0419 27.8227C49.8259 28.473 49.5291 29.3701 49.1832 30.3577C48.8355 31.3435 48.4895 32.2267 48.2173 32.8544C48.0803 33.1691 47.9662 33.4212 47.8836 33.5951C47.8011 33.7689 47.7519 33.8628 47.7466 33.8593L47.7449 33.8611Z" fill="#263238"/>
<path d="M48.2278 39.66C48.2278 39.66 48.1857 39.5869 48.1242 39.4496C48.061 39.3122 47.9802 39.1105 47.8871 38.8584C47.701 38.3542 47.4849 37.6379 47.3532 36.826C47.2233 36.014 47.2092 35.2647 47.2408 34.7274C47.2566 34.4597 47.2777 34.2423 47.3005 34.0928C47.3216 33.9433 47.3374 33.8616 47.3427 33.8633C47.3497 33.8633 47.3462 33.9468 47.3357 34.0963C47.3234 34.2458 47.3128 34.4614 47.3041 34.7292C47.2883 35.2629 47.3128 36.0036 47.4428 36.8103C47.5745 37.6153 47.7782 38.3282 47.9486 38.8358C48.0329 39.0897 48.1049 39.2948 48.1576 39.4357C48.2085 39.5765 48.2348 39.6565 48.2278 39.6582V39.66Z" fill="#263238"/>
<path d="M49.9595 43.8088C49.9595 43.8088 49.9437 43.7775 49.9191 43.7131C49.8945 43.6401 49.8611 43.5462 49.8225 43.4332C49.7435 43.1881 49.6328 42.8316 49.5081 42.3883C49.257 41.5016 48.9427 40.2671 48.6388 38.8954C48.3385 37.5218 48.1085 36.2683 47.9926 35.3537C47.9346 34.8965 47.903 34.5244 47.8907 34.2671C47.8907 34.1454 47.8872 34.048 47.8872 33.9698C47.8872 33.902 47.8872 33.8672 47.8925 33.8672C47.896 33.8672 47.8995 33.902 47.9065 33.9698C47.9118 34.0463 47.9188 34.1454 47.9276 34.2653C47.9504 34.5209 47.9908 34.8913 48.0576 35.345C48.1893 36.2543 48.4299 37.5044 48.7302 38.8762C49.034 40.248 49.3378 41.4825 49.5731 42.3726C49.6908 42.8073 49.7891 43.1637 49.8594 43.4245C49.8927 43.541 49.9191 43.6349 49.9402 43.7097C49.9577 43.7757 49.9647 43.8105 49.963 43.8105L49.9595 43.8088Z" fill="#263238"/>
<path d="M51.4558 30.6498C51.4417 30.655 51.3908 30.5229 51.2714 30.3351C51.1537 30.1456 50.9588 29.9022 50.7024 29.6744C50.4477 29.4449 50.1808 29.2815 49.9788 29.1824C49.7769 29.0833 49.6399 29.045 49.6452 29.0294C49.6469 29.0207 49.7909 29.038 50.0069 29.1232C50.2212 29.2084 50.5039 29.3701 50.7656 29.6048C51.029 29.8396 51.2222 30.0986 51.3293 30.302C51.4382 30.5055 51.4681 30.6463 51.4575 30.6498H51.4558Z" fill="#263238"/>
<path d="M51.8931 29.3713C51.879 29.3782 51.8193 29.253 51.6823 29.0826C51.5489 28.9088 51.3293 28.6967 51.0536 28.5054C50.4987 28.1142 49.9437 28.0169 49.9507 27.9925C49.9507 27.9821 50.093 27.9873 50.3125 28.0499C50.5303 28.1107 50.8218 28.2359 51.1081 28.4307C51.3926 28.6271 51.6121 28.8549 51.7385 29.0444C51.865 29.2322 51.9054 29.3678 51.8966 29.3713H51.8931Z" fill="#263238"/>
<path d="M12.014 38.0938C12.014 38.0938 11.0499 38.4415 10.4071 39.1561C9.46408 40.2079 7.69211 43.308 7.69211 43.308C7.69211 43.308 7.1635 49.4297 7.36195 49.3828C7.5604 49.3358 16.7785 49.3828 16.7785 49.3828H27.9547C27.9547 49.3828 25.5382 44.0504 21.3849 43.0663L18.4381 42.4925C18.4381 42.4925 18.1887 41.232 17.8533 41.1833C17.5178 41.1346 12.0123 38.0938 12.0123 38.0938H12.014Z" fill="#407BFF"/>
<path d="M51.0429 43.4739C51.0429 43.4739 51.3783 42.9784 52.0211 42.9784C52.6639 42.9784 55.0452 42.7506 55.0452 42.7506C55.0452 42.7506 56.7979 41.3876 57.6707 41.1146C57.6707 41.1146 57.7163 40.1601 58.6348 39.7515C59.3584 39.4298 61.3446 39.1638 62.1594 39.0647C62.3877 39.0369 62.616 39.1047 62.7917 39.2508C63.5854 39.9132 65.9001 41.9196 67.1768 43.7973C68.522 45.7759 67.3524 49.0219 66.2952 49.3871H50.4177L51.0429 43.4757V43.4739Z" fill="#407BFF"/>
<g opacity="0.3">
<path d="M13.196 38.7461C14.6238 38.8261 15.9199 38.9599 17.107 39.751C17.4864 40.0031 17.8235 40.3213 18.2415 40.5039C18.6577 40.6864 19.1266 40.7177 19.5569 40.8672C20.3208 41.1298 20.9091 41.7296 21.4658 42.3086C21.6397 42.4894 22.869 43.4978 22.7706 43.5761C22.6723 43.6543 21.3745 43.0179 21.2498 43.0006C20.6562 42.9119 20.0644 42.8232 19.4708 42.7345C19.0265 42.6685 18.533 42.5729 18.2714 42.2112C18.1326 42.0182 18.0799 41.7766 17.9517 41.5784C17.7691 41.295 17.4512 41.1298 17.1492 40.9785C15.7109 40.2552 14.6343 39.4728 13.1978 38.7496" fill="black"/>
</g>
<g opacity="0.3">
<path d="M51.8929 42.9822C52.1212 42.5927 53.0098 42.2572 53.4646 42.2328C53.9195 42.2085 54.3972 42.2485 54.8099 42.0572C55.4087 41.779 55.6879 41.1062 56.1006 40.595C56.6573 39.9065 57.5003 39.4875 58.3661 39.2771C59.2319 39.0667 60.8932 38.5643 62.1471 39.3206C62.1471 39.3206 60.4752 39.185 60.1047 39.2232C59.7341 39.2632 59.3618 39.4023 59.0018 39.4962C58.345 39.6683 57.5442 40.4038 57.4599 41.28V41.327C56.5379 41.7321 55.0434 42.7475 55.0434 42.7475C55.0083 42.7614 52.9536 42.9648 51.8911 42.9822" fill="black"/>
</g>
<g opacity="0.3">
<path d="M21.3304 27.9901C20.2539 29.4801 19.8535 31.4291 20.2539 33.2182C20.4084 33.9119 20.6771 34.5778 20.8211 35.275C20.9634 35.9722 20.9704 36.732 20.6244 37.3544C20.5489 37.49 20.4523 37.6222 20.3171 37.6969C20.1801 37.7717 19.9957 37.7786 19.8763 37.6778C19.7692 37.5857 19.7393 37.4344 19.7183 37.2953C19.4601 35.6575 19.2002 33.9988 19.3653 32.3506C19.5303 30.7024 20.1713 29.035 21.4428 27.957" fill="black"/>
</g>
<g opacity="0.3">
<path d="M49.6855 29.0391C50.1299 29.4181 50.7059 30.4839 50.8007 31.0559C50.8938 31.6279 50.9149 32.219 51.1133 32.765C51.2099 33.0327 51.4206 33.3266 51.7069 33.2901C51.9931 33.2535 52.1231 32.9128 52.1389 32.6276C52.1793 31.9513 51.9334 31.2819 51.5594 30.7151C51.1853 30.1483 50.7867 29.6319 50.1878 29.2112" fill="black"/>
</g>
<g opacity="0.3">
<path d="M27.8195 49.0902C27.881 49.1598 27.9003 49.3841 27.9003 49.3841L20.8985 49.3667C20.5683 49.3423 20.2171 49.3093 19.9624 49.1024C19.6499 48.8486 19.5743 48.4087 19.5726 48.0088C19.562 46.1867 20.7264 44.4098 22.4123 43.6796C22.4123 43.6796 22.6459 43.3405 23.2816 43.8569C23.9173 44.375 27.8195 49.0885 27.8195 49.0885V49.0902Z" fill="black"/>
</g>
<path d="M22.6405 43.5679C22.6405 43.5679 22.6036 43.5558 22.5369 43.5227C22.4614 43.4862 22.3665 43.4393 22.2471 43.3819C21.9942 43.2637 21.6254 43.0898 21.139 42.9733C20.6525 42.8551 20.0572 42.8134 19.3951 42.7212C19.23 42.6899 19.0632 42.6447 18.8964 42.5926C18.7295 42.5387 18.5609 42.483 18.3941 42.3926C18.2185 42.2813 18.143 42.0988 18.0587 41.9353C17.9779 41.7702 17.9094 41.5894 17.7988 41.452L17.7935 41.4468L17.804 41.4555C16.4869 40.6905 15.2962 39.9985 14.4217 39.4908C13.9984 39.2404 13.6525 39.0353 13.4013 38.8858C13.2889 38.8162 13.1976 38.7606 13.1256 38.7171C13.0624 38.6771 13.0308 38.6563 13.0325 38.6528C13.0343 38.6493 13.0694 38.6667 13.1344 38.7015C13.2082 38.7415 13.3012 38.7919 13.4171 38.8545C13.6718 38.997 14.0213 39.1935 14.4515 39.4334C15.3296 39.9359 16.5255 40.6192 17.8479 41.3755L17.855 41.379L17.8585 41.3842L17.8637 41.3911C17.9919 41.5511 18.0569 41.7302 18.1377 41.8954C18.2167 42.057 18.2993 42.2292 18.4345 42.3144C18.5855 42.3961 18.7559 42.4552 18.9192 42.5074C19.0825 42.5595 19.2458 42.6047 19.4074 42.636C20.059 42.7299 20.6613 42.7803 21.1513 42.9072C21.643 43.0324 22.01 43.2167 22.2594 43.3454C22.3841 43.4097 22.4789 43.4636 22.5422 43.5019C22.6054 43.5401 22.6388 43.561 22.637 43.5627L22.6405 43.5679Z" fill="#263238"/>
<path d="M17.999 35.8924C17.999 35.8924 18.0078 35.9845 18.0078 36.1514C18.0078 36.334 18.0078 36.5722 18.0078 36.8556C18.0113 37.4502 18.0394 38.2726 18.1237 39.175C18.2098 40.079 18.338 40.891 18.4451 41.4769C18.4978 41.7568 18.5434 41.9898 18.5768 42.1689C18.6084 42.3323 18.6242 42.4227 18.6172 42.4245C18.6102 42.4262 18.5838 42.3376 18.5417 42.1759C18.4978 42.0142 18.4433 41.7794 18.3819 41.4874C18.2572 40.9032 18.1202 40.0895 18.0342 39.1819C17.9481 38.2743 17.9323 37.4502 17.9446 36.8539C17.9499 36.5548 17.9604 36.3149 17.9727 36.148C17.985 35.9811 17.9938 35.8889 18.0008 35.8906L17.999 35.8924Z" fill="#263238"/>
<g opacity="0.3">
<path d="M52.6762 49.4349C52.6762 49.4349 52.9009 49.1532 53.0362 48.8333C53.2416 48.343 53.1995 47.7831 53.1152 47.2598C52.8922 45.8967 52.1159 44.631 50.9973 43.8086L50.4177 49.3862L52.6762 49.4366V49.4349Z" fill="black"/>
</g>
<path d="M16.4924 40.6642C16.4924 40.6642 16.4713 40.5946 16.4502 40.466C16.4256 40.3182 16.3958 40.1374 16.3606 39.9235C16.2851 39.4662 16.1464 38.8386 15.8496 38.197C15.5581 37.5555 15.1261 37.0617 14.7573 36.7852C14.3867 36.5036 14.104 36.4167 14.1127 36.3993C14.1127 36.3941 14.1848 36.4132 14.3077 36.4619C14.4306 36.5105 14.6027 36.5975 14.7959 36.7348C15.184 37.0026 15.6353 37.5033 15.9339 38.1605C16.2342 38.8125 16.3659 39.4541 16.4256 39.9148C16.4572 40.1461 16.4748 40.3338 16.4871 40.4625C16.4976 40.5929 16.5011 40.6642 16.4941 40.6642H16.4924Z" fill="#263238"/>
<path d="M59.7939 40.9341C59.7939 40.9341 59.6499 40.9341 59.3918 40.9428C59.1336 40.9532 58.7596 40.9828 58.31 41.0905C57.8622 41.1966 57.3406 41.3844 56.8208 41.7008C56.5608 41.8573 56.3062 42.0503 56.0287 42.2381C55.753 42.4258 55.451 42.6101 55.1067 42.7197C54.4201 42.9457 53.7282 42.9318 53.1188 42.9544C52.5059 42.9648 51.9579 43.0291 51.5189 43.17C51.0799 43.3073 50.7638 43.516 50.5794 43.6916C50.3932 43.8672 50.3212 43.9923 50.3124 43.9871C50.3089 43.9871 50.3282 43.9541 50.3651 43.8985C50.402 43.8411 50.4635 43.7611 50.5548 43.6672C50.7357 43.4794 51.0535 43.2569 51.4996 43.1091C51.9421 42.9579 52.5024 42.8848 53.1153 42.8709C53.7264 42.8431 54.4095 42.8535 55.0769 42.6327C55.7442 42.4137 56.243 41.9355 56.7751 41.6278C57.3055 41.3114 57.8376 41.1271 58.2924 41.0262C58.749 40.9254 59.1284 40.9062 59.3883 40.9062C59.5182 40.9097 59.6201 40.9132 59.6868 40.9202C59.7553 40.9254 59.7904 40.9306 59.7904 40.9341H59.7939Z" fill="#263238"/>
<path d="M62.2701 39.3383C62.2701 39.3383 62.1875 39.3383 62.0418 39.3244C61.896 39.3105 61.6852 39.2879 61.4253 39.267C60.909 39.2288 60.1749 39.1888 59.411 39.4009C58.6488 39.6148 58.0693 40.0946 57.7918 40.5223C57.5038 40.9518 57.4828 41.2891 57.4599 41.2804C57.4564 41.2804 57.4582 41.2595 57.4617 41.2213C57.4687 41.183 57.4705 41.1257 57.4915 41.0561C57.5231 40.9135 57.5969 40.7101 57.7374 40.4876C58.0096 40.039 58.6014 39.5331 59.3864 39.314C60.1697 39.0984 60.9143 39.1488 61.4324 39.2044C61.694 39.234 61.903 39.2653 62.047 39.2914C62.191 39.3175 62.2701 39.3348 62.2701 39.3401V39.3383Z" fill="#263238"/>
<path d="M56.6839 41.7121C56.6839 41.7121 56.6435 41.6322 56.5873 41.4826C56.5258 41.3175 56.4468 41.1036 56.3502 40.8498C56.15 40.316 55.8655 39.5806 55.5248 38.779C55.1824 37.9775 54.8505 37.2629 54.6028 36.7483C54.4852 36.5031 54.3868 36.298 54.3096 36.138C54.2411 35.9937 54.2059 35.912 54.2112 35.9103C54.2165 35.9068 54.2621 35.9833 54.3412 36.1224C54.4202 36.2615 54.5291 36.4649 54.6608 36.7205C54.9225 37.2282 55.2667 37.941 55.6091 38.7443C55.9516 39.5475 56.2273 40.2864 56.4117 40.8272C56.5048 41.0967 56.575 41.3175 56.6207 41.4705C56.6663 41.6235 56.6892 41.7087 56.6839 41.7104V41.7121Z" fill="#263238"/>
<path d="M31.8428 21.9805C31.8428 21.9805 31.8744 22.0048 31.9271 22.0552C31.9868 22.1143 32.0623 22.1908 32.1554 22.2847C32.3591 22.4951 32.6401 22.7837 32.9825 23.1384C33.6815 23.8721 34.6351 24.8718 35.6888 25.9776C35.9136 26.2158 36.1331 26.4488 36.3438 26.6713L36.4158 26.7478H36.3105C35.6607 26.7409 35.0583 26.9182 34.5754 27.1738C34.0889 27.4294 33.7236 27.7684 33.4672 28.0831C33.2091 28.3996 33.0545 28.6899 32.9614 28.8933C32.8684 29.0985 32.8297 29.215 32.8227 29.2132C32.8192 29.2132 32.828 29.1819 32.8438 29.1263C32.8596 29.0689 32.8877 28.9872 32.9316 28.8812C33.0176 28.6725 33.1652 28.3735 33.4216 28.0466C33.6762 27.7215 34.0432 27.3703 34.5385 27.1043C35.0302 26.8365 35.6466 26.6522 36.3122 26.6574L36.2788 26.7322C36.0681 26.5096 35.8468 26.2767 35.622 26.0402C34.5771 24.9275 33.6305 23.9208 32.9369 23.1836C32.6014 22.822 32.3292 22.5247 32.1308 22.3108C32.043 22.2117 31.971 22.1317 31.9148 22.0709C31.8656 22.0152 31.841 21.9857 31.8445 21.9822L31.8428 21.9805Z" fill="#263238"/>
<path d="M33.6726 27.8027L34.8826 30.1499H37.1182L38.4072 28.4043C38.4072 28.4043 37.5291 27.1055 37.1445 26.8969L35.5254 26.7804C35.4674 26.7039 33.9922 27.2741 33.6726 27.8027Z" fill="#407BFF"/>
<path d="M34.8827 30.1523L34.3154 31.552C34.3154 31.552 35.8644 34.5563 35.9469 34.4207C36.0294 34.2851 37.8822 31.4372 37.8822 31.4372L37.1183 30.1523H34.8827Z" fill="#407BFF"/>
<g opacity="0.3">
<path d="M33.6726 27.8027L34.8826 30.1499H37.1182L38.4072 28.4043C38.4072 28.4043 37.5291 27.1055 37.1445 26.8969L35.5254 26.7804C35.4674 26.7039 33.9922 27.2741 33.6726 27.8027Z" fill="black"/>
</g>
<g opacity="0.3">
<path d="M34.8827 30.1523L34.3154 31.552C34.3154 31.552 35.8644 34.5563 35.9469 34.4207C36.0294 34.2851 37.8822 31.4372 37.8822 31.4372L37.1183 30.1523H34.8827Z" fill="black"/>
</g>
<path d="M37.0462 30.264C37.0374 30.2918 36.5668 30.1353 35.9644 30.1127C35.3621 30.0832 34.8791 30.1979 34.8739 30.1701C34.8703 30.1597 34.988 30.1162 35.1847 30.0779C35.3814 30.0397 35.6606 30.0101 35.9679 30.0223C36.2753 30.0362 36.5492 30.0901 36.7424 30.1458C36.9356 30.2014 37.048 30.2535 37.0445 30.264H37.0462Z" fill="#263238"/>
<path d="M37.5994 27.3949C37.5994 27.3949 37.5766 27.4418 37.5204 27.5183C37.466 27.5948 37.3799 27.7009 37.2658 27.826C37.0392 28.0764 36.688 28.3911 36.2472 28.6658C35.8046 28.9388 35.3638 29.1126 35.0389 29.2065C34.8756 29.2535 34.7422 29.2848 34.6473 29.2987C34.5542 29.3143 34.5016 29.3195 34.4998 29.3143C34.4963 29.2987 34.7 29.2535 35.0179 29.1457C35.3357 29.0379 35.7642 28.8571 36.198 28.5893C36.6318 28.3198 36.983 28.0173 37.2183 27.7826C37.4554 27.5479 37.5854 27.3862 37.5977 27.3949H37.5994Z" fill="#263238"/>
<path d="M36.1031 31.9494C36.0786 31.9511 36.0171 31.5269 36.0171 31.0001C36.0171 30.4716 36.0768 30.0473 36.0996 30.0508C36.126 30.0525 36.1067 30.4768 36.1084 31.0001C36.1084 31.5234 36.1295 31.9477 36.1031 31.9494Z" fill="#263238"/>
<path d="M36.4913 32.3735C36.4649 32.3735 36.4439 31.8762 36.3947 31.2677C36.3455 30.6574 36.2858 30.1637 36.3104 30.1602C36.335 30.1567 36.4351 30.647 36.4843 31.2607C36.5352 31.8745 36.5141 32.3752 36.4895 32.3752L36.4913 32.3735Z" fill="#263238"/>
<path d="M41.1153 21.6992C41.1153 21.6992 41.11 21.7096 41.0942 21.727C41.0767 21.7479 41.0556 21.7722 41.0292 21.8035C40.966 21.8748 40.88 21.9722 40.7711 22.0956C40.5375 22.3529 40.2074 22.7181 39.7929 23.1736C38.9499 24.0933 37.7716 25.3765 36.4158 26.856L36.3701 26.7848C36.5528 26.7326 36.76 26.7013 36.9602 26.7604C37.1622 26.8178 37.315 26.9691 37.4555 27.1029C37.7452 27.3776 38.0157 27.6906 38.2334 28.0435C38.5759 28.5877 38.7743 29.1963 38.8586 29.7909L38.7831 29.7648C39.5646 29.038 40.239 28.2956 40.7553 27.5602C41.0205 27.1968 41.233 26.83 41.4226 26.484C41.6018 26.1328 41.7581 25.8024 41.8722 25.4895C42.1058 24.867 42.2234 24.3454 42.2884 23.9855C42.3235 23.8065 42.3358 23.6639 42.3534 23.57C42.3604 23.5265 42.3657 23.4918 42.371 23.4622C42.3745 23.4379 42.378 23.4257 42.3797 23.4257C42.3797 23.4257 42.3797 23.4379 42.3797 23.4622C42.378 23.4918 42.3745 23.5265 42.371 23.57C42.3604 23.6656 42.3516 23.8082 42.3218 23.989C42.2673 24.3524 42.1585 24.8775 41.9302 25.5069C41.8195 25.8233 41.6667 26.1588 41.4876 26.5135C41.2979 26.863 41.0872 27.2351 40.822 27.6019C40.3057 28.3443 39.6296 29.0954 38.8463 29.8274L38.7831 29.8865L38.7708 29.8013C38.6865 29.2171 38.4916 28.6208 38.1562 28.0887C37.9419 27.7428 37.6767 27.435 37.3922 27.1655C37.25 27.0282 37.1095 26.8943 36.9321 26.8439C36.7565 26.79 36.5686 26.8178 36.393 26.8665L36.2419 26.9099L36.3473 26.7952C37.7136 25.326 38.8973 24.0499 39.7472 23.1353C40.1687 22.6868 40.5059 22.3269 40.7447 22.0748C40.8589 21.9565 40.9485 21.8627 41.0152 21.7931C41.0433 21.7653 41.0679 21.7409 41.0854 21.7218C41.1012 21.7062 41.11 21.6992 41.1118 21.6992H41.1153Z" fill="#263238"/>
<path d="M40.7535 27.8423C40.7535 27.8423 40.7483 27.8545 40.736 27.8789C40.7202 27.9067 40.6991 27.9397 40.6745 27.9814C40.6201 28.0701 40.5358 28.2022 40.4216 28.3674C40.1933 28.6978 39.8421 29.1672 39.3592 29.7183C39.238 29.8557 39.1098 29.9983 38.9728 30.1443C38.8305 30.2886 38.6953 30.4416 38.5619 30.6138C38.2967 30.9545 38.028 31.3353 37.747 31.7387C37.185 32.5471 36.5774 33.4564 35.9399 34.4336L35.8978 34.4962L35.8626 34.4301C35.5413 33.8355 35.2093 33.22 34.8528 32.5975C34.5016 31.9838 34.1433 31.3909 33.7675 30.8415C33.39 30.2921 32.9931 29.7827 32.6313 29.2854C32.2695 28.7882 31.9376 28.3048 31.6759 27.8215C31.409 27.3416 31.2246 26.86 31.1122 26.408C30.8839 25.4987 30.9489 24.7284 31.0437 24.2207C31.1456 23.7096 31.265 23.4453 31.265 23.4453C31.265 23.4453 31.2632 23.4627 31.2527 23.4975C31.2422 23.5357 31.2281 23.5844 31.2106 23.647C31.1737 23.7774 31.1245 23.9739 31.0788 24.2277C30.9945 24.7336 30.9419 25.4969 31.1737 26.3923C31.2878 26.8392 31.474 27.3121 31.7409 27.785C32.0026 28.2614 32.3363 28.7412 32.698 29.235C33.0598 29.7305 33.4584 30.2382 33.8413 30.7911C34.2206 31.344 34.5789 31.9369 34.9319 32.5523C35.2884 33.1765 35.6203 33.7937 35.9417 34.3884L35.8644 34.3849C36.5054 33.4095 37.1148 32.5019 37.682 31.6935C37.9665 31.2901 38.237 30.9111 38.5074 30.5703C38.6409 30.3999 38.7849 30.2417 38.9254 30.1009C39.0641 29.9565 39.1941 29.8157 39.3152 29.6801C39.8017 29.1359 40.1582 28.6734 40.3953 28.3483C40.513 28.1866 40.6008 28.0579 40.6605 27.971C40.6886 27.931 40.7096 27.898 40.7272 27.8719C40.743 27.8493 40.7518 27.8389 40.7518 27.8406L40.7535 27.8423Z" fill="#263238"/>
<path d="M27.2646 43.0285L27.0293 37.1605L27.2049 35.8444C27.2049 35.8444 29.0577 36.3434 34.3139 36.3434C40.5377 36.3434 46.1908 35.1055 46.1908 35.1055L46.7457 36.1921L44.893 50.0005H28.011L27.2629 43.0285H27.2646Z" fill="white"/>
<path d="M22.5703 43.5798L25.0026 43.8528L25.9246 42.5853L27.1872 41.8203L27.2645 43.0269C27.2645 43.0269 28.3463 43.4546 28.8942 43.5677C29.5071 43.6946 30.2447 43.752 30.6065 44.0249C30.8734 44.2266 30.8682 44.8525 30.5046 44.9638L29.6107 45.1568C29.6107 45.1568 32.6893 45.308 32.9457 45.3237C33.5726 45.3619 33.8712 45.7427 33.685 46.1965C33.5709 46.4729 33.1301 46.5668 32.9914 46.6225L32.8509 46.6781C32.8509 46.6781 33.5006 46.8015 33.5217 47.1962C33.5445 47.6448 33.2776 47.77 32.9949 47.8291C32.8193 47.8656 32.7402 47.8673 32.0975 47.949C31.4547 48.0325 30.5046 48.0603 30.5046 48.0603C30.5046 48.0603 30.7874 48.2881 30.5397 48.5871C30.3132 48.8601 28.5816 48.9575 28.5816 48.9575L27.1187 49.2548C26.2424 49.4338 25.3345 49.4026 24.4704 49.1678L23.2727 48.5958L19.5708 48.3333C19.5708 48.3333 19.5497 47.0954 19.9448 46.2139C20.8721 44.1518 22.5685 43.5781 22.5685 43.5781L22.5703 43.5798Z" fill="#FFBE9D"/>
<path d="M30.1675 45.0226C30.171 45.047 29.7354 45.1304 29.1928 45.1739C28.6484 45.2191 28.2041 45.1983 28.2058 45.1739C28.2058 45.1496 28.6449 45.1287 29.1858 45.0835C29.7267 45.0418 30.1657 44.9983 30.1692 45.0226H30.1675Z" fill="#EB996E"/>
<path d="M32.8526 46.6796C32.8526 46.6918 32.6261 46.6953 32.259 46.6918C31.892 46.6883 31.3862 46.6762 30.8277 46.657C30.2693 46.6379 29.7635 46.617 29.3982 46.5962C29.0329 46.5753 28.8064 46.5562 28.8064 46.544C28.8064 46.5319 29.0329 46.5284 29.4 46.5336C29.767 46.5371 30.2728 46.5492 30.8313 46.5684C31.3897 46.5875 31.8955 46.6084 32.2608 46.6292C32.6261 46.6501 32.8526 46.6692 32.8526 46.6814V46.6796Z" fill="#EB996E"/>
<path d="M31.0105 48.0445C31.0105 48.0567 30.8243 48.0688 30.524 48.0688C30.2237 48.0688 29.8075 48.0532 29.3509 48.0288C28.9101 48.0045 28.5097 47.9819 28.1795 47.9628C27.8792 47.9454 27.6948 47.935 27.6948 47.9228C27.6948 47.9106 27.881 47.8984 28.1813 47.8984C28.4816 47.8984 28.8978 47.9141 29.3562 47.9384C29.797 47.9628 30.1974 47.9854 30.5275 48.0045C30.8278 48.0219 31.0122 48.0323 31.0122 48.0445H31.0105Z" fill="#EB996E"/>
<path d="M42.8014 44.9692C42.8014 44.9692 42.5222 44.2564 43.1228 44.0477C43.7234 43.8391 45.7641 43.1263 45.8536 43.0967L45.894 42.5525L47.1444 42.6794C47.1444 42.6794 47.6555 42.3665 48.0453 42.2848C48.4352 42.203 48.6758 42.2326 49.0358 42.7385C49.3958 43.2445 50.2669 44.046 50.2669 44.046L51.4347 44.1642C51.4347 44.1642 52.7185 45.2944 53.0083 46.7566C53.14 47.4242 53.1593 48.2448 53.1593 48.2448C52.9766 48.603 52.3181 48.7386 51.4681 48.7717L50.4776 48.7977C50.4776 48.7977 50.4671 49.2898 49.9279 49.368C49.531 49.4254 48.4317 49.3019 48.1209 49.3819C47.9979 49.4132 47.2744 49.4028 47.1479 49.3819C46.3278 49.2446 44.0167 49.029 43.964 48.177L41.4685 48.2292C41.1471 48.2361 40.838 48.0692 40.694 47.7824C40.6431 47.6798 40.6185 47.572 40.6554 47.4746C40.6817 47.4033 40.7186 47.3407 40.7608 47.2886C40.8872 47.1321 41.0769 47.04 41.2771 47.0174L44.6243 46.654C44.7824 46.5392 44.6823 46.2906 44.4891 46.3167C43.3142 46.4679 41.1225 46.7357 40.903 46.654C40.6027 46.5427 40.478 46.1306 40.478 45.9307C40.478 45.616 41.0242 45.3569 41.5809 45.2492C42.2781 45.1118 42.8049 44.9675 42.8049 44.9675L42.8014 44.9692Z" fill="#FFBE9D"/>
<path d="M46.2278 44.1798C46.2313 44.192 46.0065 44.2511 45.6412 44.3398C45.2513 44.4319 44.7596 44.5484 44.2152 44.6771C43.6708 44.8057 43.1791 44.9205 42.7892 45.0126C42.4239 45.0978 42.1974 45.1483 42.1938 45.1361C42.1938 45.1309 42.2465 45.11 42.3466 45.077C42.4467 45.0439 42.5925 45.0005 42.7734 44.95C43.1352 44.8492 43.6374 44.7205 44.1959 44.5884C44.7543 44.458 45.2601 44.3485 45.6289 44.2755C45.9977 44.2024 46.226 44.1659 46.2295 44.1781L46.2278 44.1798Z" fill="#EB996E"/>
<path d="M47.2551 48.0676C47.2551 48.092 46.5158 48.1372 45.6026 48.1667C44.6893 48.1963 43.9482 48.2015 43.9482 48.1754C43.9482 48.1511 44.6876 48.1059 45.6008 48.0763C46.514 48.0468 47.2551 48.0415 47.2551 48.0676Z" fill="#EB996E"/>
<path d="M47.5116 42.5577C47.5203 42.5821 47.0953 42.7455 46.5632 42.9246C46.0311 43.1036 45.5921 43.2288 45.585 43.2045C45.578 43.1801 46.003 43.0167 46.5334 42.8376C47.0637 42.6586 47.5028 42.5334 47.5116 42.5577Z" fill="#EB996E"/>
<path d="M52.6763 49.4352C52.6763 49.4352 52.715 49.3535 52.8028 49.2144C52.8449 49.1449 52.8976 49.0597 52.9503 48.9588C53.0047 48.8597 53.0363 48.7345 53.0697 48.5937C53.1979 48.0321 53.1364 47.2115 52.8414 46.3822C52.5516 45.5459 52.074 44.8834 51.6806 44.4592C51.2872 44.0298 50.9851 43.8246 50.9974 43.809C51.0009 43.8037 51.0765 43.8542 51.2099 43.9515C51.3381 44.0541 51.5243 44.2019 51.728 44.4157C52.1372 44.8348 52.6324 45.5024 52.9275 46.3526C53.2278 47.1958 53.2804 48.0356 53.1329 48.6094C53.0978 48.7502 53.0592 48.8823 52.9959 48.9849C52.938 49.0875 52.88 49.1692 52.8326 49.2353C52.7378 49.3674 52.6816 49.4387 52.6763 49.437V49.4352Z" fill="#263238"/>
<path d="M45.8536 43.0978C45.8536 43.0978 45.8536 43.0543 45.8641 42.9726C45.8747 42.8857 45.8887 42.764 45.9063 42.6058C45.9467 42.2806 46.0029 41.8095 46.0766 41.2114C46.2294 40.003 46.4472 38.2783 46.7106 36.1902L46.7563 36.2319C45.4602 36.4996 44.0131 36.7726 42.4572 37.0351C41.6792 37.1655 40.8731 37.289 40.0425 37.4003C39.2135 37.5115 38.3583 37.6089 37.4837 37.6558C36.4827 37.7063 35.5045 37.6837 34.5544 37.6558C33.6061 37.6246 32.6859 37.5776 31.806 37.5272C30.0446 37.4211 28.4342 37.2959 27.0398 37.1708L27.0785 37.1343C27.1399 38.9442 27.1908 40.4168 27.226 41.4426C27.2418 41.9503 27.2523 42.3467 27.2611 42.6214C27.2646 42.7536 27.2664 42.8561 27.2681 42.9292C27.2681 42.9987 27.2681 43.0335 27.2681 43.0335C27.2681 43.0335 27.2629 42.9987 27.2593 42.9292C27.2558 42.8561 27.2506 42.7536 27.2435 42.6214C27.2312 42.3467 27.2137 41.9503 27.1891 41.4426C27.1469 40.4168 27.0855 38.9442 27.0117 37.1343V37.0943L27.0504 37.0977C28.443 37.216 30.0534 37.3342 31.8148 37.4385C32.6947 37.4889 33.6131 37.5341 34.5615 37.5637C35.508 37.5915 36.488 37.6141 37.482 37.5637C38.353 37.5168 39.2048 37.4194 40.0337 37.3099C40.8626 37.1986 41.6687 37.0769 42.4466 36.9482C44.0026 36.6909 45.4497 36.4214 46.7457 36.1589L46.7967 36.1484L46.7896 36.2006C46.5122 38.287 46.2839 40.0117 46.1241 41.2183C46.0415 41.8164 45.9783 42.2859 45.9326 42.611C45.9098 42.7675 45.8922 42.8892 45.8799 42.9761C45.8676 43.0578 45.8589 43.1013 45.8589 43.1013L45.8536 43.0978Z" fill="#263238"/>
<path d="M46.7053 35.9707C46.7053 35.9707 46.6895 35.9777 46.6561 35.9846C46.6175 35.9933 46.5701 36.0037 46.5103 36.0177C46.3751 36.0472 46.1872 36.0872 45.9484 36.1376C45.4602 36.2419 44.7507 36.3776 43.8691 36.5271C43.4283 36.6001 42.9453 36.6818 42.4255 36.7514C41.9057 36.8296 41.349 36.8957 40.7624 36.9652C39.5875 37.0956 38.2933 37.2069 36.9305 37.266C35.5677 37.3216 34.2681 37.3216 33.0862 37.2903C32.4962 37.2695 31.9342 37.2504 31.4108 37.2156C30.8858 37.1895 30.3993 37.146 29.9532 37.1095C29.5072 37.0765 29.1068 37.0278 28.7538 36.993C28.4008 36.9583 28.097 36.9183 27.8493 36.887C27.607 36.8539 27.4156 36.8296 27.2786 36.8105C27.2171 36.8018 27.1697 36.7948 27.1311 36.7879C27.0977 36.7827 27.0802 36.7792 27.0819 36.7774C27.0837 36.7757 27.0995 36.7774 27.1328 36.7774C27.1715 36.7809 27.2206 36.7844 27.2821 36.7914C27.4191 36.8053 27.6105 36.8261 27.8546 36.8505C28.1022 36.8783 28.4061 36.9113 28.759 36.9409C29.112 36.9704 29.5142 37.0156 29.9585 37.0452C30.4028 37.0782 30.891 37.1165 31.4144 37.1391C31.9377 37.1721 32.4979 37.1878 33.088 37.2069C34.2681 37.233 35.5659 37.2312 36.9252 37.1756C38.2845 37.1147 39.5788 37.0069 40.7519 36.8818C41.3384 36.814 41.8951 36.7514 42.4132 36.6749C42.933 36.6088 43.416 36.5306 43.8568 36.461C44.7384 36.3184 45.4496 36.195 45.9396 36.0994C46.1802 36.0559 46.3698 36.0211 46.5051 35.9951C46.5665 35.9846 46.614 35.9759 46.6526 35.9707C46.686 35.9655 46.7035 35.9638 46.7035 35.9655L46.7053 35.9707Z" fill="#263238"/>
<path d="M46.7107 35.4375C46.7107 35.4375 46.6967 35.4462 46.665 35.4601C46.6299 35.4757 46.5843 35.4949 46.5281 35.5175C46.4069 35.5696 46.226 35.6374 45.9907 35.7192C45.5183 35.8809 44.8193 36.0721 43.9377 36.2182C43.0561 36.3659 41.9954 36.4633 40.8188 36.5294C39.6404 36.5954 38.3461 36.665 36.9868 36.7171C34.2648 36.8249 31.7956 36.778 30.0166 36.6354C29.1262 36.5711 28.408 36.4894 27.9145 36.4285C27.6721 36.3955 27.4825 36.3694 27.3455 36.3503C27.284 36.3416 27.2366 36.3329 27.198 36.3277C27.1646 36.3225 27.147 36.319 27.1488 36.3173C27.1488 36.3173 27.1664 36.3173 27.1997 36.3173C27.2384 36.3207 27.2875 36.3259 27.349 36.3312C27.486 36.3451 27.6774 36.3659 27.9198 36.392C28.415 36.4424 29.1333 36.5137 30.0236 36.5711C31.8026 36.6963 34.2665 36.7328 36.9868 36.625C38.3461 36.5746 39.6404 36.5068 40.8188 36.4459C41.9954 36.3833 43.0526 36.2929 43.9325 36.1556C44.8123 36.0165 45.5112 35.8374 45.9854 35.6861C46.2225 35.6096 46.4051 35.5488 46.5281 35.5018C46.586 35.481 46.6317 35.4653 46.6686 35.4531C46.7002 35.4427 46.7177 35.4375 46.7177 35.4392L46.7107 35.4375Z" fill="#263238"/>
<path d="M19.9818 49.3837C19.9818 49.3837 19.9625 49.3663 19.9344 49.3281C19.908 49.2881 19.8606 49.2342 19.8185 49.1542C19.7236 48.9995 19.6165 48.7543 19.5551 48.4344C19.4918 48.1145 19.4953 47.7216 19.5691 47.2991C19.6464 46.8766 19.7939 46.4263 19.9994 45.9777C20.4173 45.0684 21.1128 44.4408 21.6449 44.0791C21.9136 43.8966 22.1454 43.7696 22.3087 43.6897C22.3895 43.6479 22.4562 43.6218 22.5001 43.6027C22.544 43.5836 22.5686 43.5766 22.5686 43.5784C22.5721 43.5853 22.4826 43.6323 22.3263 43.7192C22.1682 43.8079 21.9434 43.9418 21.6835 44.1295C21.1655 44.4999 20.4928 45.124 20.0837 46.0125C19.8817 46.4558 19.7324 46.8992 19.6534 47.313C19.5761 47.7268 19.5656 48.1093 19.62 48.4223C19.6727 48.7352 19.7675 48.9786 19.8518 49.1351C19.9344 49.2933 19.9906 49.3768 19.9836 49.382L19.9818 49.3837Z" fill="#263238"/>
<path d="M76.4845 48.543H65.7473V49.381H76.4845V48.543Z" fill="#263238"/>
<path d="M76.0789 48.5447H66.1987C66.1987 48.0371 66.6149 47.625 67.1277 47.625H75.1516C75.6644 47.625 76.0807 48.0371 76.0807 48.5447H76.0789Z" fill="#455A64"/>
<path d="M68.6135 48.6384C68.6135 48.6384 68.4502 48.6175 68.1885 48.6575C67.9268 48.694 67.5844 48.8175 67.2191 48.9844C66.8538 49.1496 66.5096 49.2834 66.2444 49.3252C66.1127 49.3478 66.0056 49.353 65.9318 49.3513C65.8949 49.3513 65.8668 49.3478 65.8458 49.346C65.8265 49.3443 65.8159 49.3426 65.8159 49.3408C65.8159 49.3373 65.8563 49.3391 65.9301 49.3373C66.0038 49.3356 66.1092 49.3252 66.2392 49.3008C66.4991 49.2539 66.8363 49.1183 67.2033 48.9531C67.5686 48.7879 67.918 48.6645 68.185 48.6349C68.4502 48.6002 68.6135 48.6419 68.6135 48.6419V48.6384Z" fill="#455A64"/>
<path d="M67.5508 49.3872C67.5508 49.3872 67.614 49.3264 67.7422 49.2325C67.8704 49.1386 68.0671 49.0151 68.3323 48.9091C68.5975 48.8065 68.9294 48.7144 69.3087 48.6987C69.4966 48.69 69.6968 48.697 69.9005 48.7317C70.0024 48.7491 70.1042 48.7683 70.2061 48.7996C70.257 48.8152 70.3097 48.8239 70.3606 48.8517C70.4081 48.8778 70.4643 48.9126 70.4748 48.9804C70.4836 49.0499 70.4221 49.0986 70.3729 49.116C70.3203 49.1368 70.2693 49.1473 70.2184 49.1629C70.1165 49.1907 70.0147 49.2151 69.9146 49.2359C69.7144 49.2777 69.5177 49.3072 69.3298 49.3264C68.954 49.3646 68.6133 49.3594 68.3288 49.3351C68.2603 49.3316 68.1777 49.3072 68.1496 49.2377C68.1356 49.2047 68.1426 49.1647 68.1637 49.1403C68.183 49.1142 68.2093 49.0969 68.2339 49.0812C68.3323 49.0238 68.4271 48.9925 68.5061 48.9769C68.6642 48.9456 68.7538 48.9612 68.7538 48.9612C68.7538 48.9612 68.7309 48.9612 68.6905 48.9647C68.6484 48.9665 68.5869 48.9717 68.5114 48.9908C68.4341 49.0099 68.3428 49.0412 68.248 49.0986C68.2023 49.1247 68.1514 49.1734 68.176 49.229C68.1988 49.2846 68.2673 49.3072 68.3358 49.3107C68.6185 49.3298 68.9575 49.3333 69.3298 49.2933C69.5159 49.2742 69.7109 49.2429 69.9111 49.2012C70.0112 49.1803 70.1113 49.156 70.2131 49.1282C70.2623 49.1125 70.3167 49.1021 70.3642 49.0829C70.4116 49.0656 70.4502 49.0291 70.4449 48.9838C70.4397 48.9404 70.3958 48.9056 70.3519 48.883C70.308 48.8587 70.2553 48.8482 70.2043 48.8343C70.1042 48.8048 70.0024 48.7856 69.9023 48.7683C69.7021 48.7335 69.5054 48.7265 69.3175 48.7335C68.9434 48.7457 68.6133 48.8343 68.3498 48.9334C68.0864 49.036 67.888 49.1542 67.758 49.2446C67.6913 49.2864 67.6439 49.3281 67.6105 49.3507C67.5771 49.375 67.5578 49.3872 67.5578 49.3872H67.5508Z" fill="#455A64"/>
<path d="M72.6825 48.5388C72.6825 48.5388 72.549 48.537 72.3401 48.5701C72.1311 48.6031 71.8448 48.6865 71.5761 48.8674C71.3109 49.0482 71.0774 49.2377 70.8719 49.3125C70.7718 49.3524 70.6857 49.3716 70.626 49.3785C70.5663 49.3855 70.533 49.382 70.533 49.3803C70.533 49.3733 70.6682 49.375 70.8614 49.2899C71.0598 49.2099 71.2846 49.0221 71.555 48.8378C71.829 48.6553 72.1223 48.5735 72.3348 48.5457C72.4419 48.5318 72.528 48.5301 72.5877 48.5318C72.6474 48.5318 72.6807 48.537 72.6807 48.5405L72.6825 48.5388Z" fill="#455A64"/>
<path d="M76.4599 48.8592C76.4599 48.8592 76.4072 48.8992 76.2913 48.9235C76.1771 48.9479 76.0033 48.9409 75.8031 48.8853C75.6029 48.8296 75.3675 48.7636 75.0953 48.741C74.8249 48.7149 74.5246 48.7114 74.2085 48.7045C73.8941 48.6992 73.5938 48.7045 73.3251 48.7462C73.0564 48.7844 72.8211 48.8592 72.6349 48.9444C72.4488 49.0296 72.3118 49.1269 72.2257 49.2017C72.1379 49.2765 72.0958 49.3234 72.0923 49.3199C72.0923 49.3199 72.1309 49.2678 72.2152 49.1895C72.3013 49.113 72.4365 49.0105 72.6226 48.92C72.8088 48.8296 73.0476 48.7531 73.3181 48.7114C73.5903 48.6679 73.8924 48.6592 74.2085 48.6662C74.5246 48.6749 74.8249 48.6784 75.0971 48.7062C75.371 48.7305 75.6116 48.8001 75.8083 48.8592C76.005 48.9166 76.1736 48.9287 76.2878 48.9079C76.4002 48.8887 76.4563 48.854 76.4581 48.8575L76.4599 48.8592Z" fill="#455A64"/>
<path d="M76.4475 49.2489C76.4475 49.2489 76.4036 49.2646 76.3228 49.2785C76.242 49.2924 76.1209 49.3028 75.9733 49.2959C75.6765 49.2889 75.2797 49.1811 74.8459 49.0786C74.6281 49.0316 74.4156 49.0003 74.2242 49.0021C74.031 49.0038 73.8589 49.0368 73.7219 49.0855C73.4445 49.1846 73.3268 49.3341 73.3215 49.3272C73.3215 49.3272 73.3479 49.2889 73.4111 49.2368C73.4743 49.1829 73.5744 49.1168 73.7132 49.0629C73.8519 49.0108 74.0275 48.9725 74.2242 48.969C74.4209 48.9655 74.6351 48.9951 74.8547 49.0438C75.2919 49.1464 75.6818 49.2576 75.9769 49.2698C76.1226 49.2785 76.242 49.2733 76.3228 49.2629C76.4036 49.2542 76.4493 49.2437 76.4493 49.2472L76.4475 49.2489Z" fill="#455A64"/>
<path d="M57.4705 48.8839C57.6267 49.2908 58.0869 49.4977 58.4996 49.3464L72.0519 44.3791L71.3705 43.0508L57.9464 47.8512C57.5231 48.0024 57.3071 48.4684 57.4687 48.8839H57.4705Z" fill="#455A64"/>
<path d="M70.3168 40.8739L70.8279 42.5222L76.0367 40.7557L75.5801 39.0988C75.4993 38.8049 75.2833 38.5685 74.9988 38.4537C74.4456 38.2329 73.6202 38.113 72.368 38.4868C71.2335 38.8241 70.6733 39.6204 70.3923 40.1037C70.2571 40.3367 70.2325 40.6166 70.3151 40.8722L70.3168 40.8739Z" fill="#455A64"/>
<path d="M76.0314 40.6864C76.2176 41.201 75.2025 42.0303 73.766 42.538C72.3294 43.0457 71.0141 43.0405 70.8279 42.5258C70.6418 42.0112 71.6568 41.1819 73.0934 40.6742C74.5299 40.1665 75.8453 40.1717 76.0314 40.6864Z" fill="#263238"/>
<path d="M76.1313 41.4419C76.1313 41.4419 75.5395 40.3466 73.325 41.1012C71.5232 41.7149 71.3598 42.6225 71.3616 42.9389C71.3616 43.0102 71.3704 43.0519 71.3704 43.0519L71.7936 44.2272C71.8498 44.3837 71.9481 44.5211 72.0763 44.6254L72.1606 44.6932C72.4241 44.9053 72.7858 44.9557 73.0984 44.8236L76.0611 43.5666C76.3965 43.424 76.6143 43.0971 76.6143 42.7355C76.6143 42.612 76.5879 42.4903 76.5388 42.3773L76.1313 41.4437V41.4419Z" fill="#455A64"/>
<path d="M72.5154 47.0397L71.8779 45.2315C71.8779 45.2315 71.6004 43.818 74.1644 43.0269C76.7284 42.2358 77.2764 43.9293 77.2764 43.9293L77.7962 45.4454L72.5154 47.0397Z" fill="#455A64"/>
<path d="M77.7785 45.3817C77.9857 46.0284 76.9759 46.9221 75.5218 47.3794C74.0677 47.8366 72.7208 47.6836 72.5135 47.0386C72.3063 46.3918 73.3161 45.4982 74.7702 45.0409C76.2243 44.5836 77.5713 44.7366 77.7785 45.3817Z" fill="#263238"/>
<path d="M76.6476 43.1555C76.6389 43.1763 76.3667 42.9607 75.8363 42.8877C75.3112 42.8043 74.5666 42.9016 73.7956 43.1537C73.4128 43.2824 73.0651 43.458 72.7876 43.6666C72.5084 43.8753 72.3029 44.1169 72.1712 44.343C71.9007 44.8002 71.9236 45.1497 71.9025 45.1427C71.899 45.1427 71.8972 45.1219 71.8972 45.0819C71.8972 45.0419 71.899 44.9845 71.9095 44.9098C71.9306 44.762 71.985 44.5464 72.1167 44.3099C72.2467 44.0735 72.4539 43.8162 72.7384 43.5988C73.0229 43.3798 73.3777 43.1972 73.7693 43.0651C74.5508 42.8112 75.3112 42.7208 75.8486 42.8217C76.1173 42.8669 76.3228 42.9521 76.4545 43.0233C76.523 43.0564 76.5686 43.0929 76.602 43.1137C76.6336 43.1363 76.6512 43.1503 76.6494 43.152L76.6476 43.1555Z" fill="#263238"/>
<path d="M71.9078 44.4098C71.8849 44.4184 71.7409 44.1177 71.5864 43.7352C71.4318 43.3527 71.3265 43.0362 71.3493 43.0275C71.3721 43.0188 71.5161 43.3196 71.6707 43.7021C71.8252 44.0846 71.9306 44.4011 71.9078 44.4098Z" fill="#263238"/>
<path d="M61.0705 46.7652C61.0705 46.7652 61.0178 46.7913 60.923 46.84C60.8282 46.8886 60.6965 46.9669 60.5454 47.0782C60.2364 47.299 59.8799 47.6815 59.4777 48.097C59.0738 48.5108 58.633 48.822 58.2694 48.9455C58.0886 49.0098 57.9358 49.0376 57.8287 49.0428C57.7215 49.0498 57.6636 49.0428 57.6636 49.0428C57.6636 49.0393 57.7233 49.0393 57.8269 49.0272C57.9323 49.0167 58.0833 48.9854 58.2607 48.9194C58.6172 48.7907 59.0492 48.4812 59.4513 48.0692C59.8535 47.6571 60.2153 47.2729 60.5296 47.0556C60.8405 46.833 61.0688 46.7617 61.0688 46.7617L61.0705 46.7652Z" fill="#263238"/>
<path d="M64.3018 46.5595C64.3018 46.5595 64.2544 46.5716 64.1666 46.5942C64.077 46.6169 63.9453 46.6499 63.7767 46.6968C63.4413 46.7907 62.9531 46.9368 62.3806 47.1784C62.3139 47.2115 62.2471 47.2619 62.2243 47.3349C62.198 47.4062 62.2243 47.4983 62.3051 47.5209C62.3823 47.5453 62.4684 47.5209 62.5545 47.5036C62.6405 47.4844 62.7283 47.4636 62.8179 47.4427C63.1744 47.3575 63.552 47.248 63.9418 47.1124C64.3317 46.9768 64.7339 46.8151 65.1395 46.6255C65.3415 46.5299 65.547 46.4273 65.7507 46.3178C65.8508 46.2622 65.9491 46.1978 66.0246 46.1144C66.1019 46.0327 66.1476 45.9162 66.1124 45.8084C66.0773 45.7023 65.9737 45.6293 65.8666 45.5997C65.7559 45.5702 65.64 45.5824 65.5276 45.6067C65.3029 45.6589 65.0816 45.718 64.8638 45.7753C64.43 45.8901 64.0121 46.0118 63.624 46.1474C62.8442 46.4152 62.1769 46.7559 61.6746 47.1245C61.1688 47.4879 60.8299 47.8669 60.6227 48.1451C60.5208 48.2842 60.4471 48.399 60.3996 48.4772C60.354 48.5554 60.3276 48.5972 60.3276 48.5972C60.3276 48.5972 60.4084 48.4216 60.6104 48.1382C60.8141 47.8565 61.153 47.474 61.6588 47.1054C62.1611 46.7333 62.8302 46.3891 63.6134 46.1179C64.0033 45.9805 64.4213 45.8588 64.855 45.7423C65.0728 45.6849 65.2941 45.6258 65.5206 45.5719C65.6348 45.5476 65.7577 45.5337 65.8771 45.565C65.993 45.5963 66.1072 45.6762 66.1493 45.798C66.1915 45.9214 66.137 46.0535 66.0545 46.1387C65.9737 46.2274 65.8736 46.2935 65.77 46.3508C65.5663 46.4604 65.3608 46.563 65.1571 46.6586C64.7497 46.8498 64.3457 47.0098 63.9541 47.1454C63.5625 47.2793 63.1849 47.3888 62.8267 47.4723C62.7371 47.4931 62.6493 47.5123 62.5615 47.5314C62.4772 47.5488 62.3859 47.5748 62.2963 47.547C62.2524 47.5331 62.2138 47.4983 62.1997 47.4549C62.1839 47.4114 62.1874 47.3662 62.1997 47.3262C62.2261 47.241 62.3016 47.1889 62.3701 47.1541C62.9496 46.9124 63.4361 46.7716 63.7732 46.6812C64.1122 46.5925 64.3018 46.5577 64.3018 46.5577V46.5595Z" fill="#263238"/>
<path d="M68.3129 44.1172C68.3129 44.1172 68.1812 44.2041 68.0231 44.3989C67.8598 44.5901 67.7 44.8961 67.5349 45.2404C67.3716 45.5863 67.1819 45.8854 66.9958 46.0593C66.8114 46.2366 66.6586 46.2888 66.6586 46.2888C66.6533 46.2818 66.8026 46.2192 66.9782 46.0419C67.1573 45.8663 67.34 45.5707 67.5033 45.2264C67.6666 44.8822 67.8335 44.5727 68.0038 44.3832C68.1706 44.1902 68.3146 44.1189 68.3146 44.1189L68.3129 44.1172Z" fill="#263238"/>
<path d="M67.9742 45.8502C67.9742 45.8502 68.0936 45.7755 68.2657 45.6312C68.4378 45.4869 68.652 45.2574 68.8189 44.96C68.9857 44.6627 69.07 44.362 69.1034 44.1411C69.1367 43.9203 69.1297 43.7812 69.1385 43.7812C69.1403 43.7812 69.1438 43.816 69.1438 43.8786C69.1473 43.9412 69.142 44.0334 69.128 44.1446C69.1016 44.3689 69.0191 44.6749 68.8505 44.9774C68.6801 45.28 68.4589 45.5095 68.2815 45.6503C68.1919 45.7216 68.1164 45.772 68.0602 45.8033C68.0058 45.8346 67.9742 45.852 67.9724 45.8502H67.9742Z" fill="#263238"/>
<path d="M71.4321 43.8398C71.4321 43.8398 71.3899 43.8485 71.3109 43.8572C71.2336 43.8642 71.1212 43.8833 70.986 43.9129C70.7138 43.972 70.3467 44.1024 69.9902 44.3336C69.6355 44.5666 69.3686 44.8483 69.207 45.0725C69.1262 45.1838 69.0647 45.2794 69.0261 45.3473C68.9875 45.4151 68.9646 45.4516 68.9629 45.4498C68.9629 45.4498 69.0261 45.2881 69.1859 45.0586C69.344 44.8291 69.6109 44.5405 69.9709 44.3041C70.3309 44.0693 70.705 43.9424 70.9807 43.8885C71.2564 43.8346 71.4321 43.8416 71.4321 43.8416V43.8398Z" fill="#263238"/>
<path d="M74.5544 42.2455C74.5544 42.2455 74.5246 42.2525 74.4684 42.2646C74.4016 42.2768 74.3191 42.2942 74.219 42.3133C74.1066 42.3342 73.9749 42.3585 73.8239 42.3863C73.7466 42.4003 73.664 42.4159 73.5762 42.4315C73.4884 42.4489 73.3953 42.4594 73.304 42.4941C73.2162 42.5237 73.1196 42.6002 73.146 42.7028C73.1723 42.8019 73.2882 42.8558 73.3989 42.854C73.6272 42.8488 73.8765 42.8193 74.1312 42.7723C74.3876 42.7254 74.6528 42.6576 74.9179 42.5637C75.0479 42.5167 75.2007 42.4715 75.2569 42.3429C75.3096 42.2142 75.2358 42.0595 75.1217 41.9778C75.0022 41.8943 74.8495 41.8787 74.7054 41.8804C74.5597 41.8839 74.4157 41.8978 74.2752 41.91C73.9924 41.9378 73.722 41.9795 73.4709 42.0421C72.9651 42.1655 72.5401 42.3863 72.2503 42.6489C71.9553 42.9079 71.792 43.1879 71.7094 43.3878C71.669 43.4886 71.6462 43.5704 71.6322 43.626C71.6199 43.6816 71.6111 43.7112 71.6111 43.7112C71.6111 43.7112 71.6199 43.5895 71.6971 43.3826C71.7762 43.1792 71.9377 42.894 72.2345 42.6298C72.526 42.3637 72.9563 42.136 73.4656 42.0108C73.7202 41.9465 73.9924 41.903 74.2752 41.8752C74.4174 41.8613 74.5614 41.8491 74.709 41.8439C74.8547 41.8421 75.0163 41.8561 75.1462 41.9482C75.2709 42.0386 75.3535 42.2055 75.2938 42.3568C75.2639 42.4298 75.1989 42.482 75.1357 42.5167C75.0707 42.5515 75.0005 42.5741 74.9337 42.5985C74.6651 42.6923 74.3981 42.7602 74.14 42.8071C73.8818 42.8523 73.6359 42.8819 73.4006 42.8853C73.2847 42.8853 73.153 42.8297 73.1214 42.7115C73.1073 42.6541 73.1267 42.5932 73.1653 42.5533C73.2039 42.5133 73.2513 42.4889 73.297 42.4715C73.3918 42.435 73.4867 42.4263 73.5745 42.4107C73.6623 42.395 73.7448 42.3811 73.8221 42.3672C73.9731 42.3411 74.1048 42.3185 74.219 42.2994C74.3191 42.282 74.4016 42.2699 74.4701 42.2577C74.5281 42.249 74.5579 42.2455 74.5579 42.2455H74.5544Z" fill="#263238"/>
<path d="M76.2386 41.6732C76.2386 41.6732 76.1965 41.6489 76.1227 41.6019C76.0489 41.555 75.9383 41.4941 75.7961 41.4316C75.5116 41.3046 75.0901 41.1934 74.6142 41.1708C74.1382 41.1482 73.7062 41.1968 73.3954 41.2333C73.2584 41.2507 73.1355 41.2646 73.0266 41.2786C72.9915 41.282 72.9581 41.2855 72.9265 41.289C72.9037 41.2907 72.8914 41.2925 72.8914 41.289C72.8914 41.289 72.9037 41.2855 72.9265 41.2803C72.9581 41.2751 72.9915 41.2681 73.0266 41.2629C73.1126 41.249 73.2391 41.2281 73.3936 41.2073C73.7045 41.1655 74.1365 41.1116 74.6177 41.1342C75.0989 41.1568 75.5256 41.2733 75.8083 41.4072C76.0946 41.5394 76.2404 41.6715 76.2404 41.6715L76.2386 41.6732Z" fill="#263238"/>
<path d="M75.7206 39.8754C75.7206 39.8754 75.6679 39.8145 75.5537 39.7259C75.4413 39.6372 75.2552 39.5294 75.0023 39.4686C74.7512 39.406 74.435 39.3955 74.0996 39.4686C73.7624 39.5381 73.4112 39.6824 73.0512 39.8528C72.6912 40.0232 72.3505 40.1918 72.0221 40.3014C71.6937 40.4144 71.3811 40.4631 71.1177 40.4561C70.8542 40.4509 70.6452 40.3935 70.51 40.3361C70.3748 40.2788 70.3098 40.2301 70.3098 40.2301C70.3098 40.2301 70.3291 40.237 70.3625 40.2544C70.3959 40.2718 70.4468 40.2962 70.5153 40.3222C70.6505 40.3744 70.8577 40.4265 71.1177 40.43C71.3776 40.4335 71.6866 40.3831 72.0115 40.2701C72.3364 40.1588 72.6771 39.9901 73.0371 39.8198C73.3972 39.6494 73.7519 39.5051 74.0943 39.4355C74.435 39.3625 74.7564 39.3764 75.0111 39.4442C75.2657 39.5103 75.4536 39.6216 75.5643 39.7154C75.6767 39.8093 75.7223 39.8771 75.7223 39.8771L75.7206 39.8754Z" fill="#263238"/>
<path d="M73.9959 38.3791C73.9959 38.3791 73.8712 38.5426 73.6236 38.7616C73.3759 38.9807 72.9966 39.2467 72.5277 39.4432C72.0588 39.6396 71.6022 39.7266 71.2703 39.7492C70.9384 39.7735 70.7329 39.7492 70.7329 39.7492C70.7329 39.7492 70.7452 39.7474 70.7698 39.7457C70.8032 39.7457 70.8383 39.7457 70.8769 39.7457C70.97 39.7457 71.1035 39.7405 71.2668 39.7248C71.5952 39.6953 72.0465 39.6049 72.5119 39.4101C72.9755 39.2137 73.3549 38.9546 73.6042 38.7425C73.7289 38.6364 73.8273 38.546 73.8905 38.4782C73.9168 38.4521 73.9414 38.4278 73.966 38.4035C73.9836 38.3861 73.9924 38.3774 73.9941 38.3791H73.9959Z" fill="#263238"/>
<path d="M75.6344 40.2253C75.6344 40.2253 75.5694 40.1835 75.4465 40.1209C75.3236 40.0583 75.1374 39.9818 74.8951 39.9297C74.6527 39.8793 74.3577 39.8567 74.031 39.888C73.7062 39.9175 73.3532 40.001 72.9949 40.1157C72.6349 40.2322 72.3012 40.3661 71.9939 40.4808C71.6866 40.5956 71.4073 40.6929 71.1667 40.7573C70.9261 40.8233 70.7295 40.8616 70.5907 40.879C70.4537 40.8981 70.3765 40.8998 70.3765 40.8998C70.3765 40.8998 70.3958 40.8946 70.4309 40.8894C70.4783 40.8825 70.5293 40.8738 70.589 40.8651C70.7259 40.8425 70.9226 40.8007 71.1597 40.7312C71.3968 40.6617 71.676 40.5643 71.9816 40.4478C72.2872 40.3313 72.6226 40.1974 72.9844 40.0792C73.3461 39.9627 73.7009 39.8793 74.0293 39.8514C74.3577 39.8236 74.658 39.848 74.9021 39.9019C75.1462 39.9575 75.3324 40.0375 75.4535 40.1053C75.5747 40.1731 75.6344 40.2218 75.6344 40.2218V40.2253Z" fill="#263238"/>
<path d="M77.3415 44.1177C77.3415 44.1177 77.3099 44.0968 77.2537 44.0534C77.1957 44.0116 77.1079 43.9525 76.9868 43.8917C76.7462 43.7717 76.3475 43.6622 75.8628 43.7404C75.3799 43.8117 74.839 44.0603 74.3279 44.448C74.0698 44.641 73.8169 44.8636 73.5622 45.1035C73.434 45.2235 73.3041 45.3452 73.1724 45.4704C73.0389 45.5921 72.8931 45.7138 72.7123 45.7798C72.5349 45.8442 72.3259 45.8476 72.1626 45.7468C71.9975 45.646 71.9273 45.4477 71.936 45.2721C71.9413 45.0931 71.9975 44.9244 72.0783 44.7749C72.1573 44.6254 72.2592 44.4915 72.3698 44.3733C72.5946 44.1385 72.865 43.9716 73.139 43.8778C73.276 43.836 73.4323 43.8186 73.5535 43.8986C73.6114 43.9403 73.6465 44.0064 73.65 44.0742C73.6536 44.142 73.6325 44.2046 73.6061 44.2603C73.3515 44.688 72.9651 44.8775 72.7087 44.9575C72.6438 44.9783 72.5788 44.9888 72.5261 44.9714C72.4717 44.9557 72.4471 44.9036 72.4488 44.8688C72.4488 44.8323 72.4646 44.8045 72.4804 44.7958C72.4962 44.7853 72.5068 44.7871 72.5068 44.7871C72.5121 44.7871 72.4523 44.7923 72.4559 44.8688C72.4559 44.9036 72.4787 44.9488 72.5296 44.9609C72.5788 44.9766 72.6403 44.9661 72.7035 44.9435C72.8334 44.9018 72.9862 44.834 73.1443 44.7227C73.2988 44.6115 73.4674 44.4585 73.5816 44.2498C73.6061 44.1959 73.6255 44.1368 73.6219 44.0777C73.6184 44.0186 73.5868 43.9595 73.5359 43.923C73.4288 43.8517 73.2777 43.8673 73.146 43.909C72.8773 44.0012 72.6104 44.1664 72.3926 44.3976C72.1819 44.6288 71.9817 44.9279 71.9694 45.2739C71.9624 45.4425 72.0274 45.6251 72.1801 45.7172C72.3294 45.8111 72.5279 45.8077 72.6965 45.7468C72.8686 45.6825 73.0126 45.566 73.1443 45.4443C73.276 45.3208 73.4059 45.1991 73.5341 45.0792C73.7905 44.841 74.0452 44.6167 74.3051 44.4237C74.8214 44.036 75.3676 43.7856 75.8575 43.7161C76.3475 43.6396 76.7497 43.7543 76.992 43.8795C77.1132 43.9438 77.201 44.0029 77.2572 44.0481C77.3134 44.0933 77.3415 44.1177 77.3415 44.1177Z" fill="#263238"/>
<path d="M77.3941 44.5651C77.3941 44.5651 77.3818 44.5634 77.3607 44.5564C77.3308 44.546 77.2992 44.5373 77.2676 44.5251C77.1868 44.4955 77.0674 44.4643 76.9181 44.4347C76.7689 44.4034 76.588 44.386 76.3878 44.3825C76.1876 44.3825 75.9663 44.4034 75.738 44.4521C75.5114 44.5042 75.3025 44.579 75.1198 44.6607C74.9389 44.7477 74.7826 44.8398 74.6615 44.9302C74.5385 45.0189 74.4437 45.0989 74.384 45.158C74.3594 45.1806 74.3348 45.2032 74.312 45.224C74.2944 45.2397 74.2856 45.2466 74.2856 45.2449C74.2856 45.2449 74.4015 45.0936 74.6457 44.9076C74.7668 44.8137 74.9231 44.7181 75.1058 44.6277C75.2902 44.5425 75.5009 44.4643 75.731 44.4138C75.961 44.3651 76.1858 44.346 76.3878 44.3478C76.5915 44.353 76.7741 44.3738 76.9234 44.4086C77.2237 44.4747 77.3941 44.5634 77.3941 44.5634V44.5651Z" fill="#263238"/>
<path d="M73.7148 43.1848C73.7148 43.1848 73.757 43.19 73.8308 43.204C73.9045 43.2196 74.0116 43.2387 74.1433 43.2596C74.4068 43.3013 74.7756 43.3413 75.1848 43.3378C75.5939 43.3326 75.961 43.2857 76.2244 43.2387C76.3561 43.2144 76.4615 43.1935 76.5352 43.1779C76.609 43.1622 76.6494 43.1535 76.6494 43.157C76.6494 43.1587 76.6108 43.1709 76.5388 43.1918C76.4667 43.2126 76.3614 43.237 76.2297 43.2648C75.9662 43.3187 75.5975 43.3709 75.1865 43.3743C74.7756 43.3778 74.405 43.3344 74.1416 43.2857C74.0099 43.2613 73.9028 43.2387 73.8308 43.2196C73.7587 43.2005 73.7184 43.19 73.7184 43.1866L73.7148 43.1848Z" fill="#263238"/>
<path d="M78.0001 49.3811C78.0001 49.4055 60.5368 49.4264 39.0009 49.4264C17.4651 49.4264 -0.00170898 49.4055 -0.00170898 49.3811C-0.00170898 49.3568 17.4563 49.3359 39.0009 49.3359C60.5455 49.3359 78.0001 49.3568 78.0001 49.3811Z" fill="#263238"/>
</g>
<defs>
<clipPath id="clip0_7454_30975">
<rect width="78" height="50" fill="white"/>
</clipPath>
</defs>
</svg>
