<svg width="66" height="57" viewBox="0 0 66 57" fill="none" xmlns="http://www.w3.org/2000/svg">
<g clip-path="url(#clip0_7454_22851)">
<path d="M27.3947 21.1889C27.3947 21.1889 26.794 22.2045 25.5452 23.3071C24.2964 24.4096 23.1425 25.8916 20.7951 24.3029C18.4477 22.7143 16.3848 22.9237 16.7918 21.7658C17.2028 20.604 18.9456 18.5964 19.8427 18.7506C20.7437 18.9047 27.3868 21.1889 27.3868 21.1889H27.3947Z" fill="#F3A38F"/>
<path d="M25.8185 19.599C25.8185 19.599 25.2178 20.6147 23.969 21.7172C22.7242 22.8237 21.5663 24.3017 19.2189 22.7131C16.8715 21.1244 14.8086 21.3339 15.2157 20.176C15.6267 19.0141 17.3694 17.0066 18.2665 17.1607C19.1675 17.3148 25.8106 19.599 25.8106 19.599H25.8185Z" fill="#F3A38F"/>
<path d="M29.0746 24.0993C29.0746 24.0993 28.3277 25.0161 26.9327 25.9211C25.5337 26.83 24.1743 28.1184 22.0877 26.2017C20.005 24.2851 17.9303 24.1823 18.5073 23.0955C19.0843 22.0088 21.1076 20.2818 21.9731 20.5664C22.8385 20.8509 29.0706 24.0993 29.0706 24.0993H29.0746Z" fill="#FFB8A3"/>
<path d="M49.75 39.2266C40.7754 39.2266 33.5 43.0954 33.5 47.8693C33.5 52.6431 40.7754 56.512 49.75 56.512C58.7247 56.512 66.0001 52.6431 66.0001 47.8693C66.0001 43.0954 58.7247 39.2266 49.75 39.2266Z" fill="#003F84"/>
<path d="M66.004 45.918H33.5V47.8741H66.004V45.918Z" fill="#003F84"/>
<path d="M49.75 37.5C40.7754 37.5 33.5 41.3689 33.5 46.1427C33.5 50.9166 40.7754 54.7854 49.75 54.7854C58.7247 54.7854 66.0001 50.9166 66.0001 46.1427C66.0001 41.3689 58.7247 37.5 49.75 37.5Z" fill="#288FFF"/>
<path d="M49.7499 37.25C41.3878 37.25 34.6104 40.8541 34.6104 45.3039C34.6104 49.7537 41.3878 53.3578 49.7499 53.3578C58.1121 53.3578 64.8855 49.7537 64.8855 45.3039C64.8855 40.8541 58.1081 37.25 49.7499 37.25Z" fill="#95C8FF"/>
<path d="M49.7499 37.1719C42.3362 37.1719 36.3254 40.3689 36.3254 44.3129C36.3254 48.2568 42.3362 51.4539 49.7499 51.4539C57.1636 51.4539 63.1744 48.2568 63.1744 44.3129C63.1744 40.3689 57.1636 37.1719 49.7499 37.1719Z" fill="#D1E7FF"/>
<path opacity="0.5" d="M49.7495 37.7383C43.7466 37.7383 38.8779 40.3268 38.8779 43.5199C38.8779 46.713 43.7427 49.3014 49.7495 49.3014C55.7563 49.3014 60.6171 46.713 60.6171 43.5199C60.6171 40.3268 55.7524 37.7383 49.7495 37.7383Z" fill="white"/>
<path d="M18.7401 4.74614C18.7401 4.74614 21.5736 6.15695 22.3087 6.65094C23.0437 7.14887 25.889 11.164 28.7225 14.3294C29.509 15.2067 28.7225 22.4228 28.7225 22.4228C28.7225 22.4228 21.6961 19.6723 19.4278 17.6608C17.1594 15.6493 14.6025 11.7686 14.6025 11.7686L18.7362 4.74219L18.7401 4.74614Z" fill="#FFB9A4"/>
<path d="M12.0303 17.3137L23.1903 23.0123L24.9845 19.0644L14.3026 12.1328L12.0303 17.3137Z" fill="#007AFF"/>
<path d="M22.6692 21.8531C22.6692 22.8924 23.3015 23.3706 24.084 22.9201C24.8625 22.4696 25.4987 21.2603 25.4987 20.2209C25.4987 19.1816 24.8664 18.7034 24.084 19.1539C23.3054 19.6045 22.6692 20.8137 22.6692 21.8531Z" fill="#005EC3"/>
<path d="M11.3857 15.8171C11.3857 17.1765 12.2117 17.8049 13.2352 17.2161C14.2548 16.6272 15.0847 15.0465 15.0847 13.6831C15.0847 12.3197 14.2587 11.6953 13.2352 12.2841C12.2156 12.873 11.3857 14.4537 11.3857 15.8171Z" fill="#007AFF"/>
<path d="M23.2773 21.6095C23.2773 22.3367 23.72 22.6726 24.2653 22.3564C24.8107 22.0403 25.2533 21.1946 25.2533 20.4674C25.2533 19.7403 24.8107 19.4044 24.2653 19.7205C23.72 20.0367 23.2773 20.8824 23.2773 21.6095Z" fill="#007AFF"/>
<path d="M44.91 31.0651L24.8898 19.6719L23.6885 22.4421L43.6928 33.8511L44.91 31.0651Z" fill="#83BEFF"/>
<path d="M43.3291 33.0236C43.3291 33.7507 43.7717 34.0866 44.3171 33.7705C44.8624 33.4543 45.305 32.6086 45.305 31.8815C45.305 31.1544 44.8624 30.8185 44.3171 31.1346C43.7717 31.4508 43.3291 32.2965 43.3291 33.0236Z" fill="#DD873C"/>
<path d="M42.75 33.4972C42.75 34.7578 43.5167 35.3388 44.4651 34.7934C45.4096 34.248 46.1802 32.7819 46.1802 31.5173C46.1802 30.2527 45.4136 29.6757 44.4651 30.2211C43.5167 30.7665 42.75 32.2326 42.75 33.4972Z" fill="#007AFF"/>
<path d="M47.0099 30.9711L45.5003 30.0938L43.2715 34.8597L44.8997 35.8002L47.0099 30.9711Z" fill="#007AFF"/>
<path d="M44.2705 34.38C44.2705 35.6406 45.0372 36.2216 45.9856 35.6762C46.9341 35.1309 47.7007 33.6647 47.7007 32.4001C47.7007 31.1355 46.9341 30.5585 45.9856 31.1039C45.0411 31.6493 44.2705 33.1154 44.2705 34.38Z" fill="#005EC3"/>
<path d="M49.9602 39.2422C45.9767 39.2422 42.748 40.9573 42.748 43.0794C42.748 45.2016 45.9767 46.9167 49.9602 46.9167C53.9437 46.9167 57.1723 45.1976 57.1723 43.0794C57.1723 40.9612 53.9437 39.2422 49.9602 39.2422Z" fill="#007AFF"/>
<path d="M57.1732 39.8945H42.7607V42.8742H57.1732V39.8945Z" fill="#007AFF"/>
<path d="M49.9602 36.0547C45.9767 36.0547 42.748 37.7698 42.748 39.8919C42.748 42.0141 45.9767 43.7292 49.9602 43.7292C53.9437 43.7292 57.1723 42.0101 57.1723 39.8919C57.1723 37.7737 53.9437 36.0547 49.9602 36.0547Z" fill="#005EC3"/>
<path d="M44.3799 26.8281V39.4108C44.3799 41.0746 46.917 42.4222 50.0429 42.4222C53.1688 42.4222 55.7059 41.0746 55.7059 39.4108V26.8281H44.3799Z" fill="#459EFF"/>
<path d="M50.0429 38.6676C46.917 38.6676 44.3799 37.32 44.3799 35.6562V36.8932C44.3799 38.5569 46.917 39.9045 50.0429 39.9045C53.1688 39.9045 55.7059 38.5569 55.7059 36.8932V35.6562C55.7059 37.32 53.1688 38.6676 50.0429 38.6676Z" fill="#95C8FF"/>
<path d="M50.0429 33.1207C46.917 33.1207 44.3799 31.7731 44.3799 30.1094V31.3463C44.3799 33.01 46.917 34.3576 50.0429 34.3576C53.1688 34.3576 55.7059 33.01 55.7059 31.3463V30.1094C55.7059 31.7731 53.1688 33.1207 50.0429 33.1207Z" fill="#95C8FF"/>
<path d="M49.9602 24.0938C45.9767 24.0938 42.748 25.8128 42.748 27.931C42.748 30.0492 45.9767 31.7683 49.9602 31.7683C53.9437 31.7683 57.1723 30.0492 57.1723 27.931C57.1723 25.8128 53.9437 24.0938 49.9602 24.0938Z" fill="#007AFF"/>
<path d="M57.1722 24.7422H42.7598V27.7219H57.1722V24.7422Z" fill="#007AFF"/>
<path d="M49.9602 20.9102C45.9767 20.9102 42.748 22.6253 42.748 24.7474C42.748 26.8696 45.9767 28.5847 49.9602 28.5847C53.9437 28.5847 57.1723 26.8656 57.1723 24.7474C57.1723 22.6292 53.9437 20.9102 49.9602 20.9102Z" fill="#005EC3"/>
<path opacity="0.5" d="M49.9599 20.8672C46.834 20.8672 44.2969 22.2148 44.2969 23.8785C44.2969 25.5422 46.834 26.8898 49.9599 26.8898C53.0858 26.8898 55.6229 25.5422 55.6229 23.8785C55.6229 22.2148 53.0858 20.8672 49.9599 20.8672Z" fill="#002145"/>
<path d="M4.34303 0.0703125C4.34303 0.0703125 18.3682 4.1921 20.9329 4.97062C23.4977 5.74518 24.2011 9.19516 27.252 12.3053C30.3028 15.4154 30.287 15.4984 30.4411 17.5099C30.5715 19.2171 29.8246 22.4813 29.8246 22.4813L27.2994 21.0468L26.5209 17.1937C26.5209 17.1937 25.7621 16.9566 23.2527 16.0516C20.7432 15.1467 19.1625 14.787 19.1625 14.787C19.1625 14.787 20.0438 16.925 21.012 18.8258C21.9802 20.7267 22.0474 20.8294 23.6834 22.592C25.3195 24.3505 25.031 26.7691 23.5254 26.6229C22.0197 26.4766 20.4903 25.544 19.1625 22.8686C18.6843 21.9083 17.6489 20.62 15.3253 18.6441C13.0016 16.6681 8.29884 15.2336 7.10538 13.4039C5.91192 11.5742 3.92809 9.20701 3.92809 9.20701L0.766602 7.78039L4.34303 0.0703125Z" fill="#FFC9B6"/>
<path d="M5.56837 2.43696C5.56837 4.48797 4.32353 6.86699 2.78626 7.75616C1.24899 8.64533 0.00415039 7.70084 0.00415039 5.64982C0.00415039 3.59881 1.24503 1.21979 2.78231 0.33457C4.31958 -0.554599 5.56442 0.389896 5.56442 2.44091L5.56837 2.43696Z" fill="#FFC9B6"/>
<path d="M20.5615 23.4961C19.8739 22.0062 18.9808 20.5164 18.1351 19.1016C17.1234 17.4023 15.7877 16.5685 13.9975 15.8176C11.1047 14.6044 7.8642 13.4663 6.45734 10.3917C6.08586 9.5816 5.9436 8.46718 5.29549 7.82698C4.70271 7.2421 3.75031 7.03265 2.98365 6.77183C1.88899 6.40036 1.00772 5.7562 0.0197593 5.21875C0.00790372 5.36102 0 5.50724 0 5.64555C0 6.64142 0.296389 7.37251 0.774564 7.76375L0.782468 7.7677C0.972157 7.92182 1.18951 8.02062 1.43057 8.06014L3.93605 9.19432C3.93605 9.19432 5.91989 11.5615 7.11335 13.3912C8.30681 15.2209 13.0095 16.6554 15.3332 18.6314C17.6569 20.6073 18.6923 21.8956 19.1705 22.8559C20.0754 24.6738 21.0713 25.6894 22.0909 26.1952C21.4428 25.3969 21.0239 24.4841 20.5655 23.4921L20.5615 23.4961Z" fill="#FFB9A4"/>
<path d="M6.1449 3.16797C6.1449 3.16797 5.40985 4.11641 5.06999 5.28617C4.73013 6.45592 5.06999 7.05265 5.06999 7.05265C5.06999 7.05265 6.22789 3.8635 6.1449 3.16797Z" fill="#FFB9A4"/>
<path d="M23.9361 23.5117C23.7385 23.3536 23.4461 23.3852 23.2722 23.571C23.0311 23.8278 22.6202 24.2625 22.3514 24.5313C21.9523 24.9304 21.6875 25.4955 22.5095 26.0448C23.3354 26.5941 24.849 26.7641 24.6079 24.7565C24.521 24.0136 24.1495 23.6856 23.9322 23.5117H23.9361Z" fill="#FFD8CC"/>
</g>
<defs>
<clipPath id="clip0_7454_22851">
<rect width="66" height="56.5155" fill="white"/>
</clipPath>
</defs>
</svg>
