<svg width="91" height="56" viewBox="0 0 91 56" fill="none" xmlns="http://www.w3.org/2000/svg">
<path d="M60.1379 20.2313H85.1625C85.0426 19.7822 84.3847 18.2449 81.0341 18.8367C81.575 18.346 81.9346 17.5878 81.7855 16.8682C81.7417 16.6511 81.6481 16.44 81.4931 16.2824C81.3528 16.1426 81.1715 16.0534 80.9873 15.985C79.6687 15.5033 77.356 17.3529 77.356 17.3529C80.1862 12.8301 72.4733 10.933 72.4207 16.6541C72.4207 16.6541 71.2892 14.5994 70.0524 15.1673C69.5495 15.4587 69.8595 16.3419 70.0846 16.7254C66.4708 14.9413 63.1816 16.0356 64.7136 18.0725C61.1612 18.1468 60.1321 20.2313 60.1321 20.2313H60.1379Z" fill="white"/>
<path d="M12.3984 9.40682H27.5406C27.4675 9.13623 27.0699 8.20551 25.0437 8.56233C25.3712 8.26498 25.5876 7.80705 25.4969 7.36994C25.4706 7.2391 25.4151 7.11124 25.3215 7.01609C25.2367 6.92986 25.1256 6.87633 25.0145 6.8347C24.2163 6.5433 22.8188 7.66135 22.8188 7.66135C24.5292 4.92569 19.8628 3.7779 19.8336 7.2391C19.8336 7.2391 19.1494 5.99616 18.4009 6.33812C18.0969 6.51653 18.284 7.0488 18.4214 7.28073C16.2344 6.20134 14.2463 6.86444 15.1731 8.09549C13.0241 8.14009 12.4014 9.40385 12.4014 9.40385L12.3984 9.40682Z" fill="white"/>
<path d="M57.8928 5.92357C58.9649 4.83317 58.9649 3.06527 57.8928 1.97486C56.8206 0.884459 55.0823 0.884459 54.0102 1.97486C52.938 3.06527 52.938 4.83317 54.0102 5.92357C55.0823 7.01398 56.8206 7.01398 57.8928 5.92357Z" fill="#0065D2"/>
<path d="M22.8362 14.207H18.5002V22.3754H22.8362V14.207Z" fill="white"/>
<path d="M18.5005 16.2773V17.0653L22.8364 16.5598V16.2773H18.5005Z" fill="#9BB8CC"/>
<path d="M23.3449 15.293H17.9915V16.2772H23.3449V15.293Z" fill="#1073DE"/>
<path d="M75.6086 47.852H90.0287C89.8269 47.1829 89.3036 46.6596 88.7042 46.4217C88.061 46.166 87.3476 46.2046 86.6868 46.3979C86.8096 46.3622 86.9704 46.1392 87.0552 46.047C87.2599 45.821 87.4236 45.5861 87.4704 45.2739C87.523 44.926 87.4236 44.5751 87.2102 44.2986C86.8564 43.8406 86.2365 43.6741 85.6839 43.7336C85.6576 43.7366 85.6284 43.7395 85.6021 43.7455C85.4939 43.7633 85.3887 43.7901 85.2863 43.8288C84.8419 44.0042 84.4501 44.3134 84.1168 44.6524C84.0525 44.7149 83.9911 44.7803 83.9326 44.8517C83.9326 44.8517 84.8711 44.0577 85.0904 43.4571C85.9032 41.7443 84.1841 39.2614 82.0409 39.9631C81.1813 40.3319 80.4767 41.0871 80.0148 41.9762C81.7281 39.3684 78.8891 37.7806 77.8775 40.1297C78.5002 38.1939 77.5705 36.1689 75.6905 37.3048C75.6642 37.3137 75.6379 37.3286 75.6116 37.3375V47.849L75.6086 47.852Z" fill="#3D99FD"/>
<path d="M75.6086 47.8531H84.1051C83.9852 47.4606 83.6782 47.1514 83.3245 47.0116C82.9444 46.86 82.5234 46.8838 82.1345 46.9968C82.3333 46.6043 82.0614 46.075 81.6813 45.9203C81.3012 45.7657 80.8743 45.8936 80.5089 46.0869C80.8246 45.9382 81.0615 45.62 81.1901 45.2662C81.6696 44.2581 80.6551 42.7922 79.3949 43.2085C78.8891 43.4255 78.4739 43.8716 78.202 44.3949C79.2107 42.8576 77.5383 41.9239 76.9448 43.3066C77.5237 41.7931 76.4068 40.9069 75.6086 41.2489V47.8561V47.8531Z" fill="#137AEA"/>
<path d="M84.4178 39.5861C84.1898 39.7943 83.8594 39.7675 83.8594 39.7675C83.8594 39.7675 83.9003 39.4018 84.1284 39.1906C84.3564 38.9795 84.6868 39.0092 84.6868 39.0092C84.6868 39.0092 84.6459 39.375 84.4178 39.5861Z" fill="#3D99FD"/>
<path d="M77.8656 42.0116C77.6961 42.3239 77.3306 42.416 77.3306 42.416C77.3306 42.416 77.24 42.0057 77.4095 41.6935C77.5791 41.3812 77.9446 41.2891 77.9446 41.2891C77.9446 41.2891 78.0352 41.6994 77.8656 42.0116Z" fill="#137AEA"/>
<path d="M83.7249 38.7566C83.8214 39.1967 83.5963 39.6368 83.5963 39.6368C83.5963 39.6368 83.2133 39.3632 83.1139 38.9231C83.0174 38.4831 83.2425 38.043 83.2425 38.043C83.2425 38.043 83.6255 38.3165 83.7249 38.7566Z" fill="#3D99FD"/>
<path d="M6.83255 47.8142L7.05475 44.5433L5.2771 42.4499L5.38528 42.3607L6.43491 43.2736L6.58695 42.3607L6.7536 42.4053L6.72437 43.5412L7.15124 43.9635L7.31497 40.6242L6.44368 39.5269L6.54017 39.4437L7.44361 40.1781L7.50209 38.4297H7.73599L7.89095 40.5766L8.119 42.7116L9.29436 41.4181L9.40546 41.4895L8.97567 42.1764L9.72123 42.1645V42.2923L8.9055 42.4202L8.10438 43.6958L8.28858 47.8142H6.83255Z" fill="#994F61"/>
<path d="M14.4257 35.9909C14.4403 35.5835 14.4111 35.1643 14.2415 34.7926C14.0719 34.4239 13.7444 34.1087 13.3468 34.0522C13.1188 34.0195 12.8615 34.0849 12.7211 34.2692C13.1685 33.7043 13.5778 33.0828 13.7532 32.381C13.9286 31.6763 13.8409 30.8734 13.3819 30.3204C12.9404 29.7851 12.1978 29.5562 11.5195 29.6573C10.8411 29.7584 10.2242 30.1628 9.77981 30.6921C9.82952 29.6008 10.0751 28.5006 9.87922 27.4241C9.68333 26.3507 8.84421 25.2743 7.76826 25.3218C7.04024 25.3545 6.42917 25.8838 5.96429 26.4548C5.00237 27.6412 4.40885 29.1309 4.28897 30.6623C4.01122 30.2728 3.72469 29.8773 3.35337 29.577C2.97913 29.2796 2.49963 29.0863 2.03182 29.1637C1.25995 29.2915 0.771679 30.0884 0.584558 30.8615C0.385742 31.6852 0.412055 32.5624 0.666423 33.3712C1.08745 34.7063 2.06983 35.7649 3.02591 36.7759C2.58734 36.5767 2.03475 36.8443 1.82131 37.2844C1.53186 37.8791 1.80669 38.566 2.20725 39.0388C2.54348 39.4373 2.99082 39.7257 3.45278 39.9606C6.04031 41.2809 9.18921 41.0905 11.8001 39.9398C12.7708 39.5116 13.4462 38.8069 13.9608 37.8642C13.9608 37.8613 13.9637 37.8583 13.9667 37.8524C14.2736 37.2874 14.4052 36.6362 14.4286 35.9879L14.4257 35.9909Z" fill="#3D99FD"/>
<path d="M6.11627 41.5326C5.99639 41.3899 5.63969 41.3334 5.64554 41.5951C5.54028 40.7922 4.50819 41.0955 4.99061 41.8627C4.19827 41.0241 3.49364 42.0976 4.51989 42.5763C3.64568 42.5942 4.13395 43.8609 4.89998 43.3078C4.59006 43.4981 4.78887 43.9114 5.12218 43.8579C6.01101 43.7092 6.91738 42.27 6.11627 41.5326Z" fill="#3D99FD"/>
<path d="M4.56733 39.1614C4.49716 38.9473 4.44453 38.7184 4.4767 38.4953C4.50886 38.2723 4.63458 38.0523 4.83632 37.9571C4.95327 37.9036 5.09946 37.8947 5.20471 37.972C4.87725 37.743 4.56441 37.4814 4.35974 37.1364C4.15508 36.7915 4.07614 36.3484 4.23402 35.9797C4.38606 35.6229 4.74276 35.382 5.11993 35.3255C5.49709 35.2691 5.88595 35.385 6.20757 35.5932C6.01167 35.0193 5.70468 34.4751 5.64036 33.8715C5.57603 33.2679 5.85379 32.5602 6.4327 32.4115C6.82448 32.3104 7.23381 32.4918 7.57004 32.7207C8.26882 33.1935 8.81849 33.8923 9.12257 34.6862C9.21028 34.4335 9.29799 34.1778 9.45003 33.9577C9.60206 33.7377 9.82719 33.5563 10.0874 33.5236C10.5172 33.4671 10.9031 33.812 11.1253 34.1897C11.3622 34.5941 11.485 35.0668 11.4762 35.5367C11.4616 36.3157 11.1049 37.0383 10.757 37.7311C10.9587 37.5527 11.2949 37.6063 11.4762 37.8055C11.7218 38.0761 11.6838 38.4835 11.5464 38.8016C11.4294 39.0692 11.2365 39.2923 11.0289 39.4945C9.85936 40.6185 8.1548 41.0288 6.58766 40.8415C6.00583 40.7731 5.5351 40.5055 5.11115 40.0892C5.11115 40.0892 5.10823 40.0862 5.10531 40.0832C4.85386 39.8334 4.68136 39.5064 4.56733 39.1674V39.1614Z" fill="#137AEA"/>
<path d="M1.63453 36.4245C1.78364 36.6981 1.69593 37.0371 1.69593 37.0371C1.69593 37.0371 1.36554 36.933 1.21935 36.6594C1.07024 36.3859 1.15795 36.0469 1.15795 36.0469C1.15795 36.0469 1.48834 36.151 1.63453 36.4245Z" fill="#3D99FD"/>
<path d="M0.745561 37.0013C1.16658 36.9775 1.52913 37.2897 1.52913 37.2897C1.52913 37.2897 1.20752 37.6436 0.78357 37.6674C0.362547 37.6912 0 37.3789 0 37.3789C0 37.3789 0.321615 37.0251 0.745561 37.0013Z" fill="#3D99FD"/>
<path d="M10.0047 42.5466C9.85264 42.4811 9.77954 42.3116 9.77954 42.3116C9.77954 42.3116 9.95204 42.2433 10.1041 42.3116C10.2561 42.3771 10.3292 42.5466 10.3292 42.5466C10.3292 42.5466 10.1567 42.615 10.0047 42.5466Z" fill="#3D99FD"/>
<path d="M10.1896 42.0043C10.02 42.156 9.76855 42.147 9.76855 42.147C9.76855 42.147 9.78902 41.8913 9.95568 41.7367C10.1223 41.5821 10.3767 41.594 10.3767 41.594C10.3767 41.594 10.3562 41.8497 10.1896 42.0043Z" fill="#3D99FD"/>
<path d="M9.95859 33.0192C9.74515 33.2422 9.40015 33.2541 9.40015 33.2541C9.40015 33.2541 9.40307 32.9032 9.61943 32.6802C9.83286 32.4572 10.1779 32.4453 10.1779 32.4453C10.1779 32.4453 10.1749 32.7962 9.95859 33.0192Z" fill="#137AEA"/>
<path d="M4.76892 34.7959C4.96774 34.8732 5.07007 35.0933 5.07007 35.0933C5.07007 35.0933 4.85079 35.1884 4.64905 35.1111C4.45023 35.0338 4.3479 34.8137 4.3479 34.8137C4.3479 34.8137 4.56718 34.7186 4.76892 34.7959Z" fill="#137AEA"/>
<path d="M9.15729 32.3186C9.30348 32.7231 9.11344 33.1631 9.11344 33.1631C9.11344 33.1631 8.68657 32.952 8.54038 32.5476C8.39419 32.1432 8.58424 31.7031 8.58424 31.7031C8.58424 31.7031 9.01111 31.9142 9.15729 32.3186Z" fill="#137AEA"/>
<path d="M5.6024 43.3834C5.52346 43.3953 5.44744 43.3953 5.37435 43.3864C5.26909 43.3715 5.16384 43.3269 5.09367 43.2407C5.03519 43.1693 5.00303 43.0563 5.03519 42.9671C5.08197 42.8363 5.24863 42.869 5.32465 42.7709C5.36558 42.7174 5.3685 42.64 5.35973 42.5717C5.35096 42.5033 5.33342 42.4349 5.35096 42.3665C5.3685 42.3011 5.4299 42.2386 5.49715 42.2535C5.54685 42.2654 5.57901 42.313 5.61118 42.3486C5.63164 42.3695 5.65796 42.3903 5.68719 42.3903C5.81292 42.3903 5.84215 42.197 5.97372 42.2208C6.11114 42.2446 6.18716 42.3903 6.22517 42.5122C6.29241 42.7263 6.26025 42.9612 6.11406 43.1366C5.98542 43.2942 5.79537 43.3537 5.6024 43.3805V43.3834Z" fill="#137AEA"/>
<path d="M60.6836 11.6016L29.987 11.0664L12.2075 28.4646H25.8732H64.2535H77.9163L60.6836 11.6016Z" fill="#4798EE"/>
<path d="M76.3988 28.4648H56.4529V46.6094H76.3988V28.4648Z" fill="white"/>
<path d="M76.3989 28.4648H74.2178V46.6094H76.3989V28.4648Z" fill="#137AEA"/>
<path d="M58.634 28.4648H56.4529V46.6094H58.634V28.4648Z" fill="#137AEA"/>
<path d="M74.2155 31.0859H58.6318V31.309H74.2155V31.0859Z" fill="#E1ECEF"/>
<path d="M74.2155 33.6445H58.6318V33.8675H74.2155V33.6445Z" fill="#E1ECEF"/>
<path d="M74.2155 36.1992H58.6318V36.4222H74.2155V36.1992Z" fill="#E1ECEF"/>
<path d="M74.2155 38.7539H58.6318V38.9769H74.2155V38.7539Z" fill="#E1ECEF"/>
<path d="M74.2155 41.3125H58.6318V41.5355H74.2155V41.3125Z" fill="#E1ECEF"/>
<path d="M74.2155 43.8672H58.6318V44.0902H74.2155V43.8672Z" fill="#E1ECEF"/>
<path d="M58.6318 31.0859H56.4507V31.309H58.6318V31.0859Z" fill="#DBE7F3"/>
<path d="M58.6318 33.6445H56.4507V33.8675H58.6318V33.6445Z" fill="#DBE7F3"/>
<path d="M58.6318 36.1992H56.4507V36.4222H58.6318V36.1992Z" fill="#DBE7F3"/>
<path d="M58.6318 38.7539H56.4507V38.9769H58.6318V38.7539Z" fill="#DBE7F3"/>
<path d="M58.6318 41.3125H56.4507V41.5355H58.6318V41.3125Z" fill="#DBE7F3"/>
<path d="M58.6318 43.8672H56.4507V44.0902H58.6318V43.8672Z" fill="#DBE7F3"/>
<path d="M76.3989 31.0859H74.2178V31.309H76.3989V31.0859Z" fill="#DBE7F3"/>
<path d="M76.3989 33.6445H74.2178V33.8675H76.3989V33.6445Z" fill="#DBE7F3"/>
<path d="M76.3989 36.1992H74.2178V36.4222H76.3989V36.1992Z" fill="#DBE7F3"/>
<path d="M76.3989 38.7539H74.2178V38.9769H76.3989V38.7539Z" fill="#DBE7F3"/>
<path d="M76.3989 41.3125H74.2178V41.5355H76.3989V41.3125Z" fill="#DBE7F3"/>
<path d="M76.3989 43.8672H74.2178V44.0902H76.3989V43.8672Z" fill="#DBE7F3"/>
<path d="M33.674 28.4648H13.728V46.6094H33.674V28.4648Z" fill="white"/>
<path d="M33.5044 31.0859H13.728V31.309H33.5044V31.0859Z" fill="#E1ECEF"/>
<path d="M33.5044 33.6445H13.728V33.8675H33.5044V33.6445Z" fill="#E1ECEF"/>
<path d="M33.5044 36.1992H13.728V36.4222H33.5044V36.1992Z" fill="#E1ECEF"/>
<path d="M33.5044 38.7539H13.728V38.9769H33.5044V38.7539Z" fill="#E1ECEF"/>
<path d="M33.5044 41.3125H13.728V41.5355H33.5044V41.3125Z" fill="#E1ECEF"/>
<path d="M33.5044 43.8672H13.728V44.0902H33.5044V43.8672Z" fill="#E1ECEF"/>
<path d="M30.2671 32.1953H17.1335V46.6111H30.2671V32.1953Z" fill="#459EFF"/>
<path d="M30.2671 32.8287L17.1335 34.9964V32.1953H30.2671V32.8287Z" fill="#137AEA"/>
<path d="M33.674 46.6094H32.7998L33.3466 28.4648H33.674V46.6094Z" fill="#9BB8CC"/>
<path d="M33.674 28.7652L13.728 29.8743V28.4648H33.674V28.7652Z" fill="#9BB8CC"/>
<path d="M58.6311 28.4648V29.7524L74.2177 28.8871V28.4648H58.6311Z" fill="#9BB8CC"/>
<path d="M74.2178 28.4648V28.8871L76.3989 28.7652V28.4648H74.2178Z" fill="#DBE7F3"/>
<path d="M56.4534 46.6051H33.6743V18.395L45.0624 9.35547L56.4534 18.395V46.6051Z" fill="white"/>
<path d="M45.0624 9.35547L33.6743 18.395V20.4408L44.5332 11.9008L56.4505 21.3626V18.395L45.0624 9.35547Z" fill="#9BB8CC"/>
<path d="M58.2603 18.6378L45.0624 8.56641L31.8733 18.7389L33.1597 20.0473L45.0624 10.6003L56.9154 20.0056L58.2603 18.6378Z" fill="#1268C6"/>
<path d="M77.0184 46.6055H12.4148V47.8484H77.0184V46.6055Z" fill="#137AEA"/>
<path d="M28.1016 35.3125H19.3333V46.606H28.1016V35.3125Z" fill="white"/>
<path d="M23.3881 35.832H19.9673V45.9807H23.3881V35.832Z" fill="#81BDFF"/>
<path d="M27.4342 35.832H24.0134V45.9807H27.4342V35.832Z" fill="#81BDFF"/>
<path d="M28.101 35.1562H19.3326H19.2479H19.1397L19.0315 46.6074H19.3326V35.3138H28.101V35.1562Z" fill="#DBE7F3"/>
<path d="M72.6502 35.3164H60.1189V42.9911H72.6502V35.3164Z" fill="white"/>
<path d="M62.809 35.8359H60.7009V42.3926H62.809V35.8359Z" fill="#81BDFF"/>
<path d="M69.4283 35.8359H63.4199V42.3926H69.4283V35.8359Z" fill="#81BDFF"/>
<path d="M72.1473 35.8359H70.0393V42.3926H72.1473V35.8359Z" fill="#81BDFF"/>
<path d="M72.6502 35.2188H60.1189H59.9318L59.7798 42.9946H60.1189V35.3169H72.6502V35.2188Z" fill="#9BB8CC"/>
<path d="M60.1189 42.9297H72.6502V43.1111L59.7798 43.6671V42.9297H60.1189Z" fill="#9BB8CC"/>
<path d="M40.7055 35.8359H37.2847V45.9846H40.7055V35.8359Z" fill="#81BDFF"/>
<path d="M44.7516 35.8359H41.3308V45.9846H44.7516V35.8359Z" fill="#81BDFF"/>
<path d="M48.7956 35.8359H45.3748V45.9846H48.7956V35.8359Z" fill="#81BDFF"/>
<path d="M52.8388 35.8359H49.418V45.9846H52.8388V35.8359Z" fill="#81BDFF"/>
<path d="M53.2394 35.2188H36.457L36.1968 46.6104H36.7231V35.3169H53.2394V35.2188Z" fill="#9BB8CC"/>
<path d="M44.7528 18.582H41.332V28.7307H44.7528V18.582Z" fill="#81BDFF"/>
<path d="M48.7963 18.582H45.3755V28.7307H48.7963V18.582Z" fill="#81BDFF"/>
<path d="M49.3488 17.9648H40.5337L40.2734 29.3565H40.8026V18.063H49.3488V17.9648Z" fill="#9BB8CC"/>
<path d="M54.0206 29.2852H36.1038V30.2218H54.0206V29.2852Z" fill="#81BDFF"/>
<path d="M54.0209 30.2218H36.1041V29.2852L35.417 30.2218V31.102L54.0209 30.43V30.2218Z" fill="#9BB8CC"/>
<path d="M37.1771 26.7305H36.8877V29.2818H37.1771V26.7305Z" fill="#137AEA"/>
<path d="M46.8842 26.7305H46.5947V29.2818H46.8842V26.7305Z" fill="#137AEA"/>
<path d="M43.6474 26.7305H43.3579V29.2818H43.6474V26.7305Z" fill="#137AEA"/>
<path d="M50.1176 26.7305H49.8281V29.2818H50.1176V26.7305Z" fill="#137AEA"/>
<path d="M40.414 26.7305H40.1245V29.2818H40.414V26.7305Z" fill="#137AEA"/>
<path d="M53.3544 26.7305H53.0649V29.2818H53.3544V26.7305Z" fill="#137AEA"/>
<path d="M37.1771 26.7305H36.8877V26.9713H37.1771V26.7305Z" fill="#4A938C"/>
<path d="M46.8842 26.7305H46.5947V26.9713H46.8842V26.7305Z" fill="#4A938C"/>
<path d="M43.6474 26.7305H43.3579V26.9713H43.6474V26.7305Z" fill="#4A938C"/>
<path d="M50.1176 26.7305H49.8281V26.9713H50.1176V26.7305Z" fill="#4A938C"/>
<path d="M40.414 26.7305H40.1245V26.9713H40.414V26.7305Z" fill="#4A938C"/>
<path d="M53.3544 26.7305H53.0649V26.9713H53.3544V26.7305Z" fill="#4A938C"/>
<path d="M53.6174 26.7312H36.49V26.0859L53.6174 26.2346V26.7312Z" fill="#137AEA"/>
<path d="M13.2562 45.2695H3.29785V45.662H13.2562V45.2695Z" fill="#B6CCD8"/>
<path d="M13.2562 46.8633H3.29785V47.2558H13.2562V46.8633Z" fill="#B6CCD8"/>
<path d="M4.35322 47.8181H3.67782C3.63689 47.8181 3.60181 47.7854 3.60181 47.7468V44.8089C3.60181 44.794 3.60765 44.7762 3.61643 44.7643L3.95558 44.351C3.98482 44.3153 4.0433 44.3153 4.07546 44.351L4.41461 44.7643C4.41461 44.7643 4.42923 44.7911 4.42923 44.8089V47.7468C4.42923 47.7854 4.39415 47.8181 4.35322 47.8181Z" fill="white"/>
<path d="M5.76288 47.8181H5.08749C5.04656 47.8181 5.01147 47.7854 5.01147 47.7468V44.8089C5.01147 44.794 5.01732 44.7762 5.02609 44.7643L5.36525 44.351C5.39449 44.3153 5.45296 44.3153 5.48513 44.351L5.82428 44.7643C5.82428 44.7643 5.8389 44.7911 5.8389 44.8089V47.7468C5.8389 47.7854 5.80382 47.8181 5.76288 47.8181Z" fill="white"/>
<path d="M7.17475 47.8181H6.49936C6.45843 47.8181 6.42334 47.7854 6.42334 47.7468V44.8089C6.42334 44.794 6.42919 44.7762 6.43796 44.7643L6.77712 44.351C6.80635 44.3153 6.86483 44.3153 6.89699 44.351L7.23615 44.7643C7.23615 44.7643 7.25077 44.7911 7.25077 44.8089V47.7468C7.25077 47.7854 7.21568 47.8181 7.17475 47.8181Z" fill="white"/>
<path d="M8.58686 47.8181H7.91147C7.87053 47.8181 7.83545 47.7854 7.83545 47.7468V44.8089C7.83545 44.794 7.8413 44.7762 7.85007 44.7643L8.18923 44.351C8.21846 44.3153 8.27694 44.3153 8.3091 44.351L8.64826 44.7643C8.64826 44.7643 8.66288 44.7911 8.66288 44.8089V47.7468C8.66288 47.7854 8.62779 47.8181 8.58686 47.8181Z" fill="white"/>
<path d="M9.99897 47.8181H9.32358C9.28264 47.8181 9.24756 47.7854 9.24756 47.7468V44.8089C9.24756 44.794 9.25341 44.7762 9.26218 44.7643L9.60133 44.351C9.63057 44.3153 9.68905 44.3153 9.72121 44.351L10.0604 44.7643C10.0604 44.7643 10.075 44.7911 10.075 44.8089V47.7468C10.075 47.7854 10.0399 47.8181 9.99897 47.8181Z" fill="white"/>
<path d="M11.4086 47.8181H10.7332C10.6923 47.8181 10.6572 47.7854 10.6572 47.7468V44.8089C10.6572 44.794 10.6631 44.7762 10.6718 44.7643L11.011 44.351C11.0402 44.3153 11.0987 44.3153 11.1309 44.351L11.47 44.7643C11.47 44.7643 11.4847 44.7911 11.4847 44.8089V47.7468C11.4847 47.7854 11.4496 47.8181 11.4086 47.8181Z" fill="white"/>
<path d="M12.8205 47.8181H12.1451C12.1042 47.8181 12.0691 47.7854 12.0691 47.7468V44.8089C12.0691 44.794 12.0749 44.7762 12.0837 44.7643L12.4229 44.351C12.4521 44.3153 12.5106 44.3153 12.5427 44.351L12.8819 44.7643C12.8819 44.7643 12.8965 44.7911 12.8965 44.8089V47.7468C12.8965 47.7854 12.8614 47.8181 12.8205 47.8181Z" fill="white"/>
<path d="M89.0088 45.2695H74.8928V45.662H89.0088V45.2695Z" fill="#B6CCD8"/>
<path d="M89.0088 46.8633H74.8928V47.2558H89.0088V46.8633Z" fill="#B6CCD8"/>
<path d="M75.9484 47.8181H75.273C75.2321 47.8181 75.197 47.7854 75.197 47.7468V44.8089C75.197 44.794 75.2029 44.7762 75.2116 44.7643L75.5508 44.351C75.58 44.3153 75.6385 44.3153 75.6707 44.351L76.0098 44.7643C76.0098 44.7643 76.0244 44.7911 76.0244 44.8089V47.7468C76.0244 47.7854 75.9894 47.8181 75.9484 47.8181Z" fill="white"/>
<path d="M77.3578 47.8181H76.6825C76.6415 47.8181 76.6064 47.7854 76.6064 47.7468V44.8089C76.6064 44.794 76.6123 44.7762 76.6211 44.7643L76.9602 44.351C76.9895 44.3153 77.0479 44.3153 77.0801 44.351L77.4193 44.7643C77.4193 44.7643 77.4339 44.7911 77.4339 44.8089V47.7468C77.4339 47.7854 77.3988 47.8181 77.3578 47.8181Z" fill="white"/>
<path d="M78.77 47.8181H78.0946C78.0536 47.8181 78.0186 47.7854 78.0186 47.7468V44.8089C78.0186 44.794 78.0244 44.7762 78.0332 44.7643L78.3723 44.351C78.4016 44.3153 78.46 44.3153 78.4922 44.351L78.8314 44.7643C78.8314 44.7643 78.846 44.7911 78.846 44.8089V47.7468C78.846 47.7854 78.8109 47.8181 78.77 47.8181Z" fill="white"/>
<path d="M80.1821 47.8181H79.5067C79.4657 47.8181 79.4307 47.7854 79.4307 47.7468V44.8089C79.4307 44.794 79.4365 44.7762 79.4453 44.7643L79.7844 44.351C79.8137 44.3153 79.8722 44.3153 79.9043 44.351L80.2435 44.7643C80.2435 44.7643 80.2581 44.7911 80.2581 44.8089V47.7468C80.2581 47.7854 80.223 47.8181 80.1821 47.8181Z" fill="white"/>
<path d="M81.5942 47.8181H80.9188C80.8779 47.8181 80.8428 47.7854 80.8428 47.7468V44.8089C80.8428 44.794 80.8486 44.7762 80.8574 44.7643L81.1965 44.351C81.2258 44.3153 81.2843 44.3153 81.3164 44.351L81.6556 44.7643C81.6556 44.7643 81.6702 44.7911 81.6702 44.8089V47.7468C81.6702 47.7854 81.6351 47.8181 81.5942 47.8181Z" fill="white"/>
<path d="M83.0063 47.8181H82.3309C82.29 47.8181 82.2549 47.7854 82.2549 47.7468V44.8089C82.2549 44.794 82.2607 44.7762 82.2695 44.7643L82.6087 44.351C82.6379 44.3153 82.6964 44.3153 82.7285 44.351L83.0677 44.7643C83.0677 44.7643 83.0823 44.7911 83.0823 44.8089V47.7468C83.0823 47.7854 83.0472 47.8181 83.0063 47.8181Z" fill="white"/>
<path d="M84.4157 47.8181H83.7403C83.6994 47.8181 83.6643 47.7854 83.6643 47.7468V44.8089C83.6643 44.794 83.6702 44.7762 83.6789 44.7643L84.0181 44.351C84.0473 44.3153 84.1058 44.3153 84.138 44.351L84.4771 44.7643C84.4771 44.7643 84.4917 44.7911 84.4917 44.8089V47.7468C84.4917 47.7854 84.4567 47.8181 84.4157 47.8181Z" fill="white"/>
<path d="M85.8278 47.8181H85.1524C85.1115 47.8181 85.0764 47.7854 85.0764 47.7468V44.8089C85.0764 44.794 85.0823 44.7762 85.091 44.7643L85.4302 44.351C85.4594 44.3153 85.5179 44.3153 85.5501 44.351L85.8892 44.7643C85.8892 44.7643 85.9038 44.7911 85.9038 44.8089V47.7468C85.9038 47.7854 85.8688 47.8181 85.8278 47.8181Z" fill="white"/>
<path d="M87.2402 47.8181H86.5648C86.5239 47.8181 86.4888 47.7854 86.4888 47.7468V44.8089C86.4888 44.794 86.4946 44.7762 86.5034 44.7643L86.8425 44.351C86.8718 44.3153 86.9303 44.3153 86.9624 44.351L87.3016 44.7643C87.3016 44.7643 87.3162 44.7911 87.3162 44.8089V47.7468C87.3162 47.7854 87.2811 47.8181 87.2402 47.8181Z" fill="white"/>
<path d="M88.6523 47.8181H87.9769C87.936 47.8181 87.9009 47.7854 87.9009 47.7468V44.8089C87.9009 44.794 87.9067 44.7762 87.9155 44.7643L88.2547 44.351C88.2839 44.3153 88.3424 44.3153 88.3745 44.351L88.7137 44.7643C88.7137 44.7643 88.7283 44.7911 88.7283 44.8089V47.7468C88.7283 47.7854 88.6932 47.8181 88.6523 47.8181Z" fill="white"/>
<path d="M90.3829 47.707H2.37744V48.0044H90.3829V47.707Z" fill="#133B53"/>
<path d="M75.1482 34.4891H86.6488C87.0906 34.4891 87.4488 34.8472 87.4488 35.2891V50.4276C87.4488 50.8694 87.0906 51.2276 86.6488 51.2276H75.1482C74.7064 51.2276 74.3482 50.8694 74.3482 50.4276V35.2891C74.3482 34.8472 74.7064 34.4891 75.1482 34.4891Z" fill="white" stroke="#007AFF" stroke-width="0.4"/>
<rect x="79.8654" y="46.9555" width="3.17032" height="3.2277" rx="1.58516" fill="white"/>
<rect x="79.8654" y="46.9555" width="3.17032" height="3.2277" rx="1.58516" stroke="#007AFF" stroke-width="0.2"/>
<path d="M80.8889 48.4246L81.3102 48.853L82.3213 47.9961" stroke="#007AFF" stroke-width="0.3" stroke-linecap="round" stroke-linejoin="round"/>
<path d="M76.2546 37.1445H83.2761V37.8586H76.2546V37.1445Z" fill="#005CEA"/>
<path d="M76.2546 38.5742H85.3826V39.2883H76.2546V38.5742Z" fill="#005CEA"/>
<path d="M76.2546 41.4297H85.3826V42.1438H76.2546V41.4297Z" fill="#005CEA"/>
<path d="M76.2546 40H85.3826V40.7141H76.2546V40Z" fill="#005CEA"/>
<path d="M76.2546 42.8594H85.3826V43.5735H76.2546V42.8594Z" fill="#005CEA"/>
<path d="M76.2546 44.2852H85.3826V44.9993H76.2546V44.2852Z" fill="#005CEA"/>
</svg>
