<svg width="96" height="56" viewBox="0 0 96 56" fill="none" xmlns="http://www.w3.org/2000/svg">
<g clip-path="url(#clip0_7454_29599)">
<path d="M54.9708 23.8594H33.8169C33.6908 23.8594 33.5886 23.9676 33.5886 24.1011V24.9172C33.5886 25.0506 33.6908 25.1589 33.8169 25.1589H54.9708C55.0969 25.1589 55.1991 25.0506 55.1991 24.9172V24.1011C55.1991 23.9676 55.0969 23.8594 54.9708 23.8594Z" fill="white"/>
<path d="M114.9 55.9489C114.9 55.9824 92.5342 56.0112 64.9521 56.0112C37.3699 56.0112 15 55.9824 15 55.9489C15 55.9154 37.3609 55.8867 64.9521 55.8867C92.5432 55.8867 114.9 55.9154 114.9 55.9489Z" fill="#263238"/>
<path d="M29.1018 37.5432L28.9866 28.9805H34.5762L34.7684 37.5432H29.1018Z" fill="#EBEBEB"/>
<path d="M37.0332 45.3018C37.0332 45.3281 34.2802 45.3496 30.8852 45.3496C27.4903 45.3496 24.7373 45.3281 24.7373 45.3018C24.7373 45.2754 27.4881 45.2539 30.8852 45.2539C34.2824 45.2539 37.0332 45.2754 37.0332 45.3018Z" fill="#263238"/>
<path d="M40.6655 55.948H22.4296C19.5251 55.948 17.1699 53.6577 17.1699 50.8314C17.1699 48.0051 19.5251 45.7148 22.4296 45.7148H40.6655C41.052 45.7148 41.3662 46.0188 41.3662 46.3969V55.2683C41.3662 55.6441 41.052 55.9504 40.6655 55.9504V55.948Z" fill="#407BFF"/>
<path d="M78.2221 47.414H36.1245V45.7148H78.2221C78.7036 45.7148 79.0946 46.0954 79.0946 46.5644C79.0946 47.0335 78.7036 47.414 78.2221 47.414Z" fill="#407BFF"/>
<path d="M78.2221 55.9491H36.1245V54.25H78.2221C78.7036 54.25 79.0946 54.6305 79.0946 55.0996C79.0946 55.5686 78.7036 55.9491 78.2221 55.9491Z" fill="#407BFF"/>
<path d="M77.8129 54.2489H40.9185C38.9769 54.2489 37.406 52.7197 37.406 50.8315C37.406 48.9433 38.9792 47.4141 40.9185 47.4141H77.8129C76.8229 49.6924 76.8229 51.9706 77.8129 54.2489Z" fill="#F5F5F5"/>
<path opacity="0.3" d="M37.4062 55.948H22.3731C19.5003 55.948 17.1699 53.6817 17.1699 50.8865C17.1699 48.0314 19.55 45.7148 22.4861 45.7148H37.8062C33.9977 47.9596 34.2825 53.3347 37.4062 55.948Z" fill="black"/>
<path d="M73.3309 51.1455C73.3309 51.1718 65.7589 51.1934 56.4195 51.1934C47.08 51.1934 39.5059 51.1718 39.5059 51.1455C39.5059 51.1192 47.0778 51.0977 56.4195 51.0977C65.7612 51.0977 73.3309 51.1192 73.3309 51.1455Z" fill="#263238"/>
<path d="M76.8118 52.669C76.8118 52.6953 69.2399 52.7168 59.9004 52.7168C50.561 52.7168 42.9868 52.6953 42.9868 52.669C42.9868 52.6426 50.5587 52.6211 59.9004 52.6211C69.2422 52.6211 76.8118 52.6426 76.8118 52.669Z" fill="#263238"/>
<path d="M75.7857 49.7393C75.7857 49.7656 68.2138 49.7871 58.8743 49.7871C49.5349 49.7871 41.9607 49.7656 41.9607 49.7393C41.9607 49.7129 49.5326 49.6914 58.8743 49.6914C68.216 49.6914 75.7857 49.7129 75.7857 49.7393Z" fill="#263238"/>
<path d="M35.5527 55.2315C35.5527 55.2578 32.0086 55.2793 27.6372 55.2793C23.2659 55.2793 19.7195 55.2578 19.7195 55.2315C19.7195 55.2051 23.2636 55.1836 27.6372 55.1836C32.0109 55.1836 35.5527 55.2051 35.5527 55.2315Z" fill="#263238"/>
<path d="M35.5527 46.5635C35.5527 46.5898 32.0086 46.6114 27.6372 46.6114C23.2659 46.6114 19.7195 46.5898 19.7195 46.5635C19.7195 46.5372 23.2636 46.5156 27.6372 46.5156C32.0109 46.5156 35.5527 46.5372 35.5527 46.5635Z" fill="#263238"/>
<path d="M41.5467 45.8594H26.8414C24.5856 45.8594 22.7571 44.0812 22.7571 41.8867C22.7571 39.6922 24.5856 37.9141 26.8414 37.9141H41.5445V45.8594H41.5467Z" fill="#455A64"/>
<path d="M70.1644 39.2327H37.4763V37.9141H70.1644C70.5396 37.9141 70.8425 38.2084 70.8425 38.5746C70.8425 38.9383 70.5396 39.2351 70.1644 39.2351V39.2327Z" fill="#455A64"/>
<path d="M70.1644 45.8616H37.4763V44.543H70.1644C70.5396 44.543 70.8425 44.8373 70.8425 45.2035C70.8425 45.5672 70.5396 45.864 70.1644 45.864V45.8616Z" fill="#455A64"/>
<path d="M69.8478 44.5385H41.1989C39.6913 44.5385 38.4707 43.3491 38.4707 41.8845C38.4707 40.4199 39.6913 39.2305 41.1989 39.2305H69.8478C69.0793 40.999 69.0793 42.77 69.8478 44.5385Z" fill="#F5F5F5"/>
<path opacity="0.3" d="M38.4708 45.8594H26.853C24.5905 45.8594 22.7551 44.0741 22.7551 41.8747C22.7551 39.6874 24.5792 37.9141 26.8259 37.9141H38.7782C35.8195 39.6563 36.041 43.83 38.4663 45.8594H38.4708Z" fill="black"/>
<path d="M66.3672 42.1338C66.3672 42.1601 60.486 42.1817 53.235 42.1817C45.9841 42.1817 40.1006 42.1601 40.1006 42.1338C40.1006 42.1075 45.9796 42.0859 53.235 42.0859C60.4905 42.0859 66.3672 42.1075 66.3672 42.1338Z" fill="#263238"/>
<path d="M69.0704 43.3096C69.0704 43.3359 63.1891 43.3574 55.9382 43.3574C48.6872 43.3574 42.8037 43.3359 42.8037 43.3096C42.8037 43.2833 48.6827 43.2617 55.9382 43.2617C63.1936 43.2617 69.0704 43.2833 69.0704 43.3096Z" fill="#263238"/>
<path d="M68.2725 40.458C68.2725 40.4843 62.3913 40.5059 55.1403 40.5059C47.8894 40.5059 42.0059 40.4843 42.0059 40.458C42.0059 40.4317 47.8848 40.4102 55.1403 40.4102C62.3958 40.4102 68.2725 40.4317 68.2725 40.458Z" fill="#263238"/>
<path d="M37.0332 38.5713C37.0332 38.5976 34.2802 38.6192 30.8852 38.6192C27.4903 38.6192 24.7373 38.5976 24.7373 38.5713C24.7373 38.545 27.4881 38.5234 30.8852 38.5234C34.2824 38.5234 37.0332 38.545 37.0332 38.5713Z" fill="#263238"/>
<path d="M50.6152 40.4961V43.6766L51.7499 42.9706L53.0156 43.6766V40.4961H50.6152Z" fill="#407BFF"/>
<path d="M32.2822 35.7929C32.2822 35.8336 31.1091 35.8671 29.6648 35.8671C28.2204 35.8671 27.0474 35.8336 27.0474 35.7929C27.0474 35.7523 28.2204 35.7188 29.6648 35.7188C31.1091 35.7188 32.2822 35.7523 32.2822 35.7929Z" fill="#E0E0E0"/>
<path d="M32.2819 30.5039C32.2819 30.5446 31.1088 30.5781 29.6645 30.5781C28.2202 30.5781 27.0471 30.5446 27.0471 30.5039C27.0471 30.4632 28.2202 30.4297 29.6645 30.4297C31.1088 30.4297 32.2819 30.4632 32.2819 30.5039Z" fill="#E0E0E0"/>
<path d="M32.2819 31.8242C32.2819 31.8649 31.1088 31.8984 29.6645 31.8984C28.2202 31.8984 27.0471 31.8649 27.0471 31.8242C27.0471 31.7835 28.2202 31.75 29.6645 31.75C31.1088 31.75 32.2819 31.7835 32.2819 31.8242Z" fill="#E0E0E0"/>
<path d="M32.2819 33.1484C32.2819 33.1891 31.1088 33.2226 29.6645 33.2226C28.2202 33.2226 27.0471 33.1891 27.0471 33.1484C27.0471 33.1077 28.2202 33.0742 29.6645 33.0742C31.1088 33.0742 32.2819 33.1077 32.2819 33.1484Z" fill="#E0E0E0"/>
<path d="M32.2819 34.4687C32.2819 34.5094 31.1088 34.5429 29.6645 34.5429C28.2202 34.5429 27.0471 34.5094 27.0471 34.4687C27.0471 34.428 28.2202 34.3945 29.6645 34.3945C31.1088 34.3945 32.2819 34.428 32.2819 34.4687Z" fill="#E0E0E0"/>
<path d="M26.6246 28.6992H74.1988C74.7865 31.5351 74.7029 34.6558 74.1988 37.9536H26.8257V37.3242H30.9146C31.6695 37.3242 32.282 36.6589 32.282 35.8404V30.719C32.282 29.8982 31.6695 29.2353 30.9146 29.2353H26.6223V28.6992H26.6246Z" fill="#407BFF"/>
<path d="M72.5556 38.1289C72.5172 38.1289 72.4878 36.0038 72.4878 33.3808C72.4878 30.7579 72.5172 28.6328 72.5556 28.6328C72.594 28.6328 72.6234 30.7579 72.6234 33.3808C72.6234 36.0038 72.594 38.1289 72.5556 38.1289Z" fill="#263238"/>
<path d="M35.4848 38.1289C35.4486 38.1289 35.417 36.0038 35.417 33.3808C35.417 30.7579 35.4464 28.6328 35.4848 28.6328C35.5232 28.6328 35.5526 30.7579 35.5526 33.3808C35.5526 36.0038 35.5232 38.1289 35.4848 38.1289Z" fill="#263238"/>
<path d="M73.3896 38.1289C73.3534 38.1289 73.3218 36.0038 73.3218 33.3808C73.3218 30.7579 73.3512 28.6328 73.3896 28.6328C73.428 28.6328 73.4574 30.7579 73.4574 33.3808C73.4574 36.0038 73.428 38.1289 73.3896 38.1289Z" fill="#263238"/>
<path d="M34.705 38.1289C34.6666 38.1289 34.6372 36.0038 34.6372 33.3808C34.6372 30.7579 34.6666 28.6328 34.705 28.6328C34.7434 28.6328 34.7728 30.7579 34.7728 33.3808C34.7728 36.0038 34.7434 38.1289 34.705 38.1289Z" fill="#263238"/>
<path d="M45.2629 31.5469H46.3976V34.8399H48.3121V35.7923H45.2652V31.5469H45.2629Z" fill="white"/>
<path d="M51.4899 34.9667H49.7947L49.4805 35.7923H48.3232L50.093 31.5469H51.2096L52.9862 35.7923H51.8063L51.4921 34.9667H51.4899ZM51.1576 34.0812L50.6423 32.7219L50.1269 34.0812H51.1576Z" fill="white"/>
<path d="M59.3717 31.5469L58.072 35.7923H56.8582L56.0897 33.2077L55.2874 35.7923H54.0736L52.7739 31.5469H53.9425L54.7494 34.2583L55.597 31.5469H56.639L57.4459 34.2823L58.289 31.5469H59.3717Z" fill="white"/>
<path d="M38.2764 19.1971L33.8078 3.73252L28.6951 19.1301L28.634 19.1086L33.8123 3.51953L38.3374 19.178L38.2764 19.1971Z" fill="#263238"/>
<path d="M28.6633 19.1211C28.6633 19.1211 29.8477 20.5187 31.8368 20.5187C33.8258 20.5187 35.5368 20.5187 35.5368 20.5187C35.5368 20.5187 37.4377 20.399 38.3057 19.1881L28.6633 19.1211Z" fill="#455A64"/>
<path d="M55.2646 18.9276L50.7961 3.46538L45.6811 18.863L45.6223 18.8415L50.8006 3.25L55.3257 18.9085L55.2646 18.9276Z" fill="#263238"/>
<path d="M45.6516 18.85C45.6516 18.85 46.836 20.2477 48.825 20.2477C50.8141 20.2477 52.5251 20.2477 52.5251 20.2477C52.5251 20.2477 54.426 20.128 55.2939 18.9147L45.6516 18.8477V18.85Z" fill="#455A64"/>
<path d="M53.0496 3.43359H31.9048V3.99599H53.0496V3.43359Z" fill="#455A64"/>
<path d="M36.918 28.698V28.1332C36.918 28.1332 38.3826 27.9465 38.898 26.5106C38.9319 26.592 41.1831 25.4265 41.2826 23.9141H42.1392V28.6956H36.918V28.698Z" fill="#455A64"/>
<path d="M47.2022 28.698V28.1332C47.2022 28.1332 45.7375 27.9465 45.2222 26.5106C45.1883 26.592 42.9371 25.4265 42.8376 23.9141H41.981V28.6956H47.2022V28.698Z" fill="#455A64"/>
<g opacity="0.3">
<path d="M42.9686 24.1992L41.1717 24.4098C41.1558 24.5558 41.2259 24.7018 41.3276 24.7999C41.4293 24.8956 41.5604 24.9483 41.6915 24.9866C41.9695 25.0655 42.2769 25.0823 42.5391 24.9507C42.8013 24.819 43.0025 24.5151 42.9686 24.2016V24.1992Z" fill="black"/>
</g>
<path d="M43.1879 23.555C43.1879 24.2538 42.6703 24.821 42.0329 24.821C41.3955 24.821 40.8779 24.2538 40.8779 23.555C40.8779 22.8562 41.3955 22.2891 42.0329 22.2891C42.6703 22.2891 43.1879 22.8562 43.1879 23.555Z" fill="#455A64"/>
<path d="M42.503 17.6998L42.9257 16.8479L42.2589 0.339844H41.7933L41.1423 16.8479L41.565 17.6998L40.2495 20.0427L42.0329 23.0653L43.8185 20.0427L42.503 17.6998Z" fill="#455A64"/>
<path d="M42.9733 3.79317C42.9733 4.36274 42.5529 4.82462 42.033 4.82462C41.5132 4.82462 41.0928 4.36274 41.0928 3.79317C41.0928 3.2236 41.5132 2.76172 42.033 2.76172C42.5529 2.76172 42.9733 3.2236 42.9733 3.79317Z" fill="#455A64"/>
<path d="M42.9733 3.79186C42.9733 3.79186 42.9733 3.70092 42.9371 3.54536C42.9009 3.3922 42.8105 3.16724 42.6003 2.98775C42.4964 2.9016 42.3607 2.82502 42.207 2.7963C42.0533 2.76758 41.8793 2.77237 41.7143 2.84416C41.6307 2.87767 41.5516 2.92314 41.4792 2.98536C41.4069 3.04519 41.3391 3.11698 41.2871 3.20075C41.2329 3.28451 41.1877 3.37784 41.1583 3.47835C41.1289 3.57886 41.1131 3.68416 41.1131 3.79186C41.1131 3.89955 41.1289 4.00485 41.1583 4.10536C41.1877 4.20587 41.2329 4.29921 41.2871 4.38297C41.3414 4.46673 41.4069 4.53852 41.4815 4.59835C41.5538 4.66057 41.6329 4.70604 41.7166 4.73955C41.8816 4.80895 42.0556 4.81613 42.2093 4.78741C42.363 4.7563 42.4986 4.68211 42.6026 4.59596C42.8151 4.41647 42.9055 4.19151 42.9394 4.03835C42.9755 3.8828 42.9688 3.79186 42.9755 3.79186C42.9755 3.79186 42.9755 3.81339 42.9755 3.85647C42.9755 3.87801 42.9755 3.90433 42.971 3.93545C42.9665 3.96656 42.9642 4.00245 42.9552 4.04074C42.9416 4.11972 42.9077 4.21545 42.8557 4.31596C42.8038 4.41647 42.7269 4.52416 42.6184 4.6151C42.5122 4.70604 42.3743 4.78502 42.2138 4.81852C42.0556 4.84963 41.8748 4.84485 41.703 4.77305C41.6171 4.73955 41.5335 4.69169 41.4589 4.62707C41.3843 4.56485 41.3142 4.49066 41.2577 4.40211C41.2012 4.31596 41.1538 4.22023 41.1244 4.11493C41.095 4.00963 41.0769 3.89955 41.0769 3.78946C41.0769 3.67698 41.095 3.5669 41.1244 3.46399C41.1538 3.35869 41.2035 3.26297 41.2577 3.17681C41.3142 3.09066 41.3843 3.01408 41.4589 2.95186C41.5335 2.88963 41.6171 2.83938 41.703 2.80587C41.8748 2.73408 42.0556 2.72929 42.2138 2.7604C42.3743 2.79391 42.5099 2.87288 42.6184 2.96382C42.7246 3.05476 42.8015 3.16245 42.8557 3.26297C42.9077 3.36348 42.9394 3.45921 42.9552 3.53818C42.9642 3.57647 42.9688 3.61237 42.971 3.64348C42.9755 3.67459 42.9755 3.70092 42.9755 3.72245C42.9755 3.76553 42.9755 3.78707 42.9755 3.78707L42.9733 3.79186Z" fill="#263238"/>
<g opacity="0.3">
<path d="M41.1423 16.8516H42.9257L42.503 17.6796H41.565L41.1423 16.8516Z" fill="black"/>
</g>
<path d="M42.8806 16.856C42.8806 16.856 42.8964 16.8512 42.9258 16.8488V16.8631C42.815 16.8727 42.4715 16.8799 42.0691 16.8799C41.8205 16.8799 41.5945 16.8775 41.4295 16.8727C41.3481 16.8727 41.2826 16.8679 41.2351 16.8655C41.1899 16.8631 41.165 16.8607 41.165 16.856C41.165 16.8512 41.1899 16.8488 41.2351 16.8464C41.2803 16.844 41.3459 16.8416 41.4295 16.8392C41.5922 16.8344 41.8183 16.832 42.0691 16.832C42.4737 16.832 42.815 16.8392 42.9258 16.8488V16.8631C42.8941 16.8631 42.8806 16.8584 42.8806 16.856Z" fill="#263238"/>
<path d="M42.4781 17.6598C42.4781 17.6598 42.4849 17.655 42.503 17.6526V17.6669C42.4419 17.6765 42.2589 17.6837 42.0419 17.6837C41.7729 17.6837 41.5559 17.6741 41.5559 17.6622C41.5559 17.6502 41.7729 17.6406 42.0419 17.6406C42.2589 17.6406 42.4419 17.6478 42.503 17.6574V17.6717C42.4871 17.6717 42.4781 17.6669 42.4781 17.6646V17.6598Z" fill="#263238"/>
<g opacity="0.3">
<path d="M40.2495 20.043L41.6396 22.3978C41.9605 22.2566 42.1323 22.2136 42.4352 22.3548L43.8185 20.043H40.2495Z" fill="black"/>
</g>
<path d="M43.7869 20.0426C43.7869 20.0426 42.989 20.0617 42.0036 20.0617C41.0181 20.0617 40.2202 20.0522 40.2202 20.0426C40.2202 20.033 41.0181 20.0234 42.0036 20.0234C42.989 20.0234 43.7869 20.033 43.7869 20.0426Z" fill="#263238"/>
<path d="M42.4353 22.355C42.4353 22.355 42.3155 22.3239 42.042 22.3358C41.7708 22.343 41.556 22.4124 41.5515 22.4004C41.5515 22.3957 41.6012 22.3741 41.6894 22.3502C41.7775 22.3263 41.9019 22.2999 42.0397 22.2975C42.1776 22.2928 42.3042 22.3143 42.3923 22.343C42.4805 22.3693 42.4375 22.3526 42.4353 22.3574V22.355Z" fill="#263238"/>
<path d="M43.0726 24.1251C43.0726 24.1251 43.0635 24.1586 43.0342 24.2161C43.007 24.2735 42.9573 24.3501 42.8872 24.4362C42.8149 24.5224 42.7177 24.6133 42.5934 24.6899C42.4691 24.7665 42.3199 24.8263 42.1549 24.8479C41.9899 24.867 41.8294 24.8479 41.6938 24.8C41.5559 24.7545 41.4407 24.6899 41.3548 24.6229C41.2666 24.5559 41.2056 24.4913 41.1649 24.441C41.1265 24.3932 41.1084 24.362 41.1084 24.362C41.1152 24.3549 41.192 24.4745 41.3683 24.599C41.5401 24.7234 41.8294 24.8455 42.1504 24.8072C42.4713 24.7665 42.7268 24.5798 42.8692 24.4171C43.0138 24.2544 43.0658 24.1203 43.0748 24.1251H43.0726Z" fill="#263238"/>
<path d="M45.2222 26.5035C45.2222 26.5035 43.8095 26.5227 42.0646 26.5227C40.3197 26.5227 38.907 26.5131 38.907 26.5035C38.907 26.4939 40.3197 26.4844 42.0646 26.4844C43.8095 26.4844 45.2222 26.4939 45.2222 26.5035Z" fill="#263238"/>
<path d="M47.1751 28.1363C47.1751 28.1363 44.8742 28.1555 42.033 28.1555C39.1918 28.1555 36.8909 28.1459 36.8909 28.1363C36.8909 28.1268 39.1918 28.1172 42.033 28.1172C44.8742 28.1172 47.1751 28.1268 47.1751 28.1363Z" fill="#263238"/>
<path d="M34.4905 3.39951C34.5651 3.78959 34.3255 4.17011 33.9571 4.24908C33.5887 4.32805 33.2293 4.07438 33.1547 3.68429C33.0801 3.29421 33.3197 2.9137 33.6881 2.83472C34.0566 2.75575 34.416 3.00942 34.4905 3.39951Z" fill="#455A64"/>
<path d="M34.4904 3.40122C34.4904 3.40122 34.4768 3.339 34.4294 3.23609C34.3819 3.13558 34.287 2.99677 34.1129 2.90823C34.027 2.86515 33.9253 2.83643 33.8123 2.83882C33.7016 2.84361 33.5818 2.87233 33.4755 2.94412C33.4213 2.97763 33.3716 3.02071 33.3286 3.07335C33.2857 3.12361 33.2472 3.18344 33.2201 3.24806C33.1614 3.37729 33.1455 3.53284 33.1704 3.68122C33.1998 3.82959 33.2721 3.966 33.3738 4.05934C33.4235 4.1072 33.4801 4.14788 33.5388 4.1766C33.5976 4.20532 33.6586 4.22686 33.7219 4.23643C33.8462 4.25797 33.966 4.23643 34.07 4.19575C34.174 4.15267 34.2576 4.08327 34.3209 4.00908C34.4475 3.85831 34.4859 3.6884 34.4927 3.57831C34.4994 3.46583 34.4836 3.40361 34.4881 3.40122C34.4881 3.40122 34.5085 3.46344 34.5085 3.57831C34.5085 3.69318 34.4723 3.86788 34.3435 4.02823C34.2802 4.1072 34.192 4.18139 34.0835 4.22686C33.9751 4.27233 33.8485 4.29626 33.7196 4.27472C33.6541 4.26515 33.5885 4.24361 33.5275 4.21489C33.4642 4.18378 33.4055 4.1431 33.3535 4.09284C33.2472 3.99233 33.1704 3.84874 33.1388 3.69318C33.1094 3.53524 33.1297 3.3725 33.1907 3.23609C33.2201 3.16669 33.2608 3.10447 33.306 3.05182C33.3512 2.99677 33.4032 2.9513 33.462 2.9178C33.5727 2.84361 33.6993 2.81489 33.8146 2.8125C33.9321 2.8125 34.0383 2.84361 34.1265 2.88908C34.3051 2.98241 34.4 3.13079 34.4429 3.23609C34.4859 3.34139 34.4904 3.4084 34.4904 3.4084V3.40122Z" fill="#263238"/>
<path d="M51.4901 3.79013C51.5646 4.18022 51.3251 4.56073 50.9566 4.63971C50.5882 4.71868 50.2288 4.465 50.1542 4.07492C50.0796 3.68483 50.3192 3.30432 50.6877 3.22535C51.0561 3.14637 51.4155 3.40005 51.4901 3.79013Z" fill="#455A64"/>
<path d="M51.4899 3.79184C51.4899 3.79184 51.4763 3.72962 51.4289 3.62671C51.3814 3.5262 51.2865 3.3874 51.1124 3.29885C51.0266 3.25577 50.9248 3.22706 50.8118 3.22945C50.7011 3.23424 50.5813 3.26295 50.475 3.33475C50.4208 3.36825 50.3711 3.41133 50.3281 3.46398C50.2852 3.51424 50.2468 3.57407 50.2196 3.63868C50.1609 3.76791 50.145 3.92347 50.1699 4.07184C50.1993 4.22022 50.2716 4.35663 50.3733 4.44996C50.4231 4.49783 50.4796 4.53851 50.5383 4.56723C50.5971 4.59595 50.6581 4.61748 50.7214 4.62706C50.8457 4.6486 50.9655 4.62706 51.0695 4.58637C51.1735 4.5433 51.2571 4.47389 51.3204 4.39971C51.447 4.24894 51.4854 4.07902 51.4922 3.96894C51.4989 3.85646 51.4831 3.79424 51.4876 3.79184C51.4876 3.79184 51.508 3.85407 51.508 3.96894C51.508 4.08381 51.4718 4.25851 51.343 4.41885C51.2774 4.49783 51.1916 4.57201 51.0831 4.61748C50.9746 4.66295 50.848 4.68689 50.7192 4.66535C50.6536 4.65577 50.5881 4.63424 50.527 4.60552C50.4637 4.57441 50.405 4.53372 50.353 4.48347C50.2468 4.38295 50.1699 4.23936 50.1383 4.08381C50.1089 3.92586 50.1292 3.76312 50.1903 3.62671C50.2196 3.55731 50.2603 3.49509 50.3055 3.44244C50.3507 3.3874 50.4027 3.34193 50.4615 3.30842C50.5722 3.23424 50.6988 3.20552 50.8141 3.20312C50.9316 3.20312 51.0379 3.23424 51.126 3.27971C51.3046 3.37304 51.3995 3.52142 51.4424 3.62671C51.4854 3.73201 51.4899 3.79902 51.4899 3.79902V3.79184Z" fill="#263238"/>
<path d="M42.0238 0.679658C42.2011 0.679658 42.3448 0.527511 42.3448 0.339829C42.3448 0.152147 42.2011 0 42.0238 0C41.8466 0 41.7029 0.152147 41.7029 0.339829C41.7029 0.527511 41.8466 0.679658 42.0238 0.679658Z" fill="#455A64"/>
</g>
<defs>
<clipPath id="clip0_7454_29599">
<rect width="66" height="56" fill="white" transform="translate(15)"/>
</clipPath>
</defs>
</svg>
