<svg width="96" height="56" viewBox="0 0 96 56" fill="none" xmlns="http://www.w3.org/2000/svg">
<g clip-path="url(#clip0_7454_27711)">
<path d="M84.4465 17.844L85.8193 16.957L86.5705 18.4168L88.2001 18.3395L88.1233 19.9805L89.5729 20.7346L88.6921 22.1195L89.5729 23.5019L88.1233 24.256L88.2001 25.897L86.5705 25.8197L85.8193 27.2795L84.4465 26.3925L83.0737 27.2795L82.3249 25.8197L80.6953 25.897L80.7697 24.256L79.3201 23.5019L80.2009 22.1195L79.3201 20.7346L80.7697 19.9805L80.6953 18.3395L82.3249 18.4168L83.0737 16.957L84.4465 17.844Z" fill="#E6E6E6"/>
<path d="M83.9257 24.2302L82.2937 22.5867C82.1065 22.3982 82.1065 22.0937 82.2937 21.9052C82.4809 21.7166 82.7833 21.7166 82.9705 21.9052L83.9257 22.8671L85.9225 20.8562C86.1097 20.6677 86.4121 20.6677 86.5993 20.8562C86.7865 21.0447 86.7865 21.3493 86.5993 21.5378L83.9257 24.2302Z" fill="#FAFAFA"/>
<path d="M19.5385 41.0474L22.2145 42.4226C22.6657 42.6547 23.2153 42.558 23.5633 42.1834L25.6105 39.9695C25.8529 39.7061 25.9609 39.3435 25.8985 38.9907L24.8329 32.9123C24.6577 31.9189 23.7169 31.2543 22.7305 31.4307L19.3417 32.0325C18.3553 32.209 17.6953 33.1564 17.8705 34.1497L18.9361 40.2281C18.9985 40.581 19.2217 40.8855 19.5385 41.0499V41.0474ZM22.5865 40.5762C22.8961 40.5206 23.1913 40.7284 23.2465 41.0426C23.3017 41.3544 23.0953 41.6517 22.7833 41.7072C22.4737 41.7628 22.1785 41.555 22.1233 41.2408C22.0681 40.929 22.2745 40.6317 22.5865 40.5762Z" fill="#E6E6E6"/>
<path d="M19.6696 39.1656L24.8481 38.2461L24.7494 37.682L19.5709 38.6015L19.6696 39.1656Z" fill="#FAFAFA"/>
<path d="M18.7927 34.1539L23.9712 33.2344L23.8724 32.6703L18.6939 33.5898L18.7927 34.1539Z" fill="#FAFAFA"/>
<path d="M53.2721 26.8363L55.1129 28.8254C55.4249 29.1613 55.9193 29.2483 56.3249 29.0405L58.7321 27.8055C59.0177 27.658 59.2193 27.3849 59.2745 27.0683L60.2321 21.6014C60.3881 20.7071 59.7953 19.8564 58.9097 19.6993L55.8617 19.1579C54.9737 19.0008 54.1289 19.5978 53.9729 20.4896L53.0153 25.9566C52.9601 26.2756 53.0561 26.5994 53.2745 26.8363H53.2721ZM55.9913 27.3825C56.2697 27.4308 56.4569 27.6991 56.4065 27.9795C56.3585 28.2598 56.0921 28.4483 55.8137 28.3976C55.5353 28.3493 55.3481 28.081 55.3985 27.8006C55.4465 27.5203 55.7129 27.3318 55.9913 27.3825Z" fill="#F0F0F0"/>
<path d="M53.9598 25.2865L58.616 26.1133L58.7047 25.6063L54.0486 24.7795L53.9598 25.2865Z" fill="#FAFAFA"/>
<path d="M54.7474 20.7826L59.4036 21.6094L59.4923 21.1024L54.8362 20.2756L54.7474 20.7826Z" fill="#FAFAFA"/>
<path d="M51.8768 31.2188H42.1501V41.0137H51.8768V31.2188Z" fill="#407BFF"/>
<path d="M57.8473 31.2188H51.8743V41.0137H57.8473V31.2188Z" fill="#407BFF"/>
<path d="M50.0181 28.7578H40.2915L42.1506 31.2155H51.8745L50.0181 28.7578Z" fill="#407BFF"/>
<path opacity="0.3" d="M57.8473 31.2188H51.8743V41.0137H57.8473V31.2188Z" fill="white"/>
<path opacity="0.4" d="M50.0181 28.7578H40.2915L42.1506 31.2155H51.8745L50.0181 28.7578Z" fill="white"/>
<path d="M53.635 28.7578H59.6081L57.85 31.2155H51.8743L53.635 28.7578Z" fill="#407BFF"/>
<path opacity="0.6" d="M51.8768 31.2188H42.1501V41.0137H51.8768V31.2188Z" fill="white"/>
<path opacity="0.2" d="M53.635 28.7578H59.6081L57.85 31.2155H51.8743L53.635 28.7578Z" fill="white"/>
<path d="M79.2447 40.7695H54.7302V65.4563H79.2447V40.7695Z" fill="#407BFF"/>
<path opacity="0.4" d="M79.2447 40.7695H54.7302V65.4563H79.2447V40.7695Z" fill="white"/>
<path d="M54.7249 40.7695H39.6667V65.4563H54.7249V40.7695Z" fill="#407BFF"/>
<path opacity="0.6" d="M54.7249 40.7695H39.6667V65.4563H54.7249V40.7695Z" fill="white"/>
<path opacity="0.5" d="M44.3181 40.7656V47.3964L44.916 47.7153L45.4319 47.281L46.2482 47.7153L47.0234 47.281L47.624 47.7153L48.312 47.281L48.7023 47.6356V40.7656H44.3181Z" fill="white"/>
<path d="M64.7305 50.8282C64.8697 51.3917 64.938 51.6749 65.0772 52.2385C65.1154 52.3924 65.1345 52.4666 65.17 52.6206C65.3093 53.1841 65.3775 53.4673 65.5167 54.0309H69.153C69.1366 54.1793 69.1257 54.2535 69.1093 54.402H65.7651C65.8006 54.5532 65.817 54.6302 65.8525 54.7841H69.3659C69.4123 54.4817 69.4341 54.3305 69.4805 54.0309C69.5652 53.4673 69.6088 53.1841 69.6935 52.6206C69.7153 52.4694 69.729 52.3924 69.7508 52.2385C69.8354 51.6749 69.8791 51.3917 69.9637 50.8282C69.9801 50.7127 69.9883 50.6577 70.0074 50.5423H71.2768C71.315 50.3911 71.3341 50.3141 71.3696 50.1602H69.6088C69.5761 50.4268 69.5624 50.5615 69.5297 50.8282H64.7278H64.7305ZM69.3659 52.2412H68.3231C68.3367 51.8289 68.3422 51.6227 68.3531 51.2131H69.486C69.4369 51.6254 69.4123 51.8316 69.3632 52.2412H69.3659ZM68.2794 53.6515C68.293 53.2391 68.2985 53.0329 68.3094 52.6206H69.3195C69.2703 53.0329 69.2458 53.2391 69.1966 53.6515H68.2794ZM66.9281 52.6206H67.9382C67.9382 53.0329 67.9381 53.2391 67.9409 53.6515H67.0236C66.9854 53.2391 66.9663 53.0329 66.9308 52.6206H66.9281ZM66.7998 51.2103H67.9354C67.9354 51.6227 67.9354 51.8289 67.9382 52.2385H66.8953C66.8571 51.8261 66.838 51.6199 66.8025 51.2103H66.7998ZM65.544 52.6206H66.5541C66.606 53.0329 66.6305 53.2391 66.6824 53.6515H65.7651C65.6778 53.2391 65.6341 53.0329 65.5468 52.6206H65.544ZM65.2437 51.2103H66.3766C66.4285 51.6227 66.4531 51.8289 66.505 52.2385H65.4621C65.3748 51.8261 65.3311 51.6199 65.2437 51.2103Z" fill="white"/>
<path d="M69.1475 56.0478C69.3962 56.0478 69.5979 55.8447 69.5979 55.5942C69.5979 55.3437 69.3962 55.1406 69.1475 55.1406C68.8987 55.1406 68.697 55.3437 68.697 55.5942C68.697 55.8447 68.8987 56.0478 69.1475 56.0478Z" fill="white"/>
<path d="M65.9512 56.0478C66.1999 56.0478 66.4016 55.8447 66.4016 55.5942C66.4016 55.3437 66.1999 55.1406 65.9512 55.1406C65.7024 55.1406 65.5007 55.3437 65.5007 55.5942C65.5007 55.8447 65.7024 56.0478 65.9512 56.0478Z" fill="white"/>
<g opacity="0.5">
<path d="M43.8765 50.8282C44.0157 51.3917 44.084 51.6749 44.2232 52.2385C44.2614 52.3924 44.2805 52.4666 44.316 52.6206C44.4553 53.1841 44.5235 53.4673 44.6627 54.0309H48.299C48.2826 54.1793 48.2717 54.2535 48.2553 54.402H44.9111C44.9466 54.5532 44.963 54.6302 44.9985 54.7841H48.5119C48.5583 54.4817 48.5801 54.3305 48.6265 54.0309C48.7112 53.4673 48.7548 53.1841 48.8395 52.6206C48.8613 52.4694 48.875 52.3924 48.8968 52.2385C48.9814 51.6749 49.0251 51.3917 49.1097 50.8282C49.1261 50.7127 49.1343 50.6577 49.1534 50.5423H50.4228C50.461 50.3911 50.4801 50.3141 50.5156 50.1602H48.7548C48.7221 50.4268 48.7084 50.5615 48.6757 50.8282H43.8738H43.8765ZM48.5119 52.2412H47.4691L47.4991 51.2131H48.632C48.5829 51.6254 48.5583 51.8316 48.5092 52.2412H48.5119ZM47.4254 53.6515C47.439 53.2391 47.4445 53.0329 47.4554 52.6206H48.4655C48.4163 53.0329 48.3918 53.2391 48.3426 53.6515H47.4254ZM46.0741 52.6206H47.0841C47.0841 53.0329 47.0841 53.2391 47.0869 53.6515H46.1696C46.1314 53.2391 46.1123 53.0329 46.0768 52.6206H46.0741ZM45.943 51.2103H47.0787C47.0787 51.6227 47.0787 51.8289 47.0814 52.2385H46.0386C46.0004 51.8261 45.9813 51.6199 45.9458 51.2103H45.943ZM44.69 52.6206H45.7001C45.752 53.0329 45.7765 53.2391 45.8284 53.6515H44.9111C44.8238 53.2391 44.7801 53.0329 44.6927 52.6206H44.69ZM44.3897 51.2103H45.5226C45.5745 51.6227 45.5991 51.8289 45.6509 52.2385H44.6081C44.5208 51.8261 44.4771 51.6199 44.3897 51.2103Z" fill="white"/>
<path d="M48.2934 56.0478C48.5422 56.0478 48.7439 55.8447 48.7439 55.5942C48.7439 55.3437 48.5422 55.1406 48.2934 55.1406C48.0447 55.1406 47.843 55.3437 47.843 55.5942C47.843 55.8447 48.0447 56.0478 48.2934 56.0478Z" fill="white"/>
<path d="M45.0972 56.0478C45.3459 56.0478 45.5476 55.8447 45.5476 55.5942C45.5476 55.3437 45.3459 55.1406 45.0972 55.1406C44.8484 55.1406 44.6467 55.3437 44.6467 55.5942C44.6467 55.8447 44.8484 56.0478 45.0972 56.0478Z" fill="white"/>
</g>
<path d="M70.2933 21.1199C70.2933 21.1199 71.1423 27.2751 71.9067 28.3363C72.6711 29.3974 76.1053 32.3335 76.1053 32.3335L78.2755 32.0146L79.7306 33.4001L78.6768 34.1341L77.5166 33.609C77.5166 33.609 76.6513 33.7273 75.5456 33.6558C74.4373 33.5871 70.1104 30.6428 69.3105 29.0895C68.5134 27.5391 67.6125 21.8375 67.6125 21.8375L70.2906 21.1172L70.2933 21.1199Z" fill="#CE7A63"/>
<path d="M71.0231 22.8961L70.8074 22.9346C70.6573 21.4886 70.0567 17.0928 68.4106 18.2227C66.83 19.3086 67.2722 22.3875 67.5043 23.5394L67.2422 23.5861L67.4824 24.3449L71.1214 23.6411L71.0231 22.8906V22.8961Z" fill="#407BFF"/>
<path opacity="0.2" d="M69.6491 19.991L69.2478 19.125L67.9866 20.3978C67.9866 20.3978 67.6289 20.9394 67.2659 21.4975C67.285 22.3194 67.4078 23.0864 67.4979 23.5428L67.2358 23.5895L67.4761 24.3483L69.529 23.9524C69.903 21.8026 69.6463 19.9882 69.6463 19.9882L69.6491 19.991Z" fill="black"/>
<path d="M69.7749 8.9375C69.7749 8.9375 74.1154 9.88043 71.8087 11.9587L69.9032 10.2791L69.7749 8.94025V8.9375Z" fill="#263238"/>
<path d="M75.7999 55.096L73.0372 61.911L71.1208 61.1605L72.666 54.3867L75.7999 55.096Z" fill="#CE7A63"/>
<path opacity="0.2" d="M72.8024 53.9062L71.7131 58.6814L74.0745 59.212L75.9363 54.6128L72.8024 53.9062Z" fill="black"/>
<path d="M81.9834 39.0768C81.6313 43.4781 75.358 58.0153 75.358 58.0153L71.6344 56.9706C71.6344 56.9706 74.4789 43.0025 76.3353 40.6905C76.3353 40.6905 75.7292 40.7015 74.7547 40.7097C71.3614 40.74 63.4965 40.7345 61.228 40.1269C59.6092 39.6926 56.2268 38.8211 57.1195 33.3669L61.3126 33.2212L66.1964 33.0508C66.1964 33.0508 82.4666 33.0645 81.9834 39.0768Z" fill="#263238"/>
<path opacity="0.2" d="M74.7547 40.7112C71.3614 40.7414 63.4965 40.7359 61.228 40.1284C59.6092 39.694 56.2268 38.8225 57.1195 33.3684L61.3126 33.2227C64.6131 33.6158 68.9263 34.2728 71.8664 35.5456C73.2969 36.1642 74.2906 37.2803 74.5827 38.5944C74.6673 38.9792 74.7301 39.9057 74.7547 40.7112Z" fill="black"/>
<path d="M69.3245 54.849L67.9432 61.7959L65.8657 61.6969L66.1114 54.75L69.3245 54.849Z" fill="#CE7A63"/>
<path opacity="0.2" d="M69.3245 54.849L66.1114 54.75L65.9695 58.9066L68.5001 58.9946L69.3245 54.849Z" fill="black"/>
<path d="M54.6813 33.3633C54.6813 33.3633 53.4965 37.6601 55.4566 39.3563C58.2001 41.7315 68.1124 41.0085 68.1124 41.0085C66.4008 46.5287 65.6364 57.4893 65.6364 57.4893H69.3518C69.3518 57.4893 74.413 42.4958 73.665 38.6168C72.917 34.7406 59.6388 33.3688 59.6388 33.3688L54.6786 33.3633H54.6813Z" fill="#263238"/>
<path d="M71.304 57.4099L75.5189 58.4793L76.3788 56.6622L71.7489 55.3398L71.304 57.4099Z" fill="#407BFF"/>
<path d="M67.2389 27.4187C68.32 24.1776 69.6986 21.7116 69.8514 18.9488C66.1142 13.5166 58.8063 16.7275 58.8063 16.7275C54.3838 25.082 54.6786 33.3678 54.6786 33.3678C64.7274 33.3678 65.3034 33.1946 65.3034 33.1946C65.3034 33.1946 65.3416 31.7623 67.2389 27.4187Z" fill="#407BFF"/>
<path opacity="0.2" d="M63.8645 16.5625C64.0256 17.5164 64.3613 19.2456 64.7599 19.4958C65.3141 19.8312 66.1303 19.3611 66.1303 19.3611C66.1303 19.3611 66.7937 20.2655 67.5007 19.6635C67.8938 19.2841 68.2023 18.8223 68.4016 18.3109C68.1941 18.6656 67.9348 18.9844 67.629 19.2566C66.9193 19.8559 66.2559 18.957 66.2559 18.957C66.2559 18.957 65.4369 19.4216 64.8855 19.0917C64.5279 18.8745 64.1075 17.5054 63.8645 16.5652V16.5625Z" fill="black"/>
<path d="M64.7651 15.2383L65.7643 15.5819L64.9808 16.2692L64.7651 15.2383Z" fill="#407BFF"/>
<path opacity="0.2" d="M64.7651 15.2383L65.7643 15.5819L64.9808 16.2692L64.7651 15.2383Z" fill="black"/>
<path d="M67.9319 16.278L68.2076 17.0889C68.2076 17.0889 66.7826 18.5899 66.3731 18.6064C65.9636 18.6229 64.7625 15.7831 64.7625 15.7831C66.3485 15.0601 66.2011 14.2656 66.2011 14.2656L67.9291 16.278H67.9319Z" fill="#CE7A63"/>
<path opacity="0.2" d="M67.4136 17.8713C67.834 17.4836 68.208 17.0905 68.208 17.0905L67.9323 16.2795L66.3899 14.4844C66.1933 15.2651 65.9968 16.9008 67.4136 17.8713Z" fill="black"/>
<path d="M68.7455 17.6696C68.4889 18.2744 68.1067 18.8188 67.629 19.2669C66.9192 19.8662 66.2558 18.9672 66.2558 18.9672C66.2558 18.9672 65.4396 19.4318 64.8881 19.1019C64.3367 18.772 63.6433 15.7288 63.6433 15.7288L64.7653 15.2422L66.3104 18.5301L68.3933 16.7954L68.7455 17.6724V17.6696Z" fill="#407BFF"/>
<path d="M66.1442 11.4898C66.1442 11.0032 66.267 10.5221 66.5073 10.0987C67.2634 8.76269 68.9505 8.29534 70.2773 9.05684C72.2564 10.1345 72.311 13.2739 71.7241 15.1131C71.5658 15.6492 71.2464 16.122 70.8123 16.4711C69.633 17.4196 67.9132 17.2271 66.9713 16.0395C65.9968 14.8354 66.1251 13.6011 66.1496 11.4815L66.1442 11.487V11.4898Z" fill="#CE7A63"/>
<path d="M69.8347 12.8054C69.9494 12.8137 70.0177 12.9731 69.9904 13.1408C69.9631 13.3085 69.8593 13.424 69.7474 13.4102C69.6355 13.3992 69.5645 13.2425 69.5918 13.0749C69.6164 12.9044 69.7201 12.7944 69.8347 12.8054Z" fill="#263238"/>
<path d="M71.7271 13.1613C71.8418 13.1723 71.9127 13.3235 71.8854 13.4967C71.8581 13.6671 71.7544 13.7798 71.6397 13.7661C71.5251 13.7551 71.4596 13.6011 71.4841 13.4307C71.5114 13.263 71.6124 13.1475 71.7271 13.1613Z" fill="#263238"/>
<path d="M69.3269 12.4053C69.5235 12.2513 69.7856 12.2018 70.0231 12.2733C70.0231 12.2733 70.0231 12.2733 70.0258 12.2733C70.0777 12.2898 70.1323 12.2623 70.1486 12.2128C70.165 12.1606 70.1377 12.1056 70.0886 12.0864C69.7801 11.9902 69.4443 12.0561 69.1904 12.2623C69.1495 12.2981 69.144 12.3585 69.1768 12.3998C69.1904 12.4108 69.2041 12.4163 69.2205 12.4218C69.256 12.4383 69.2942 12.4328 69.3215 12.4053H69.3269Z" fill="#263238"/>
<path d="M72.2047 12.941C72.2511 12.9108 72.2648 12.8503 72.2375 12.8036C72.0819 12.5177 71.798 12.3252 71.4758 12.2812C71.4322 12.2812 71.3967 12.3142 71.3858 12.3555C71.3721 12.4105 71.4076 12.4654 71.4595 12.4764C71.7188 12.5177 71.9454 12.6771 72.0682 12.9108C72.0846 12.9383 72.1146 12.9575 72.1474 12.9603C72.1692 12.9603 72.1883 12.9493 72.202 12.9355L72.2047 12.941Z" fill="#263238"/>
<path d="M70.6053 15.0395C70.8673 15.1605 71.1676 15.1605 71.4297 15.0395C71.1758 14.5282 70.9929 13.9838 70.8783 13.4258L70.6025 15.0422L70.6053 15.0395Z" fill="#BA4D3C"/>
<path d="M66.0132 12.8639C65.1969 9.86463 66.5182 9.08389 67.9487 8.54781C69.3792 8.01174 70.1708 8.52582 70.6295 9.03166C70.7714 9.18835 71.0553 9.66944 70.1381 9.73267C69.5812 9.75466 69.0243 9.71068 68.4783 9.60346C68.2572 9.56223 68.0306 9.65295 67.8968 9.83439C67.5802 10.2495 67.0669 11.0302 67.0724 11.7148C67.1133 12.2398 66.9195 12.7567 66.5428 13.1223L66.0105 12.8639H66.0132Z" fill="#263238"/>
<path d="M64.9812 27.9219H64.984C65.1832 27.9219 65.3443 28.0868 65.3416 28.2875C65.3389 28.4882 65.1778 28.6504 64.9785 28.6476C64.7792 28.6476 64.6182 28.4827 64.6209 28.282C64.6209 28.0813 64.7847 27.9219 64.9812 27.9219Z" fill="#407BFF"/>
<path d="M64.1953 31.7578H64.2008C64.4 31.7578 64.5611 31.9228 64.5584 32.1234C64.5584 32.3241 64.3946 32.4863 64.1953 32.4836C63.996 32.4836 63.835 32.3186 63.8377 32.1179C63.8377 31.92 63.9987 31.7578 64.1953 31.7578Z" fill="#407BFF"/>
<path d="M66.035 12.1779C66.611 12.2851 66.8895 13.1071 66.8949 13.6459C66.9004 14.226 66.4855 14.6603 65.975 14.3139C65.5873 14.0445 65.3143 13.6404 65.2133 13.1758C65.1014 12.604 65.459 12.0707 66.035 12.1779Z" fill="#CE7A63"/>
<path d="M68.6781 15.0156C68.6781 15.0156 69.1913 15.1228 70.4935 15.7276C70.1604 16.052 69.7291 16.2417 69.063 15.9256C68.3997 15.6094 68.6781 15.0156 68.6781 15.0156Z" fill="#263238"/>
<path d="M69.5159 15.7557C69.1965 15.6018 68.929 15.5688 68.7024 15.61C68.7652 15.7228 68.8798 15.8327 69.0655 15.9234C69.3849 16.0746 69.6497 16.1104 69.879 16.0691C69.8162 15.9564 69.7043 15.8465 69.5186 15.7585L69.5159 15.7557Z" fill="#A02724"/>
<path d="M68.7432 15.0312C68.7432 15.133 68.7404 15.2347 68.8578 15.3227C69.1199 15.4684 69.8515 15.713 70.0563 15.7598C70.1846 15.7955 70.3047 15.801 70.4384 15.702C69.4338 15.2374 68.9124 15.078 68.7432 15.0312Z" fill="white"/>
<path d="M70.8324 35.1918L75.7734 35.2188L75.7777 34.4188L70.8367 34.3919L70.8324 35.1918Z" fill="#263238"/>
<path d="M71.2415 35.1965L64.9546 35.1622C64.7499 35.1611 64.5842 34.9925 64.5853 34.7863L64.5876 34.363L71.2458 34.3992L71.2415 35.1992L71.2415 35.1965Z" fill="#263238"/>
<path opacity="0.3" d="M71.2415 35.1965L64.9546 35.1622C64.7499 35.1611 64.5842 34.9925 64.5853 34.7863L64.5876 34.363L71.2458 34.3992L71.2415 35.1992L71.2415 35.1965Z" fill="white"/>
<path d="M69.449 34.9254L70.2434 34.9297L70.2449 34.6465L69.4505 34.6422L69.449 34.9254Z" fill="#263238"/>
<path d="M68.2098 34.9254L69.0042 34.9297L69.0057 34.6465L68.2113 34.6422L68.2098 34.9254Z" fill="#263238"/>
<path d="M72.1829 34.405L71.656 34.4023L73.758 27.1914L74.2849 27.1942L72.1829 34.405Z" fill="#263238"/>
<path opacity="0.3" d="M72.1829 34.405L71.656 34.4023L73.758 27.1914L74.2849 27.1942L72.1829 34.405Z" fill="white"/>
<path d="M71.9893 34.4023L81.2627 34.4518L83.3648 27.2409L74.0913 27.1914L71.9893 34.4023Z" fill="#263238"/>
<path opacity="0.6" d="M71.9893 34.4023L81.2627 34.4518L83.3648 27.2409L74.0913 27.1914L71.9893 34.4023Z" fill="white"/>
<path d="M71.5361 34.4023C71.6371 34.4023 81.088 34.4546 81.1891 34.4546C81.3528 34.4546 81.4839 34.636 81.4812 34.8559C81.4812 35.0759 81.3474 35.2546 81.1836 35.2546C81.0198 35.2546 71.6917 35.2023 71.5307 35.2023C71.3669 35.2023 71.2358 35.0209 71.2386 34.801C71.2386 34.581 71.3723 34.4023 71.5361 34.4023Z" fill="#263238"/>
<path opacity="0.5" d="M71.5361 34.4023C71.6371 34.4023 81.088 34.4546 81.1891 34.4546C81.3528 34.4546 81.4839 34.636 81.4812 34.8559C81.4812 35.0759 81.3474 35.2546 81.1836 35.2546C81.0198 35.2546 71.6917 35.2023 71.5307 35.2023C71.3669 35.2023 71.2358 35.0209 71.2386 34.801C71.2386 34.581 71.3723 34.4023 71.5361 34.4023Z" fill="white"/>
<path d="M71.2385 34.801C71.2385 35.0209 71.3696 35.2023 71.5306 35.2023C71.6944 35.2023 71.8255 35.0264 71.8282 34.8037C71.8282 34.5838 71.6971 34.4023 71.5361 34.4023C71.3723 34.4023 71.2413 34.5783 71.2385 34.801Z" fill="#263238"/>
<path opacity="0.3" d="M71.2385 34.801C71.2385 35.0209 71.3696 35.2023 71.5306 35.2023C71.6944 35.2023 71.8255 35.0264 71.8282 34.8037C71.8282 34.5838 71.6971 34.4023 71.5361 34.4023C71.3723 34.4023 71.2413 34.5783 71.2385 34.801Z" fill="white"/>
<path opacity="0.2" d="M62.1229 27.7248C61.6779 27.1062 61.2057 24.8272 60.8754 22.9414L61.3039 22.8589L61.2029 22.0782L60.9791 22.1194C60.8262 20.6431 60.2202 16.2144 58.5768 17.1738C58.099 18.1112 57.6814 19.0487 57.3128 19.9779C57.2555 21.061 57.4275 22.1524 57.5476 22.7462L57.2773 22.7957L57.5285 23.5847L58.1072 23.4719C58.4567 25.2918 58.959 27.5928 59.4312 28.5083C60.0482 29.7069 62.6989 31.7082 64.487 32.6841C66.488 32.3268 66.9494 32.0738 66.9494 32.0738C66.9494 32.0738 66.8839 31.9941 66.8129 31.8264L66.4908 31.8732C66.4908 31.8732 62.9228 28.8217 62.1284 27.722L62.1229 27.7248Z" fill="black"/>
<path d="M61.6339 20.2606C61.6339 20.2606 62.2181 26.6879 62.9606 27.8233C63.7031 28.9614 67.1237 32.1751 67.1237 32.1751L69.3895 31.9524L70.8309 33.4617L69.7035 34.1709L68.5241 33.5689C68.5241 33.5689 67.6205 33.6486 66.4767 33.5222C65.3329 33.3957 60.9842 30.1298 60.2307 28.4803C59.4772 26.8309 58.8193 20.8736 58.8193 20.8736L61.6339 20.2578V20.2606Z" fill="#CE7A63"/>
<path d="M62.1417 21.6523L61.9178 21.6935C61.7622 20.1925 61.1371 15.6263 59.4281 16.8002C57.7875 17.9273 58.2461 21.1272 58.4863 22.3231L58.2161 22.3726L58.4645 23.1615L62.2427 22.433L62.1417 21.6523Z" fill="#407BFF"/>
<path d="M81.7402 18.2059H76.3787C75.4805 18.2059 74.7544 18.9371 74.7544 19.8416V23.0388C74.7544 23.9432 75.4805 24.6745 76.3787 24.6745H77.9129V25.9171C77.9129 26.225 78.2842 26.3817 78.4998 26.1617L79.9794 24.6717H81.7402C82.6384 24.6717 83.3645 23.9405 83.3645 23.036V19.8388C83.3645 18.9344 82.6384 18.2031 81.7402 18.2031V18.2059Z" fill="#407BFF"/>
<path d="M80.4443 19.7353H77.87C77.8454 19.5209 77.8318 19.4136 77.8072 19.1992H76.3904C76.4204 19.3229 76.4368 19.3834 76.4668 19.5071H77.4878C77.5014 19.5978 77.5096 19.6446 77.5233 19.738C77.5915 20.1916 77.627 20.4198 77.6953 20.8734C77.7144 20.9971 77.7226 21.0576 77.7417 21.1813C77.8099 21.6349 77.8454 21.8631 77.9137 22.3167C77.9492 22.5586 77.9683 22.6796 78.0065 22.9215H80.8319C80.8592 22.7978 80.8729 22.7373 80.9029 22.6136H78.214C78.2003 22.4926 78.1921 22.4349 78.1785 22.3139H81.1022C81.2141 21.8603 81.2687 21.6322 81.3806 21.1786C81.4107 21.0549 81.427 20.9944 81.4571 20.8707C81.569 20.4171 81.6236 20.1889 81.7355 19.7353H80.4497H80.4443ZM77.9082 20.0432H78.82C78.8309 20.3731 78.8336 20.5408 78.8446 20.8707H78.0065C77.9683 20.5408 77.9464 20.3731 77.9082 20.0432ZM78.1402 22.006C78.102 21.6761 78.0802 21.5085 78.042 21.1786H78.8527C78.8637 21.5085 78.8664 21.6761 78.8773 22.006H78.1402ZM79.8901 22.006H79.153C79.153 21.6761 79.153 21.5085 79.153 21.1786H79.9638C79.9338 21.5085 79.9174 21.6761 79.8874 22.006H79.8901ZM79.9939 20.8707H79.1558C79.1558 20.5408 79.1558 20.3731 79.1558 20.0432H80.0676C80.0375 20.3731 80.0212 20.5408 79.9911 20.8707H79.9939ZM80.9002 22.006H80.1631C80.2041 21.6761 80.2259 21.5085 80.2668 21.1786H81.0776C81.0066 21.5085 80.9712 21.6761 80.9029 22.006H80.9002ZM81.1431 20.8707H80.3051C80.346 20.5408 80.3678 20.3731 80.4088 20.0432H81.3206C81.2496 20.3731 81.2141 20.5408 81.1459 20.8707H81.1431Z" fill="white"/>
<path d="M78.1782 23.207C77.9789 23.207 77.8179 23.3692 77.8179 23.5699C77.8179 23.7706 77.9789 23.9328 78.1782 23.9328C78.3775 23.9328 78.5386 23.7706 78.5386 23.5699C78.5386 23.3692 78.3775 23.207 78.1782 23.207Z" fill="white"/>
<path d="M80.7495 23.9328C80.9485 23.9328 81.1099 23.7703 81.1099 23.5699C81.1099 23.3695 80.9485 23.207 80.7495 23.207C80.5505 23.207 80.3892 23.3695 80.3892 23.5699C80.3892 23.7703 80.5505 23.9328 80.7495 23.9328Z" fill="white"/>
<path d="M25.9708 46.7679L25.3972 46.7365L25.534 44.1166C25.6276 42.3329 27.142 40.8828 28.9132 40.8828C29.7772 40.8828 30.5716 41.2212 31.1524 41.8375C31.7332 42.4538 32.0284 43.2755 31.9852 44.1456L31.8484 46.7655L31.2748 46.734L31.4116 44.1142C31.4476 43.4036 31.21 42.7366 30.7372 42.2363C30.2668 41.736 29.6188 41.4604 28.9156 41.4604C27.4468 41.4604 26.1868 42.664 26.11 44.1456L25.9732 46.7655L25.9708 46.7679Z" fill="#263238"/>
<path d="M38.2756 45.6016H21.3148L20.7388 65.867L23.254 65.2894L25.7692 65.867H38.8516L38.2756 45.6016Z" fill="#407BFF"/>
<path opacity="0.6" d="M38.2756 45.6016H21.3148L20.7388 65.867L23.254 65.2894L25.7692 65.867H38.8516L38.2756 45.6016Z" fill="white"/>
<path d="M25.7692 65.867L23.254 65.2894L20.7388 65.867L21.3148 45.6016H25.1956L25.7692 65.867Z" fill="#407BFF"/>
<path opacity="0.3" d="M25.7692 65.867L23.254 65.2894L20.7388 65.867L21.3148 45.6016H25.1956L25.7692 65.867Z" fill="white"/>
<path d="M34.685 46.7694L34.5483 44.1495C34.4715 42.6704 33.2139 41.4644 31.7427 41.4644C31.0395 41.4644 30.3914 41.7399 29.921 42.2402C29.4482 42.7405 29.2106 43.4075 29.2466 44.1181L29.3835 46.738L28.8099 46.7694L28.673 44.1495C28.6274 43.2794 28.9226 42.4577 29.5058 41.8414C30.0866 41.2251 30.881 40.8867 31.745 40.8867C33.5162 40.8867 35.0306 42.3368 35.1242 44.1205L35.261 46.7404L34.6874 46.7718L34.685 46.7694Z" fill="#263238"/>
<g opacity="0.2">
<path d="M34.685 46.7694L34.5483 44.1495C34.4715 42.6704 33.2139 41.4644 31.7427 41.4644C31.0395 41.4644 30.3914 41.7399 29.921 42.2402C29.4482 42.7405 29.2106 43.4075 29.2466 44.1181L29.3835 46.738L28.8099 46.7694L28.673 44.1495C28.6274 43.2794 28.9226 42.4577 29.5058 41.8414C30.0866 41.2251 30.881 40.8867 31.745 40.8867C33.5162 40.8867 35.0306 42.3368 35.1242 44.1205L35.261 46.7404L34.6874 46.7718L34.685 46.7694Z" fill="white"/>
</g>
<path d="M28.0997 53.0039H35.9837C36.1613 53.0039 36.3053 53.1489 36.3053 53.3278V54.6087C36.3053 54.7876 36.1613 54.9326 35.9837 54.9326H28.0997C27.9221 54.9326 27.7781 54.7876 27.7781 54.6087V53.3278C27.7781 53.1489 27.9221 53.0039 28.0997 53.0039Z" fill="white"/>
<path d="M18.1755 53.0693L17.7915 53.05L17.8827 51.2929C17.9451 50.099 18.9603 49.125 20.1483 49.125C20.7267 49.125 21.2595 49.3522 21.6483 49.7655C22.0371 50.1788 22.2363 50.7298 22.2051 51.3123L22.1139 53.0693L21.7299 53.05L21.8211 51.2929C21.8451 50.8168 21.6843 50.3697 21.3699 50.0337C21.0531 49.6978 20.6211 49.5141 20.1483 49.5141C19.1643 49.5141 18.3195 50.3213 18.2691 51.3147L18.1779 53.0717L18.1755 53.0693Z" fill="#263238"/>
<path d="M26.4243 52.2852H15.0531L14.6667 65.8704L16.3539 65.4837L18.0411 65.8704H26.8107L26.4243 52.2852Z" fill="#407BFF"/>
<path d="M18.0411 65.8704L16.3539 65.4837L14.6667 65.8704L15.0531 52.2852H17.6547L18.0411 65.8704Z" fill="#407BFF"/>
<path opacity="0.2" d="M18.0411 65.8704L16.3539 65.4837L14.6667 65.8704L15.0531 52.2852H17.6547L18.0411 65.8704Z" fill="black"/>
<path d="M24.0172 53.0678L23.926 51.3108C23.8756 50.3175 23.0308 49.5102 22.0468 49.5102C21.574 49.5102 21.142 49.6939 20.8252 50.0298C20.5084 50.3658 20.3476 50.8129 20.374 51.289L20.4652 53.0461L20.0812 53.0654L19.99 51.3084C19.9588 50.7235 20.158 50.1749 20.5468 49.7616C20.9356 49.3483 21.4684 49.1211 22.0468 49.1211C23.2348 49.1211 24.25 50.0927 24.3124 51.289L24.4036 53.0461L24.0196 53.0654L24.0172 53.0678Z" fill="#263238"/>
<g opacity="0.2">
<path d="M24.0172 53.0678L23.926 51.3108C23.8756 50.3175 23.0308 49.5102 22.0468 49.5102C21.574 49.5102 21.142 49.6939 20.8252 50.0298C20.5084 50.3658 20.3476 50.8129 20.374 51.289L20.4652 53.0461L20.0812 53.0654L19.99 51.3084C19.9588 50.7235 20.158 50.1749 20.5468 49.7616C20.9356 49.3483 21.4684 49.1211 22.0468 49.1211C23.2348 49.1211 24.25 50.0927 24.3124 51.289L24.4036 53.0461L24.0196 53.0654L24.0172 53.0678Z" fill="white"/>
</g>
<path d="M44.6543 57.9245L43.0199 58.7655L40.5623 55.2176L42.1991 54.3789L44.6543 57.9245Z" fill="#B55B52"/>
<g opacity="0.2">
<path d="M42.1988 54.3789L40.562 55.22L41.8292 57.0471L43.466 56.2061L42.1988 54.3789Z" fill="black"/>
</g>
<path d="M28.3414 22.479C28.3414 22.479 26.4478 36.6708 26.3902 42.3118C26.3326 48.18 27.0718 61.3495 27.0718 61.3495L29.5414 61.6105C29.5414 61.6105 30.5422 48.6561 30.943 42.9039C31.3798 36.6346 33.799 22.6506 33.799 22.6506L28.339 22.4766L28.3414 22.479Z" fill="#263238"/>
<path opacity="0.6" d="M31.4469 26.1239C29.5005 29.7758 30.7509 36.5889 31.3197 39.1266C31.7709 35.3563 32.4741 30.7522 33.0165 27.3734C32.7981 25.4448 32.3445 24.4418 31.4469 26.1263V26.1239Z" fill="black"/>
<path d="M30.3093 22.543C30.3093 22.543 31.5333 37.3995 32.6613 42.1921C33.9981 47.8814 41.2413 56.8697 41.2413 56.8697L43.4733 55.7242C43.4733 55.7242 38.5653 45.7377 37.5021 42.7287C35.2293 36.307 37.6413 26.9199 35.7957 22.717L30.3093 22.543Z" fill="#263238"/>
<path d="M43.7901 55.7137L41.0205 57.1324L40.2837 56.4073L43.4661 54.5898L43.7901 55.7137Z" fill="#407BFF"/>
<path d="M27.5542 14.9313C26.8606 15.8545 26.1334 16.6787 25.279 17.469C24.8518 17.8629 24.3982 18.24 23.8438 18.5735C23.5654 18.7378 23.2606 18.8998 22.8718 19.0085C22.6774 19.0617 22.4566 19.1028 22.2022 19.1004C22.0774 19.1004 21.9406 19.0835 21.8038 19.0545C21.7342 19.0375 21.6646 19.0182 21.5974 18.994C21.5254 18.965 21.475 18.9481 21.3694 18.8901C21.1846 18.7886 21.0334 18.646 20.935 18.5155C20.8342 18.385 20.7646 18.2545 20.7166 18.1409C20.6182 17.9089 20.5798 17.7131 20.551 17.5318C20.5006 17.1693 20.503 16.8575 20.515 16.553C20.5438 15.9488 20.6398 15.3881 20.7454 14.8322C20.9662 13.7277 21.2734 12.6739 21.6478 11.625L22.6414 11.8836C22.4974 12.9349 22.3678 14.008 22.2886 15.0473C22.2478 15.5669 22.2286 16.0841 22.2502 16.5627C22.2598 16.7995 22.2862 17.0291 22.3294 17.2031C22.351 17.2877 22.3774 17.3578 22.3918 17.3723C22.4038 17.3965 22.3942 17.3216 22.2502 17.2297C22.2022 17.2055 22.2166 17.2104 22.207 17.2055C22.2022 17.2031 22.1974 17.2007 22.195 17.1983C22.1902 17.1935 22.1878 17.1935 22.195 17.1886C22.2094 17.1838 22.255 17.1741 22.3198 17.15C22.4446 17.1016 22.6222 17.0074 22.7974 16.8865C23.1526 16.6424 23.5222 16.3137 23.8798 15.9681C24.2374 15.6201 24.5806 15.2382 24.9214 14.8515C25.2622 14.4697 25.5982 14.0539 25.9054 13.6721L27.5566 14.9337L27.5542 14.9313Z" fill="#B55B52"/>
<path d="M27.1534 12.2725C26.3998 12.0646 24.1702 14.9311 24.1702 14.9311L26.3014 17.3262C26.3014 17.3262 28.8022 15.0543 28.7062 14.0368C28.6078 12.9758 28.2502 12.5794 27.151 12.2749L27.1534 12.2725Z" fill="#407BFF"/>
<path d="M22.6653 11.6151L22.5813 10.1094L21.1389 11.3057C21.1389 11.3057 21.3573 12.4731 22.0845 12.7051L22.5333 12.0695C22.6269 11.9365 22.6725 11.777 22.6629 11.6175L22.6653 11.6151Z" fill="#B55B52"/>
<path d="M21.643 8.87109L20.491 9.93693L21.139 11.3025L22.5814 10.1061L21.643 8.87109Z" fill="#B55B52"/>
<path opacity="0.2" d="M26.5246 13.9569C26.635 15.5641 26.2606 16.5211 25.999 16.9828L26.3014 17.3235C26.3014 17.3235 27.7126 16.0426 28.3726 14.9744C27.6286 13.865 26.407 12.2699 26.5222 13.9593L26.5246 13.9569Z" fill="black"/>
<path d="M34.915 4.81744C35.9158 4.81744 36.727 4.00048 36.727 2.9927C36.727 1.98493 35.9158 1.16797 34.915 1.16797C33.9143 1.16797 33.103 1.98493 33.103 2.9927C33.103 4.00048 33.9143 4.81744 34.915 4.81744Z" fill="#263238"/>
<path d="M34.7205 3.82528C34.7205 4.4585 34.2117 4.97088 33.5829 4.97088C32.9541 4.97088 32.4453 4.4585 32.4453 3.82528C32.4453 3.19206 32.9541 2.67969 33.5829 2.67969C34.2117 2.67969 34.7205 3.19206 34.7205 3.82528Z" fill="#407BFF"/>
<path d="M29.9614 2.39958C29.9614 2.39958 27.5542 2.20139 27.5566 6.35841C27.559 9.20548 28.9294 10.5227 30.6118 9.56559C30.6118 9.56559 34.3222 9.25865 34.7494 5.83878C35.1766 2.41891 32.5534 1.14522 29.959 2.39716L29.9614 2.39958Z" fill="#263238"/>
<path d="M26.6638 12.383C26.6638 12.383 25.8142 12.7552 28.3438 23.4523C31.2958 23.2372 34.3462 23.0124 35.7838 22.9085C35.4382 19.8681 35.299 17.9902 36.295 11.6265C36.295 11.6265 34.711 11.3994 33.1054 11.438C31.8502 11.4694 30.8206 11.5033 29.7286 11.6845C28.2862 11.9238 26.6662 12.383 26.6662 12.383H26.6638Z" fill="#407BFF"/>
<path d="M32.4911 7.62891C32.3567 8.73825 32.2895 10.7587 33.1031 11.4355C33.1031 11.4355 32.8871 12.5666 30.8663 12.7164C28.6463 12.8783 29.7239 11.6844 29.7239 11.6844C30.9143 11.305 30.8183 10.4011 30.5447 9.56482L32.4887 7.62891H32.4911Z" fill="#B55B52"/>
<path opacity="0.2" d="M31.6989 8.42188L30.5469 9.56505C30.6117 9.76324 30.6669 9.96384 30.6957 10.162C31.1541 10.0605 31.7541 9.50222 31.7661 9.01159C31.7733 8.76749 31.7469 8.53305 31.6989 8.42188Z" fill="black"/>
<path d="M33.7342 5.78548C33.319 7.57154 33.1798 8.33769 32.1166 9.10867C30.5182 10.2688 28.4302 9.36244 28.3078 7.48695C28.1974 5.79756 28.8958 3.16076 30.775 2.74264C32.6254 2.33177 34.1518 3.99941 33.7366 5.78548H33.7342Z" fill="#B55B52"/>
<path d="M30.6743 5.77319C30.6503 5.92062 30.5519 6.02696 30.4559 6.01004C30.3599 5.99313 30.3023 5.8602 30.3287 5.71519C30.3527 5.56776 30.4511 5.46141 30.5471 5.47833C30.6431 5.49525 30.7007 5.62818 30.6743 5.77319Z" fill="#263238"/>
<path d="M29.0254 5.48803C29.0014 5.63546 28.903 5.74181 28.807 5.72489C28.711 5.70797 28.6534 5.57504 28.6798 5.43003C28.7038 5.2826 28.8022 5.17626 28.8982 5.19318C28.9942 5.21009 29.0518 5.34302 29.0254 5.48803Z" fill="#263238"/>
<path d="M28.9391 5.2049L28.6055 5.04297C28.6055 5.04297 28.7375 5.34991 28.9391 5.2049Z" fill="#263238"/>
<path d="M29.6062 5.83984C29.6062 5.83984 29.251 6.42956 28.927 6.68817C29.0902 6.90327 29.431 6.87668 29.431 6.87668L29.6062 5.83984Z" fill="#A02724"/>
<path d="M33.9406 7.52082C33.7534 7.85193 33.4318 8.06462 33.1318 8.14196C32.6782 8.25797 32.4622 7.84952 32.5966 7.42415C32.7166 7.04228 33.0982 6.52024 33.5494 6.59275C33.9934 6.66284 34.1566 7.14379 33.9406 7.52324V7.52082Z" fill="#B55B52"/>
<path d="M31.3943 5.54898C31.3583 5.54898 31.3247 5.52481 31.3127 5.48614C31.1951 5.09944 30.7031 4.93268 30.6983 4.93268C30.6527 4.91818 30.6287 4.86743 30.6431 4.8215C30.6575 4.77558 30.7079 4.75141 30.7535 4.76592C30.7775 4.77317 31.3367 4.96168 31.4807 5.43539C31.4951 5.48131 31.4687 5.52965 31.4231 5.54415C31.4135 5.54656 31.4039 5.54898 31.3967 5.54898H31.3943Z" fill="#263238"/>
<path d="M28.6581 4.6348C28.6293 4.6348 28.6005 4.61789 28.5837 4.5913C28.5597 4.55021 28.5741 4.49463 28.6149 4.47287C29.0325 4.23119 29.3925 4.41245 29.4069 4.4197C29.4501 4.44146 29.4669 4.49463 29.4453 4.53813C29.4237 4.58163 29.3709 4.59855 29.3277 4.5768C29.3277 4.5768 29.0349 4.4342 28.7013 4.62514C28.6869 4.63239 28.6725 4.63722 28.6557 4.63722L28.6581 4.6348Z" fill="#263238"/>
<path d="M30.5878 5.49006L30.2542 5.32812C30.2542 5.32812 30.3862 5.63507 30.5878 5.49006Z" fill="#263238"/>
<path d="M29.575 7.33192C29.575 7.33192 30.0574 7.19416 31.4278 7.12891C31.2862 7.55186 31.003 7.90472 30.3022 7.93131C29.599 7.95789 29.575 7.33192 29.575 7.33192Z" fill="#263238"/>
<path d="M30.6117 7.58672C30.2733 7.59881 30.0309 7.69065 29.8557 7.82358C29.9589 7.89125 30.1029 7.93475 30.2997 7.9275C30.6381 7.91542 30.8781 7.82599 31.0533 7.69065C30.9501 7.62298 30.8061 7.57947 30.6117 7.58672Z" fill="#A02724"/>
<path d="M29.6375 7.31649C29.6807 7.4035 29.7238 7.49051 29.863 7.51226C30.1486 7.51709 30.8759 7.40108 31.0703 7.35033C31.1951 7.32374 31.3007 7.27541 31.3703 7.13281C30.3143 7.18598 29.8031 7.28266 29.6375 7.31891V7.31649Z" fill="white"/>
<path d="M28.6174 4.47199C28.6174 4.47199 29.539 4.09496 29.995 3.38682C29.995 3.38682 30.0046 4.67259 30.5158 4.5735C31.0294 4.47441 30.2542 3.3844 30.2542 3.3844C30.2542 3.3844 31.4566 3.92095 31.8646 4.96987C32.2726 6.02121 32.743 7.16197 33.667 6.8792C34.5934 6.59401 34.387 3.62126 33.0238 2.87928L31.0942 2.53125L30.5278 2.61342C30.2374 2.65693 29.959 2.75843 29.7094 2.91311C29.3302 3.14755 29.0326 3.49558 28.8574 3.90645L28.6174 4.47199Z" fill="#263238"/>
<path d="M33.0981 4.62837C33.0093 4.43985 32.5845 4.45435 32.1477 4.6622C31.7109 4.87005 31.6941 5.06582 31.7829 5.25433C31.8717 5.44285 32.0325 5.55403 32.4693 5.34618C32.9061 5.13832 33.1869 4.81688 33.0981 4.62837ZM32.0685 5.11899C32.0061 4.98364 32.0181 4.84347 32.3301 4.69604C32.6421 4.54861 32.9469 4.53652 33.0093 4.67187C33.0717 4.80721 32.8701 5.03682 32.5605 5.18425C32.2485 5.33167 32.1333 5.25433 32.0709 5.11899H32.0685Z" fill="#407BFF"/>
<path opacity="0.2" d="M35.4718 14.1054L34.9078 13.6172L34.4902 13.8057C34.4902 13.8057 34.1518 15.8963 35.5534 18.0231C35.5894 17.2183 35.6662 16.312 35.791 15.2292C35.6158 14.5815 35.4718 14.1054 35.4718 14.1054Z" fill="black"/>
<path d="M43.075 19.9951L42.7702 20.0265L42.6262 18.6417C42.5278 17.6991 43.2046 16.8097 44.1334 16.6622C44.587 16.5897 45.031 16.7009 45.3862 16.9764C45.7414 17.252 45.9646 17.658 46.0126 18.1172L46.1566 19.5021L45.8518 19.5335L45.7078 18.1486C45.6694 17.7716 45.487 17.4429 45.199 17.2181C44.911 16.9958 44.5486 16.9039 44.179 16.9644C43.4086 17.0876 42.847 17.8248 42.9286 18.6078L43.0726 19.9927L43.075 19.9951Z" fill="#263238"/>
<path d="M37.4183 13.7852C37.4591 13.993 37.5191 14.2492 37.5719 14.486C37.6295 14.7253 37.6919 14.967 37.7591 15.2039C37.8935 15.68 38.0351 16.1537 38.2055 16.6105C38.5463 17.5216 38.9591 18.399 39.4991 19.0999L39.5495 19.1651L39.5759 19.1989C39.5759 19.1989 39.5567 19.1796 39.5471 19.1699C39.5063 19.1313 39.4487 19.1071 39.4151 19.095C39.3431 19.0733 39.3455 19.095 39.3911 19.095C39.4871 19.1023 39.6911 19.0588 39.8879 18.9887C40.2935 18.8461 40.7423 18.631 41.1743 18.3917C42.0455 17.9132 42.9263 17.3573 43.7783 16.7966L44.4407 17.5845C43.6871 18.3651 42.8999 19.0757 42.0119 19.7258C41.5631 20.0448 41.1023 20.359 40.5431 20.6152C40.2575 20.7409 39.9599 20.8666 39.5351 20.9198C39.3239 20.9415 39.0575 20.9463 38.7407 20.8327C38.5847 20.7772 38.4167 20.6781 38.2775 20.5524C38.2439 20.521 38.2079 20.4871 38.1791 20.4557L38.1407 20.4146L38.0639 20.33C37.6559 19.8805 37.3199 19.3923 37.0343 18.8944C36.7415 18.3965 36.5039 17.8817 36.2927 17.3597C36.0839 16.8377 35.8967 16.3132 35.7455 15.7791C35.6711 15.5108 35.6015 15.2425 35.5367 14.9718C35.4719 14.6963 35.4191 14.4401 35.3687 14.1308L37.4135 13.7852H37.4183Z" fill="#B55B52"/>
<path d="M36.2927 11.6239C37.0535 11.7979 38.3879 14.5676 38.3879 14.5676L35.3951 16.6074C35.3951 16.6074 34.1855 14.5265 34.4279 13.5332C34.6823 12.4988 35.4239 11.4233 36.2927 11.6214V11.6239Z" fill="#407BFF"/>
<path d="M43.6558 16.8042L45.3934 15.8398L45.0286 17.6839C45.0286 17.6839 43.9054 18.0416 43.3582 17.5075L43.6558 16.8066V16.8042Z" fill="#B55B52"/>
<path d="M46.9174 16.0864L46.5286 17.6138L45.0286 17.6839L45.3934 15.8398L46.9174 16.0864Z" fill="#B55B52"/>
<path d="M47.6469 19.2659L47.3589 17.9028C47.1957 17.1318 46.4373 16.6049 45.6669 16.7282C45.2973 16.7862 44.9805 16.9868 44.7741 17.2865C44.5677 17.5886 44.4981 17.9584 44.5749 18.3281L44.8628 19.6913L44.5628 19.7565L44.2749 18.3934C44.1789 17.939 44.2677 17.4847 44.5197 17.1125C44.7741 16.7403 45.1629 16.4962 45.6165 16.4237C46.5453 16.2762 47.4597 16.9094 47.6565 17.8375L47.9445 19.2006L47.6445 19.2659H47.6469Z" fill="#263238"/>
<g opacity="0.3">
<path d="M47.6469 19.2659L47.3589 17.9028C47.1957 17.1318 46.4373 16.6049 45.6669 16.7282C45.2973 16.7862 44.9805 16.9868 44.7741 17.2865C44.5677 17.5886 44.4981 17.9584 44.5749 18.3281L44.8628 19.6913L44.5628 19.7565L44.2749 18.3934C44.1789 17.939 44.2677 17.4847 44.5197 17.1125C44.7741 16.7403 45.1629 16.4962 45.6165 16.4237C46.5453 16.2762 47.4597 16.9094 47.6565 17.8375L47.9445 19.2006L47.6445 19.2659H47.6469Z" fill="white"/>
</g>
<path d="M49.4372 18.3555L40.5356 19.7742L41.906 30.4567L43.178 29.9419L44.546 30.0338L51.41 28.9389L49.4372 18.3555Z" fill="#407BFF"/>
<path opacity="0.6" d="M49.4372 18.3555L40.5356 19.7742L41.906 30.4567L43.178 29.9419L44.546 30.0338L51.41 28.9389L49.4372 18.3555Z" fill="white"/>
<path d="M44.546 30.0327L43.178 29.9408L41.906 30.4556L40.5356 19.7731L42.5732 19.4492L44.546 30.0327Z" fill="#407BFF"/>
<path opacity="0.3" d="M44.546 30.0327L43.178 29.9408L41.906 30.4556L40.5356 19.7731L42.5732 19.4492L44.546 30.0327Z" fill="white"/>
<path d="M48.5637 22.9573L44.8824 23.5445C44.6847 23.576 44.5498 23.7629 44.5811 23.962L44.5864 23.9954C44.6177 24.1945 44.8033 24.3303 45.001 24.2988L48.6823 23.7116C48.88 23.6801 49.0149 23.4932 48.9836 23.2941L48.9783 23.2607C48.947 23.0616 48.7614 22.9258 48.5637 22.9573Z" fill="white"/>
</g>
<defs>
<clipPath id="clip0_7454_27711">
<rect width="96" height="56" fill="white"/>
</clipPath>
</defs>
</svg>
