<svg width="96" height="56" viewBox="0 0 96 56" fill="none" xmlns="http://www.w3.org/2000/svg">
<g clip-path="url(#clip0_7454_28795)">
<g clip-path="url(#clip1_7454_28795)">
<path d="M70.5463 0H62.8296V7.10158H70.5463V0Z" fill="#007AFF"/>
<path opacity="0.3" d="M70.5463 0H62.8296V7.10158H70.5463V0Z" fill="white"/>
<path d="M73.9703 0H70.113V7.10158H73.9703V0Z" fill="#007AFF"/>
<path d="M67.9 1.39453H65.4766V7.10292H67.9V1.39453Z" fill="#063F7C"/>
<path d="M66.0819 1.39453H65.4766V7.10292H66.0819V1.39453Z" fill="#007AFF"/>
<path d="M65.8009 6.15625H45.7039V62.6714H65.8009V6.15625Z" fill="#007AFF"/>
<path opacity="0.6" d="M65.8009 6.15625H45.7039V62.6714H65.8009V6.15625Z" fill="white"/>
<path d="M65.4981 6.15625V14.5132H61.0642V16.3657H65.4981V23.5285H61.0642V25.381H65.4981V32.5439H61.0642V34.3963H65.4981V41.5592H61.0642V43.4117H65.4981V50.5767H61.0642V52.4292H65.4981V62.6714H74.9998V6.15625H65.4981Z" fill="#007AFF"/>
<path opacity="0.2" d="M65.4981 6.15625V14.5132H61.0642V16.3657H65.4981V23.5285H61.0642V25.381H65.4981V32.5439H61.0642V34.3963H65.4981V41.5592H61.0642V43.4117H65.4981V50.5767H61.0642V52.4292H65.4981V62.6714H74.9998V6.15625H65.4981Z" fill="white"/>
<path d="M61.316 50.5781H42.8892V52.4306H61.316V50.5781Z" fill="#007AFF"/>
<path d="M61.316 41.5625H42.8892V43.415H61.316V41.5625Z" fill="#007AFF"/>
<path d="M61.316 32.5469H42.8892V34.3994H61.316V32.5469Z" fill="#007AFF"/>
<path d="M61.316 23.5312H42.8892V25.3837H61.316V23.5312Z" fill="#007AFF"/>
<path d="M61.316 14.5156H42.8892V16.3681H61.316V14.5156Z" fill="#007AFF"/>
<g opacity="0.4">
<path d="M61.316 50.5781H42.8892V52.4306H61.316V50.5781Z" fill="white"/>
<path d="M61.316 41.5625H42.8892V43.415H61.316V41.5625Z" fill="white"/>
<path d="M61.316 32.5469H42.8892V34.3994H61.316V32.5469Z" fill="white"/>
<path d="M61.316 23.5312H42.8892V25.3837H61.316V23.5312Z" fill="white"/>
<path d="M61.316 14.5156H42.8892V16.3681H61.316V14.5156Z" fill="white"/>
</g>
<path d="M61.621 54.4492H49.8813V62.6684H61.621V54.4492Z" fill="#007AFF"/>
<path d="M52.2699 8.33594H47.4053V13.152H52.2699V8.33594Z" fill="#007AFF"/>
<path d="M58.0707 8.33594H53.2061V13.152H58.0707V8.33594Z" fill="#007AFF"/>
<path opacity="0.7" d="M63.8722 8.33594H59.0076V13.152H63.8722V8.33594Z" fill="white"/>
<path opacity="0.7" d="M52.2699 17.5352H47.4053V22.3512H52.2699V17.5352Z" fill="white"/>
<path d="M58.0707 17.5352H53.2061V22.3512H58.0707V17.5352Z" fill="#007AFF"/>
<path opacity="0.7" d="M63.8722 17.5352H59.0076V22.3512H63.8722V17.5352Z" fill="white"/>
<path opacity="0.7" d="M52.2699 26.5547H47.4053V31.3707H52.2699V26.5547Z" fill="white"/>
<path opacity="0.7" d="M58.0707 26.5547H53.2061V31.3707H58.0707V26.5547Z" fill="white"/>
<path d="M63.8722 26.5547H59.0076V31.3707H63.8722V26.5547Z" fill="#007AFF"/>
<path opacity="0.7" d="M52.2699 35.5703H47.4053V40.3863H52.2699V35.5703Z" fill="white"/>
<path d="M58.0707 35.5703H53.2061V40.3863H58.0707V35.5703Z" fill="#007AFF"/>
<path opacity="0.7" d="M63.8722 35.5703H59.0076V40.3863H63.8722V35.5703Z" fill="white"/>
<path d="M52.2699 44.5859H47.4053V49.402H52.2699V44.5859Z" fill="#007AFF"/>
<path d="M58.0707 44.5859H53.2061V49.402H58.0707V44.5859Z" fill="#007AFF"/>
<path opacity="0.7" d="M63.8722 44.5859H59.0076V49.402H63.8722V44.5859Z" fill="white"/>
<path d="M47.9178 8.33594H47.4053V13.152H47.9178V8.33594Z" fill="#007AFF"/>
<path d="M53.7196 8.33594H53.207V13.152H53.7196V8.33594Z" fill="#007AFF"/>
<path d="M59.5203 8.33594H59.0078V13.152H59.5203V8.33594Z" fill="#007AFF"/>
<path d="M47.918 17.5352H47.4055V22.3512H47.918V17.5352Z" fill="#007AFF"/>
<path d="M53.7196 17.5352H53.207V22.3512H53.7196V17.5352Z" fill="#007AFF"/>
<path d="M59.5203 17.5352H59.0078V22.3512H59.5203V17.5352Z" fill="#007AFF"/>
<path d="M47.918 26.5547H47.4055V31.3707H47.918V26.5547Z" fill="#007AFF"/>
<path d="M53.7196 26.5547H53.207V31.3707H53.7196V26.5547Z" fill="#007AFF"/>
<path d="M59.5203 26.5547H59.0078V31.3707H59.5203V26.5547Z" fill="#007AFF"/>
<path d="M47.918 35.5664H47.4055V40.3824H47.918V35.5664Z" fill="#007AFF"/>
<path d="M53.7196 35.5664H53.207V40.3824H53.7196V35.5664Z" fill="#007AFF"/>
<path d="M59.5203 35.5664H59.0078V40.3824H59.5203V35.5664Z" fill="#007AFF"/>
<path d="M47.918 44.582H47.4055V49.3981H47.918V44.582Z" fill="#007AFF"/>
<path d="M53.7196 44.582H53.207V49.3981H53.7196V44.582Z" fill="#007AFF"/>
<path d="M59.5203 44.582H59.0078V49.3981H59.5203V44.582Z" fill="#007AFF"/>
<g opacity="0.2">
<path d="M47.9178 8.33594H47.4053V13.152H47.9178V8.33594Z" fill="#1A62B0"/>
<path d="M53.7196 8.33594H53.207V13.152H53.7196V8.33594Z" fill="#1A62B0"/>
<path d="M59.5203 8.33594H59.0078V13.152H59.5203V8.33594Z" fill="#1A62B0"/>
<path d="M47.918 17.5352H47.4055V22.3512H47.918V17.5352Z" fill="#1A62B0"/>
<path d="M53.7196 17.5352H53.207V22.3512H53.7196V17.5352Z" fill="#1A62B0"/>
<path d="M59.5203 17.5352H59.0078V22.3512H59.5203V17.5352Z" fill="#1A62B0"/>
<path d="M47.918 26.5547H47.4055V31.3707H47.918V26.5547Z" fill="#1A62B0"/>
<path d="M53.7196 26.5547H53.207V31.3707H53.7196V26.5547Z" fill="#1A62B0"/>
<path d="M59.5203 26.5547H59.0078V31.3707H59.5203V26.5547Z" fill="#1A62B0"/>
<path d="M47.918 35.5664H47.4055V40.3824H47.918V35.5664Z" fill="#1A62B0"/>
<path d="M53.7196 35.5664H53.207V40.3824H53.7196V35.5664Z" fill="#1A62B0"/>
<path d="M59.5203 35.5664H59.0078V40.3824H59.5203V35.5664Z" fill="#1A62B0"/>
<path d="M47.918 44.582H47.4055V49.3981H47.918V44.582Z" fill="#1A62B0"/>
<path d="M53.7196 44.582H53.207V49.3981H53.7196V44.582Z" fill="#1A62B0"/>
<path d="M59.5203 44.582H59.0078V49.3981H59.5203V44.582Z" fill="#1A62B0"/>
</g>
<path opacity="0.4" d="M61.0626 55.0039H55.7539V62.6676H61.0626V55.0039Z" fill="white"/>
<path opacity="0.7" d="M55.7513 55.0039H50.4426V62.6676H55.7513V55.0039Z" fill="white"/>
<path d="M51.0038 55.0039H50.4426V62.6676H51.0038V55.0039Z" fill="#007AFF"/>
<path opacity="0.2" d="M51.0038 55.0039H50.4426V62.6676H51.0038V55.0039Z" fill="#1A62B0"/>
<path d="M24.6474 17.5464C24.7158 17.1833 24.8661 16.7415 25.0472 16.3107C25.2306 15.8754 25.4383 15.4358 25.6658 14.9984C25.8889 14.5588 26.1319 14.1236 26.3749 13.6883C26.618 13.2553 26.8853 12.8157 27.1305 12.4067L25.1908 11.1797C24.8815 11.6455 24.6186 12.0961 24.3513 12.5663C24.084 13.0322 23.8388 13.5112 23.6024 13.9989C23.3705 14.491 23.1495 14.994 22.9595 15.5255C22.774 16.0613 22.5972 16.6103 22.5221 17.273C22.5067 17.4633 22.4934 17.6645 22.5067 17.8898H24.6142C24.6142 17.8329 24.6164 17.6973 24.6474 17.5486V17.5464Z" fill="#CE7A63"/>
<path d="M40.6868 12.7425C40.1742 13.5889 39.6352 14.4616 39.0453 15.1811C38.8995 15.3605 38.7471 15.5267 38.5969 15.6689C38.4511 15.811 38.2964 15.9291 38.1838 15.9816C38.1749 15.986 38.1661 15.9904 38.1573 15.9926C38.1639 15.9838 38.0777 15.9423 37.9871 15.8526C37.7508 15.6383 37.4702 15.273 37.2272 14.8859C36.9798 14.4966 36.7412 14.0766 36.5202 13.6436C36.2927 13.2127 36.085 12.7644 35.873 12.3182C35.6653 11.8742 35.4665 11.4018 35.2809 10.9688L33.1313 11.7889C33.3258 12.3116 33.5378 12.7862 33.7632 13.2762C33.9841 13.7617 34.2315 14.2385 34.4944 14.7153C34.7617 15.1877 35.0445 15.6601 35.3781 16.1238C35.546 16.3556 35.7227 16.5853 35.9238 16.8149C36.127 17.0446 36.3479 17.272 36.6351 17.4929C36.7787 17.6023 36.94 17.7116 37.1366 17.8101C37.3332 17.9063 37.5674 17.9982 37.8546 18.0331C38.155 18.0681 38.4511 18.0222 38.6875 17.9413C38.9283 17.8604 39.1183 17.7488 39.2773 17.6351C39.5976 17.4054 39.8208 17.1605 40.0174 16.9177C40.2118 16.6749 40.3709 16.4278 40.5189 16.1828C40.8105 15.6907 41.0402 15.1965 41.2391 14.6934C41.4401 14.1882 41.6058 13.6917 41.7428 13.1559L40.6824 12.7425H40.6868Z" fill="#CE7A63"/>
<path d="M37.7151 14.5907L35.3138 16.3644C35.3138 16.3644 35.221 16.2638 35.0685 16.091C34.9581 15.962 34.8145 15.7936 34.6488 15.5946C33.7165 14.4704 32.3534 12.4167 32.3424 11.4106C32.3269 9.91241 33.8977 9.69151 35.6628 11.2247C36.425 11.8852 36.8204 12.9853 37.2092 13.6655C37.3374 13.8908 37.4456 14.0854 37.5274 14.2385C37.6467 14.4594 37.7151 14.5928 37.7151 14.5928V14.5907Z" fill="#063F7C"/>
<path opacity="0.5" d="M37.7151 14.5907L35.3138 16.3644C35.3138 16.3644 35.221 16.2638 35.0685 16.091C34.9581 15.962 34.8145 15.7936 34.6488 15.5946C33.7165 14.4704 32.3534 12.4167 32.3424 11.4106C32.3269 9.91241 33.8977 9.69151 35.6628 11.2247C36.425 11.8852 36.8204 12.9853 37.2092 13.6655C37.3374 13.8908 37.4456 14.0854 37.5274 14.2385C37.6467 14.4594 37.7151 14.5928 37.7151 14.5928V14.5907Z" fill="white"/>
<path opacity="0.2" d="M32.3272 11.5822C32.8706 11.2279 33.2661 12.1465 34.3375 12.9229C34.8147 13.2685 35.8619 15.5256 35.7757 16.0221L35.314 16.3633C35.314 16.3633 32.3161 13.076 32.3272 11.5822Z" fill="#1A62B0"/>
<path d="M40.5027 13.1022L41.3576 11.5625L42.1375 13.5768C42.1375 13.5768 41.1699 14.3751 40.6772 13.8393L40.5027 13.1022Z" fill="#CE7A63"/>
<path d="M42.3498 11.5547L42.6923 13.0616L42.1378 13.58L41.3579 11.5656L42.3498 11.5547Z" fill="#CE7A63"/>
<path d="M40.6423 12.9831C40.6423 12.9831 40.6268 12.5588 40.4567 12.1782C40.3242 11.8786 40.0127 11.6314 40.079 11.4652C40.1077 11.393 40.3021 11.358 40.3772 11.3755C40.523 11.4062 40.7483 11.6402 40.8235 11.7692C40.9273 11.9464 41.2167 12.5741 41.2167 12.5741L40.6401 12.9831H40.6423Z" fill="#CE7A63"/>
<path d="M32.2049 3.18359C32.2049 3.18359 32.8589 3.48979 32.5606 3.97971C32.5606 3.97971 33.1107 4.33402 32.702 4.93329C32.702 4.93329 32.7418 5.83438 32.2049 5.31166C31.6681 4.78894 31.5068 3.32357 31.5068 3.32357L32.2049 3.18359Z" fill="#063F7C"/>
<path d="M27.676 12.9592C27.3335 13.9653 26.7724 15.1704 26.3593 16.0124C26.251 16.2355 26.1494 16.4346 26.0677 16.5942C25.9241 16.8764 25.8335 17.047 25.8335 17.047L22.7561 15.3585C22.7561 15.3585 22.7959 15.2316 22.8644 15.0151C22.9174 14.8533 22.9881 14.6389 23.0742 14.394C23.5868 12.9483 24.6339 10.3675 25.659 10.2188C27.1944 9.99787 28.299 11.133 27.676 12.957V12.9592Z" fill="#063F7C"/>
<path opacity="0.5" d="M27.676 12.9592C27.3335 13.9653 26.7724 15.1704 26.3593 16.0124C26.251 16.2355 26.1494 16.4346 26.0677 16.5942C25.9241 16.8764 25.8335 17.047 25.8335 17.047L22.7561 15.3585C22.7561 15.3585 22.7959 15.2316 22.8644 15.0151C22.9174 14.8533 22.9881 14.6389 23.0742 14.394C23.5868 12.9483 24.6339 10.3675 25.659 10.2188C27.1944 9.99787 28.299 11.133 27.676 12.957V12.9592Z" fill="white"/>
<path d="M34.7168 23.2952C34.7168 23.2952 36.7691 35.5365 37.3767 39.8057C38.0416 44.4818 40.6573 58.1579 40.6573 58.1579L37.9754 58.8905C37.9754 58.8905 34.1446 45.6388 33.0599 41.0918C31.8824 36.1576 29.2888 23.293 29.2888 23.293H34.7168V23.2952Z" fill="#063F7C"/>
<path opacity="0.4" d="M31.4252 28.3167C32.4746 30.9107 32.5939 35.3199 32.1675 37.1286C31.5246 34.1607 30.7868 30.611 30.219 27.8509C30.4222 27.1423 30.789 26.7398 31.4252 28.3167Z" fill="#1A62B0"/>
<path d="M31.9685 23.2188C31.9685 23.2188 31.0981 34.7099 30.4707 39.0163C29.7837 43.7317 27.0531 59.35 27.0531 59.35H24.2717C24.2717 59.35 25.7011 44.1123 25.9463 39.4428C26.2114 34.3774 26.7261 23.2188 26.7261 23.2188H31.9685Z" fill="#063F7C"/>
<path d="M34.7166 23.2931H26.5934C26.536 22.5757 26.7039 20.2377 26.5802 17.2632C26.4962 15.2641 26.2797 12.9786 25.7738 10.704C25.7362 10.5422 25.7009 10.3825 25.6611 10.2185C25.6611 10.2185 26.072 10.1354 26.6641 10.0501C27.1545 9.98007 27.7687 9.90571 28.3718 9.87727C29.4079 9.82916 30.9102 9.79635 31.8248 9.87727C32.355 9.92539 32.8741 10.0129 33.2873 10.0916C33.8153 10.1966 34.1267 10.2863 34.1267 10.2863C34.1267 10.2863 36.1283 14.8355 34.721 23.2909L34.7166 23.2931Z" fill="#063F7C"/>
<path opacity="0.5" d="M34.7166 23.2931H26.5934C26.536 22.5757 26.7039 20.2377 26.5802 17.2632C26.4962 15.2641 26.2797 12.9786 25.7738 10.704C25.7362 10.5422 25.7009 10.3825 25.6611 10.2185C25.6611 10.2185 26.072 10.1354 26.6641 10.0501C27.1545 9.98007 27.7687 9.90571 28.3718 9.87727C29.4079 9.82916 30.9102 9.79635 31.8248 9.87727C32.355 9.92539 32.8741 10.0129 33.2873 10.0916C33.8153 10.1966 34.1267 10.2863 34.1267 10.2863C34.1267 10.2863 36.1283 14.8355 34.721 23.2909L34.7166 23.2931Z" fill="white"/>
<path d="M29.5718 11.8697L30.4224 10.8068L30.6234 10.5465L31.0785 10.7871L32.1698 11.6073C33.0601 10.8746 32.6028 10.2163 32.4349 9.95164C32.2339 9.9232 32.0306 9.89696 31.8208 9.87727C30.9062 9.79635 29.4061 9.82916 28.3678 9.87727C28.116 9.88821 27.8641 9.91008 27.6189 9.93195C28.2419 11.4367 29.5718 11.8676 29.5718 11.8676V11.8697Z" fill="#063F7C"/>
<path opacity="0.7" d="M29.5718 11.8697L30.4224 10.8068L30.6234 10.5465L31.0785 10.7871L32.1698 11.6073C33.0601 10.8746 32.6028 10.2163 32.4349 9.95164C32.2339 9.9232 32.0306 9.89696 31.8208 9.87727C30.9062 9.79635 29.4061 9.82916 28.3678 9.87727C28.116 9.88821 27.8641 9.91008 27.6189 9.93195C28.2419 11.4367 29.5718 11.8676 29.5718 11.8676V11.8697Z" fill="white"/>
<path d="M28.4428 6.04297L29.3662 6.8019L30.6232 7.83641C30.5857 8.00482 30.557 8.17541 30.5437 8.33944C30.4752 9.01526 30.652 9.62985 31.6571 9.86387C31.6571 9.86387 32.8479 10.6447 31.0805 10.7868C31.0761 10.8962 31.0562 11.1674 30.9922 11.3489C30.8022 11.0712 30.5194 10.8699 30.4222 10.8065C28.4892 10.7715 28.2351 9.88574 28.2351 9.88574C28.9862 9.15087 28.699 7.14528 28.4428 6.04297Z" fill="#CE7A63"/>
<path opacity="0.2" d="M30.6233 7.83529C30.5857 8.0037 30.557 8.17429 30.5437 8.33833C30.0754 8.24428 29.448 7.74999 29.3817 7.27539C29.3574 7.09604 29.353 6.92545 29.3662 6.80078L30.6233 7.83529Z" fill="#1A62B0"/>
<path d="M28.0605 4.46011C28.3809 5.92329 28.4935 6.79158 29.3662 7.45865C30.6784 8.46254 32.417 7.57019 32.5452 6.05889C32.6601 4.69851 32.1144 2.53544 30.5613 2.11989C29.0304 1.7109 27.738 2.99693 28.0605 4.46011Z" fill="#CE7A63"/>
<path d="M30.007 4.98852C30.0247 5.10881 30.1042 5.19848 30.186 5.18973C30.2655 5.18098 30.3141 5.076 30.2964 4.95571C30.2788 4.83542 30.1992 4.74575 30.1197 4.7545C30.0402 4.76324 29.9916 4.86823 30.0092 4.98852H30.007Z" fill="#063F7C"/>
<path d="M31.3811 4.82445C31.3988 4.94475 31.4805 5.03442 31.5578 5.02567C31.6373 5.01692 31.6859 4.91194 31.6683 4.79165C31.6506 4.67136 31.5689 4.58168 31.4893 4.59043C31.4098 4.59918 31.3612 4.70416 31.3789 4.82445H31.3811Z" fill="#063F7C"/>
<path d="M31.1467 4.93359C31.1467 4.93359 31.5311 5.59192 31.8868 5.89155C31.7034 6.11464 31.3235 6.06652 31.3235 6.06652L31.1467 4.93359Z" fill="#BA4D3C"/>
<path d="M31.0406 6.50469C30.559 6.50469 30.2873 6.20724 30.2762 6.19193C30.263 6.17662 30.2652 6.15475 30.2784 6.14163C30.2939 6.12851 30.316 6.13069 30.3293 6.14382C30.3315 6.14819 30.6385 6.48719 31.1732 6.42377C31.1931 6.42158 31.2107 6.4347 31.2129 6.45439C31.2151 6.47407 31.2019 6.49157 31.182 6.49376C31.1334 6.50032 31.0848 6.5025 31.0406 6.5025V6.50469Z" fill="#063F7C"/>
<path d="M29.7039 4.59906C29.6929 4.59906 29.6796 4.59687 29.6686 4.59031C29.6333 4.57063 29.6222 4.52689 29.6399 4.49408C29.8299 4.15289 30.1635 4.1332 30.1789 4.1332C30.2165 4.12883 30.2518 4.16164 30.254 4.20101C30.254 4.24037 30.2253 4.27318 30.1856 4.27537C30.1723 4.27537 29.916 4.29505 29.7658 4.56407C29.7526 4.58813 29.7282 4.60125 29.7017 4.60125L29.7039 4.59906Z" fill="#063F7C"/>
<path d="M32.0924 4.28992C32.0703 4.28992 32.046 4.27899 32.0327 4.2593C31.8494 3.99247 31.5798 3.98591 31.5776 3.98591C31.5379 3.98591 31.5047 3.95311 31.5069 3.91374C31.5069 3.87437 31.5401 3.84375 31.5798 3.84375C31.5931 3.84375 31.9267 3.85031 32.152 4.17838C32.1741 4.21119 32.1653 4.25493 32.1321 4.2768C32.1189 4.28555 32.1056 4.28992 32.0924 4.28992Z" fill="#063F7C"/>
<path d="M27.6586 9.84973C27.7359 9.83879 27.8132 9.8716 27.8552 9.93721C28.4495 10.8383 32.6315 17.2619 32.8369 19.8558C32.9164 20.8597 32.046 23.1234 31.4893 24.4444C31.2397 25.0393 30.6123 25.3892 29.9672 25.2908L26.7241 24.7878C26.4236 24.7418 26.2226 24.4575 26.2822 24.1622C26.364 23.7554 26.4523 23.1124 26.4523 22.2201C26.4523 20.536 26.3551 16.0152 26.3551 16.0152C26.3551 16.0152 27.6762 13.4782 26.0989 10.3309C26.037 10.2084 26.1188 10.0641 26.2535 10.0466L27.6564 9.8541L27.6586 9.84973Z" fill="#007AFF"/>
<path opacity="0.1" d="M32.8393 19.856C32.7421 18.629 31.7546 16.5447 30.6787 14.5938C30.175 16.6496 29.7464 18.8455 29.8701 20.0178C29.9673 20.9605 30.9173 22.9201 31.5911 24.2105C32.1456 22.8698 32.9166 20.803 32.8415 19.856H32.8393Z" fill="#1A62B0"/>
<path opacity="0.6" d="M31.9707 17.1401C31.8315 16.8339 31.6813 16.5168 31.5245 16.1997C30.8175 16.2216 30.1194 16.2259 29.4677 16.2194C28.9353 13.2099 27.9699 10.9725 27.4242 9.87891L26.4124 10.0189C26.8564 10.8784 27.8903 13.1049 28.4647 16.2041C27.5722 16.1822 26.8299 16.1472 26.3594 16.1209C26.3638 16.2872 26.3704 16.6305 26.3793 17.0789C26.894 17.1073 27.6849 17.1467 28.6238 17.1664C28.953 19.4497 29.0104 22.1312 28.4338 25.051L29.386 25.1997C29.9714 22.2274 29.9361 19.5066 29.6179 17.1817C29.7328 17.1817 29.8477 17.1817 29.9648 17.1817C30.6076 17.1817 31.2881 17.1708 31.9707 17.1423V17.1401Z" fill="white"/>
<path d="M32.6668 9.8707C32.5585 9.84883 32.4591 9.93194 32.4635 10.0413C32.4812 10.4962 32.4746 11.6379 32.1012 13.018C31.4539 15.4172 30.1549 18.5339 30.3096 20.0146C30.4134 21.0075 31.4605 23.1268 32.1343 24.4085C32.4547 25.0143 33.1705 25.3008 33.8266 25.0865L34.7567 24.7803C35.0063 24.6994 35.1565 24.45 35.1167 24.192C35.0394 23.6758 34.9798 22.6522 35.2162 20.8654C35.5961 18.0068 35.2162 14.3127 35.2162 14.3127C35.2162 14.3127 34.4672 12.703 34.1513 10.2884C34.1425 10.2163 34.0873 10.1594 34.0166 10.1441L32.6645 9.87507L32.6668 9.8707Z" fill="#007AFF"/>
<path opacity="0.6" d="M35.3706 16.8202C35.3639 16.5643 35.3529 16.3194 35.3419 16.0897C35.3374 16.0132 35.3352 15.9388 35.3308 15.8644C35.0392 15.9147 34.7321 15.9585 34.4184 15.9957C34.2483 13.0496 33.9832 11.1096 33.8153 10.1036L32.8013 9.90234C32.9493 10.7225 33.2652 12.7653 33.4574 16.0941C32.6842 16.1597 31.8867 16.1947 31.1068 16.2122C31.003 16.5381 30.9036 16.8618 30.8086 17.1745C31.6923 17.1614 32.6135 17.1242 33.506 17.0499C33.5303 17.5638 33.5524 18.1062 33.5679 18.6749C33.6673 21.984 33.6607 23.9874 33.6341 25.1356C33.6982 25.1247 33.7601 25.1094 33.8241 25.0897L34.604 24.8338C34.6261 23.6287 34.6217 21.6844 34.5311 18.6465C34.5134 18.0516 34.4913 17.4895 34.4648 16.9536C34.7719 16.9164 35.0767 16.8771 35.3662 16.8268C35.3662 16.8268 35.3662 16.8246 35.3662 16.8224L35.3706 16.8202Z" fill="white"/>
<path d="M28.9327 20.5615C28.5328 20.2793 27.0748 20.5483 26.4407 20.6839C26.4496 21.2832 26.454 21.8234 26.454 22.2127C26.454 22.4883 26.4451 22.7355 26.4319 22.9651C27.0527 23.0898 28.4931 23.3435 28.9327 23.0942C29.5954 22.7202 29.538 20.988 28.9327 20.5615Z" fill="#007AFF"/>
<path opacity="0.2" d="M28.9327 20.5615C28.5328 20.2793 27.0748 20.5483 26.4407 20.6839C26.4496 21.2832 26.454 21.8234 26.454 22.2127C26.454 22.4883 26.4451 22.7355 26.4319 22.9651C27.0527 23.0898 28.4931 23.3435 28.9327 23.0942C29.5954 22.7202 29.538 20.988 28.9327 20.5615Z" fill="#1A62B0"/>
<path d="M31.6614 22.3906C30.0531 22.3906 29.0148 22.2047 28.9507 22.1938L29.0899 21.4436C29.112 21.448 31.3963 21.8526 34.4228 21.4414L34.5289 22.196C33.4596 22.3425 32.4854 22.3906 31.6614 22.3906Z" fill="#007AFF"/>
<g opacity="0.2">
<path d="M31.6606 22.3945C30.0523 22.3945 29.014 22.2086 28.95 22.1977L29.0891 21.4475C29.1112 21.4519 31.3955 21.8565 34.4221 21.4453L34.5282 22.1999C33.4589 22.3464 32.4847 22.3945 31.6606 22.3945Z" fill="#1A62B0"/>
</g>
<path d="M35.2649 20.4765C34.8628 20.4218 34.4784 20.4174 34.3171 20.5639C33.8444 20.9926 33.8002 22.7226 34.3171 23.0966C34.4607 23.1994 34.7391 23.2147 35.0506 23.1907C35.0462 22.6242 35.0859 21.8653 35.2185 20.8658C35.2362 20.7367 35.2516 20.6077 35.2649 20.4765Z" fill="#007AFF"/>
<path opacity="0.2" d="M35.2649 20.4765C34.8628 20.4218 34.4784 20.4174 34.3171 20.5639C33.8444 20.9926 33.8002 22.7226 34.3171 23.0966C34.4607 23.1994 34.7391 23.2147 35.0506 23.1907C35.0462 22.6242 35.0859 21.8653 35.2185 20.8658C35.2362 20.7367 35.2516 20.6077 35.2649 20.4765Z" fill="#1A62B0"/>
<path d="M28.0912 3.86947C28.0912 3.86947 26.7436 4.2719 27.2561 4.80993C27.2561 4.80993 26.7612 5.21455 27.2406 5.60167C27.2406 5.60167 26.9689 6.29717 27.7532 6.26655C27.7532 6.26655 27.7156 7.08891 28.3165 6.80459C28.3165 6.80459 28.4756 7.11078 28.8047 6.86364C29.1339 6.61649 28.7296 5.77883 28.7296 5.77883C28.7296 5.77883 29.304 5.53387 29.114 5.01115C29.114 5.01115 29.6155 4.79244 29.3592 4.13193C29.3592 4.13193 29.7768 3.77324 29.6332 3.51953L28.0912 3.86947Z" fill="#063F7C"/>
<path d="M27.7205 5.98748C27.9856 6.30243 28.348 6.48615 28.6572 6.53864C29.1234 6.61737 29.2272 6.19089 28.9908 5.77752C28.7787 5.40571 28.2795 4.91798 27.8619 5.02734C27.4532 5.13451 27.4157 5.6288 27.7183 5.98748H27.7205Z" fill="#CE7A63"/>
<path d="M32.2052 2.70057L27.6676 3.98441C27.6676 3.98441 26.9363 1.78417 29.1146 1.26801C31.189 0.775906 32.203 2.70057 32.203 2.70057H32.2052Z" fill="#007AFF"/>
<path d="M29.3948 2.44703L27.5855 2.961C27.475 2.99162 27.3734 2.8932 27.4043 2.78385L27.5236 2.34642C27.5391 2.28737 27.5899 2.24582 27.6495 2.23926L29.3484 2.07085C29.4191 2.06429 29.4809 2.11896 29.4809 2.19114V2.33111C29.4809 2.38579 29.4456 2.43172 29.3926 2.44703H29.3948Z" fill="#007AFF"/>
<path opacity="0.2" d="M29.3948 2.44703L27.5855 2.961C27.475 2.99162 27.3734 2.8932 27.4043 2.78385L27.5236 2.34642C27.5391 2.28737 27.5899 2.24582 27.6495 2.23926L29.3484 2.07085C29.4191 2.06429 29.4809 2.11896 29.4809 2.19114V2.33111C29.4809 2.38579 29.4456 2.43172 29.3926 2.44703H29.3948Z" fill="white"/>
<path d="M31.4603 1.96985C31.3056 1.99391 31.1178 2.02234 30.9831 2.04421C30.8792 2.05952 30.7754 2.03546 30.6893 1.97641C30.3579 1.74676 29.3969 1.20873 28.2481 1.76426C28.2061 1.78394 28.1686 1.72708 28.2061 1.69646C28.7275 1.27435 30.0044 0.530724 31.5199 1.74676C31.6061 1.81675 31.5707 1.95235 31.4603 1.96985Z" fill="#007AFF"/>
<path opacity="0.2" d="M31.4603 1.96985C31.3056 1.99391 31.1178 2.02234 30.9831 2.04421C30.8792 2.05952 30.7754 2.03546 30.6893 1.97641C30.3579 1.74676 29.3969 1.20873 28.2481 1.76426C28.2061 1.78394 28.1686 1.72708 28.2061 1.69646C28.7275 1.27435 30.0044 0.530724 31.5199 1.74676C31.6061 1.81675 31.5707 1.95235 31.4603 1.96985Z" fill="white"/>
<path opacity="0.6" d="M31.9885 2.37214L30.895 2.63459C30.8464 2.64553 30.7934 2.62365 30.7691 2.5821L30.6851 2.43775C30.6454 2.36995 30.6851 2.28684 30.7602 2.27153L31.7301 2.07031C31.8339 2.17748 31.9178 2.28246 31.9885 2.37214Z" fill="white"/>
<path d="M32.1368 2.58594C32.1368 2.58594 33.8577 3.01024 32.2053 3.38642C30.5528 3.76042 28.4408 3.85665 28.4408 3.85665L27.6897 4.06443C27.6124 4.0863 27.5306 4.04256 27.5063 3.96601L27.4997 3.94195C27.4732 3.86103 27.5218 3.77573 27.6057 3.75386L32.1368 2.58812V2.58594Z" fill="#007AFF"/>
<path opacity="0.2" d="M32.1368 2.58594C32.1368 2.58594 33.8577 3.01024 32.2053 3.38642C30.5528 3.76042 28.4408 3.85665 28.4408 3.85665L27.6897 4.06443C27.6124 4.0863 27.5306 4.04256 27.5063 3.96601L27.4997 3.94195C27.4732 3.86103 27.5218 3.77573 27.6057 3.75386L32.1368 2.58812V2.58594Z" fill="white"/>
<path d="M35.1994 15.7812H30.7169L28.4348 21.2162L28.5762 21.3365H33.0586L35.3407 15.9015L35.1994 15.7812Z" fill="#063F7C"/>
<path opacity="0.4" d="M35.1994 15.7812H30.7169L28.4348 21.2162L28.5762 21.3365H33.0586L35.3407 15.9015L35.1994 15.7812Z" fill="white"/>
<path d="M33.0584 21.3334H28.5759L30.8558 15.8984H35.3405L33.0584 21.3334Z" fill="#063F7C"/>
<path d="M34.0394 15.6992H32.3317L32.0688 16.3225L32.1285 16.3729H33.8362L34.0991 15.7495L34.0394 15.6992Z" fill="#007AFF"/>
<path opacity="0.5" d="M34.0394 15.6992H32.3317L32.0688 16.3225L32.1285 16.3729H33.8362L34.0991 15.7495L34.0394 15.6992Z" fill="white"/>
<path d="M33.8359 16.3733L34.0988 15.75H32.3889L32.1282 16.3733H33.8359Z" fill="#007AFF"/>
<path opacity="0.2" d="M33.8359 16.3733L34.0988 15.75H32.3889L32.1282 16.3733H33.8359Z" fill="white"/>
<path d="M28.0964 18.628L29.5456 18.0156L29.1811 19.9294C29.1811 19.9294 27.7982 20.2421 27.6943 19.5247L28.0942 18.6302L28.0964 18.628Z" fill="#CE7A63"/>
<path d="M30.882 18.6236L30.0469 20.1874L29.1831 19.9272L29.5476 18.0156L30.882 18.6236Z" fill="#CE7A63"/>
<path d="M24.6476 17.5391H22.5047C22.4936 17.8037 22.5047 18.0968 22.6019 18.4489C22.6196 18.5101 22.6394 18.567 22.6637 18.6326C22.6947 18.707 22.7278 18.7792 22.7676 18.8448C22.8449 18.9804 22.9355 19.0985 23.0305 19.1969C23.2205 19.3959 23.4171 19.525 23.6004 19.619C23.9694 19.8071 24.2941 19.8858 24.6056 19.9471C24.9149 20.0061 25.2109 20.028 25.5003 20.0433C26.6535 20.0871 27.714 19.9493 28.7898 19.7109L28.6727 18.5889C27.6698 18.532 26.6315 18.4533 25.7058 18.2739C25.476 18.2302 25.2551 18.1711 25.0585 18.1077C24.8641 18.0465 24.6167 17.9152 24.6167 17.9131C24.6167 17.8824 24.6145 17.725 24.6498 17.55C24.6498 17.5478 24.6498 17.5456 24.6498 17.5413L24.6476 17.5391Z" fill="#CE7A63"/>
</g>
</g>
<defs>
<clipPath id="clip0_7454_28795">
<rect width="96" height="56" fill="white"/>
</clipPath>
<clipPath id="clip1_7454_28795">
<rect width="55" height="63" fill="white" transform="translate(20)"/>
</clipPath>
</defs>
</svg>
