<svg width="174" height="176" viewBox="0 0 174 176" fill="none" xmlns="http://www.w3.org/2000/svg">
<g clip-path="url(#clip0_1487_5831)">
<g clip-path="url(#clip1_1487_5831)">
<mask id="mask0_1487_5831" style="mask-type:luminance" maskUnits="userSpaceOnUse" x="-27" y="30" width="250" height="146">
<path d="M223 30H-27V176H223V30Z" fill="white"/>
</mask>
<g mask="url(#mask0_1487_5831)">
<mask id="mask1_1487_5831" style="mask-type:luminance" maskUnits="userSpaceOnUse" x="12" y="30" width="170" height="248">
<path d="M181.333 30H12.0625V277.679H181.333V30Z" fill="white"/>
</mask>
<g mask="url(#mask1_1487_5831)">
<path d="M72.3798 93.1315L67.6488 105.864L39.1084 118.597L40.4232 124.074C40.4232 124.074 71.6193 119.731 73.9654 117.195C76.3115 114.659 83.9688 96.9585 83.9688 96.9585L72.3798 93.1315Z" fill="#E9B376"/>
<path opacity="0.3" d="M71.2193 96.2582L70.4717 98.2597L79.4824 101.917L80.5717 104.564L81.3258 102.914L80.9777 98.566L71.2193 96.2582Z" fill="black"/>
<path d="M45.5597 117.206C45.5597 117.206 44.4706 114.826 42.4466 114.109C40.4292 113.385 39.0047 112.271 37.4643 111.834C35.9237 111.403 37.1227 113.216 37.9477 114.05C38.7792 114.885 39.7073 115.837 38.9854 116.371C38.2636 116.899 30.6513 117.727 29.7362 118.575C28.8209 119.422 30.0907 119.677 30.0907 119.677C30.0907 119.677 28.2472 119.925 28.144 120.694C28.1183 120.896 28.3761 121.398 29.2334 121.417C31.1607 121.463 35.2149 121.339 35.2149 121.339C34.9828 121.339 29.9875 121.854 29.2529 122.03C28.286 122.258 27.9508 122.865 28.099 123.425C28.3117 124.227 34.525 123.804 34.8024 123.973C34.8024 123.973 31.2185 124.097 30.7417 125.049C30.2646 126.001 32.5271 126.053 34.5315 125.707C36.3685 125.394 40.049 125.271 41.8795 124.769C44.1417 124.149 45.5211 123.223 45.8755 121.033C46.2302 118.842 45.5534 117.212 45.5534 117.212L45.5597 117.206Z" fill="#E9B376"/>
<path opacity="0.3" d="M30.3359 119.592C31.8185 119.429 33.3073 119.331 34.7964 119.305" stroke="black" stroke-width="0.25" stroke-linecap="round" stroke-linejoin="round"/>
<path opacity="0.3" d="M36.2011 123.969C35.4988 122.157 35.3376 120.129 35.7436 118.225" stroke="black" stroke-width="0.25" stroke-linecap="round" stroke-linejoin="round"/>
<path opacity="0.3" d="M39.6436 117.085C39.8433 117.854 40.3139 118.545 40.9521 119.008C41.5902 119.471 42.3894 119.699 43.1759 119.64" stroke="black" stroke-width="0.25" stroke-linecap="round" stroke-linejoin="round"/>
<path d="M51.7729 82.3875C51.7729 82.3875 57.2002 82.4005 58.8952 89.0242C60.5903 95.6547 60.2489 120.827 61.1124 124.549C61.9762 128.266 69.208 155.993 70.8515 169.397C70.8515 169.397 63.1814 170.063 62.4919 169.919C61.802 169.776 50.3291 115.24 50.3291 115.24L51.7729 82.3875Z" fill="#407BFF"/>
<g opacity="0.3">
<path d="M51.7729 82.3875C51.7729 82.3875 57.2002 82.4005 58.8952 89.0242C60.5903 95.6547 60.2489 120.827 61.1124 124.549C61.9762 128.266 69.208 155.993 70.8515 169.397C70.8515 169.397 63.1814 170.063 62.4919 169.919C61.802 169.776 50.3291 115.24 50.3291 115.24L51.7729 82.3875Z" fill="black"/>
</g>
<path d="M62.5628 94.4499C66.3849 102.254 72.4695 110.547 72.4695 110.547C74.4289 110.247 87.3521 104.888 87.3521 104.888L88.7831 110.481C88.7831 110.481 84.6193 114.7 80.1911 117.646C72.3792 122.836 69.4982 122.504 65.5148 118.325C61.5315 114.145 53.4102 98.6224 53.4102 98.6224L56.2464 84.5662L55.5307 83.7317C59.8299 85.6224 60.7195 90.6881 62.5628 94.4499Z" fill="#407BFF"/>
<g opacity="0.3">
<path d="M62.5628 94.4499C66.3849 102.254 72.4695 110.547 72.4695 110.547C74.4289 110.247 87.3521 104.888 87.3521 104.888L88.7831 110.481C88.7831 110.481 84.6193 114.7 80.1911 117.646C72.3792 122.836 69.4982 122.504 65.5148 118.325C61.5315 114.145 53.4102 98.6224 53.4102 98.6224L56.2464 84.5662L55.5307 83.7317C59.8299 85.6224 60.7195 90.6881 62.5628 94.4499Z" fill="black"/>
</g>
<path opacity="0.3" d="M60.4106 110.969C60.4106 110.969 61.0551 104.208 60.4106 100.44C59.7661 96.6717 59.0635 93.1315 59.0635 93.1315C59.0635 93.1315 61.5257 98.8231 61.8028 102.976C62.0864 107.129 61.9059 113.434 61.9059 113.434L60.4106 110.969Z" fill="black"/>
<path opacity="0.3" d="M80.0623 107.84C80.0105 107.859 81.1256 117.013 81.1256 117.013L82.9626 115.637L81.7766 107.155L80.0623 107.84Z" fill="black"/>
<path d="M62.2922 136.01C62.7948 137.509 68.4089 185.598 68.3443 195.97C68.2927 204.368 62.1503 262.476 62.1503 262.476H48.6276C48.6276 262.476 50.3938 232.623 50.0393 222.916C49.6846 213.208 51.9922 194.966 51.9922 194.966L37.5156 151.181L38.057 136.492L62.2857 135.997L62.2922 136.01Z" fill="#263238"/>
<path d="M19.0629 200.611C19.3788 199.209 19.8879 196.367 20.5132 192.611C20.4939 192.611 20.4747 192.605 20.4551 192.598C20.9129 187.637 19.3338 161.924 20.8872 147.235C22.0796 137.88 24.2903 132.905 26.6687 129.808C26.7911 129.652 26.9007 129.502 27.0038 129.378C27.3971 128.876 27.6419 128.602 27.6419 128.602C28.0932 128.72 28.5442 128.824 28.989 128.922C29.1567 128.961 29.3241 128.993 29.4853 129.033C46.2887 132.586 59.721 127.931 59.721 127.931C61.2679 131.797 62.8986 140.937 64.0265 149.485C62.2671 151.434 55.4283 153.246 46.5788 154.928L44.052 166.475C42.7244 173.633 41.0163 180.655 39.5726 186.972L38.0577 193.896C37.9676 194.352 37.8773 194.802 37.7937 195.239C37.0265 199.216 28.4541 262.775 28.4541 262.775L16.1111 262.488C16.1111 262.488 14.751 219.59 19.0567 200.617L19.0629 200.611Z" fill="#263238"/>
<path opacity="0.2" d="M43.5169 169.327C43.4718 169.561 49.2018 147.036 49.2018 147.036C49.2018 147.036 53.5976 167.436 46.5979 178.656L43.5169 169.327Z" fill="black"/>
<path d="M22.5628 102.559L20.7451 86.2606C23.5488 82.0295 34.8092 79.7803 34.8092 79.7803L43.9488 80.2887C43.9488 80.2887 48.7829 81.4426 51.7865 82.4336C51.7865 82.4336 53.7844 85.1132 55.3058 88.849C55.3058 88.849 59.7271 98.4065 59.0376 105.128C58.7475 107.958 58.1159 118.741 58.8959 123.598L63.0402 136.468C46.3337 149.624 25.7404 135.875 25.7404 135.875C26.4881 133.554 28.1446 128.403 28.4798 126.134C28.2347 123.24 27.429 121.336 26.2173 116.264C25.9852 115.286 22.9623 103.511 22.5563 102.559H22.5628Z" fill="#407BFF"/>
<path d="M42.3955 116.859L45.7601 116.565L47.1072 121.364L43.7234 122.537L42.3955 116.859Z" fill="#E9B376"/>
<path d="M44.7733 116.308C44.7733 116.308 45.2696 113.948 46.9389 112.886C48.6085 111.823 49.659 110.525 50.948 109.815C52.2436 109.111 52.4499 110.578 51.8697 111.497C51.2897 112.416 49.7428 113.87 50.4905 114.196C51.2447 114.522 58.2379 113.688 59.2306 114.261C60.223 114.835 59.1337 115.324 59.1337 115.324C59.1337 115.324 60.7001 115.148 61.0803 115.833C61.4605 116.517 60.5066 116.928 60.5066 116.928C60.5066 116.928 61.5637 116.85 61.5316 117.606C61.4993 118.369 55.26 119.699 55.0473 119.901C55.0473 119.901 58.6762 118.597 59.2949 119.353C59.9137 120.109 57.935 120.944 56.3686 121.642C54.8025 122.339 52.7207 122.548 50.9803 122.391C48.8082 122.202 45.7853 122.456 45.0246 120.566C44.2642 118.675 44.7733 116.302 44.7733 116.302V116.308Z" fill="#E9B376"/>
<path opacity="0.2" d="M20.3325 177.273L30.8064 178.655L33.1653 139.531C33.1653 139.531 33.8679 126.081 33.4812 126.159C33.088 126.238 28.6986 126.974 28.3054 127.078C27.9187 127.189 20.2744 174.456 20.2744 174.456L20.326 177.273H20.3325Z" fill="black"/>
<path d="M31.8508 102.98C31.1162 94.3542 29.4404 80.8328 25.9019 82.4365C23.6394 83.46 22.2149 84.1577 21.0482 85.1682C20.2813 85.8333 20.1459 87.4044 19.6303 89.0995C18.2058 93.7807 20.7389 127.089 20.7389 127.089L12.624 173.424L29.0923 175.588C29.0923 175.588 32.5857 111.605 31.8508 102.98Z" fill="#407BFF"/>
<path opacity="0.3" d="M31.8505 102.98C31.1156 94.3542 29.4398 80.8328 25.9013 82.4365C23.6388 83.46 22.2146 84.1577 21.0479 85.1682C20.2807 85.8333 20.1456 87.4044 19.6299 89.0995C18.2055 93.7807 20.8674 126.45 20.8674 126.45L12.6172 173.476L29.0982 175.588C29.0982 175.588 32.5917 111.605 31.8568 102.98H31.8505Z" fill="black"/>
<path opacity="0.3" d="M24.1548 120.64C24.1548 120.64 26.9003 104.471 26.7199 96.9608L21.5186 117.178L24.1548 120.633V120.64Z" fill="black"/>
<path opacity="0.3" d="M19.7656 126.76C19.7656 126.76 20.9128 128.273 22.5049 128.944C24.7544 129.89 31.3995 127.836 31.3995 127.836L31.4898 124.967L19.7656 126.76Z" fill="black"/>
<path d="M26.7201 96.964C26.3076 96.9509 23.4136 115.786 23.4136 115.786L43.8842 115.323L45.0251 123.662C45.0251 123.662 36.0659 125.859 26.1592 127.495C15.9368 129.177 12.1081 124.6 12.0631 117.585C12.018 111.157 14.6477 95.5233 14.6477 95.5233C15.9753 89.3688 18.5857 87.1064 21.7956 84.5769L26.7201 96.964Z" fill="#407BFF"/>
<path opacity="0.3" d="M26.7201 96.964C26.3076 96.9509 23.4136 115.786 23.4136 115.786L43.8842 115.323L45.0251 123.662C45.0251 123.662 36.0659 125.859 26.1592 127.495C15.9368 129.177 12.1081 124.6 12.0631 117.585C12.018 111.157 14.6477 95.5233 14.6477 95.5233C15.9753 89.3688 18.5857 87.1064 21.7956 84.5769L26.7201 96.964Z" fill="black"/>
<path d="M32.2894 48.1707C32.2894 48.1707 34.7194 44.4937 41.1907 44.0112C47.6618 43.5288 54.9131 45.426 58.4259 54.4034L55.5897 55.1271C57.4782 61.8815 58.3097 68.8965 58.0391 75.9181C58.0391 75.9181 38.1998 78.604 25.367 76.3678C25.367 76.3678 25.1157 68.7529 26.7076 58.1653C28.2996 47.5774 32.2829 48.1772 32.2829 48.1772L32.2894 48.1707Z" fill="#263238"/>
<path d="M32.7725 80.6974C32.7725 80.6974 35.6922 82.7902 39.4563 85.8218C40.2428 86.4543 41.1001 86.9955 42.0024 87.4322C44.4386 88.6187 46.6495 89.2708 47.1909 88.0777C47.3133 87.8168 47.4037 87.5365 47.468 87.2432C47.8936 85.2743 47.5842 82.536 45.9727 81.343C44.1615 79.9998 43.2657 78.8198 43.5105 76.89C43.6331 75.7947 43.9811 74.6603 44.3936 73.552L42.3183 72.3981L34.7964 65.2983C35.8019 69.7967 36.485 77.8614 32.779 80.6909L32.7725 80.6974Z" fill="#E9B376"/>
<path opacity="0.2" d="M43.4655 77.3153C41.4288 76.2004 39.1665 74.212 39.334 71.839C39.4113 70.8349 39.5853 69.8831 39.798 69.2701L44.0522 74.5183C43.7556 75.405 43.6525 75.9854 43.4655 77.3153Z" fill="black"/>
<path d="M33.0626 57.0361C34.036 64.5269 34.2938 67.7087 38.2772 71.5029C44.2777 77.201 53.0759 74.8541 54.3134 67.3434C55.4285 60.5826 53.6496 49.4669 46.2308 46.5982C38.9217 43.7687 32.0894 49.5516 33.0626 57.0426V57.0361Z" fill="#E9B376"/>
<path d="M43.1821 59.1038C43.2467 59.8993 43.6978 60.5317 44.1876 60.5252C44.6775 60.5187 45.0191 59.8667 44.9483 59.0712C44.8837 58.276 44.4327 57.6436 43.9428 57.6501C43.453 57.6566 43.1113 58.3086 43.1821 59.1038Z" fill="#263238"/>
<path d="M50.729 58.7631C50.7936 59.5324 51.2447 60.1516 51.7345 60.1386C52.2243 60.1321 52.566 59.4998 52.4952 58.7305C52.4306 57.9611 51.9795 57.3419 51.4897 57.3549C50.9999 57.3615 50.6582 57.9937 50.729 58.7631Z" fill="#263238"/>
<path d="M41.1322 56.3924C41.2291 56.3989 41.3192 56.3663 41.39 56.2946C42.4924 55.1731 43.7942 55.4991 43.8137 55.5056C44.007 55.5513 44.1939 55.4404 44.2325 55.2383C44.2713 55.0427 44.1359 54.8406 43.9426 54.7885C43.8715 54.7689 42.2411 54.3582 40.8682 55.7469C40.7327 55.8838 40.7393 56.1183 40.8809 56.275C40.9518 56.3467 41.0421 56.3858 41.126 56.3924H41.1322Z" fill="#263238"/>
<path d="M52.4376 54.9157C52.5085 54.8896 52.5731 54.831 52.5988 54.7462C52.6567 54.5702 52.5666 54.3616 52.3926 54.2703C50.6587 53.3706 49.4275 54.1595 49.3759 54.1921C49.2277 54.2898 49.202 54.505 49.3116 54.6745C49.421 54.844 49.6337 54.9027 49.7757 54.8114C49.8207 54.7788 50.7876 54.1855 52.1668 54.9027C52.2572 54.9483 52.3473 54.9548 52.4311 54.9222L52.4376 54.9157Z" fill="#263238"/>
<path d="M48.1064 58.4952C48.1064 58.4952 49.3762 61.2661 50.7554 62.9675C50.9939 63.2676 50.8716 63.7173 50.5234 63.8673C49.621 64.2456 48.5317 63.9781 48.5317 63.9781L48.1064 58.5018V58.4952Z" fill="#D58745"/>
<path d="M43.665 57.6878L45.3536 57.212C45.3536 57.212 44.4705 58.5354 43.665 57.6878Z" fill="#263238"/>
<path d="M51.2314 57.3826L52.92 56.9065C52.92 56.9065 52.0372 58.2299 51.2314 57.3826Z" fill="#263238"/>
<path d="M37.555 61.2038C37.555 61.2038 39.3342 55.7795 38.3092 51.444C38.3092 51.444 52.0188 45.1331 54.3907 59.0002C54.3907 59.0002 52.5537 43.5684 40.7391 44.7615C28.9245 45.9545 28.0803 64.1441 34.7964 68.5776C34.7964 68.6036 36.0081 65.0439 37.555 61.2103V61.2038Z" fill="#263238"/>
<path d="M31.0515 63.2442C31.9861 64.7503 33.4556 65.6631 34.777 65.9434C36.7621 66.3673 37.658 63.1269 36.9038 61.158C36.2272 59.3846 34.2483 58.2763 32.3533 58.7458C30.4843 59.2086 29.9814 61.5232 31.0515 63.2507V63.2442Z" fill="#E9B376"/>
<path opacity="0.2" d="M35.1953 62.6876C35.118 61.9771 34.757 61.3055 34.2091 60.8558C33.6612 60.4058 32.9331 60.1842 32.2305 60.2624" stroke="black" stroke-width="0.5" stroke-linecap="round" stroke-linejoin="round"/>
<path d="M43.9033 64.8401C43.9033 64.8401 44.7025 66.796 46.8877 66.2482" stroke="#263238" stroke-width="0.5" stroke-linecap="round" stroke-linejoin="round"/>
<path d="M84.265 106.884C84.265 106.884 83.9684 104.283 85.3156 102.594C86.6627 100.912 87.3007 99.2043 88.39 98.0243C89.4794 96.8441 89.3955 99.0218 89.1249 100.169C88.8476 101.317 88.5512 102.627 89.4343 102.692C90.3236 102.764 97.2398 99.4389 98.458 99.6801C99.676 99.9213 98.7221 100.808 98.7221 100.808C98.7221 100.808 100.424 100.045 100.907 100.645C101.03 100.801 101.075 101.369 100.353 101.838C98.7286 102.894 95.2093 104.935 95.2093 104.935C95.4093 104.811 99.9275 102.607 100.649 102.366C101.59 102.053 102.19 102.386 102.357 102.946C102.59 103.742 97.0721 106.669 96.9304 106.956C96.9304 106.956 100.05 105.163 100.946 105.724C101.842 106.285 99.9403 107.523 98.0583 108.293C96.3309 108.997 93.1275 110.835 91.3098 111.376C89.0669 112.048 87.4103 111.983 85.9731 110.307C84.5356 108.625 84.2715 106.878 84.2715 106.878L84.265 106.884Z" fill="#E9B376"/>
<path opacity="0.3" d="M98.4774 100.872C97.1303 101.517 95.8089 102.221 94.5264 102.99" stroke="black" stroke-width="0.25" stroke-linecap="round" stroke-linejoin="round"/>
<path opacity="0.3" d="M95.7314 107.699C95.3963 105.783 94.4874 103.97 93.1533 102.562" stroke="black" stroke-width="0.25" stroke-linecap="round" stroke-linejoin="round"/>
<path opacity="0.3" d="M89.2474 103.652C89.4729 104.415 89.4279 105.249 89.125 105.986C88.8219 106.716 88.2547 107.335 87.5586 107.7" stroke="black" stroke-width="0.25" stroke-linecap="round" stroke-linejoin="round"/>
<path d="M104.265 34.2666C105.883 33.38 100.269 38.4653 100.875 43.4788C101.481 48.4924 102.667 60.4754 102.667 60.4754L114.011 57.4242L104.272 34.2666H104.265Z" fill="#263238"/>
<path d="M170.846 100.905L153.792 112.307C153.276 111.786 152.799 111.219 152.374 110.619C150.079 107.626 146.785 102.241 145.722 100.474L137.117 113.514C139.631 116.167 149.879 123.201 151.607 123.489C156.086 124.238 174.011 104.614 174.011 104.614L170.84 100.898L170.846 100.905Z" fill="#E9B376"/>
<path opacity="0.2" d="M140.269 116.314C140.269 116.314 143.415 115.877 147.611 113.589C150.389 112.076 152.142 110.309 152.142 110.309L150.917 108.601L138.864 115.127L140.263 116.301L140.269 116.314Z" fill="black"/>
<path d="M107.404 60.4404C103.543 62.1226 97.4199 73.0428 97.4199 73.0428L99.0056 75.6114L101.867 76.9608C101.867 76.9608 106.508 69.3397 109.57 67.9704C112.638 66.6014 107.404 60.4404 107.404 60.4404Z" fill="#407BFF"/>
<path opacity="0.3" d="M107.404 60.4404C103.543 62.1226 97.4199 73.0428 97.4199 73.0428L99.0056 75.6114L101.867 76.9608C101.867 76.9608 106.508 69.3397 109.57 67.9704C112.638 66.6014 107.404 60.4404 107.404 60.4404Z" fill="white"/>
<path d="M107.404 60.4378C107.404 60.4378 116.215 54.9548 127.611 57.5366C129.641 58.5406 131.169 60.2225 133.444 72.5446C134.205 76.6389 138.291 76.7106 140.044 80.6354C141.082 82.0696 140.773 84.0841 139.355 85.1337C139.135 85.2969 138.897 85.4273 138.645 85.5316C132.567 87.9763 121.152 91.9728 114.61 90.1932C114.61 90.1932 107.817 73.7768 107.404 60.4444V60.4378Z" fill="#407BFF"/>
<path opacity="0.3" d="M107.404 60.4378C107.404 60.4378 116.215 54.9548 127.611 57.5366C129.641 58.5406 131.169 60.2225 133.444 72.5446C134.205 76.6389 138.291 76.7106 140.044 80.6354C141.082 82.0696 140.773 84.0841 139.355 85.1337C139.135 85.2969 138.897 85.4273 138.645 85.5316C132.567 87.9763 121.152 91.9728 114.61 90.1932C114.61 90.1932 107.817 73.7768 107.404 60.4444V60.4378Z" fill="white"/>
<path d="M139.219 120.955C145.606 137.815 150.37 148.787 150.37 148.787L146.264 150.971C146.264 150.971 136.841 140.82 128.275 123.126C126.218 118.875 124.369 114.527 122.751 110.087L133.444 100.953C134.488 106.201 137.311 115.948 139.213 120.949L139.219 120.955Z" fill="#E9B376"/>
<path opacity="0.2" d="M122.757 110.102L130.446 105.994C131.49 111.242 136.189 110.284 138.033 117.586C135.615 118.316 129.293 120.083 126.708 119.776C124.652 115.526 124.381 114.541 122.763 110.102H122.757Z" fill="black"/>
<path d="M143.898 148.308L149.319 146.522C149.5 146.45 149.706 146.535 149.777 146.718V146.731L151.44 150.988C151.588 151.457 151.337 151.966 150.872 152.122C148.971 152.716 148.03 152.879 145.645 153.668C144.182 154.143 141.327 155.226 139.219 155.565C137.111 155.904 136.847 153.785 137.704 153.439C139.747 152.65 142.139 150.368 143.144 148.836C143.325 148.582 143.589 148.393 143.885 148.302L143.898 148.308Z" fill="#263238"/>
<path d="M141.443 149.765C141.223 149.648 141.094 149.419 141.094 149.171C141.075 149.015 141.133 148.865 141.249 148.761C141.765 148.331 143.441 148.813 143.634 148.885C143.679 148.904 143.705 148.943 143.718 148.989C143.724 149.035 143.699 149.08 143.66 149.1C143.273 149.348 142.861 149.55 142.429 149.706C142.119 149.85 141.765 149.869 141.443 149.765ZM141.41 148.969C141.352 149.022 141.32 149.093 141.333 149.171C141.333 149.322 141.417 149.465 141.539 149.543C141.842 149.7 142.487 149.511 143.292 149.08C142.622 148.898 141.675 148.754 141.391 148.989L141.404 148.969H141.41Z" fill="#407BFF"/>
<path d="M143.569 149.142C142.996 149.019 141.945 148.223 141.887 147.662C141.861 147.454 141.984 147.258 142.184 147.187C142.351 147.108 142.551 147.108 142.719 147.187C143.35 147.506 143.698 148.966 143.718 149.012C143.718 149.051 143.705 149.09 143.686 149.123C143.673 149.136 143.653 149.136 143.634 149.136C143.615 149.149 143.595 149.156 143.576 149.149L143.569 149.142ZM142.28 147.395C142.119 147.441 142.113 147.558 142.119 147.63C142.384 148.191 142.848 148.634 143.415 148.869C143.292 148.399 142.983 147.61 142.596 147.428C142.512 147.376 142.416 147.369 142.325 147.395H142.274H142.28Z" fill="#407BFF"/>
<path d="M172.575 106.124L168.888 101.73C168.752 101.586 168.752 101.358 168.888 101.215L172.149 98.0394C172.523 97.72 173.084 97.7657 173.406 98.1372C174.669 99.6889 175.217 100.497 176.803 102.421C177.802 103.614 179.877 105.863 180.979 107.715C182.082 109.566 180.251 110.609 179.626 109.931C178.124 108.321 175.127 106.958 173.342 106.593C173.045 106.521 172.774 106.365 172.575 106.13V106.124Z" fill="#263238"/>
<path d="M174.829 107.849C174.81 108.096 174.649 108.305 174.417 108.396C174.282 108.468 174.121 108.468 173.985 108.396C173.379 108.07 173.212 106.323 173.192 106.121C173.192 106.075 173.218 106.03 173.25 106.003C173.289 105.977 173.341 105.977 173.379 106.003C173.753 106.271 174.095 106.584 174.398 106.936C174.655 107.171 174.81 107.503 174.829 107.855V107.849ZM174.121 108.175C174.185 108.214 174.269 108.214 174.333 108.175C174.475 108.122 174.578 107.992 174.597 107.835C174.597 107.49 174.211 106.962 173.482 106.382C173.579 107.079 173.805 108.011 174.121 108.181V108.175Z" fill="#407BFF"/>
<path d="M173.45 106.089C173.547 106.702 173.225 107.953 172.729 108.227C172.542 108.325 172.316 108.286 172.181 108.129C172.045 108.005 171.968 107.823 171.981 107.634C172.032 106.91 173.231 106.037 173.263 106.004C173.302 105.991 173.341 105.991 173.38 106.004C173.38 106.017 173.38 106.03 173.38 106.05C173.405 106.05 173.431 106.069 173.45 106.089ZM172.361 107.921C172.49 108.045 172.58 108.018 172.638 107.979C173.038 107.516 173.251 106.917 173.244 106.304C172.877 106.61 172.258 107.184 172.232 107.614C172.219 107.712 172.251 107.81 172.31 107.882L172.355 107.921H172.361Z" fill="#407BFF"/>
<path d="M121.436 57.8143C121.436 57.8143 118.039 61.7716 114.584 62.2412C111.89 62.5997 112.019 60.2397 112.019 60.2397C112.283 59.8353 112.489 59.3856 112.625 58.9163C113.56 55.8585 110.479 53.6419 110.479 53.6419L113.244 52.1945L119.289 48.9934C117.607 54.8806 121.436 57.8077 121.436 57.8077V57.8143Z" fill="#E9B376"/>
<path opacity="0.2" d="M118.748 51.5089C118.748 51.5089 116.936 57.8784 112.65 58.9085C113.585 55.851 110.504 53.6343 110.504 53.6343L113.269 52.187L118.748 51.5089Z" fill="black"/>
<path d="M122.847 41.2436C123.569 46.8439 121.72 53.5851 117.369 55.352C109.37 58.5855 105.799 57.6467 103.621 51.6032C101.635 46.1724 101.809 36.9211 108.352 33.8634C114.894 30.8058 121.842 33.4788 122.847 41.2501V41.2436Z" fill="#E9B376"/>
<path d="M110.704 45.4065C110.82 46.1172 110.542 46.7561 110.098 46.8278C109.653 46.8995 109.176 46.3845 109.066 45.6804C108.951 44.9697 109.228 44.3438 109.672 44.2656C110.111 44.1873 110.594 44.7089 110.704 45.4065Z" fill="#263238"/>
<path d="M105.065 46.0499C105.175 46.7215 104.91 47.3408 104.459 47.406C104.014 47.4712 103.583 46.9757 103.473 46.3042C103.363 45.6327 103.628 45.0264 104.079 44.9481C104.523 44.8699 104.988 45.3784 105.065 46.0499Z" fill="#263238"/>
<path d="M108.113 42.1801C108.055 42.141 108.01 42.0953 107.977 42.0302C107.919 41.8672 108.003 41.6846 108.164 41.6194C109.125 41.2348 110.208 41.3521 111.058 41.9324C111.2 42.0432 111.226 42.2453 111.116 42.3822C111.007 42.5126 110.813 42.5387 110.672 42.4409C109.982 41.9975 109.118 41.9193 108.364 42.2388C108.274 42.2518 108.177 42.2257 108.106 42.1736L108.113 42.1801Z" fill="#263238"/>
<path d="M102.738 43.3707C102.673 43.3707 102.609 43.3511 102.551 43.3186C102.428 43.1882 102.428 42.9861 102.551 42.8622C103.208 42.0603 104.214 41.643 105.245 41.7343C105.419 41.7604 105.535 41.9169 105.509 42.0929C105.509 42.0929 105.509 42.0929 105.509 42.0994C105.477 42.2754 105.316 42.3928 105.148 42.3667C104.33 42.308 103.537 42.6601 103.028 43.312C102.944 43.3772 102.841 43.3968 102.744 43.3707H102.738Z" fill="#263238"/>
<path d="M106.295 46.6918L107.507 49.5669C106.798 49.8733 106.018 49.9646 105.258 49.8147C105.786 48.8432 106.141 47.7871 106.295 46.6918Z" fill="#D58745"/>
<path d="M117.369 45.8635C117.369 45.8635 118.194 42.193 120.128 42.9298C122.062 43.6665 122.764 49.4232 120.18 49.9122C117.595 50.4012 116.538 47.9172 117.369 45.8701V45.8635Z" fill="#E9B376"/>
<path d="M107.816 52.004C108.454 52.5842 109.047 53.2166 109.595 53.8881L109.988 53.6534C111.748 52.5842 112.218 51.5019 112.199 50.6283C112.186 50.198 112.07 49.7808 111.857 49.4026C111.748 49.181 111.606 48.9723 111.438 48.7898C110.832 49.9242 109.266 51.0391 108.416 51.6063C108.055 51.867 107.81 52.004 107.81 52.004H107.816Z" fill="#263238"/>
<path d="M108.416 51.6359L108.957 52.1836C110.614 51.1731 111.652 50.2407 111.864 49.4128C111.755 49.1911 111.613 48.9825 111.445 48.7999C110.839 49.9539 109.273 51.0753 108.416 51.6359Z" fill="white"/>
<path d="M109.988 53.6684C111.748 52.5992 112.218 51.5169 112.199 50.6433C111.535 51.0606 110.955 51.5952 110.478 52.2145C110.169 52.6383 109.995 53.1468 109.988 53.6684Z" fill="#C15854"/>
<path d="M116.763 70.9016C116.763 70.9016 120.108 66.7289 122.112 69.767C124.6 73.5288 116.698 79.3899 116.698 79.3899C116.698 79.3899 111.013 74.6827 112.528 71.1232C114.442 66.6181 116.763 70.8951 116.763 70.8951V70.9016Z" fill="white"/>
<path d="M113.134 87.6924C111.271 92.4123 112.18 108.49 115.873 119.136C115.873 119.136 120.759 120.668 134.442 116.75C145.703 113.529 152.451 109.07 152.451 109.07C148.468 100.718 141.642 80.9837 140.024 80.3707L113.127 87.6989L113.134 87.6924Z" fill="#407BFF"/>
<path opacity="0.2" d="M152.458 109.068C152.458 109.068 151.459 109.727 149.603 110.718C148.719 111.187 147.643 111.735 146.386 112.322C145.265 112.843 143.995 113.404 142.59 113.958C141.629 114.356 140.592 114.747 139.503 115.138C137.949 115.686 136.254 116.24 134.456 116.755C133.966 116.898 133.495 117.029 133.031 117.153C132.167 117.387 131.336 117.602 130.543 117.766C128.623 118.228 126.908 118.58 125.406 118.815C124.194 119.017 123.163 119.154 122.222 119.239C121.075 119.363 119.921 119.415 118.767 119.408C118.278 119.408 117.858 119.408 117.498 119.356C116.95 119.33 116.402 119.252 115.867 119.115C112.18 108.442 111.271 92.3978 113.134 87.671L140.031 80.3301C141.649 80.9821 148.474 100.717 152.458 109.062V109.068Z" fill="black"/>
<path opacity="0.2" d="M115.435 102.919L118.773 119.433C118.284 119.433 117.865 119.433 117.504 119.38L115.435 102.919Z" fill="black"/>
<path opacity="0.2" d="M122.222 119.265L119.805 94.3536L125.38 118.822C124.22 119.037 123.163 119.174 122.222 119.265Z" fill="black"/>
<path opacity="0.2" d="M130.537 117.813L125.922 92.6733L133.025 117.18C132.161 117.389 131.33 117.604 130.537 117.819V117.813Z" fill="black"/>
<path opacity="0.2" d="M139.496 115.14L133.45 90.2089L142.609 113.959C141.623 114.357 140.592 114.755 139.496 115.14Z" fill="black"/>
<path opacity="0.2" d="M149.602 110.712C148.719 111.182 147.643 111.729 146.386 112.316L139.219 88.6302L149.602 110.712Z" fill="black"/>
<path opacity="0.2" d="M153.792 112.311C153.792 112.311 153.998 114.756 153.792 115.669C153.792 115.669 155.133 114.065 154.926 111.555L153.792 112.311Z" fill="black"/>
<path opacity="0.2" d="M107.249 69.7704L107.584 64.7178L108.28 68.7664L107.249 69.7704Z" fill="black"/>
<path d="M131.594 52.1417C131.175 51.2159 126.276 34.6497 120.681 31.6898C117.645 29.7991 113.424 29.6166 109.357 30.5424C103.459 31.8789 102.009 36.5078 105.509 38.3463C105.567 38.6331 112.199 40.0023 114.622 43.8684C117.214 48.0018 115.041 49.8924 116.576 52.9306C118.103 55.9687 118.748 56.4641 118.748 56.4641L129.731 53.4326C129.731 53.4326 132.045 53.1457 131.6 52.1482L131.594 52.1417Z" fill="#263238"/>
<path d="M133.025 136.812L105.702 137.32L88.551 136.961C88.551 136.961 77.0137 189.587 76.0919 199.484C75.1637 209.381 66.8877 261.537 66.8877 261.537L80.2491 264.367C80.2491 264.367 94.8676 208.546 95.9116 203.187C96.8205 198.513 107.062 168.516 109.679 160.888C109.963 162.44 110.259 164.005 110.556 165.55C111.304 172.552 113.701 194.875 114.732 203.181C114.732 203.181 117.259 250.656 119.786 264.425L132.335 264.321C133.798 244.723 134.198 175.935 134.198 175.935C134.984 160.986 133.025 136.812 133.025 136.812Z" fill="#263238"/>
<g opacity="0.5">
<path d="M95.6605 144.737C94.1199 150.05 89.8983 154.347 84.6579 155.944C84.3743 156.029 84.5032 156.479 84.7868 156.394C90.1819 154.744 94.5196 150.324 96.105 144.854C96.1889 144.568 95.7441 144.45 95.6605 144.737Z" fill="black"/>
<path d="M109.969 144.596C109.705 149.232 109.447 153.88 109.183 158.516C109.17 158.816 108.712 158.822 108.725 158.516C108.867 156.136 108.996 153.75 109.131 151.364C108.01 152.257 106.676 151.201 106.295 150.027C105.67 148.117 105.876 145.848 106.334 143.925C106.405 143.632 106.85 143.756 106.779 144.042C106.456 145.392 106.334 146.768 106.444 148.15C106.495 148.854 106.566 149.656 106.901 150.301C107.269 151.018 108.19 151.611 108.919 150.953C108.996 150.888 109.086 150.875 109.163 150.914C109.286 148.815 109.402 146.702 109.524 144.603C109.537 144.303 109.995 144.297 109.982 144.603L109.969 144.596Z" fill="black"/>
<path d="M123.453 145.254C123.453 151.396 128.171 156.494 134.223 156.917C134.514 156.937 134.507 156.481 134.223 156.461C128.416 156.057 123.904 151.128 123.911 145.248C123.911 144.954 123.46 144.961 123.46 145.248L123.453 145.254Z" fill="black"/>
</g>
<path d="M78.2197 72.8142C72.8184 76.0218 68.7705 95.4502 68.7705 95.4502L83.8981 100.444L89.1447 89.3151L78.2197 72.8142Z" fill="#407BFF"/>
<path opacity="0.2" d="M81.8154 88.7235L80.9516 99.546L77.1553 98.2161C78.6829 94.0697 77.9222 78.7616 77.9222 78.7616C77.9222 78.7616 80.4167 85.9724 81.8089 88.717L81.8154 88.7235Z" fill="black"/>
<path d="M81.2097 71.4249C85.0706 70.2971 97.9358 65.7661 114.63 65.4204L122.312 81.9802L130.614 122.819C130.614 122.819 132.245 127.5 133.611 136.425C118.329 146.713 97.4201 146.485 85.2962 142.169C84.8256 136.901 85.6378 137.925 84.5032 127.774C82.5053 109.89 78.6766 89.3801 78.0772 73.0288C78.0706 72.6247 80.823 71.5425 81.2097 71.4314V71.4249Z" fill="#407BFF"/>
<path d="M104.479 65.7926C101.482 60.7009 96.9184 56.6848 96.9699 49.1156L87.7012 63.198C88.1395 63.6803 88.5457 64.189 88.9194 64.7234C89.622 65.6688 90.073 66.7836 90.2277 67.9506C90.3181 68.9285 88.5973 71.0604 88.5973 71.0604C88.5973 71.0604 92.9801 73.4336 100.373 70.917C104.756 69.4372 104.472 65.7926 104.472 65.7926H104.479Z" fill="#E9B376"/>
<path opacity="0.2" d="M95.2673 55.8168C97.7423 61.4301 92.8566 66.0982 90.2334 67.9628C90.0787 66.7894 89.6274 65.6808 88.9248 64.7354L95.2673 55.8168Z" fill="black"/>
<path d="M96.6859 45.4183C97.2015 52.9224 97.6398 57.1406 94.4041 61.4174C89.5442 67.8521 80.2307 65.7072 77.5041 58.4901C75.0484 51.9966 74.6231 40.8155 81.4682 36.969C88.2101 33.1746 96.1768 37.9143 96.6924 45.4183H96.6859Z" fill="#E9B376"/>
<path d="M94.4746 34.7718C91.31 30.5341 84.7548 33.6765 82.1897 36.1474C81.8029 36.519 88.2225 38.7748 87.8357 38.69L89.7951 40.5416C90.066 40.4438 90.4654 43.0321 90.8009 45.2748C91.1102 47.335 91.9545 49.2713 93.2693 50.8751C94.3714 52.2182 95.854 53.8415 97.549 55.1911C99.9532 53.5807 99.5149 49.0431 99.979 46.2397C100.669 42.0672 101.036 34.2046 94.4746 34.7587V34.7718Z" fill="#263238"/>
<path d="M100.397 51.2325C100.056 53.2275 98.8313 54.8704 97.4712 55.7962C95.4217 57.1914 94.2873 54.8704 94.1905 52.4973C94.1069 50.3654 94.3774 47.7119 96.7623 47.2686C99.1084 46.8318 100.791 48.9572 100.404 51.2325H100.397Z" fill="#E9B376"/>
<path d="M88.3643 48.7005C88.4609 49.4633 88.145 50.1283 87.6489 50.187C87.1526 50.2457 86.6755 49.6785 86.5789 48.9157C86.4823 48.1529 86.7982 47.4879 87.2943 47.4292C87.7906 47.3706 88.2677 47.9378 88.3643 48.7005Z" fill="#263238"/>
<path d="M79.8565 49.994C79.9531 50.7568 79.6372 51.4218 79.1411 51.4805C78.6448 51.5391 78.1677 50.9719 78.0711 50.2091C77.9745 49.4463 78.2903 48.7813 78.7864 48.7227C79.2828 48.664 79.7599 49.2312 79.8565 49.994Z" fill="#263238"/>
<path d="M81.4225 49.3499C81.4225 49.3499 79.5275 53.4507 78.9668 55.0936C80.1397 55.9151 81.8866 55.2305 81.8866 55.2305L81.4225 49.3499Z" fill="#D58745"/>
<path d="M87.8101 45.131C87.7008 45.1962 87.5653 45.1962 87.4492 45.131C86.0763 44.3161 84.8969 44.8833 84.8841 44.8833C84.7099 44.968 84.4909 44.8963 84.407 44.7203C84.3169 44.5443 84.3943 44.3291 84.5682 44.2444C84.6325 44.2118 86.1151 43.5011 87.8167 44.5182C87.9844 44.616 88.0422 44.8376 87.9456 45.0072C87.9133 45.0593 87.8682 45.1049 87.8167 45.1375L87.8101 45.131Z" fill="#263238"/>
<path opacity="0.2" d="M98.4518 49.3978C98.0971 48.9936 97.4721 48.9088 96.9757 49.1044C96.4794 49.3 96.0991 49.7303 95.8413 50.1997C95.532 50.7669 95.3708 51.4189 95.3835 52.0708" stroke="black" stroke-width="0.5" stroke-linecap="round" stroke-linejoin="round"/>
<path d="M75.3962 47.306C75.3319 47.306 75.2611 47.2734 75.203 47.2277C75.0483 47.1039 75.0225 46.8757 75.1384 46.7192C76.3439 45.1545 77.9746 45.3045 78.0454 45.298C78.2389 45.3175 78.3871 45.4935 78.3678 45.6891C78.3483 45.8847 78.1808 46.0281 77.9874 46.0151C77.923 46.0086 76.666 45.9108 75.6993 47.1626C75.622 47.2604 75.5058 47.306 75.39 47.2995L75.3962 47.306Z" fill="#263238"/>
<path d="M94.4757 34.7752C94.4757 34.7752 90.2796 28.8423 82.3322 30.231C75.9384 31.3524 72.3741 35.8183 71.9874 40.2711C71.8197 42.1879 72.1548 43.6352 72.5931 44.6718C72.922 45.4542 74.0048 45.4021 74.2947 44.6067C74.3785 44.3785 74.4751 44.1568 74.5848 43.9417C74.6106 43.9938 74.6301 44.046 74.6559 44.0916C75.0684 44.9 76.3059 44.6849 76.3767 43.7787C76.4025 43.4918 76.4475 43.2115 76.5249 42.9311C76.5249 42.9376 76.5314 42.9442 76.5379 42.9507C76.9181 43.6613 77.9816 43.5179 78.1944 42.7421C79.1418 39.3193 83.4731 36.9657 87.16 38.7456L89.7897 40.545C93.0189 38.889 94.4691 34.7686 94.4691 34.7686L94.4757 34.7752Z" fill="#263238"/>
<path d="M85.1738 57.4423C86.0762 57.8855 86.9462 58.3941 87.7715 58.9677C87.8939 58.8374 88.0163 58.7135 88.1324 58.5766C89.7629 56.7967 89.9436 55.4277 89.6405 54.4498C89.4793 53.9738 89.2152 53.5435 88.8605 53.1915C88.6673 52.9894 88.4418 52.8134 88.2033 52.6699C87.8939 54.1368 86.5017 55.9102 85.7152 56.8293C85.3608 57.2076 85.1738 57.4488 85.1738 57.4488V57.4423Z" fill="#263238"/>
<path d="M85.6895 56.8293L86.4694 57.2598C87.997 55.5842 88.8605 54.202 88.8348 53.1915C88.6415 52.9894 88.416 52.8134 88.1775 52.6699C87.8681 54.1499 86.4759 55.9102 85.6895 56.8293Z" fill="white"/>
<path d="M88.1066 58.579C89.7373 56.7991 89.9178 55.4301 89.6146 54.4521C89.0089 55.1367 88.5253 55.9321 88.1902 56.786C87.9777 57.3599 87.9519 57.9858 88.1128 58.579H88.1066Z" fill="#C15854"/>
<path d="M87.4434 70.3625L89.8475 66.4312L95.4358 70.5124L101.765 61.4894L106.67 66.0206L100.27 76.0346L93.0059 75.4282L87.4434 70.3625Z" fill="#407BFF"/>
<path d="M149.274 80.1148C146.535 76.8551 128.217 71.5089 124.343 70.0747L118.768 81.7644L123.595 82.9052L142.584 87.8601L146.896 93.9037C148.398 92.013 148.61 91.6937 149.796 89.5879C151.272 86.8822 150.563 81.634 149.268 80.1148H149.274Z" fill="#E9B376"/>
<path opacity="0.2" d="M134.089 72.8917L131.13 84.8747L124.865 83.3623L127.044 70.7468C127.044 70.7468 130.325 71.8421 134.095 72.8982L134.089 72.8917Z" fill="black"/>
<path d="M109.596 67.5085C108.481 71.2375 109.009 77.9332 114.63 80.9452C118.626 83.0901 127.94 86.0956 127.94 86.0956L134.701 70.892C134.701 70.892 111.459 61.3082 109.602 67.5085H109.596Z" fill="#407BFF"/>
<path opacity="0.3" d="M122.783 84.3206L116.886 81.4911L123.486 87.7563L122.783 84.3206Z" fill="black"/>
<g opacity="0.2">
<path d="M110.917 134.199C114.398 133.403 117.266 129.687 118.768 126.414C120.314 123.037 122.035 117.339 122.035 117.339C119.992 120.006 117.949 122.679 115.906 125.345C114.649 126.988 113.373 128.644 111.742 129.909C109.48 131.656 106.682 132.53 103.917 133.214C100.346 134.101 96.7176 134.747 93.0566 135.144C93.0566 135.144 101.365 136.383 110.911 134.199H110.917Z" fill="black"/>
</g>
<path d="M102.351 73.8665C102.351 73.8665 101.306 72.0997 99.94 71.6956C98.5736 71.2912 97.5166 70.5286 96.4981 70.3132C95.4799 70.0982 95.8085 71.3368 96.453 71.9237C97.0976 72.5105 98.5156 73.2601 98.1481 73.7231C97.7872 74.1859 93.1981 75.4183 92.7598 76.1418C92.3215 76.872 93.153 76.9698 93.153 76.9698C93.153 76.9698 92.1281 77.2566 92.1088 77.9086C92.0895 78.5607 92.8049 78.6324 92.8049 78.6324C92.8049 78.6324 92.128 78.854 92.3793 79.4604C92.6374 80.0666 96.9106 79.4409 97.1103 79.5517C97.1103 79.5517 94.4549 79.4865 94.3132 80.2621C94.1648 81.038 95.6538 81.1749 96.8398 81.3117C98.0257 81.4489 99.3793 81.051 100.411 80.4579C101.693 79.7146 103.646 79.1017 103.524 77.3677C103.401 75.6334 102.344 73.86 102.344 73.86L102.351 73.8665Z" fill="#E9B376"/>
<path d="M123.073 58.9211C120.166 61.529 115.693 69.333 113.695 69.8479C111.697 70.363 102.596 74.34 102.596 74.34L103.008 79.1645C103.008 79.1645 115.003 78.1409 117.885 76.5305C120.772 74.9135 127.991 68.9807 129.422 66.2232C132.148 60.9747 125.651 56.3786 123.067 58.9211H123.073Z" fill="#407BFF"/>
<g opacity="0.3">
<path d="M123.073 58.9211C120.166 61.529 115.693 69.333 113.695 69.8479C111.697 70.363 102.596 74.34 102.596 74.34L103.008 79.1645C103.008 79.1645 115.003 78.1409 117.885 76.5305C120.772 74.9135 127.991 68.9807 129.422 66.2232C132.148 60.9747 125.651 56.3786 123.067 58.9211H123.073Z" fill="white"/>
</g>
</g>
</g>
</g>
</g>
<defs>
<clipPath id="clip0_1487_5831">
<rect width="174" height="176" fill="white"/>
</clipPath>
<clipPath id="clip1_1487_5831">
<rect width="250" height="146" fill="white" transform="translate(-27 30)"/>
</clipPath>
</defs>
</svg>
