<svg id="Icon_awesome-instagram" data-name="Icon awesome-instagram" xmlns="http://www.w3.org/2000/svg" width="20.411" height="20.406" viewBox="0 0 20.411 20.406">
  <path id="Icon_awesome-instagram-2" data-name="Icon awesome-instagram" d="M10.2,7.209a5.232,5.232,0,1,0,5.232,5.232A5.224,5.224,0,0,0,10.2,7.209Zm0,8.633a3.4,3.4,0,1,1,3.4-3.4,3.408,3.408,0,0,1-3.4,3.4Zm6.666-8.847a1.22,1.22,0,1,1-1.22-1.22A1.218,1.218,0,0,1,16.869,6.995Zm3.465,1.239a6.039,6.039,0,0,0-1.648-4.276A6.079,6.079,0,0,0,14.41,2.309c-1.685-.1-6.735-.1-8.419,0A6.07,6.07,0,0,0,1.715,3.953,6.059,6.059,0,0,0,.066,8.229c-.1,1.685-.1,6.735,0,8.419a6.039,6.039,0,0,0,1.648,4.276,6.087,6.087,0,0,0,4.276,1.648c1.685.1,6.735.1,8.419,0a6.039,6.039,0,0,0,4.276-1.648,6.079,6.079,0,0,0,1.648-4.276c.1-1.685.1-6.73,0-8.415ZM18.157,18.456a3.444,3.444,0,0,1-1.94,1.94c-1.343.533-4.531.41-6.015.41s-4.676.118-6.015-.41a3.444,3.444,0,0,1-1.94-1.94c-.533-1.343-.41-4.531-.41-6.015s-.118-4.676.41-6.015a3.444,3.444,0,0,1,1.94-1.94c1.343-.533,4.531-.41,6.015-.41s4.676-.118,6.015.41a3.444,3.444,0,0,1,1.94,1.94c.533,1.343.41,4.531.41,6.015S18.69,17.117,18.157,18.456Z" transform="translate(0.005 -2.238)" fill="#e0f2ff"/>
</svg>
