<svg id="Icon_awesome-linkedin-in" data-name="Icon awesome-linkedin-in" xmlns="http://www.w3.org/2000/svg" width="19.654" height="20.407" viewBox="0 0 19.654 20.407">
  <path id="Icon_awesome-linkedin-in-2" data-name="Icon awesome-linkedin-in" d="M4.4,20.408H.325V6.783H4.4ZM2.36,4.924A2.427,2.427,0,0,1,0,2.451,2.406,2.406,0,0,1,2.36,0a2.406,2.406,0,0,1,2.36,2.45A2.428,2.428,0,0,1,2.36,4.924ZM19.65,20.408H15.584V13.775c0-1.581-.031-3.608-2.119-3.608-2.119,0-2.443,1.717-2.443,3.494v6.746H6.952V6.783H10.86V8.641h.057a4.256,4.256,0,0,1,3.855-2.2c4.124,0,4.882,2.82,4.882,6.482v7.484Z" transform="translate(0 -0.001)" fill="#e0f2ff"/>
</svg>
