<svg width="20" height="19" viewBox="0 0 20 19" fill="none" xmlns="http://www.w3.org/2000/svg">
<path d="M5.52192 16.2725L5.83252 16.4261C7.1269 17.1936 8.57647 17.5518 10.0261 17.5518C14.582 17.5518 18.3096 13.8674 18.3096 9.36429C18.3096 7.21509 17.4294 5.11702 15.8763 3.58183C14.3232 2.04665 12.2522 1.17676 10.0261 1.17676C5.47019 1.17676 1.74255 4.86114 1.79436 9.41549C1.79436 10.9506 2.2603 12.4347 3.03685 13.7139L3.24392 14.021L2.41564 17.0401L5.52192 16.2725Z" fill="#3EB837"/>
<path d="M16.7564 2.76329C14.9961 0.972301 12.5628 0 10.0778 0C4.79712 0 0.551805 4.24727 0.603535 9.41564C0.603535 11.0532 1.06948 12.6395 1.84611 14.0723L0.5 18.9337L5.52186 17.6544C6.9197 18.422 8.4728 18.7802 10.026 18.7802C15.255 18.7802 19.5003 14.5329 19.5003 9.36458C19.5003 6.85709 18.5166 4.50315 16.7564 2.76329H16.7564ZM10.0778 17.1939C8.67994 17.1939 7.28211 16.8358 6.09134 16.1193L5.78074 15.9658L2.778 16.7334L3.55455 13.8166L3.34748 13.5095C1.06948 9.87633 2.15671 5.06603 5.88427 2.81442C9.61183 0.562884 14.4266 1.63752 16.7046 5.32191C18.9825 9.00629 17.8953 13.7653 14.1678 16.0169C12.977 16.7845 11.5274 17.1938 10.0778 17.1938V17.1939ZM14.6337 11.5139L14.0642 11.258C14.0642 11.258 13.2359 10.8998 12.7182 10.6439C12.6664 10.6439 12.6147 10.5927 12.5628 10.5927C12.4075 10.5927 12.304 10.6439 12.2004 10.6951C12.2004 10.6951 12.1487 10.7462 11.4239 11.565C11.3721 11.6673 11.2685 11.7185 11.165 11.7185H11.1132C11.0615 11.7185 10.9579 11.6673 10.9061 11.6162L10.6473 11.5139C10.0778 11.258 9.5601 10.9509 9.14589 10.5416C9.04235 10.4392 8.88702 10.3369 8.78348 10.2345C8.42107 9.87633 8.05866 9.46692 7.79986 9.00637L7.74805 8.90403C7.69632 8.85283 7.69632 8.80169 7.64452 8.69936C7.64452 8.59702 7.64452 8.49469 7.69632 8.44348C7.69632 8.44348 7.90339 8.18761 8.05866 8.03414C8.16227 7.93173 8.214 7.77826 8.31753 7.67593C8.42107 7.52239 8.47287 7.31771 8.42107 7.16417C8.36934 6.9083 7.74805 5.52665 7.59279 5.21964C7.48918 5.0661 7.38572 5.01497 7.23038 4.96377H6.6609C6.55729 4.96377 6.45383 5.01497 6.35022 5.01497L6.29841 5.0661C6.19488 5.11731 6.09134 5.21964 5.98781 5.27078C5.88427 5.37319 5.83247 5.47545 5.72893 5.57786C5.36652 6.03841 5.15945 6.60129 5.15945 7.16417C5.15945 7.57352 5.26299 7.98293 5.41833 8.34115L5.47013 8.49469C5.93608 9.46692 6.55729 10.3369 7.38572 11.1044L7.59279 11.3091C7.74805 11.4626 7.90339 11.565 8.00693 11.7185C9.09416 12.6396 10.3367 13.3048 11.7345 13.6631C11.8898 13.7142 12.0969 13.7142 12.2522 13.7654H12.7699C13.0288 13.7654 13.3394 13.6631 13.5465 13.5607C13.7018 13.4584 13.8053 13.4584 13.9089 13.356L14.0125 13.2536C14.116 13.1513 14.2196 13.1002 14.3231 12.9978C14.4266 12.8955 14.5302 12.7932 14.582 12.6908C14.6855 12.4861 14.7372 12.2302 14.789 11.9744V11.6162C14.789 11.6162 14.7372 11.565 14.6337 11.5139Z" fill="white"/>
</svg>
