<svg id="Icon_awesome-twitter" data-name="Icon awesome-twitter" xmlns="http://www.w3.org/2000/svg" width="23.314" height="18.935" viewBox="0 0 23.314 18.935">
  <path id="Icon_awesome-twitter-2" data-name="Icon awesome-twitter" d="M20.917,8.1c.015.207.015.414.015.621A13.5,13.5,0,0,1,7.337,22.316,13.5,13.5,0,0,1,0,20.171a9.885,9.885,0,0,0,1.154.059,9.569,9.569,0,0,0,5.932-2.041,4.787,4.787,0,0,1-4.468-3.314,6.025,6.025,0,0,0,.9.074,5.054,5.054,0,0,0,1.257-.163A4.779,4.779,0,0,1,.947,10.1v-.059a4.812,4.812,0,0,0,2.16.606A4.785,4.785,0,0,1,1.627,4.254a13.582,13.582,0,0,0,9.852,5,5.394,5.394,0,0,1-.118-1.095A4.783,4.783,0,0,1,19.63,4.89a9.407,9.407,0,0,0,3.033-1.154,4.765,4.765,0,0,1-2.1,2.633,9.579,9.579,0,0,0,2.751-.74,10.271,10.271,0,0,1-2.4,2.47Z" transform="translate(0 -3.381)" fill="#e0f2ff"/>
</svg>
