<svg id="Icon_awesome-youtube" data-name="Icon awesome-youtube" xmlns="http://www.w3.org/2000/svg" width="24.868" height="17.485" viewBox="0 0 24.868 17.485">
  <path id="Icon_awesome-youtube-2" data-name="Icon awesome-youtube" d="M25.4,7.236a3.125,3.125,0,0,0-2.2-2.213C21.261,4.5,13.484,4.5,13.484,4.5s-7.776,0-9.716.523a3.125,3.125,0,0,0-2.2,2.213,32.779,32.779,0,0,0-.52,6.024,32.779,32.779,0,0,0,.52,6.025,3.078,3.078,0,0,0,2.2,2.178c1.939.523,9.716.523,9.716.523s7.776,0,9.716-.523a3.078,3.078,0,0,0,2.2-2.178,32.779,32.779,0,0,0,.52-6.024,32.779,32.779,0,0,0-.52-6.024ZM10.941,16.958v-7.4l6.5,3.7-6.5,3.7Z" transform="translate(-1.05 -4.5)" fill="#e0f2ff"/>
</svg>
