<svg xmlns="http://www.w3.org/2000/svg" width="149.462" height="48.977" viewBox="0 0 149.462 48.977">
  <g id="Group_5108" data-name="Group 5108" transform="translate(-172.486 -419.957)">
    <g id="Group_5084" data-name="Group 5084" transform="translate(316.087 429.412)">
      <path id="Path_1595" data-name="Path 1595" d="M881.429,467.142a3.008,3.008,0,1,1-2.081-.836A2.833,2.833,0,0,1,881.429,467.142ZM881.07,471a2.441,2.441,0,1,0-1.722.7A2.356,2.356,0,0,0,881.07,471Zm-1.194-1.421.894.967h-.615l-.85-.923h-.513v.923h-.5V467.8h1.231a1.237,1.237,0,0,1,.8.242.793.793,0,0,1,.3.652A.844.844,0,0,1,879.876,469.574Zm-.352-.4a.651.651,0,0,0,.425-.132.417.417,0,0,0,.161-.337.4.4,0,0,0-.161-.33.676.676,0,0,0-.425-.125h-.732v.923Z" transform="translate(-876.418 -466.306)" fill="#e0f2ff"/>
    </g>
    <g id="Group_5092" data-name="Group 5092" transform="translate(172.486 419.957)">
      <g id="Group_5089" data-name="Group 5089" transform="translate(0 0)">
        <g id="Group_5088" data-name="Group 5088">
          <g id="Group_5085" data-name="Group 5085">
            <path id="Path_1596" data-name="Path 1596" d="M194.32,427.022l-21.834-7.065v8.532a3.725,3.725,0,0,0,2.578,3.544l21.678,7.014v-8.7A3.5,3.5,0,0,0,194.32,427.022Z" transform="translate(-172.486 -419.957)" fill="#e0f2ff"/>
          </g>
          <g id="Group_5086" data-name="Group 5086" transform="translate(24.256 30.091)">
            <path id="Path_1597" data-name="Path 1597" d="M313.361,574.377l-21.973-6.915v8.74a3.41,3.41,0,0,0,2.387,3.253l21.907,6.894v-8.809A3.315,3.315,0,0,0,313.361,574.377Z" transform="translate(-291.388 -567.462)" fill="#e0f2ff"/>
          </g>
          <g id="Group_5087" data-name="Group 5087" transform="translate(8.902 12.641)">
            <path id="Path_1598" data-name="Path 1598" d="M243.685,494.455l-27.562,11.3v-8.807a3.63,3.63,0,0,1,2.253-3.359l28.455-11.665v7.842A5.067,5.067,0,0,1,243.685,494.455Z" transform="translate(-216.123 -481.924)" fill="#e0f2ff"/>
          </g>
        </g>
      </g>
      <g id="Group_5091" data-name="Group 5091" transform="translate(53.421 11.117)">
        <g id="Group_5090" data-name="Group 5090">
          <path id="Path_1599" data-name="Path 1599" d="M439.8,528.743l9.387-12.669v-2.66H437.124a2.278,2.278,0,0,0-2.275,2.275v.975h9.281l-9.776,12.959v2.37H446.5a2.82,2.82,0,0,0,2.817-2.817v-.433Z" transform="translate(-434.353 -505.466)" fill="#e0f2ff"/>
          <path id="Path_1600" data-name="Path 1600" d="M531.383,514.267a9.905,9.905,0,0,1-.019,13.93,9.813,9.813,0,0,1-7.012,2.723,9.925,9.925,0,0,1-7.068-2.723,9.837,9.837,0,0,1,0-13.93,9.963,9.963,0,0,1,7.068-2.7A9.831,9.831,0,0,1,531.383,514.267Zm-2.741,11.525a6.624,6.624,0,0,0,0-9.138,6.146,6.146,0,0,0-8.634,0,6.674,6.674,0,0,0,0,9.138,6.145,6.145,0,0,0,8.634,0Z" transform="translate(-498.066 -503.992)" fill="#e0f2ff"/>
          <path id="Path_1601" data-name="Path 1601" d="M622.845,500.931v-26.48h3.879v23.965a2.516,2.516,0,0,1-2.516,2.516Z" transform="translate(-584.393 -474.451)" fill="#e0f2ff"/>
          <path id="Path_1602" data-name="Path 1602" d="M664.629,531.928h-4.14l-7.944-18.537h2.081a3.2,3.2,0,0,1,2.956,1.968l5,11.944,5-11.944a3.2,3.2,0,0,1,2.956-1.968h2.081Z" transform="translate(-608.034 -505.447)" fill="#e0f2ff"/>
          <path id="Path_1603" data-name="Path 1603" d="M762.993,475.159a2.338,2.338,0,0,1,.709,1.716,2.29,2.29,0,0,1-.69,1.716,2.432,2.432,0,0,1-1.772.671,2.5,2.5,0,0,1-1.79-.671,2.259,2.259,0,0,1-.709-1.716,2.337,2.337,0,0,1,.709-1.716,2.427,2.427,0,0,1,1.79-.708A2.381,2.381,0,0,1,762.993,475.159ZM759.3,500.931v-18.5h3.879v15.389a3.109,3.109,0,0,1-3.11,3.11Z" transform="translate(-692.566 -474.451)" fill="#e0f2ff"/>
          <path id="Path_1604" data-name="Path 1604" d="M806.37,508.767a9.006,9.006,0,0,1-4.587,1.417,6.136,6.136,0,0,1-6.676-6.826V494.37h-4.214v-3.207h4.214v-5.744h3.879v5.744h6.487l-.008.167a3.185,3.185,0,0,1-3.182,3.04h-3.3V503.1a3.606,3.606,0,0,0,.82,2.555,2.918,2.918,0,0,0,2.238.877,5.631,5.631,0,0,0,3.133-1.007Z" transform="translate(-718.159 -483.182)" fill="#e0f2ff"/>
        </g>
      </g>
    </g>
  </g>
</svg>
