<svg id="Layer_1" enable-background="new 0 0 134 134" viewBox="0 0 134 134" xmlns="http://www.w3.org/2000/svg"><path d="m49 86h10c4.9257813 0 9.15625 3.9853516 9.8886719 9h-29.7773438c.7324219-5.0146484 4.9628907-9 9.8886719-9zm31-30c5.5136719 0 10-4.4863281 10-10s-4.4863281-10-10-10-10 4.4863281-10 10 4.4863281 10 10 10zm52 11c0 35.8984985-29.1015015 65-65 65s-65-29.1015015-65-65 29.1015015-65 65-65 65 29.1015015 65 65zm-108-22c0 1.1044922.8955078 2 2 2s2-.8955078 2-2v-8c0-1.1025391.8974609-2 2-2h8.171875l-2.5859375 2.5859375c-.78125.78125-.78125 2.046875 0 2.828125.390625.390625.9023438.5859375 1.4140625.5859375s1.0234375-.1953125 1.4140625-.5859375l6-6c.78125-.78125.78125-2.046875 0-2.828125l-6-6c-.78125-.78125-2.046875-.78125-2.828125 0s-.78125 2.046875 0 2.828125l2.5859375 2.5859375h-8.171875c-3.3085938 0-6 2.6914063-6 6zm86 44c0-1.1044922-.8955078-2-2-2s-2 .8955078-2 2v8c0 1.1025391-.8974609 2-2 2h-8.171875l2.5859375-2.5859375c.78125-.78125.78125-2.046875 0-2.828125s-2.046875-.78125-2.828125 0l-6 6c-.78125.78125-.78125 2.046875 0 2.828125l6 6c.390625.390625.9023438.5859375 1.4140625.5859375s1.0234375-.1953125 1.4140625-.5859375c.78125-.78125.78125-2.046875 0-2.828125l-2.5859375-2.5859375h8.171875c3.3085938 0 6-2.6914063 6-6zm3-35c0-18.1962891-14.8037109-33-33-33-16.0199585 0-29.4046631 11.4762573-32.37854 26.6380615-15.1517945 2.9811402-26.62146 16.3493042-26.62146 32.3619385 0 18.1962891 14.8037109 33 33 33 16.015564 0 29.4006348-11.4689331 32.3793335-26.6245117 15.1531982-2.9807129 26.6206665-16.3616333 26.6206665-32.3754883zm-69 18c0 5.5136719 4.4863281 10 10 10 2.1809082 0 4.1903076-.7142944 5.8336182-1.9060669-5.3190308-4.1202393-9.3527222-9.8218994-11.3782959-16.3996582-2.6820069 1.7943726-4.4553223 4.843689-4.4553223 8.3057251zm19.2851563 10.4367065c-.0773315.069397-.1450195.1488647-.2241211.2162476 5.6817016 1.8575439 9.9389648 7.4649048 9.9389648 13.887085v.4599609c0 1.1044922-.8955078 2-2 2h-34c-1.1044922 0-2-.8955078-2-2v-.4599609c0-6.4221802 4.2572632-12.029541 9.9389648-13.887085-3.0167846-2.5699463-4.9389648-6.3886108-4.9389648-10.6529541 0-5.368103 3.0424805-10.0283203 7.489624-12.3741455-.3157348-1.8297119-.489624-3.7073364-.489624-5.6258545 0-.7224731.0316162-1.4373779.0775757-2.1484375-12.6566162 3.1133423-22.0775757 14.5450439-22.0775757 28.1484375 0 15.9902344 13.0097656 29 29 29 13.6035156 0 25.0357666-9.4209595 28.1490479-22.0776367-.7112427.0459595-1.4263306.0776367-2.1490479.0776367-6.0969849 0-11.8088989-1.6685181-16.7148437-4.5632935zm45.7148437-28.4367065c0 15.9902344-13.0097656 29-29 29s-29-13.0097656-29-29 13.0097656-29 29-29 29 13.0097656 29 29zm-10 16.5400391c0-6.4221802-4.2572632-12.029541-9.9389648-13.887085 3.0167846-2.5699463 4.9389648-6.3886108 4.9389648-10.6529541 0-7.7197266-6.2802734-14-14-14s-14 6.2802734-14 14c0 4.2643433 1.9221802 8.0830078 4.9389648 10.6529541-5.6817016 1.8575439-9.9389648 7.4649048-9.9389648 13.887085v.4599609c0 1.1044922.8955078 2 2 2h34c1.1044922 0 2-.8955078 2-2zm-14-10.5400391h-10c-4.9257813 0-9.15625 3.9853516-9.8886719 9h29.7773438c-.7324219-5.0146484-4.9628906-9-9.8886719-9z"/></svg>